%TF.GenerationSoftware,KiCad,Pcbnew,(5.1.6)-1*%
%TF.CreationDate,2021-12-10T22:34:56-05:00*%
%TF.ProjectId,base,62617365-2e6b-4696-9361-645f70636258,rev?*%
%TF.SameCoordinates,Original*%
%TF.FileFunction,Soldermask,Bot*%
%TF.FilePolarity,Negative*%
%FSLAX46Y46*%
G04 Gerber Fmt 4.6, Leading zero omitted, Abs format (unit mm)*
G04 Created by KiCad (PCBNEW (5.1.6)-1) date 2021-12-10 22:34:56*
%MOMM*%
%LPD*%
G01*
G04 APERTURE LIST*
%ADD10C,2.300000*%
%ADD11C,3.300000*%
%ADD12O,3.108000X1.584000*%
%ADD13R,0.750000X0.500000*%
G04 APERTURE END LIST*
D10*
%TO.C,H7*%
X161750000Y-105093266D03*
%TD*%
%TO.C,H6*%
X177500000Y-96000000D03*
%TD*%
%TO.C,H5*%
X161750000Y-86906734D03*
%TD*%
D11*
%TO.C,H4*%
X162000000Y-76000000D03*
%TD*%
%TO.C,H3*%
X162000000Y-116000000D03*
%TD*%
%TO.C,H2*%
X122000000Y-116000000D03*
%TD*%
%TO.C,H1*%
X122000000Y-76000000D03*
%TD*%
%TO.C,C1*%
G36*
G01*
X160518750Y-96025000D02*
X161481250Y-96025000D01*
G75*
G02*
X161750000Y-96293750I0J-268750D01*
G01*
X161750000Y-96831250D01*
G75*
G02*
X161481250Y-97100000I-268750J0D01*
G01*
X160518750Y-97100000D01*
G75*
G02*
X160250000Y-96831250I0J268750D01*
G01*
X160250000Y-96293750D01*
G75*
G02*
X160518750Y-96025000I268750J0D01*
G01*
G37*
G36*
G01*
X160518750Y-97900000D02*
X161481250Y-97900000D01*
G75*
G02*
X161750000Y-98168750I0J-268750D01*
G01*
X161750000Y-98706250D01*
G75*
G02*
X161481250Y-98975000I-268750J0D01*
G01*
X160518750Y-98975000D01*
G75*
G02*
X160250000Y-98706250I0J268750D01*
G01*
X160250000Y-98168750D01*
G75*
G02*
X160518750Y-97900000I268750J0D01*
G01*
G37*
%TD*%
%TO.C,R1*%
G36*
G01*
X155481250Y-87600000D02*
X154518750Y-87600000D01*
G75*
G02*
X154250000Y-87331250I0J268750D01*
G01*
X154250000Y-86793750D01*
G75*
G02*
X154518750Y-86525000I268750J0D01*
G01*
X155481250Y-86525000D01*
G75*
G02*
X155750000Y-86793750I0J-268750D01*
G01*
X155750000Y-87331250D01*
G75*
G02*
X155481250Y-87600000I-268750J0D01*
G01*
G37*
G36*
G01*
X155481250Y-89475000D02*
X154518750Y-89475000D01*
G75*
G02*
X154250000Y-89206250I0J268750D01*
G01*
X154250000Y-88668750D01*
G75*
G02*
X154518750Y-88400000I268750J0D01*
G01*
X155481250Y-88400000D01*
G75*
G02*
X155750000Y-88668750I0J-268750D01*
G01*
X155750000Y-89206250D01*
G75*
G02*
X155481250Y-89475000I-268750J0D01*
G01*
G37*
%TD*%
%TO.C,R2*%
G36*
G01*
X156768750Y-92337500D02*
X157731250Y-92337500D01*
G75*
G02*
X158000000Y-92606250I0J-268750D01*
G01*
X158000000Y-93143750D01*
G75*
G02*
X157731250Y-93412500I-268750J0D01*
G01*
X156768750Y-93412500D01*
G75*
G02*
X156500000Y-93143750I0J268750D01*
G01*
X156500000Y-92606250D01*
G75*
G02*
X156768750Y-92337500I268750J0D01*
G01*
G37*
G36*
G01*
X156768750Y-94212500D02*
X157731250Y-94212500D01*
G75*
G02*
X158000000Y-94481250I0J-268750D01*
G01*
X158000000Y-95018750D01*
G75*
G02*
X157731250Y-95287500I-268750J0D01*
G01*
X156768750Y-95287500D01*
G75*
G02*
X156500000Y-95018750I0J268750D01*
G01*
X156500000Y-94481250D01*
G75*
G02*
X156768750Y-94212500I268750J0D01*
G01*
G37*
%TD*%
%TO.C,R3*%
G36*
G01*
X157731250Y-97787500D02*
X156768750Y-97787500D01*
G75*
G02*
X156500000Y-97518750I0J268750D01*
G01*
X156500000Y-96981250D01*
G75*
G02*
X156768750Y-96712500I268750J0D01*
G01*
X157731250Y-96712500D01*
G75*
G02*
X158000000Y-96981250I0J-268750D01*
G01*
X158000000Y-97518750D01*
G75*
G02*
X157731250Y-97787500I-268750J0D01*
G01*
G37*
G36*
G01*
X157731250Y-99662500D02*
X156768750Y-99662500D01*
G75*
G02*
X156500000Y-99393750I0J268750D01*
G01*
X156500000Y-98856250D01*
G75*
G02*
X156768750Y-98587500I268750J0D01*
G01*
X157731250Y-98587500D01*
G75*
G02*
X158000000Y-98856250I0J-268750D01*
G01*
X158000000Y-99393750D01*
G75*
G02*
X157731250Y-99662500I-268750J0D01*
G01*
G37*
%TD*%
%TO.C,R4*%
G36*
G01*
X154518750Y-82087500D02*
X155481250Y-82087500D01*
G75*
G02*
X155750000Y-82356250I0J-268750D01*
G01*
X155750000Y-82893750D01*
G75*
G02*
X155481250Y-83162500I-268750J0D01*
G01*
X154518750Y-83162500D01*
G75*
G02*
X154250000Y-82893750I0J268750D01*
G01*
X154250000Y-82356250D01*
G75*
G02*
X154518750Y-82087500I268750J0D01*
G01*
G37*
G36*
G01*
X154518750Y-83962500D02*
X155481250Y-83962500D01*
G75*
G02*
X155750000Y-84231250I0J-268750D01*
G01*
X155750000Y-84768750D01*
G75*
G02*
X155481250Y-85037500I-268750J0D01*
G01*
X154518750Y-85037500D01*
G75*
G02*
X154250000Y-84768750I0J268750D01*
G01*
X154250000Y-84231250D01*
G75*
G02*
X154518750Y-83962500I268750J0D01*
G01*
G37*
%TD*%
D12*
%TO.C,U1*%
X150382000Y-74423180D03*
X150382000Y-76963180D03*
X150382000Y-79503180D03*
X150382000Y-82000000D03*
X150382000Y-84540000D03*
X150382000Y-87123180D03*
X150382000Y-89663180D03*
X133618000Y-89620000D03*
X133618000Y-87080000D03*
X133618000Y-84540000D03*
X133618000Y-82000000D03*
X133618000Y-79460000D03*
X133618000Y-76920000D03*
X133618000Y-74380000D03*
%TD*%
D13*
%TO.C,U2*%
X154950000Y-95350000D03*
X154950000Y-96650000D03*
X153050000Y-96000000D03*
X154950000Y-96000000D03*
X153050000Y-96650000D03*
X153050000Y-95350000D03*
%TD*%
M02*
