%TF.GenerationSoftware,KiCad,Pcbnew,(5.1.6)-1*%
%TF.CreationDate,2021-12-10T22:34:56-05:00*%
%TF.ProjectId,base,62617365-2e6b-4696-9361-645f70636258,rev?*%
%TF.SameCoordinates,Original*%
%TF.FileFunction,Legend,Bot*%
%TF.FilePolarity,Positive*%
%FSLAX46Y46*%
G04 Gerber Fmt 4.6, Leading zero omitted, Abs format (unit mm)*
G04 Created by KiCad (PCBNEW (5.1.6)-1) date 2021-12-10 22:34:56*
%MOMM*%
%LPD*%
G01*
G04 APERTURE LIST*
%ADD10C,0.120000*%
%ADD11C,0.127000*%
%ADD12C,0.150000*%
G04 APERTURE END LIST*
D10*
%TO.C,C1*%
X161710000Y-97241422D02*
X161710000Y-97758578D01*
X160290000Y-97241422D02*
X160290000Y-97758578D01*
%TO.C,R1*%
X155710000Y-88258578D02*
X155710000Y-87741422D01*
X154290000Y-88258578D02*
X154290000Y-87741422D01*
%TO.C,R2*%
X157960000Y-93553922D02*
X157960000Y-94071078D01*
X156540000Y-93553922D02*
X156540000Y-94071078D01*
%TO.C,R3*%
X157960000Y-98446078D02*
X157960000Y-97928922D01*
X156540000Y-98446078D02*
X156540000Y-97928922D01*
%TO.C,R4*%
X155710000Y-83303922D02*
X155710000Y-83821078D01*
X154290000Y-83303922D02*
X154290000Y-83821078D01*
%TO.C,U1*%
X150890000Y-90636000D02*
X150890000Y-73364000D01*
X134888000Y-92414000D02*
X149112000Y-92414000D01*
X133110000Y-73364000D02*
X133110000Y-90636000D01*
X149112000Y-71586000D02*
X134888000Y-71586000D01*
D11*
X146572000Y-77682000D02*
X146572000Y-70062000D01*
X137428000Y-77682000D02*
X146572000Y-77682000D01*
X137428000Y-70062000D02*
X137428000Y-77682000D01*
D10*
X148000000Y-79144000D02*
X136000000Y-79144000D01*
X136000000Y-79144000D02*
X136000000Y-91144000D01*
X136000000Y-91144000D02*
X148000000Y-91144000D01*
X148000000Y-91144000D02*
X148000000Y-79144000D01*
D11*
X137428000Y-70062000D02*
X146572000Y-70062000D01*
D10*
X148342000Y-74380000D02*
G75*
G03*
X148342000Y-74380000I-500000J0D01*
G01*
X133110000Y-90636000D02*
G75*
G03*
X134888000Y-92414000I1778000J0D01*
G01*
X149112000Y-92414000D02*
G75*
G03*
X150890000Y-90636000I0J1778000D01*
G01*
X150890000Y-73364000D02*
G75*
G03*
X149112000Y-71586000I-1778000J0D01*
G01*
X134888000Y-71586000D02*
G75*
G03*
X133110000Y-73364000I0J-1778000D01*
G01*
%TO.C,U2*%
X154700000Y-97160000D02*
X153300000Y-97160000D01*
X153300000Y-94840000D02*
X155200000Y-94840000D01*
%TO.C,C1*%
D12*
X163357142Y-97333333D02*
X163404761Y-97285714D01*
X163452380Y-97142857D01*
X163452380Y-97047619D01*
X163404761Y-96904761D01*
X163309523Y-96809523D01*
X163214285Y-96761904D01*
X163023809Y-96714285D01*
X162880952Y-96714285D01*
X162690476Y-96761904D01*
X162595238Y-96809523D01*
X162500000Y-96904761D01*
X162452380Y-97047619D01*
X162452380Y-97142857D01*
X162500000Y-97285714D01*
X162547619Y-97333333D01*
X163452380Y-98285714D02*
X163452380Y-97714285D01*
X163452380Y-98000000D02*
X162452380Y-98000000D01*
X162595238Y-97904761D01*
X162690476Y-97809523D01*
X162738095Y-97714285D01*
%TO.C,R1*%
X156197619Y-88166666D02*
X156673809Y-88500000D01*
X156197619Y-88738095D02*
X157197619Y-88738095D01*
X157197619Y-88357142D01*
X157150000Y-88261904D01*
X157102380Y-88214285D01*
X157007142Y-88166666D01*
X156864285Y-88166666D01*
X156769047Y-88214285D01*
X156721428Y-88261904D01*
X156673809Y-88357142D01*
X156673809Y-88738095D01*
X156197619Y-87214285D02*
X156197619Y-87785714D01*
X156197619Y-87500000D02*
X157197619Y-87500000D01*
X157054761Y-87595238D01*
X156959523Y-87690476D01*
X156911904Y-87785714D01*
%TO.C,R2*%
X159702380Y-93645833D02*
X159226190Y-93312500D01*
X159702380Y-93074404D02*
X158702380Y-93074404D01*
X158702380Y-93455357D01*
X158750000Y-93550595D01*
X158797619Y-93598214D01*
X158892857Y-93645833D01*
X159035714Y-93645833D01*
X159130952Y-93598214D01*
X159178571Y-93550595D01*
X159226190Y-93455357D01*
X159226190Y-93074404D01*
X158797619Y-94026785D02*
X158750000Y-94074404D01*
X158702380Y-94169642D01*
X158702380Y-94407738D01*
X158750000Y-94502976D01*
X158797619Y-94550595D01*
X158892857Y-94598214D01*
X158988095Y-94598214D01*
X159130952Y-94550595D01*
X159702380Y-93979166D01*
X159702380Y-94598214D01*
%TO.C,R3*%
X159352380Y-98020833D02*
X158876190Y-97687500D01*
X159352380Y-97449404D02*
X158352380Y-97449404D01*
X158352380Y-97830357D01*
X158400000Y-97925595D01*
X158447619Y-97973214D01*
X158542857Y-98020833D01*
X158685714Y-98020833D01*
X158780952Y-97973214D01*
X158828571Y-97925595D01*
X158876190Y-97830357D01*
X158876190Y-97449404D01*
X158352380Y-98354166D02*
X158352380Y-98973214D01*
X158733333Y-98639880D01*
X158733333Y-98782738D01*
X158780952Y-98877976D01*
X158828571Y-98925595D01*
X158923809Y-98973214D01*
X159161904Y-98973214D01*
X159257142Y-98925595D01*
X159304761Y-98877976D01*
X159352380Y-98782738D01*
X159352380Y-98497023D01*
X159304761Y-98401785D01*
X159257142Y-98354166D01*
%TO.C,R4*%
X153802380Y-83395833D02*
X153326190Y-83062500D01*
X153802380Y-82824404D02*
X152802380Y-82824404D01*
X152802380Y-83205357D01*
X152850000Y-83300595D01*
X152897619Y-83348214D01*
X152992857Y-83395833D01*
X153135714Y-83395833D01*
X153230952Y-83348214D01*
X153278571Y-83300595D01*
X153326190Y-83205357D01*
X153326190Y-82824404D01*
X153135714Y-84252976D02*
X153802380Y-84252976D01*
X152754761Y-84014880D02*
X153469047Y-83776785D01*
X153469047Y-84395833D01*
%TO.C,U1*%
D10*
X142914285Y-83193095D02*
X142914285Y-84245476D01*
X142857142Y-84369285D01*
X142800000Y-84431190D01*
X142685714Y-84493095D01*
X142457142Y-84493095D01*
X142342857Y-84431190D01*
X142285714Y-84369285D01*
X142228571Y-84245476D01*
X142228571Y-83193095D01*
X141028571Y-84493095D02*
X141714285Y-84493095D01*
X141371428Y-84493095D02*
X141371428Y-83193095D01*
X141485714Y-83378809D01*
X141600000Y-83502619D01*
X141714285Y-83564523D01*
X143828571Y-85733095D02*
X143028571Y-87033095D01*
X143028571Y-85733095D02*
X143828571Y-87033095D01*
X142571428Y-87033095D02*
X142571428Y-85733095D01*
X142057142Y-86661666D02*
X141485714Y-86661666D01*
X142171428Y-87033095D02*
X141771428Y-85733095D01*
X141371428Y-87033095D01*
X140742857Y-85733095D02*
X140514285Y-85733095D01*
X140400000Y-85795000D01*
X140285714Y-85918809D01*
X140228571Y-86166428D01*
X140228571Y-86599761D01*
X140285714Y-86847380D01*
X140400000Y-86971190D01*
X140514285Y-87033095D01*
X140742857Y-87033095D01*
X140857142Y-86971190D01*
X140971428Y-86847380D01*
X141028571Y-86599761D01*
X141028571Y-86166428D01*
X140971428Y-85918809D01*
X140857142Y-85795000D01*
X140742857Y-85733095D01*
%TO.C,U2*%
D12*
X154761904Y-93452380D02*
X154761904Y-94261904D01*
X154714285Y-94357142D01*
X154666666Y-94404761D01*
X154571428Y-94452380D01*
X154380952Y-94452380D01*
X154285714Y-94404761D01*
X154238095Y-94357142D01*
X154190476Y-94261904D01*
X154190476Y-93452380D01*
X153761904Y-93547619D02*
X153714285Y-93500000D01*
X153619047Y-93452380D01*
X153380952Y-93452380D01*
X153285714Y-93500000D01*
X153238095Y-93547619D01*
X153190476Y-93642857D01*
X153190476Y-93738095D01*
X153238095Y-93880952D01*
X153809523Y-94452380D01*
X153190476Y-94452380D01*
%TD*%
M02*
