%TF.GenerationSoftware,KiCad,Pcbnew,(5.1.6)-1*%
%TF.CreationDate,2021-12-10T22:34:56-05:00*%
%TF.ProjectId,base,62617365-2e6b-4696-9361-645f70636258,rev?*%
%TF.SameCoordinates,Original*%
%TF.FileFunction,Legend,Top*%
%TF.FilePolarity,Positive*%
%FSLAX46Y46*%
G04 Gerber Fmt 4.6, Leading zero omitted, Abs format (unit mm)*
G04 Created by KiCad (PCBNEW (5.1.6)-1) date 2021-12-10 22:34:56*
%MOMM*%
%LPD*%
G01*
G04 APERTURE LIST*
%ADD10C,0.120000*%
%ADD11C,0.150000*%
G04 APERTURE END LIST*
D10*
%TO.C,J1*%
X144778841Y-98603501D02*
X149221159Y-98603501D01*
X150632200Y-95592961D02*
X150632200Y-93396500D01*
X150632200Y-93396500D02*
X149662941Y-93396500D01*
X143367800Y-93396500D02*
X143367800Y-95592961D01*
X144337059Y-93396500D02*
X143367800Y-93396500D01*
X151648200Y-94023500D02*
G75*
G03*
X151648200Y-94023500I-381000J0D01*
G01*
%TO.C,U3*%
X164275000Y-93535000D02*
X162600000Y-93535000D01*
X164275000Y-93275000D02*
X164275000Y-93535000D01*
X167000000Y-93275000D02*
X164275000Y-93275000D01*
X169725000Y-93275000D02*
X169725000Y-93535000D01*
X167000000Y-93275000D02*
X169725000Y-93275000D01*
X164275000Y-98725000D02*
X164275000Y-98465000D01*
X167000000Y-98725000D02*
X164275000Y-98725000D01*
X169725000Y-98725000D02*
X169725000Y-98465000D01*
X167000000Y-98725000D02*
X169725000Y-98725000D01*
%TO.C,J1*%
D11*
X146666666Y-96202380D02*
X146666666Y-96916666D01*
X146619047Y-97059523D01*
X146523809Y-97154761D01*
X146380952Y-97202380D01*
X146285714Y-97202380D01*
X147666666Y-97202380D02*
X147095238Y-97202380D01*
X147380952Y-97202380D02*
X147380952Y-96202380D01*
X147285714Y-96345238D01*
X147190476Y-96440476D01*
X147095238Y-96488095D01*
X144309524Y-91475880D02*
X144880953Y-91475880D01*
X144595239Y-92475880D02*
X144595239Y-91475880D01*
X145404762Y-91475880D02*
X145595239Y-91475880D01*
X145690477Y-91523500D01*
X145785715Y-91618738D01*
X145833334Y-91809214D01*
X145833334Y-92142547D01*
X145785715Y-92333023D01*
X145690477Y-92428261D01*
X145595239Y-92475880D01*
X145404762Y-92475880D01*
X145309524Y-92428261D01*
X145214286Y-92333023D01*
X145166667Y-92142547D01*
X145166667Y-91809214D01*
X145214286Y-91618738D01*
X145309524Y-91523500D01*
X145404762Y-91475880D01*
X146976191Y-92190166D02*
X147452381Y-92190166D01*
X146880953Y-92475880D02*
X147214286Y-91475880D01*
X147547620Y-92475880D01*
X148452381Y-92475880D02*
X148119048Y-91999690D01*
X147880953Y-92475880D02*
X147880953Y-91475880D01*
X148261905Y-91475880D01*
X148357143Y-91523500D01*
X148404762Y-91571119D01*
X148452381Y-91666357D01*
X148452381Y-91809214D01*
X148404762Y-91904452D01*
X148357143Y-91952071D01*
X148261905Y-91999690D01*
X147880953Y-91999690D01*
X148880953Y-92475880D02*
X148880953Y-91475880D01*
X149214286Y-92190166D01*
X149547620Y-91475880D01*
X149547620Y-92475880D01*
X147000000Y-95452380D02*
X147000000Y-95690476D01*
X146761904Y-95595238D02*
X147000000Y-95690476D01*
X147238095Y-95595238D01*
X146857142Y-95880952D02*
X147000000Y-95690476D01*
X147142857Y-95880952D01*
%TO.C,H7*%
X160988095Y-105702380D02*
X160988095Y-104702380D01*
X160988095Y-105178571D02*
X161559523Y-105178571D01*
X161559523Y-105702380D02*
X161559523Y-104702380D01*
X161940476Y-104702380D02*
X162607142Y-104702380D01*
X162178571Y-105702380D01*
%TO.C,H6*%
X176738095Y-96452380D02*
X176738095Y-95452380D01*
X176738095Y-95928571D02*
X177309523Y-95928571D01*
X177309523Y-96452380D02*
X177309523Y-95452380D01*
X178214285Y-95452380D02*
X178023809Y-95452380D01*
X177928571Y-95500000D01*
X177880952Y-95547619D01*
X177785714Y-95690476D01*
X177738095Y-95880952D01*
X177738095Y-96261904D01*
X177785714Y-96357142D01*
X177833333Y-96404761D01*
X177928571Y-96452380D01*
X178119047Y-96452380D01*
X178214285Y-96404761D01*
X178261904Y-96357142D01*
X178309523Y-96261904D01*
X178309523Y-96023809D01*
X178261904Y-95928571D01*
X178214285Y-95880952D01*
X178119047Y-95833333D01*
X177928571Y-95833333D01*
X177833333Y-95880952D01*
X177785714Y-95928571D01*
X177738095Y-96023809D01*
%TO.C,H5*%
X160988095Y-87452380D02*
X160988095Y-86452380D01*
X160988095Y-86928571D02*
X161559523Y-86928571D01*
X161559523Y-87452380D02*
X161559523Y-86452380D01*
X162511904Y-86452380D02*
X162035714Y-86452380D01*
X161988095Y-86928571D01*
X162035714Y-86880952D01*
X162130952Y-86833333D01*
X162369047Y-86833333D01*
X162464285Y-86880952D01*
X162511904Y-86928571D01*
X162559523Y-87023809D01*
X162559523Y-87261904D01*
X162511904Y-87357142D01*
X162464285Y-87404761D01*
X162369047Y-87452380D01*
X162130952Y-87452380D01*
X162035714Y-87404761D01*
X161988095Y-87357142D01*
%TO.C,H4*%
X161238095Y-76452380D02*
X161238095Y-75452380D01*
X161238095Y-75928571D02*
X161809523Y-75928571D01*
X161809523Y-76452380D02*
X161809523Y-75452380D01*
X162714285Y-75785714D02*
X162714285Y-76452380D01*
X162476190Y-75404761D02*
X162238095Y-76119047D01*
X162857142Y-76119047D01*
%TO.C,H3*%
X160988095Y-116452380D02*
X160988095Y-115452380D01*
X160988095Y-115928571D02*
X161559523Y-115928571D01*
X161559523Y-116452380D02*
X161559523Y-115452380D01*
X161940476Y-115452380D02*
X162559523Y-115452380D01*
X162226190Y-115833333D01*
X162369047Y-115833333D01*
X162464285Y-115880952D01*
X162511904Y-115928571D01*
X162559523Y-116023809D01*
X162559523Y-116261904D01*
X162511904Y-116357142D01*
X162464285Y-116404761D01*
X162369047Y-116452380D01*
X162083333Y-116452380D01*
X161988095Y-116404761D01*
X161940476Y-116357142D01*
%TO.C,H2*%
X121238095Y-116452380D02*
X121238095Y-115452380D01*
X121238095Y-115928571D02*
X121809523Y-115928571D01*
X121809523Y-116452380D02*
X121809523Y-115452380D01*
X122238095Y-115547619D02*
X122285714Y-115500000D01*
X122380952Y-115452380D01*
X122619047Y-115452380D01*
X122714285Y-115500000D01*
X122761904Y-115547619D01*
X122809523Y-115642857D01*
X122809523Y-115738095D01*
X122761904Y-115880952D01*
X122190476Y-116452380D01*
X122809523Y-116452380D01*
%TO.C,H1*%
X121238095Y-76202380D02*
X121238095Y-75202380D01*
X121238095Y-75678571D02*
X121809523Y-75678571D01*
X121809523Y-76202380D02*
X121809523Y-75202380D01*
X122809523Y-76202380D02*
X122238095Y-76202380D01*
X122523809Y-76202380D02*
X122523809Y-75202380D01*
X122428571Y-75345238D01*
X122333333Y-75440476D01*
X122238095Y-75488095D01*
%TO.C,U3*%
X166238095Y-91892380D02*
X166238095Y-92701904D01*
X166285714Y-92797142D01*
X166333333Y-92844761D01*
X166428571Y-92892380D01*
X166619047Y-92892380D01*
X166714285Y-92844761D01*
X166761904Y-92797142D01*
X166809523Y-92701904D01*
X166809523Y-91892380D01*
X167190476Y-91892380D02*
X167809523Y-91892380D01*
X167476190Y-92273333D01*
X167619047Y-92273333D01*
X167714285Y-92320952D01*
X167761904Y-92368571D01*
X167809523Y-92463809D01*
X167809523Y-92701904D01*
X167761904Y-92797142D01*
X167714285Y-92844761D01*
X167619047Y-92892380D01*
X167333333Y-92892380D01*
X167238095Y-92844761D01*
X167190476Y-92797142D01*
%TD*%
M02*
