%TF.GenerationSoftware,KiCad,Pcbnew,(5.1.6)-1*%
%TF.CreationDate,2021-12-10T22:34:56-05:00*%
%TF.ProjectId,base,62617365-2e6b-4696-9361-645f70636258,rev?*%
%TF.SameCoordinates,Original*%
%TF.FileFunction,Copper,L1,Top*%
%TF.FilePolarity,Positive*%
%FSLAX46Y46*%
G04 Gerber Fmt 4.6, Leading zero omitted, Abs format (unit mm)*
G04 Created by KiCad (PCBNEW (5.1.6)-1) date 2021-12-10 22:34:56*
%MOMM*%
%LPD*%
G01*
G04 APERTURE LIST*
%TA.AperFunction,SMDPad,CuDef*%
%ADD10R,1.092200X2.895600*%
%TD*%
%TA.AperFunction,SMDPad,CuDef*%
%ADD11R,0.660400X1.701800*%
%TD*%
%TA.AperFunction,ViaPad*%
%ADD12C,0.800000*%
%TD*%
%TA.AperFunction,Conductor*%
%ADD13C,0.500000*%
%TD*%
%TA.AperFunction,Conductor*%
%ADD14C,0.250000*%
%TD*%
%TA.AperFunction,Conductor*%
%ADD15C,0.254000*%
%TD*%
G04 APERTURE END LIST*
D10*
%TO.P,J1,7*%
%TO.N,N/C*%
X150099999Y-97373501D03*
%TO.P,J1,6*%
X143900001Y-97373501D03*
D11*
%TO.P,J1,5*%
%TO.N,+3V3*%
X144999999Y-94023500D03*
%TO.P,J1,4*%
%TO.N,GND*%
X145999999Y-94023500D03*
%TO.P,J1,3*%
%TO.N,SCL*%
X147000000Y-94023500D03*
%TO.P,J1,2*%
%TO.N,SDA2*%
X148000001Y-94023500D03*
%TO.P,J1,1*%
%TO.N,GND*%
X149000001Y-94023500D03*
%TD*%
%TO.P,U3,1*%
%TO.N,+3V3*%
%TA.AperFunction,SMDPad,CuDef*%
G36*
G01*
X162600000Y-94245000D02*
X162600000Y-93945000D01*
G75*
G02*
X162750000Y-93795000I150000J0D01*
G01*
X164050000Y-93795000D01*
G75*
G02*
X164200000Y-93945000I0J-150000D01*
G01*
X164200000Y-94245000D01*
G75*
G02*
X164050000Y-94395000I-150000J0D01*
G01*
X162750000Y-94395000D01*
G75*
G02*
X162600000Y-94245000I0J150000D01*
G01*
G37*
%TD.AperFunction*%
%TO.P,U3,2*%
%TA.AperFunction,SMDPad,CuDef*%
G36*
G01*
X162600000Y-95515000D02*
X162600000Y-95215000D01*
G75*
G02*
X162750000Y-95065000I150000J0D01*
G01*
X164050000Y-95065000D01*
G75*
G02*
X164200000Y-95215000I0J-150000D01*
G01*
X164200000Y-95515000D01*
G75*
G02*
X164050000Y-95665000I-150000J0D01*
G01*
X162750000Y-95665000D01*
G75*
G02*
X162600000Y-95515000I0J150000D01*
G01*
G37*
%TD.AperFunction*%
%TO.P,U3,3*%
%TO.N,Net-(U3-Pad3)*%
%TA.AperFunction,SMDPad,CuDef*%
G36*
G01*
X162600000Y-96785000D02*
X162600000Y-96485000D01*
G75*
G02*
X162750000Y-96335000I150000J0D01*
G01*
X164050000Y-96335000D01*
G75*
G02*
X164200000Y-96485000I0J-150000D01*
G01*
X164200000Y-96785000D01*
G75*
G02*
X164050000Y-96935000I-150000J0D01*
G01*
X162750000Y-96935000D01*
G75*
G02*
X162600000Y-96785000I0J150000D01*
G01*
G37*
%TD.AperFunction*%
%TO.P,U3,4*%
%TO.N,GND*%
%TA.AperFunction,SMDPad,CuDef*%
G36*
G01*
X162600000Y-98055000D02*
X162600000Y-97755000D01*
G75*
G02*
X162750000Y-97605000I150000J0D01*
G01*
X164050000Y-97605000D01*
G75*
G02*
X164200000Y-97755000I0J-150000D01*
G01*
X164200000Y-98055000D01*
G75*
G02*
X164050000Y-98205000I-150000J0D01*
G01*
X162750000Y-98205000D01*
G75*
G02*
X162600000Y-98055000I0J150000D01*
G01*
G37*
%TD.AperFunction*%
%TO.P,U3,5*%
%TO.N,Net-(U3-Pad5)*%
%TA.AperFunction,SMDPad,CuDef*%
G36*
G01*
X169800000Y-98055000D02*
X169800000Y-97755000D01*
G75*
G02*
X169950000Y-97605000I150000J0D01*
G01*
X171250000Y-97605000D01*
G75*
G02*
X171400000Y-97755000I0J-150000D01*
G01*
X171400000Y-98055000D01*
G75*
G02*
X171250000Y-98205000I-150000J0D01*
G01*
X169950000Y-98205000D01*
G75*
G02*
X169800000Y-98055000I0J150000D01*
G01*
G37*
%TD.AperFunction*%
%TO.P,U3,6*%
%TO.N,SDA1*%
%TA.AperFunction,SMDPad,CuDef*%
G36*
G01*
X169800000Y-96785000D02*
X169800000Y-96485000D01*
G75*
G02*
X169950000Y-96335000I150000J0D01*
G01*
X171250000Y-96335000D01*
G75*
G02*
X171400000Y-96485000I0J-150000D01*
G01*
X171400000Y-96785000D01*
G75*
G02*
X171250000Y-96935000I-150000J0D01*
G01*
X169950000Y-96935000D01*
G75*
G02*
X169800000Y-96785000I0J150000D01*
G01*
G37*
%TD.AperFunction*%
%TO.P,U3,7*%
%TO.N,SCL*%
%TA.AperFunction,SMDPad,CuDef*%
G36*
G01*
X169800000Y-95515000D02*
X169800000Y-95215000D01*
G75*
G02*
X169950000Y-95065000I150000J0D01*
G01*
X171250000Y-95065000D01*
G75*
G02*
X171400000Y-95215000I0J-150000D01*
G01*
X171400000Y-95515000D01*
G75*
G02*
X171250000Y-95665000I-150000J0D01*
G01*
X169950000Y-95665000D01*
G75*
G02*
X169800000Y-95515000I0J150000D01*
G01*
G37*
%TD.AperFunction*%
%TO.P,U3,8*%
%TO.N,GND*%
%TA.AperFunction,SMDPad,CuDef*%
G36*
G01*
X169800000Y-94245000D02*
X169800000Y-93945000D01*
G75*
G02*
X169950000Y-93795000I150000J0D01*
G01*
X171250000Y-93795000D01*
G75*
G02*
X171400000Y-93945000I0J-150000D01*
G01*
X171400000Y-94245000D01*
G75*
G02*
X171250000Y-94395000I-150000J0D01*
G01*
X169950000Y-94395000D01*
G75*
G02*
X169800000Y-94245000I0J150000D01*
G01*
G37*
%TD.AperFunction*%
%TD*%
D12*
%TO.N,+3V3*%
X145000000Y-92000000D03*
X160750000Y-93500000D03*
%TO.N,GND*%
X131000000Y-76250000D03*
X136250000Y-76250000D03*
X129500000Y-76250000D03*
X129500000Y-77750000D03*
X131000000Y-77750000D03*
X137750000Y-76250000D03*
X137750000Y-77750000D03*
X136250000Y-77750000D03*
X161000000Y-100000000D03*
X156250000Y-96000000D03*
%TO.N,SDA2*%
X148000000Y-92000000D03*
%TO.N,SCL*%
X147000000Y-92000000D03*
X168250020Y-94500000D03*
%TO.N,SDA1*%
X168250000Y-97000013D03*
%TO.N,SDA*%
X147000000Y-86500008D03*
X150249974Y-92000000D03*
%TO.N,SEL*%
X153000000Y-82500000D03*
X153000000Y-93250000D03*
%TD*%
D13*
%TO.N,+3V3*%
X163400000Y-95365000D02*
X163400000Y-94095000D01*
D14*
X144999999Y-94023500D02*
X145000000Y-92000000D01*
D13*
X163400000Y-94095000D02*
X162095000Y-94095000D01*
X161500000Y-93500000D02*
X160750000Y-93500000D01*
X162095000Y-94095000D02*
X161500000Y-93500000D01*
D14*
%TO.N,SDA2*%
X148000001Y-94023500D02*
X148000001Y-92000001D01*
X148000001Y-92000001D02*
X148000000Y-92000000D01*
%TO.N,SCL*%
X147000000Y-92000000D02*
X147000000Y-94023500D01*
X169115020Y-95365000D02*
X168250020Y-94500000D01*
X170600000Y-95365000D02*
X169115020Y-95365000D01*
%TO.N,SDA1*%
X168749987Y-97000013D02*
X168250000Y-97000013D01*
X170600000Y-96635000D02*
X169115000Y-96635000D01*
X169115000Y-96635000D02*
X168749987Y-97000013D01*
%TO.N,SDA*%
X150249974Y-89749982D02*
X150249974Y-92000000D01*
X147000000Y-86500008D02*
X150249974Y-89749982D01*
%TO.N,SEL*%
X153000000Y-82500000D02*
X153000000Y-93250000D01*
%TD*%
D15*
%TO.N,GND*%
G36*
X162772528Y-71706470D02*
G01*
X163520635Y-71911129D01*
X164220682Y-72245035D01*
X164850532Y-72697628D01*
X165390281Y-73254605D01*
X165822866Y-73898360D01*
X166134617Y-74608548D01*
X166316850Y-75367600D01*
X166365001Y-76023302D01*
X166365000Y-78739575D01*
X166365673Y-78746407D01*
X166369802Y-78937771D01*
X166370295Y-78942211D01*
X166375192Y-79007753D01*
X166492336Y-79888943D01*
X166496718Y-79908431D01*
X166498832Y-79928302D01*
X166517102Y-79999089D01*
X166788439Y-80845608D01*
X166796205Y-80864017D01*
X166801803Y-80883195D01*
X166832320Y-80949627D01*
X167249275Y-81734718D01*
X167260174Y-81751455D01*
X167269083Y-81769345D01*
X167310882Y-81829323D01*
X167860275Y-82528170D01*
X167873969Y-82542716D01*
X167885902Y-82558741D01*
X167937661Y-82610370D01*
X168602128Y-83200883D01*
X168618179Y-83212772D01*
X168632762Y-83226432D01*
X168692846Y-83268079D01*
X169451381Y-83731593D01*
X169469286Y-83740453D01*
X169486057Y-83751314D01*
X169552566Y-83781663D01*
X170381194Y-84103526D01*
X170384663Y-84104529D01*
X170401468Y-84111006D01*
X171717078Y-84571150D01*
X172942730Y-85157795D01*
X174096608Y-85875396D01*
X175164760Y-86715274D01*
X176134306Y-87667299D01*
X176993525Y-88719966D01*
X177732045Y-89860567D01*
X178340943Y-91075322D01*
X178812858Y-92349544D01*
X179142101Y-93667872D01*
X179324690Y-95014361D01*
X179358419Y-96372753D01*
X179242883Y-97726636D01*
X178979473Y-99059684D01*
X178571379Y-100355760D01*
X178023526Y-101599226D01*
X177342519Y-102775084D01*
X176536604Y-103869094D01*
X175615504Y-104868062D01*
X174590340Y-105759927D01*
X173473507Y-106533905D01*
X172278480Y-107180657D01*
X171010806Y-107695984D01*
X170420652Y-107882624D01*
X170215694Y-107946712D01*
X170211570Y-107948417D01*
X170149965Y-107971329D01*
X169335995Y-108328637D01*
X169318485Y-108338263D01*
X169299990Y-108345811D01*
X169237064Y-108383025D01*
X168499230Y-108878828D01*
X168483704Y-108891401D01*
X168466834Y-108902107D01*
X168411493Y-108949876D01*
X167773120Y-109568503D01*
X167760066Y-109583626D01*
X167745359Y-109597150D01*
X167699352Y-109653964D01*
X167180617Y-110375860D01*
X167170448Y-110393055D01*
X167158367Y-110408971D01*
X167123148Y-110473035D01*
X166740448Y-111275381D01*
X166733483Y-111294110D01*
X166724414Y-111311909D01*
X166701096Y-111381197D01*
X166466528Y-112238633D01*
X166462991Y-112258292D01*
X166457215Y-112277422D01*
X166446536Y-112349744D01*
X166367761Y-113232401D01*
X166365001Y-113260424D01*
X166365000Y-115971721D01*
X166293530Y-116772528D01*
X166088871Y-117520636D01*
X165754965Y-118220682D01*
X165302372Y-118850532D01*
X164745395Y-119390281D01*
X164101637Y-119822867D01*
X163391452Y-120134617D01*
X162632400Y-120316850D01*
X161976712Y-120365000D01*
X122028290Y-120365000D01*
X121227472Y-120293529D01*
X120479364Y-120088870D01*
X119779318Y-119754964D01*
X119149469Y-119302372D01*
X118609722Y-118745397D01*
X118177132Y-118101635D01*
X117865384Y-117391453D01*
X117683151Y-116632400D01*
X117635000Y-115976698D01*
X117635000Y-115778971D01*
X119755858Y-115778971D01*
X119755858Y-116221029D01*
X119842100Y-116654592D01*
X120011268Y-117063000D01*
X120256861Y-117430557D01*
X120569443Y-117743139D01*
X120937000Y-117988732D01*
X121345408Y-118157900D01*
X121778971Y-118244142D01*
X122221029Y-118244142D01*
X122654592Y-118157900D01*
X123063000Y-117988732D01*
X123430557Y-117743139D01*
X123743139Y-117430557D01*
X123988732Y-117063000D01*
X124157900Y-116654592D01*
X124244142Y-116221029D01*
X124244142Y-115778971D01*
X159755857Y-115778971D01*
X159755857Y-116221029D01*
X159842099Y-116654592D01*
X160011267Y-117063000D01*
X160256861Y-117430557D01*
X160569443Y-117743139D01*
X160937000Y-117988733D01*
X161345408Y-118157901D01*
X161778971Y-118244143D01*
X162221029Y-118244143D01*
X162654592Y-118157901D01*
X163063000Y-117988733D01*
X163430557Y-117743139D01*
X163743139Y-117430557D01*
X163988733Y-117063000D01*
X164157901Y-116654592D01*
X164244143Y-116221029D01*
X164244143Y-115778971D01*
X164157901Y-115345408D01*
X163988733Y-114937000D01*
X163743139Y-114569443D01*
X163430557Y-114256861D01*
X163063000Y-114011267D01*
X162654592Y-113842099D01*
X162221029Y-113755857D01*
X161778971Y-113755857D01*
X161345408Y-113842099D01*
X160937000Y-114011267D01*
X160569443Y-114256861D01*
X160256861Y-114569443D01*
X160011267Y-114937000D01*
X159842099Y-115345408D01*
X159755857Y-115778971D01*
X124244142Y-115778971D01*
X124157900Y-115345408D01*
X123988732Y-114937000D01*
X123743139Y-114569443D01*
X123430557Y-114256861D01*
X123063000Y-114011268D01*
X122654592Y-113842100D01*
X122221029Y-113755858D01*
X121778971Y-113755858D01*
X121345408Y-113842100D01*
X120937000Y-114011268D01*
X120569443Y-114256861D01*
X120256861Y-114569443D01*
X120011268Y-114937000D01*
X119842100Y-115345408D01*
X119755858Y-115778971D01*
X117635000Y-115778971D01*
X117635000Y-104922383D01*
X160015000Y-104922383D01*
X160015000Y-105264149D01*
X160081675Y-105599347D01*
X160212463Y-105915097D01*
X160402337Y-106199264D01*
X160644002Y-106440929D01*
X160928169Y-106630803D01*
X161243919Y-106761591D01*
X161579117Y-106828266D01*
X161920883Y-106828266D01*
X162256081Y-106761591D01*
X162571831Y-106630803D01*
X162855998Y-106440929D01*
X163097663Y-106199264D01*
X163287537Y-105915097D01*
X163418325Y-105599347D01*
X163485000Y-105264149D01*
X163485000Y-104922383D01*
X163418325Y-104587185D01*
X163287537Y-104271435D01*
X163097663Y-103987268D01*
X162855998Y-103745603D01*
X162571831Y-103555729D01*
X162256081Y-103424941D01*
X161920883Y-103358266D01*
X161579117Y-103358266D01*
X161243919Y-103424941D01*
X160928169Y-103555729D01*
X160644002Y-103745603D01*
X160402337Y-103987268D01*
X160212463Y-104271435D01*
X160081675Y-104587185D01*
X160015000Y-104922383D01*
X117635000Y-104922383D01*
X117635000Y-95925701D01*
X142715829Y-95925701D01*
X142715829Y-98821301D01*
X142728089Y-98945783D01*
X142764399Y-99065481D01*
X142823364Y-99175795D01*
X142902716Y-99272486D01*
X142999407Y-99351838D01*
X143109721Y-99410803D01*
X143229419Y-99447113D01*
X143353901Y-99459373D01*
X144446101Y-99459373D01*
X144570583Y-99447113D01*
X144690281Y-99410803D01*
X144800595Y-99351838D01*
X144897286Y-99272486D01*
X144976638Y-99175795D01*
X145035603Y-99065481D01*
X145071913Y-98945783D01*
X145084173Y-98821301D01*
X145084173Y-95925701D01*
X148915827Y-95925701D01*
X148915827Y-98821301D01*
X148928087Y-98945783D01*
X148964397Y-99065481D01*
X149023362Y-99175795D01*
X149102714Y-99272486D01*
X149199405Y-99351838D01*
X149309719Y-99410803D01*
X149429417Y-99447113D01*
X149553899Y-99459373D01*
X150646099Y-99459373D01*
X150770581Y-99447113D01*
X150890279Y-99410803D01*
X151000593Y-99351838D01*
X151097284Y-99272486D01*
X151176636Y-99175795D01*
X151235601Y-99065481D01*
X151271911Y-98945783D01*
X151284171Y-98821301D01*
X151284171Y-98205000D01*
X161961928Y-98205000D01*
X161974188Y-98329482D01*
X162010498Y-98449180D01*
X162069463Y-98559494D01*
X162148815Y-98656185D01*
X162245506Y-98735537D01*
X162355820Y-98794502D01*
X162475518Y-98830812D01*
X162600000Y-98843072D01*
X163114250Y-98840000D01*
X163273000Y-98681250D01*
X163273000Y-98032000D01*
X163527000Y-98032000D01*
X163527000Y-98681250D01*
X163685750Y-98840000D01*
X164200000Y-98843072D01*
X164324482Y-98830812D01*
X164444180Y-98794502D01*
X164554494Y-98735537D01*
X164651185Y-98656185D01*
X164730537Y-98559494D01*
X164789502Y-98449180D01*
X164825812Y-98329482D01*
X164838072Y-98205000D01*
X164835000Y-98190750D01*
X164676250Y-98032000D01*
X163527000Y-98032000D01*
X163273000Y-98032000D01*
X162123750Y-98032000D01*
X161965000Y-98190750D01*
X161961928Y-98205000D01*
X151284171Y-98205000D01*
X151284171Y-95925701D01*
X151271911Y-95801219D01*
X151235601Y-95681521D01*
X151176636Y-95571207D01*
X151097284Y-95474516D01*
X151000593Y-95395164D01*
X150890279Y-95336199D01*
X150770581Y-95299889D01*
X150646099Y-95287629D01*
X149812536Y-95287629D01*
X149860738Y-95228894D01*
X149919703Y-95118580D01*
X149956013Y-94998882D01*
X149968273Y-94874400D01*
X149965201Y-94309250D01*
X149806451Y-94150500D01*
X149127001Y-94150500D01*
X149127001Y-95350650D01*
X149184087Y-95407736D01*
X149102714Y-95474516D01*
X149023362Y-95571207D01*
X148964397Y-95681521D01*
X148928087Y-95801219D01*
X148915827Y-95925701D01*
X145084173Y-95925701D01*
X145071913Y-95801219D01*
X145035603Y-95681521D01*
X144976638Y-95571207D01*
X144928436Y-95512472D01*
X145330199Y-95512472D01*
X145454681Y-95500212D01*
X145499999Y-95486465D01*
X145545317Y-95500212D01*
X145669799Y-95512472D01*
X145714249Y-95509400D01*
X145872999Y-95350650D01*
X145872999Y-95205952D01*
X145919701Y-95118580D01*
X145956011Y-94998882D01*
X145968271Y-94874400D01*
X145968271Y-93172600D01*
X145956011Y-93048118D01*
X145919701Y-92928420D01*
X145872999Y-92841048D01*
X145872999Y-92696350D01*
X145816949Y-92640300D01*
X145917205Y-92490256D01*
X145995226Y-92301898D01*
X146000000Y-92277897D01*
X146004774Y-92301898D01*
X146082795Y-92490256D01*
X146183050Y-92640299D01*
X146126999Y-92696350D01*
X146126999Y-92841050D01*
X146080298Y-92928420D01*
X146043988Y-93048118D01*
X146031728Y-93172600D01*
X146031728Y-94874400D01*
X146043988Y-94998882D01*
X146080298Y-95118580D01*
X146126999Y-95205950D01*
X146126999Y-95350650D01*
X146285749Y-95509400D01*
X146330199Y-95512472D01*
X146454681Y-95500212D01*
X146500000Y-95486465D01*
X146545318Y-95500212D01*
X146669800Y-95512472D01*
X147330200Y-95512472D01*
X147454682Y-95500212D01*
X147500001Y-95486465D01*
X147545319Y-95500212D01*
X147669801Y-95512472D01*
X148330201Y-95512472D01*
X148454683Y-95500212D01*
X148500001Y-95486465D01*
X148545319Y-95500212D01*
X148669801Y-95512472D01*
X148714251Y-95509400D01*
X148873001Y-95350650D01*
X148873001Y-95205952D01*
X148919703Y-95118580D01*
X148956013Y-94998882D01*
X148968273Y-94874400D01*
X148968273Y-93172600D01*
X148956013Y-93048118D01*
X148919703Y-92928420D01*
X148873001Y-92841048D01*
X148873001Y-92696350D01*
X148816950Y-92640299D01*
X148917205Y-92490256D01*
X148995226Y-92301898D01*
X149035000Y-92101939D01*
X149035000Y-91898061D01*
X148995226Y-91698102D01*
X148917205Y-91509744D01*
X148803937Y-91340226D01*
X148659774Y-91196063D01*
X148490256Y-91082795D01*
X148301898Y-91004774D01*
X148101939Y-90965000D01*
X147898061Y-90965000D01*
X147698102Y-91004774D01*
X147509744Y-91082795D01*
X147500000Y-91089306D01*
X147490256Y-91082795D01*
X147301898Y-91004774D01*
X147101939Y-90965000D01*
X146898061Y-90965000D01*
X146698102Y-91004774D01*
X146509744Y-91082795D01*
X146340226Y-91196063D01*
X146196063Y-91340226D01*
X146082795Y-91509744D01*
X146004774Y-91698102D01*
X146000000Y-91722103D01*
X145995226Y-91698102D01*
X145917205Y-91509744D01*
X145803937Y-91340226D01*
X145659774Y-91196063D01*
X145490256Y-91082795D01*
X145301898Y-91004774D01*
X145101939Y-90965000D01*
X144898061Y-90965000D01*
X144698102Y-91004774D01*
X144509744Y-91082795D01*
X144340226Y-91196063D01*
X144196063Y-91340226D01*
X144082795Y-91509744D01*
X144004774Y-91698102D01*
X143965000Y-91898061D01*
X143965000Y-92101939D01*
X144004774Y-92301898D01*
X144082795Y-92490256D01*
X144196063Y-92659774D01*
X144240000Y-92703711D01*
X144240000Y-92703864D01*
X144218614Y-92721415D01*
X144139262Y-92818106D01*
X144080297Y-92928420D01*
X144043987Y-93048118D01*
X144031727Y-93172600D01*
X144031727Y-94874400D01*
X144043987Y-94998882D01*
X144080297Y-95118580D01*
X144139262Y-95228894D01*
X144187464Y-95287629D01*
X143353901Y-95287629D01*
X143229419Y-95299889D01*
X143109721Y-95336199D01*
X142999407Y-95395164D01*
X142902716Y-95474516D01*
X142823364Y-95571207D01*
X142764399Y-95681521D01*
X142728089Y-95801219D01*
X142715829Y-95925701D01*
X117635000Y-95925701D01*
X117635000Y-86398069D01*
X145965000Y-86398069D01*
X145965000Y-86601947D01*
X146004774Y-86801906D01*
X146082795Y-86990264D01*
X146196063Y-87159782D01*
X146340226Y-87303945D01*
X146509744Y-87417213D01*
X146698102Y-87495234D01*
X146898061Y-87535008D01*
X146960199Y-87535008D01*
X149489974Y-90064784D01*
X149489975Y-91296288D01*
X149446037Y-91340226D01*
X149332769Y-91509744D01*
X149254748Y-91698102D01*
X149214974Y-91898061D01*
X149214974Y-92101939D01*
X149254748Y-92301898D01*
X149332769Y-92490256D01*
X149364615Y-92537917D01*
X149330201Y-92534528D01*
X149285751Y-92537600D01*
X149127001Y-92696350D01*
X149127001Y-93896500D01*
X149806451Y-93896500D01*
X149965201Y-93737750D01*
X149968273Y-93172600D01*
X149956013Y-93048118D01*
X149938803Y-92991385D01*
X149948076Y-92995226D01*
X150148035Y-93035000D01*
X150351913Y-93035000D01*
X150551872Y-92995226D01*
X150740230Y-92917205D01*
X150909748Y-92803937D01*
X151053911Y-92659774D01*
X151167179Y-92490256D01*
X151245200Y-92301898D01*
X151284974Y-92101939D01*
X151284974Y-91898061D01*
X151245200Y-91698102D01*
X151167179Y-91509744D01*
X151053911Y-91340226D01*
X151009974Y-91296289D01*
X151009974Y-89787304D01*
X151013650Y-89749981D01*
X151009974Y-89712658D01*
X151009974Y-89712649D01*
X150998977Y-89600996D01*
X150955520Y-89457735D01*
X150884948Y-89325706D01*
X150789975Y-89209981D01*
X150760978Y-89186184D01*
X148035000Y-86460207D01*
X148035000Y-86398069D01*
X147995226Y-86198110D01*
X147917205Y-86009752D01*
X147803937Y-85840234D01*
X147659774Y-85696071D01*
X147490256Y-85582803D01*
X147301898Y-85504782D01*
X147101939Y-85465008D01*
X146898061Y-85465008D01*
X146698102Y-85504782D01*
X146509744Y-85582803D01*
X146340226Y-85696071D01*
X146196063Y-85840234D01*
X146082795Y-86009752D01*
X146004774Y-86198110D01*
X145965000Y-86398069D01*
X117635000Y-86398069D01*
X117635000Y-82398061D01*
X151965000Y-82398061D01*
X151965000Y-82601939D01*
X152004774Y-82801898D01*
X152082795Y-82990256D01*
X152196063Y-83159774D01*
X152240000Y-83203711D01*
X152240001Y-92546288D01*
X152196063Y-92590226D01*
X152082795Y-92759744D01*
X152004774Y-92948102D01*
X151965000Y-93148061D01*
X151965000Y-93351939D01*
X152004774Y-93551898D01*
X152082795Y-93740256D01*
X152196063Y-93909774D01*
X152340226Y-94053937D01*
X152509744Y-94167205D01*
X152698102Y-94245226D01*
X152898061Y-94285000D01*
X153101939Y-94285000D01*
X153301898Y-94245226D01*
X153490256Y-94167205D01*
X153659774Y-94053937D01*
X153803937Y-93909774D01*
X153917205Y-93740256D01*
X153995226Y-93551898D01*
X154025825Y-93398061D01*
X159715000Y-93398061D01*
X159715000Y-93601939D01*
X159754774Y-93801898D01*
X159832795Y-93990256D01*
X159946063Y-94159774D01*
X160090226Y-94303937D01*
X160259744Y-94417205D01*
X160448102Y-94495226D01*
X160648061Y-94535000D01*
X160851939Y-94535000D01*
X161051898Y-94495226D01*
X161187485Y-94439063D01*
X161438466Y-94690044D01*
X161466183Y-94723817D01*
X161600941Y-94834411D01*
X161754687Y-94916589D01*
X161921510Y-94967195D01*
X162003164Y-94975237D01*
X161977071Y-95061255D01*
X161961928Y-95215000D01*
X161961928Y-95515000D01*
X161977071Y-95668745D01*
X162021916Y-95816582D01*
X162094742Y-95952829D01*
X162133454Y-96000000D01*
X162094742Y-96047171D01*
X162021916Y-96183418D01*
X161977071Y-96331255D01*
X161961928Y-96485000D01*
X161961928Y-96785000D01*
X161977071Y-96938745D01*
X162021916Y-97086582D01*
X162093730Y-97220936D01*
X162069463Y-97250506D01*
X162010498Y-97360820D01*
X161974188Y-97480518D01*
X161961928Y-97605000D01*
X161965000Y-97619250D01*
X162123750Y-97778000D01*
X163273000Y-97778000D01*
X163273000Y-97758000D01*
X163527000Y-97758000D01*
X163527000Y-97778000D01*
X164676250Y-97778000D01*
X164835000Y-97619250D01*
X164838072Y-97605000D01*
X164825812Y-97480518D01*
X164789502Y-97360820D01*
X164730537Y-97250506D01*
X164706270Y-97220936D01*
X164778084Y-97086582D01*
X164822929Y-96938745D01*
X164826934Y-96898074D01*
X167215000Y-96898074D01*
X167215000Y-97101952D01*
X167254774Y-97301911D01*
X167332795Y-97490269D01*
X167446063Y-97659787D01*
X167590226Y-97803950D01*
X167759744Y-97917218D01*
X167948102Y-97995239D01*
X168148061Y-98035013D01*
X168351939Y-98035013D01*
X168551898Y-97995239D01*
X168740256Y-97917218D01*
X168909774Y-97803950D01*
X168993331Y-97720393D01*
X169042234Y-97705559D01*
X169173720Y-97635277D01*
X169161928Y-97755000D01*
X169161928Y-98055000D01*
X169177071Y-98208745D01*
X169221916Y-98356582D01*
X169294742Y-98492829D01*
X169392749Y-98612251D01*
X169512171Y-98710258D01*
X169648418Y-98783084D01*
X169796255Y-98827929D01*
X169950000Y-98843072D01*
X171250000Y-98843072D01*
X171403745Y-98827929D01*
X171551582Y-98783084D01*
X171687829Y-98710258D01*
X171807251Y-98612251D01*
X171905258Y-98492829D01*
X171978084Y-98356582D01*
X172022929Y-98208745D01*
X172038072Y-98055000D01*
X172038072Y-97755000D01*
X172022929Y-97601255D01*
X171978084Y-97453418D01*
X171905258Y-97317171D01*
X171866546Y-97270000D01*
X171905258Y-97222829D01*
X171978084Y-97086582D01*
X172022929Y-96938745D01*
X172038072Y-96785000D01*
X172038072Y-96485000D01*
X172022929Y-96331255D01*
X171978084Y-96183418D01*
X171905258Y-96047171D01*
X171866546Y-96000000D01*
X171905258Y-95952829D01*
X171971383Y-95829117D01*
X175765000Y-95829117D01*
X175765000Y-96170883D01*
X175831675Y-96506081D01*
X175962463Y-96821831D01*
X176152337Y-97105998D01*
X176394002Y-97347663D01*
X176678169Y-97537537D01*
X176993919Y-97668325D01*
X177329117Y-97735000D01*
X177670883Y-97735000D01*
X178006081Y-97668325D01*
X178321831Y-97537537D01*
X178605998Y-97347663D01*
X178847663Y-97105998D01*
X179037537Y-96821831D01*
X179168325Y-96506081D01*
X179235000Y-96170883D01*
X179235000Y-95829117D01*
X179168325Y-95493919D01*
X179037537Y-95178169D01*
X178847663Y-94894002D01*
X178605998Y-94652337D01*
X178321831Y-94462463D01*
X178006081Y-94331675D01*
X177670883Y-94265000D01*
X177329117Y-94265000D01*
X176993919Y-94331675D01*
X176678169Y-94462463D01*
X176394002Y-94652337D01*
X176152337Y-94894002D01*
X175962463Y-95178169D01*
X175831675Y-95493919D01*
X175765000Y-95829117D01*
X171971383Y-95829117D01*
X171978084Y-95816582D01*
X172022929Y-95668745D01*
X172038072Y-95515000D01*
X172038072Y-95215000D01*
X172022929Y-95061255D01*
X171978084Y-94913418D01*
X171906270Y-94779064D01*
X171930537Y-94749494D01*
X171989502Y-94639180D01*
X172025812Y-94519482D01*
X172038072Y-94395000D01*
X172035000Y-94380750D01*
X171876250Y-94222000D01*
X170727000Y-94222000D01*
X170727000Y-94242000D01*
X170473000Y-94242000D01*
X170473000Y-94222000D01*
X170453000Y-94222000D01*
X170453000Y-93968000D01*
X170473000Y-93968000D01*
X170473000Y-93318750D01*
X170727000Y-93318750D01*
X170727000Y-93968000D01*
X171876250Y-93968000D01*
X172035000Y-93809250D01*
X172038072Y-93795000D01*
X172025812Y-93670518D01*
X171989502Y-93550820D01*
X171930537Y-93440506D01*
X171851185Y-93343815D01*
X171754494Y-93264463D01*
X171644180Y-93205498D01*
X171524482Y-93169188D01*
X171400000Y-93156928D01*
X170885750Y-93160000D01*
X170727000Y-93318750D01*
X170473000Y-93318750D01*
X170314250Y-93160000D01*
X169800000Y-93156928D01*
X169675518Y-93169188D01*
X169555820Y-93205498D01*
X169445506Y-93264463D01*
X169348815Y-93343815D01*
X169269463Y-93440506D01*
X169210498Y-93550820D01*
X169174188Y-93670518D01*
X169161928Y-93795000D01*
X169165000Y-93809250D01*
X169323748Y-93967998D01*
X169165000Y-93967998D01*
X169165000Y-94006414D01*
X169053957Y-93840226D01*
X168909794Y-93696063D01*
X168740276Y-93582795D01*
X168551918Y-93504774D01*
X168351959Y-93465000D01*
X168148081Y-93465000D01*
X167948122Y-93504774D01*
X167759764Y-93582795D01*
X167590246Y-93696063D01*
X167446083Y-93840226D01*
X167332815Y-94009744D01*
X167254794Y-94198102D01*
X167215020Y-94398061D01*
X167215020Y-94601939D01*
X167254794Y-94801898D01*
X167332815Y-94990256D01*
X167446083Y-95159774D01*
X167590246Y-95303937D01*
X167759764Y-95417205D01*
X167948122Y-95495226D01*
X168148081Y-95535000D01*
X168210218Y-95535000D01*
X168551221Y-95876003D01*
X168575019Y-95905001D01*
X168690744Y-95999974D01*
X168690783Y-95999995D01*
X168690724Y-96000026D01*
X168640303Y-96041406D01*
X168551898Y-96004787D01*
X168351939Y-95965013D01*
X168148061Y-95965013D01*
X167948102Y-96004787D01*
X167759744Y-96082808D01*
X167590226Y-96196076D01*
X167446063Y-96340239D01*
X167332795Y-96509757D01*
X167254774Y-96698115D01*
X167215000Y-96898074D01*
X164826934Y-96898074D01*
X164838072Y-96785000D01*
X164838072Y-96485000D01*
X164822929Y-96331255D01*
X164778084Y-96183418D01*
X164705258Y-96047171D01*
X164666546Y-96000000D01*
X164705258Y-95952829D01*
X164778084Y-95816582D01*
X164822929Y-95668745D01*
X164838072Y-95515000D01*
X164838072Y-95215000D01*
X164822929Y-95061255D01*
X164778084Y-94913418D01*
X164705258Y-94777171D01*
X164666546Y-94730000D01*
X164705258Y-94682829D01*
X164778084Y-94546582D01*
X164822929Y-94398745D01*
X164838072Y-94245000D01*
X164838072Y-93945000D01*
X164822929Y-93791255D01*
X164778084Y-93643418D01*
X164705258Y-93507171D01*
X164607251Y-93387749D01*
X164487829Y-93289742D01*
X164351582Y-93216916D01*
X164203745Y-93172071D01*
X164050000Y-93156928D01*
X162750000Y-93156928D01*
X162596255Y-93172071D01*
X162471217Y-93210000D01*
X162461578Y-93210000D01*
X162156534Y-92904956D01*
X162128817Y-92871183D01*
X161994059Y-92760589D01*
X161840313Y-92678411D01*
X161673490Y-92627805D01*
X161543477Y-92615000D01*
X161543469Y-92615000D01*
X161500000Y-92610719D01*
X161456531Y-92615000D01*
X161288454Y-92615000D01*
X161240256Y-92582795D01*
X161051898Y-92504774D01*
X160851939Y-92465000D01*
X160648061Y-92465000D01*
X160448102Y-92504774D01*
X160259744Y-92582795D01*
X160090226Y-92696063D01*
X159946063Y-92840226D01*
X159832795Y-93009744D01*
X159754774Y-93198102D01*
X159715000Y-93398061D01*
X154025825Y-93398061D01*
X154035000Y-93351939D01*
X154035000Y-93148061D01*
X153995226Y-92948102D01*
X153917205Y-92759744D01*
X153803937Y-92590226D01*
X153760000Y-92546289D01*
X153760000Y-86735851D01*
X160015000Y-86735851D01*
X160015000Y-87077617D01*
X160081675Y-87412815D01*
X160212463Y-87728565D01*
X160402337Y-88012732D01*
X160644002Y-88254397D01*
X160928169Y-88444271D01*
X161243919Y-88575059D01*
X161579117Y-88641734D01*
X161920883Y-88641734D01*
X162256081Y-88575059D01*
X162571831Y-88444271D01*
X162855998Y-88254397D01*
X163097663Y-88012732D01*
X163287537Y-87728565D01*
X163418325Y-87412815D01*
X163485000Y-87077617D01*
X163485000Y-86735851D01*
X163418325Y-86400653D01*
X163287537Y-86084903D01*
X163097663Y-85800736D01*
X162855998Y-85559071D01*
X162571831Y-85369197D01*
X162256081Y-85238409D01*
X161920883Y-85171734D01*
X161579117Y-85171734D01*
X161243919Y-85238409D01*
X160928169Y-85369197D01*
X160644002Y-85559071D01*
X160402337Y-85800736D01*
X160212463Y-86084903D01*
X160081675Y-86400653D01*
X160015000Y-86735851D01*
X153760000Y-86735851D01*
X153760000Y-83203711D01*
X153803937Y-83159774D01*
X153917205Y-82990256D01*
X153995226Y-82801898D01*
X154035000Y-82601939D01*
X154035000Y-82398061D01*
X153995226Y-82198102D01*
X153917205Y-82009744D01*
X153803937Y-81840226D01*
X153659774Y-81696063D01*
X153490256Y-81582795D01*
X153301898Y-81504774D01*
X153101939Y-81465000D01*
X152898061Y-81465000D01*
X152698102Y-81504774D01*
X152509744Y-81582795D01*
X152340226Y-81696063D01*
X152196063Y-81840226D01*
X152082795Y-82009744D01*
X152004774Y-82198102D01*
X151965000Y-82398061D01*
X117635000Y-82398061D01*
X117635000Y-76028290D01*
X117657251Y-75778971D01*
X119755858Y-75778971D01*
X119755858Y-76221029D01*
X119842100Y-76654592D01*
X120011268Y-77063000D01*
X120256861Y-77430557D01*
X120569443Y-77743139D01*
X120937000Y-77988732D01*
X121345408Y-78157900D01*
X121778971Y-78244142D01*
X122221029Y-78244142D01*
X122654592Y-78157900D01*
X123063000Y-77988732D01*
X123430557Y-77743139D01*
X123743139Y-77430557D01*
X123988732Y-77063000D01*
X124157900Y-76654592D01*
X124244142Y-76221029D01*
X124244142Y-75778971D01*
X159755857Y-75778971D01*
X159755857Y-76221029D01*
X159842099Y-76654592D01*
X160011267Y-77063000D01*
X160256861Y-77430557D01*
X160569443Y-77743139D01*
X160937000Y-77988733D01*
X161345408Y-78157901D01*
X161778971Y-78244143D01*
X162221029Y-78244143D01*
X162654592Y-78157901D01*
X163063000Y-77988733D01*
X163430557Y-77743139D01*
X163743139Y-77430557D01*
X163988733Y-77063000D01*
X164157901Y-76654592D01*
X164244143Y-76221029D01*
X164244143Y-75778971D01*
X164157901Y-75345408D01*
X163988733Y-74937000D01*
X163743139Y-74569443D01*
X163430557Y-74256861D01*
X163063000Y-74011267D01*
X162654592Y-73842099D01*
X162221029Y-73755857D01*
X161778971Y-73755857D01*
X161345408Y-73842099D01*
X160937000Y-74011267D01*
X160569443Y-74256861D01*
X160256861Y-74569443D01*
X160011267Y-74937000D01*
X159842099Y-75345408D01*
X159755857Y-75778971D01*
X124244142Y-75778971D01*
X124157900Y-75345408D01*
X123988732Y-74937000D01*
X123743139Y-74569443D01*
X123430557Y-74256861D01*
X123063000Y-74011268D01*
X122654592Y-73842100D01*
X122221029Y-73755858D01*
X121778971Y-73755858D01*
X121345408Y-73842100D01*
X120937000Y-74011268D01*
X120569443Y-74256861D01*
X120256861Y-74569443D01*
X120011268Y-74937000D01*
X119842100Y-75345408D01*
X119755858Y-75778971D01*
X117657251Y-75778971D01*
X117706471Y-75227472D01*
X117911130Y-74479365D01*
X118245036Y-73779317D01*
X118697628Y-73149468D01*
X119254604Y-72609722D01*
X119898361Y-72177134D01*
X120608549Y-71865384D01*
X121367600Y-71683151D01*
X122023302Y-71635000D01*
X161971721Y-71635000D01*
X162772528Y-71706470D01*
G37*
X162772528Y-71706470D02*
X163520635Y-71911129D01*
X164220682Y-72245035D01*
X164850532Y-72697628D01*
X165390281Y-73254605D01*
X165822866Y-73898360D01*
X166134617Y-74608548D01*
X166316850Y-75367600D01*
X166365001Y-76023302D01*
X166365000Y-78739575D01*
X166365673Y-78746407D01*
X166369802Y-78937771D01*
X166370295Y-78942211D01*
X166375192Y-79007753D01*
X166492336Y-79888943D01*
X166496718Y-79908431D01*
X166498832Y-79928302D01*
X166517102Y-79999089D01*
X166788439Y-80845608D01*
X166796205Y-80864017D01*
X166801803Y-80883195D01*
X166832320Y-80949627D01*
X167249275Y-81734718D01*
X167260174Y-81751455D01*
X167269083Y-81769345D01*
X167310882Y-81829323D01*
X167860275Y-82528170D01*
X167873969Y-82542716D01*
X167885902Y-82558741D01*
X167937661Y-82610370D01*
X168602128Y-83200883D01*
X168618179Y-83212772D01*
X168632762Y-83226432D01*
X168692846Y-83268079D01*
X169451381Y-83731593D01*
X169469286Y-83740453D01*
X169486057Y-83751314D01*
X169552566Y-83781663D01*
X170381194Y-84103526D01*
X170384663Y-84104529D01*
X170401468Y-84111006D01*
X171717078Y-84571150D01*
X172942730Y-85157795D01*
X174096608Y-85875396D01*
X175164760Y-86715274D01*
X176134306Y-87667299D01*
X176993525Y-88719966D01*
X177732045Y-89860567D01*
X178340943Y-91075322D01*
X178812858Y-92349544D01*
X179142101Y-93667872D01*
X179324690Y-95014361D01*
X179358419Y-96372753D01*
X179242883Y-97726636D01*
X178979473Y-99059684D01*
X178571379Y-100355760D01*
X178023526Y-101599226D01*
X177342519Y-102775084D01*
X176536604Y-103869094D01*
X175615504Y-104868062D01*
X174590340Y-105759927D01*
X173473507Y-106533905D01*
X172278480Y-107180657D01*
X171010806Y-107695984D01*
X170420652Y-107882624D01*
X170215694Y-107946712D01*
X170211570Y-107948417D01*
X170149965Y-107971329D01*
X169335995Y-108328637D01*
X169318485Y-108338263D01*
X169299990Y-108345811D01*
X169237064Y-108383025D01*
X168499230Y-108878828D01*
X168483704Y-108891401D01*
X168466834Y-108902107D01*
X168411493Y-108949876D01*
X167773120Y-109568503D01*
X167760066Y-109583626D01*
X167745359Y-109597150D01*
X167699352Y-109653964D01*
X167180617Y-110375860D01*
X167170448Y-110393055D01*
X167158367Y-110408971D01*
X167123148Y-110473035D01*
X166740448Y-111275381D01*
X166733483Y-111294110D01*
X166724414Y-111311909D01*
X166701096Y-111381197D01*
X166466528Y-112238633D01*
X166462991Y-112258292D01*
X166457215Y-112277422D01*
X166446536Y-112349744D01*
X166367761Y-113232401D01*
X166365001Y-113260424D01*
X166365000Y-115971721D01*
X166293530Y-116772528D01*
X166088871Y-117520636D01*
X165754965Y-118220682D01*
X165302372Y-118850532D01*
X164745395Y-119390281D01*
X164101637Y-119822867D01*
X163391452Y-120134617D01*
X162632400Y-120316850D01*
X161976712Y-120365000D01*
X122028290Y-120365000D01*
X121227472Y-120293529D01*
X120479364Y-120088870D01*
X119779318Y-119754964D01*
X119149469Y-119302372D01*
X118609722Y-118745397D01*
X118177132Y-118101635D01*
X117865384Y-117391453D01*
X117683151Y-116632400D01*
X117635000Y-115976698D01*
X117635000Y-115778971D01*
X119755858Y-115778971D01*
X119755858Y-116221029D01*
X119842100Y-116654592D01*
X120011268Y-117063000D01*
X120256861Y-117430557D01*
X120569443Y-117743139D01*
X120937000Y-117988732D01*
X121345408Y-118157900D01*
X121778971Y-118244142D01*
X122221029Y-118244142D01*
X122654592Y-118157900D01*
X123063000Y-117988732D01*
X123430557Y-117743139D01*
X123743139Y-117430557D01*
X123988732Y-117063000D01*
X124157900Y-116654592D01*
X124244142Y-116221029D01*
X124244142Y-115778971D01*
X159755857Y-115778971D01*
X159755857Y-116221029D01*
X159842099Y-116654592D01*
X160011267Y-117063000D01*
X160256861Y-117430557D01*
X160569443Y-117743139D01*
X160937000Y-117988733D01*
X161345408Y-118157901D01*
X161778971Y-118244143D01*
X162221029Y-118244143D01*
X162654592Y-118157901D01*
X163063000Y-117988733D01*
X163430557Y-117743139D01*
X163743139Y-117430557D01*
X163988733Y-117063000D01*
X164157901Y-116654592D01*
X164244143Y-116221029D01*
X164244143Y-115778971D01*
X164157901Y-115345408D01*
X163988733Y-114937000D01*
X163743139Y-114569443D01*
X163430557Y-114256861D01*
X163063000Y-114011267D01*
X162654592Y-113842099D01*
X162221029Y-113755857D01*
X161778971Y-113755857D01*
X161345408Y-113842099D01*
X160937000Y-114011267D01*
X160569443Y-114256861D01*
X160256861Y-114569443D01*
X160011267Y-114937000D01*
X159842099Y-115345408D01*
X159755857Y-115778971D01*
X124244142Y-115778971D01*
X124157900Y-115345408D01*
X123988732Y-114937000D01*
X123743139Y-114569443D01*
X123430557Y-114256861D01*
X123063000Y-114011268D01*
X122654592Y-113842100D01*
X122221029Y-113755858D01*
X121778971Y-113755858D01*
X121345408Y-113842100D01*
X120937000Y-114011268D01*
X120569443Y-114256861D01*
X120256861Y-114569443D01*
X120011268Y-114937000D01*
X119842100Y-115345408D01*
X119755858Y-115778971D01*
X117635000Y-115778971D01*
X117635000Y-104922383D01*
X160015000Y-104922383D01*
X160015000Y-105264149D01*
X160081675Y-105599347D01*
X160212463Y-105915097D01*
X160402337Y-106199264D01*
X160644002Y-106440929D01*
X160928169Y-106630803D01*
X161243919Y-106761591D01*
X161579117Y-106828266D01*
X161920883Y-106828266D01*
X162256081Y-106761591D01*
X162571831Y-106630803D01*
X162855998Y-106440929D01*
X163097663Y-106199264D01*
X163287537Y-105915097D01*
X163418325Y-105599347D01*
X163485000Y-105264149D01*
X163485000Y-104922383D01*
X163418325Y-104587185D01*
X163287537Y-104271435D01*
X163097663Y-103987268D01*
X162855998Y-103745603D01*
X162571831Y-103555729D01*
X162256081Y-103424941D01*
X161920883Y-103358266D01*
X161579117Y-103358266D01*
X161243919Y-103424941D01*
X160928169Y-103555729D01*
X160644002Y-103745603D01*
X160402337Y-103987268D01*
X160212463Y-104271435D01*
X160081675Y-104587185D01*
X160015000Y-104922383D01*
X117635000Y-104922383D01*
X117635000Y-95925701D01*
X142715829Y-95925701D01*
X142715829Y-98821301D01*
X142728089Y-98945783D01*
X142764399Y-99065481D01*
X142823364Y-99175795D01*
X142902716Y-99272486D01*
X142999407Y-99351838D01*
X143109721Y-99410803D01*
X143229419Y-99447113D01*
X143353901Y-99459373D01*
X144446101Y-99459373D01*
X144570583Y-99447113D01*
X144690281Y-99410803D01*
X144800595Y-99351838D01*
X144897286Y-99272486D01*
X144976638Y-99175795D01*
X145035603Y-99065481D01*
X145071913Y-98945783D01*
X145084173Y-98821301D01*
X145084173Y-95925701D01*
X148915827Y-95925701D01*
X148915827Y-98821301D01*
X148928087Y-98945783D01*
X148964397Y-99065481D01*
X149023362Y-99175795D01*
X149102714Y-99272486D01*
X149199405Y-99351838D01*
X149309719Y-99410803D01*
X149429417Y-99447113D01*
X149553899Y-99459373D01*
X150646099Y-99459373D01*
X150770581Y-99447113D01*
X150890279Y-99410803D01*
X151000593Y-99351838D01*
X151097284Y-99272486D01*
X151176636Y-99175795D01*
X151235601Y-99065481D01*
X151271911Y-98945783D01*
X151284171Y-98821301D01*
X151284171Y-98205000D01*
X161961928Y-98205000D01*
X161974188Y-98329482D01*
X162010498Y-98449180D01*
X162069463Y-98559494D01*
X162148815Y-98656185D01*
X162245506Y-98735537D01*
X162355820Y-98794502D01*
X162475518Y-98830812D01*
X162600000Y-98843072D01*
X163114250Y-98840000D01*
X163273000Y-98681250D01*
X163273000Y-98032000D01*
X163527000Y-98032000D01*
X163527000Y-98681250D01*
X163685750Y-98840000D01*
X164200000Y-98843072D01*
X164324482Y-98830812D01*
X164444180Y-98794502D01*
X164554494Y-98735537D01*
X164651185Y-98656185D01*
X164730537Y-98559494D01*
X164789502Y-98449180D01*
X164825812Y-98329482D01*
X164838072Y-98205000D01*
X164835000Y-98190750D01*
X164676250Y-98032000D01*
X163527000Y-98032000D01*
X163273000Y-98032000D01*
X162123750Y-98032000D01*
X161965000Y-98190750D01*
X161961928Y-98205000D01*
X151284171Y-98205000D01*
X151284171Y-95925701D01*
X151271911Y-95801219D01*
X151235601Y-95681521D01*
X151176636Y-95571207D01*
X151097284Y-95474516D01*
X151000593Y-95395164D01*
X150890279Y-95336199D01*
X150770581Y-95299889D01*
X150646099Y-95287629D01*
X149812536Y-95287629D01*
X149860738Y-95228894D01*
X149919703Y-95118580D01*
X149956013Y-94998882D01*
X149968273Y-94874400D01*
X149965201Y-94309250D01*
X149806451Y-94150500D01*
X149127001Y-94150500D01*
X149127001Y-95350650D01*
X149184087Y-95407736D01*
X149102714Y-95474516D01*
X149023362Y-95571207D01*
X148964397Y-95681521D01*
X148928087Y-95801219D01*
X148915827Y-95925701D01*
X145084173Y-95925701D01*
X145071913Y-95801219D01*
X145035603Y-95681521D01*
X144976638Y-95571207D01*
X144928436Y-95512472D01*
X145330199Y-95512472D01*
X145454681Y-95500212D01*
X145499999Y-95486465D01*
X145545317Y-95500212D01*
X145669799Y-95512472D01*
X145714249Y-95509400D01*
X145872999Y-95350650D01*
X145872999Y-95205952D01*
X145919701Y-95118580D01*
X145956011Y-94998882D01*
X145968271Y-94874400D01*
X145968271Y-93172600D01*
X145956011Y-93048118D01*
X145919701Y-92928420D01*
X145872999Y-92841048D01*
X145872999Y-92696350D01*
X145816949Y-92640300D01*
X145917205Y-92490256D01*
X145995226Y-92301898D01*
X146000000Y-92277897D01*
X146004774Y-92301898D01*
X146082795Y-92490256D01*
X146183050Y-92640299D01*
X146126999Y-92696350D01*
X146126999Y-92841050D01*
X146080298Y-92928420D01*
X146043988Y-93048118D01*
X146031728Y-93172600D01*
X146031728Y-94874400D01*
X146043988Y-94998882D01*
X146080298Y-95118580D01*
X146126999Y-95205950D01*
X146126999Y-95350650D01*
X146285749Y-95509400D01*
X146330199Y-95512472D01*
X146454681Y-95500212D01*
X146500000Y-95486465D01*
X146545318Y-95500212D01*
X146669800Y-95512472D01*
X147330200Y-95512472D01*
X147454682Y-95500212D01*
X147500001Y-95486465D01*
X147545319Y-95500212D01*
X147669801Y-95512472D01*
X148330201Y-95512472D01*
X148454683Y-95500212D01*
X148500001Y-95486465D01*
X148545319Y-95500212D01*
X148669801Y-95512472D01*
X148714251Y-95509400D01*
X148873001Y-95350650D01*
X148873001Y-95205952D01*
X148919703Y-95118580D01*
X148956013Y-94998882D01*
X148968273Y-94874400D01*
X148968273Y-93172600D01*
X148956013Y-93048118D01*
X148919703Y-92928420D01*
X148873001Y-92841048D01*
X148873001Y-92696350D01*
X148816950Y-92640299D01*
X148917205Y-92490256D01*
X148995226Y-92301898D01*
X149035000Y-92101939D01*
X149035000Y-91898061D01*
X148995226Y-91698102D01*
X148917205Y-91509744D01*
X148803937Y-91340226D01*
X148659774Y-91196063D01*
X148490256Y-91082795D01*
X148301898Y-91004774D01*
X148101939Y-90965000D01*
X147898061Y-90965000D01*
X147698102Y-91004774D01*
X147509744Y-91082795D01*
X147500000Y-91089306D01*
X147490256Y-91082795D01*
X147301898Y-91004774D01*
X147101939Y-90965000D01*
X146898061Y-90965000D01*
X146698102Y-91004774D01*
X146509744Y-91082795D01*
X146340226Y-91196063D01*
X146196063Y-91340226D01*
X146082795Y-91509744D01*
X146004774Y-91698102D01*
X146000000Y-91722103D01*
X145995226Y-91698102D01*
X145917205Y-91509744D01*
X145803937Y-91340226D01*
X145659774Y-91196063D01*
X145490256Y-91082795D01*
X145301898Y-91004774D01*
X145101939Y-90965000D01*
X144898061Y-90965000D01*
X144698102Y-91004774D01*
X144509744Y-91082795D01*
X144340226Y-91196063D01*
X144196063Y-91340226D01*
X144082795Y-91509744D01*
X144004774Y-91698102D01*
X143965000Y-91898061D01*
X143965000Y-92101939D01*
X144004774Y-92301898D01*
X144082795Y-92490256D01*
X144196063Y-92659774D01*
X144240000Y-92703711D01*
X144240000Y-92703864D01*
X144218614Y-92721415D01*
X144139262Y-92818106D01*
X144080297Y-92928420D01*
X144043987Y-93048118D01*
X144031727Y-93172600D01*
X144031727Y-94874400D01*
X144043987Y-94998882D01*
X144080297Y-95118580D01*
X144139262Y-95228894D01*
X144187464Y-95287629D01*
X143353901Y-95287629D01*
X143229419Y-95299889D01*
X143109721Y-95336199D01*
X142999407Y-95395164D01*
X142902716Y-95474516D01*
X142823364Y-95571207D01*
X142764399Y-95681521D01*
X142728089Y-95801219D01*
X142715829Y-95925701D01*
X117635000Y-95925701D01*
X117635000Y-86398069D01*
X145965000Y-86398069D01*
X145965000Y-86601947D01*
X146004774Y-86801906D01*
X146082795Y-86990264D01*
X146196063Y-87159782D01*
X146340226Y-87303945D01*
X146509744Y-87417213D01*
X146698102Y-87495234D01*
X146898061Y-87535008D01*
X146960199Y-87535008D01*
X149489974Y-90064784D01*
X149489975Y-91296288D01*
X149446037Y-91340226D01*
X149332769Y-91509744D01*
X149254748Y-91698102D01*
X149214974Y-91898061D01*
X149214974Y-92101939D01*
X149254748Y-92301898D01*
X149332769Y-92490256D01*
X149364615Y-92537917D01*
X149330201Y-92534528D01*
X149285751Y-92537600D01*
X149127001Y-92696350D01*
X149127001Y-93896500D01*
X149806451Y-93896500D01*
X149965201Y-93737750D01*
X149968273Y-93172600D01*
X149956013Y-93048118D01*
X149938803Y-92991385D01*
X149948076Y-92995226D01*
X150148035Y-93035000D01*
X150351913Y-93035000D01*
X150551872Y-92995226D01*
X150740230Y-92917205D01*
X150909748Y-92803937D01*
X151053911Y-92659774D01*
X151167179Y-92490256D01*
X151245200Y-92301898D01*
X151284974Y-92101939D01*
X151284974Y-91898061D01*
X151245200Y-91698102D01*
X151167179Y-91509744D01*
X151053911Y-91340226D01*
X151009974Y-91296289D01*
X151009974Y-89787304D01*
X151013650Y-89749981D01*
X151009974Y-89712658D01*
X151009974Y-89712649D01*
X150998977Y-89600996D01*
X150955520Y-89457735D01*
X150884948Y-89325706D01*
X150789975Y-89209981D01*
X150760978Y-89186184D01*
X148035000Y-86460207D01*
X148035000Y-86398069D01*
X147995226Y-86198110D01*
X147917205Y-86009752D01*
X147803937Y-85840234D01*
X147659774Y-85696071D01*
X147490256Y-85582803D01*
X147301898Y-85504782D01*
X147101939Y-85465008D01*
X146898061Y-85465008D01*
X146698102Y-85504782D01*
X146509744Y-85582803D01*
X146340226Y-85696071D01*
X146196063Y-85840234D01*
X146082795Y-86009752D01*
X146004774Y-86198110D01*
X145965000Y-86398069D01*
X117635000Y-86398069D01*
X117635000Y-82398061D01*
X151965000Y-82398061D01*
X151965000Y-82601939D01*
X152004774Y-82801898D01*
X152082795Y-82990256D01*
X152196063Y-83159774D01*
X152240000Y-83203711D01*
X152240001Y-92546288D01*
X152196063Y-92590226D01*
X152082795Y-92759744D01*
X152004774Y-92948102D01*
X151965000Y-93148061D01*
X151965000Y-93351939D01*
X152004774Y-93551898D01*
X152082795Y-93740256D01*
X152196063Y-93909774D01*
X152340226Y-94053937D01*
X152509744Y-94167205D01*
X152698102Y-94245226D01*
X152898061Y-94285000D01*
X153101939Y-94285000D01*
X153301898Y-94245226D01*
X153490256Y-94167205D01*
X153659774Y-94053937D01*
X153803937Y-93909774D01*
X153917205Y-93740256D01*
X153995226Y-93551898D01*
X154025825Y-93398061D01*
X159715000Y-93398061D01*
X159715000Y-93601939D01*
X159754774Y-93801898D01*
X159832795Y-93990256D01*
X159946063Y-94159774D01*
X160090226Y-94303937D01*
X160259744Y-94417205D01*
X160448102Y-94495226D01*
X160648061Y-94535000D01*
X160851939Y-94535000D01*
X161051898Y-94495226D01*
X161187485Y-94439063D01*
X161438466Y-94690044D01*
X161466183Y-94723817D01*
X161600941Y-94834411D01*
X161754687Y-94916589D01*
X161921510Y-94967195D01*
X162003164Y-94975237D01*
X161977071Y-95061255D01*
X161961928Y-95215000D01*
X161961928Y-95515000D01*
X161977071Y-95668745D01*
X162021916Y-95816582D01*
X162094742Y-95952829D01*
X162133454Y-96000000D01*
X162094742Y-96047171D01*
X162021916Y-96183418D01*
X161977071Y-96331255D01*
X161961928Y-96485000D01*
X161961928Y-96785000D01*
X161977071Y-96938745D01*
X162021916Y-97086582D01*
X162093730Y-97220936D01*
X162069463Y-97250506D01*
X162010498Y-97360820D01*
X161974188Y-97480518D01*
X161961928Y-97605000D01*
X161965000Y-97619250D01*
X162123750Y-97778000D01*
X163273000Y-97778000D01*
X163273000Y-97758000D01*
X163527000Y-97758000D01*
X163527000Y-97778000D01*
X164676250Y-97778000D01*
X164835000Y-97619250D01*
X164838072Y-97605000D01*
X164825812Y-97480518D01*
X164789502Y-97360820D01*
X164730537Y-97250506D01*
X164706270Y-97220936D01*
X164778084Y-97086582D01*
X164822929Y-96938745D01*
X164826934Y-96898074D01*
X167215000Y-96898074D01*
X167215000Y-97101952D01*
X167254774Y-97301911D01*
X167332795Y-97490269D01*
X167446063Y-97659787D01*
X167590226Y-97803950D01*
X167759744Y-97917218D01*
X167948102Y-97995239D01*
X168148061Y-98035013D01*
X168351939Y-98035013D01*
X168551898Y-97995239D01*
X168740256Y-97917218D01*
X168909774Y-97803950D01*
X168993331Y-97720393D01*
X169042234Y-97705559D01*
X169173720Y-97635277D01*
X169161928Y-97755000D01*
X169161928Y-98055000D01*
X169177071Y-98208745D01*
X169221916Y-98356582D01*
X169294742Y-98492829D01*
X169392749Y-98612251D01*
X169512171Y-98710258D01*
X169648418Y-98783084D01*
X169796255Y-98827929D01*
X169950000Y-98843072D01*
X171250000Y-98843072D01*
X171403745Y-98827929D01*
X171551582Y-98783084D01*
X171687829Y-98710258D01*
X171807251Y-98612251D01*
X171905258Y-98492829D01*
X171978084Y-98356582D01*
X172022929Y-98208745D01*
X172038072Y-98055000D01*
X172038072Y-97755000D01*
X172022929Y-97601255D01*
X171978084Y-97453418D01*
X171905258Y-97317171D01*
X171866546Y-97270000D01*
X171905258Y-97222829D01*
X171978084Y-97086582D01*
X172022929Y-96938745D01*
X172038072Y-96785000D01*
X172038072Y-96485000D01*
X172022929Y-96331255D01*
X171978084Y-96183418D01*
X171905258Y-96047171D01*
X171866546Y-96000000D01*
X171905258Y-95952829D01*
X171971383Y-95829117D01*
X175765000Y-95829117D01*
X175765000Y-96170883D01*
X175831675Y-96506081D01*
X175962463Y-96821831D01*
X176152337Y-97105998D01*
X176394002Y-97347663D01*
X176678169Y-97537537D01*
X176993919Y-97668325D01*
X177329117Y-97735000D01*
X177670883Y-97735000D01*
X178006081Y-97668325D01*
X178321831Y-97537537D01*
X178605998Y-97347663D01*
X178847663Y-97105998D01*
X179037537Y-96821831D01*
X179168325Y-96506081D01*
X179235000Y-96170883D01*
X179235000Y-95829117D01*
X179168325Y-95493919D01*
X179037537Y-95178169D01*
X178847663Y-94894002D01*
X178605998Y-94652337D01*
X178321831Y-94462463D01*
X178006081Y-94331675D01*
X177670883Y-94265000D01*
X177329117Y-94265000D01*
X176993919Y-94331675D01*
X176678169Y-94462463D01*
X176394002Y-94652337D01*
X176152337Y-94894002D01*
X175962463Y-95178169D01*
X175831675Y-95493919D01*
X175765000Y-95829117D01*
X171971383Y-95829117D01*
X171978084Y-95816582D01*
X172022929Y-95668745D01*
X172038072Y-95515000D01*
X172038072Y-95215000D01*
X172022929Y-95061255D01*
X171978084Y-94913418D01*
X171906270Y-94779064D01*
X171930537Y-94749494D01*
X171989502Y-94639180D01*
X172025812Y-94519482D01*
X172038072Y-94395000D01*
X172035000Y-94380750D01*
X171876250Y-94222000D01*
X170727000Y-94222000D01*
X170727000Y-94242000D01*
X170473000Y-94242000D01*
X170473000Y-94222000D01*
X170453000Y-94222000D01*
X170453000Y-93968000D01*
X170473000Y-93968000D01*
X170473000Y-93318750D01*
X170727000Y-93318750D01*
X170727000Y-93968000D01*
X171876250Y-93968000D01*
X172035000Y-93809250D01*
X172038072Y-93795000D01*
X172025812Y-93670518D01*
X171989502Y-93550820D01*
X171930537Y-93440506D01*
X171851185Y-93343815D01*
X171754494Y-93264463D01*
X171644180Y-93205498D01*
X171524482Y-93169188D01*
X171400000Y-93156928D01*
X170885750Y-93160000D01*
X170727000Y-93318750D01*
X170473000Y-93318750D01*
X170314250Y-93160000D01*
X169800000Y-93156928D01*
X169675518Y-93169188D01*
X169555820Y-93205498D01*
X169445506Y-93264463D01*
X169348815Y-93343815D01*
X169269463Y-93440506D01*
X169210498Y-93550820D01*
X169174188Y-93670518D01*
X169161928Y-93795000D01*
X169165000Y-93809250D01*
X169323748Y-93967998D01*
X169165000Y-93967998D01*
X169165000Y-94006414D01*
X169053957Y-93840226D01*
X168909794Y-93696063D01*
X168740276Y-93582795D01*
X168551918Y-93504774D01*
X168351959Y-93465000D01*
X168148081Y-93465000D01*
X167948122Y-93504774D01*
X167759764Y-93582795D01*
X167590246Y-93696063D01*
X167446083Y-93840226D01*
X167332815Y-94009744D01*
X167254794Y-94198102D01*
X167215020Y-94398061D01*
X167215020Y-94601939D01*
X167254794Y-94801898D01*
X167332815Y-94990256D01*
X167446083Y-95159774D01*
X167590246Y-95303937D01*
X167759764Y-95417205D01*
X167948122Y-95495226D01*
X168148081Y-95535000D01*
X168210218Y-95535000D01*
X168551221Y-95876003D01*
X168575019Y-95905001D01*
X168690744Y-95999974D01*
X168690783Y-95999995D01*
X168690724Y-96000026D01*
X168640303Y-96041406D01*
X168551898Y-96004787D01*
X168351939Y-95965013D01*
X168148061Y-95965013D01*
X167948102Y-96004787D01*
X167759744Y-96082808D01*
X167590226Y-96196076D01*
X167446063Y-96340239D01*
X167332795Y-96509757D01*
X167254774Y-96698115D01*
X167215000Y-96898074D01*
X164826934Y-96898074D01*
X164838072Y-96785000D01*
X164838072Y-96485000D01*
X164822929Y-96331255D01*
X164778084Y-96183418D01*
X164705258Y-96047171D01*
X164666546Y-96000000D01*
X164705258Y-95952829D01*
X164778084Y-95816582D01*
X164822929Y-95668745D01*
X164838072Y-95515000D01*
X164838072Y-95215000D01*
X164822929Y-95061255D01*
X164778084Y-94913418D01*
X164705258Y-94777171D01*
X164666546Y-94730000D01*
X164705258Y-94682829D01*
X164778084Y-94546582D01*
X164822929Y-94398745D01*
X164838072Y-94245000D01*
X164838072Y-93945000D01*
X164822929Y-93791255D01*
X164778084Y-93643418D01*
X164705258Y-93507171D01*
X164607251Y-93387749D01*
X164487829Y-93289742D01*
X164351582Y-93216916D01*
X164203745Y-93172071D01*
X164050000Y-93156928D01*
X162750000Y-93156928D01*
X162596255Y-93172071D01*
X162471217Y-93210000D01*
X162461578Y-93210000D01*
X162156534Y-92904956D01*
X162128817Y-92871183D01*
X161994059Y-92760589D01*
X161840313Y-92678411D01*
X161673490Y-92627805D01*
X161543477Y-92615000D01*
X161543469Y-92615000D01*
X161500000Y-92610719D01*
X161456531Y-92615000D01*
X161288454Y-92615000D01*
X161240256Y-92582795D01*
X161051898Y-92504774D01*
X160851939Y-92465000D01*
X160648061Y-92465000D01*
X160448102Y-92504774D01*
X160259744Y-92582795D01*
X160090226Y-92696063D01*
X159946063Y-92840226D01*
X159832795Y-93009744D01*
X159754774Y-93198102D01*
X159715000Y-93398061D01*
X154025825Y-93398061D01*
X154035000Y-93351939D01*
X154035000Y-93148061D01*
X153995226Y-92948102D01*
X153917205Y-92759744D01*
X153803937Y-92590226D01*
X153760000Y-92546289D01*
X153760000Y-86735851D01*
X160015000Y-86735851D01*
X160015000Y-87077617D01*
X160081675Y-87412815D01*
X160212463Y-87728565D01*
X160402337Y-88012732D01*
X160644002Y-88254397D01*
X160928169Y-88444271D01*
X161243919Y-88575059D01*
X161579117Y-88641734D01*
X161920883Y-88641734D01*
X162256081Y-88575059D01*
X162571831Y-88444271D01*
X162855998Y-88254397D01*
X163097663Y-88012732D01*
X163287537Y-87728565D01*
X163418325Y-87412815D01*
X163485000Y-87077617D01*
X163485000Y-86735851D01*
X163418325Y-86400653D01*
X163287537Y-86084903D01*
X163097663Y-85800736D01*
X162855998Y-85559071D01*
X162571831Y-85369197D01*
X162256081Y-85238409D01*
X161920883Y-85171734D01*
X161579117Y-85171734D01*
X161243919Y-85238409D01*
X160928169Y-85369197D01*
X160644002Y-85559071D01*
X160402337Y-85800736D01*
X160212463Y-86084903D01*
X160081675Y-86400653D01*
X160015000Y-86735851D01*
X153760000Y-86735851D01*
X153760000Y-83203711D01*
X153803937Y-83159774D01*
X153917205Y-82990256D01*
X153995226Y-82801898D01*
X154035000Y-82601939D01*
X154035000Y-82398061D01*
X153995226Y-82198102D01*
X153917205Y-82009744D01*
X153803937Y-81840226D01*
X153659774Y-81696063D01*
X153490256Y-81582795D01*
X153301898Y-81504774D01*
X153101939Y-81465000D01*
X152898061Y-81465000D01*
X152698102Y-81504774D01*
X152509744Y-81582795D01*
X152340226Y-81696063D01*
X152196063Y-81840226D01*
X152082795Y-82009744D01*
X152004774Y-82198102D01*
X151965000Y-82398061D01*
X117635000Y-82398061D01*
X117635000Y-76028290D01*
X117657251Y-75778971D01*
X119755858Y-75778971D01*
X119755858Y-76221029D01*
X119842100Y-76654592D01*
X120011268Y-77063000D01*
X120256861Y-77430557D01*
X120569443Y-77743139D01*
X120937000Y-77988732D01*
X121345408Y-78157900D01*
X121778971Y-78244142D01*
X122221029Y-78244142D01*
X122654592Y-78157900D01*
X123063000Y-77988732D01*
X123430557Y-77743139D01*
X123743139Y-77430557D01*
X123988732Y-77063000D01*
X124157900Y-76654592D01*
X124244142Y-76221029D01*
X124244142Y-75778971D01*
X159755857Y-75778971D01*
X159755857Y-76221029D01*
X159842099Y-76654592D01*
X160011267Y-77063000D01*
X160256861Y-77430557D01*
X160569443Y-77743139D01*
X160937000Y-77988733D01*
X161345408Y-78157901D01*
X161778971Y-78244143D01*
X162221029Y-78244143D01*
X162654592Y-78157901D01*
X163063000Y-77988733D01*
X163430557Y-77743139D01*
X163743139Y-77430557D01*
X163988733Y-77063000D01*
X164157901Y-76654592D01*
X164244143Y-76221029D01*
X164244143Y-75778971D01*
X164157901Y-75345408D01*
X163988733Y-74937000D01*
X163743139Y-74569443D01*
X163430557Y-74256861D01*
X163063000Y-74011267D01*
X162654592Y-73842099D01*
X162221029Y-73755857D01*
X161778971Y-73755857D01*
X161345408Y-73842099D01*
X160937000Y-74011267D01*
X160569443Y-74256861D01*
X160256861Y-74569443D01*
X160011267Y-74937000D01*
X159842099Y-75345408D01*
X159755857Y-75778971D01*
X124244142Y-75778971D01*
X124157900Y-75345408D01*
X123988732Y-74937000D01*
X123743139Y-74569443D01*
X123430557Y-74256861D01*
X123063000Y-74011268D01*
X122654592Y-73842100D01*
X122221029Y-73755858D01*
X121778971Y-73755858D01*
X121345408Y-73842100D01*
X120937000Y-74011268D01*
X120569443Y-74256861D01*
X120256861Y-74569443D01*
X120011268Y-74937000D01*
X119842100Y-75345408D01*
X119755858Y-75778971D01*
X117657251Y-75778971D01*
X117706471Y-75227472D01*
X117911130Y-74479365D01*
X118245036Y-73779317D01*
X118697628Y-73149468D01*
X119254604Y-72609722D01*
X119898361Y-72177134D01*
X120608549Y-71865384D01*
X121367600Y-71683151D01*
X122023302Y-71635000D01*
X161971721Y-71635000D01*
X162772528Y-71706470D01*
%TD*%
M02*
