%TF.GenerationSoftware,KiCad,Pcbnew,(5.1.6)-1*%
%TF.CreationDate,2021-12-10T22:34:56-05:00*%
%TF.ProjectId,base,62617365-2e6b-4696-9361-645f70636258,rev?*%
%TF.SameCoordinates,Original*%
%TF.FileFunction,Copper,L2,Bot*%
%TF.FilePolarity,Positive*%
%FSLAX46Y46*%
G04 Gerber Fmt 4.6, Leading zero omitted, Abs format (unit mm)*
G04 Created by KiCad (PCBNEW (5.1.6)-1) date 2021-12-10 22:34:56*
%MOMM*%
%LPD*%
G01*
G04 APERTURE LIST*
%TA.AperFunction,SMDPad,CuDef*%
%ADD10O,3.048000X1.524000*%
%TD*%
%TA.AperFunction,SMDPad,CuDef*%
%ADD11R,0.650000X0.400000*%
%TD*%
%TA.AperFunction,ViaPad*%
%ADD12C,0.800000*%
%TD*%
%TA.AperFunction,Conductor*%
%ADD13C,0.250000*%
%TD*%
%TA.AperFunction,Conductor*%
%ADD14C,0.254000*%
%TD*%
G04 APERTURE END LIST*
%TO.P,C1,1*%
%TO.N,+3V3*%
%TA.AperFunction,SMDPad,CuDef*%
G36*
G01*
X160543750Y-96075000D02*
X161456250Y-96075000D01*
G75*
G02*
X161700000Y-96318750I0J-243750D01*
G01*
X161700000Y-96806250D01*
G75*
G02*
X161456250Y-97050000I-243750J0D01*
G01*
X160543750Y-97050000D01*
G75*
G02*
X160300000Y-96806250I0J243750D01*
G01*
X160300000Y-96318750D01*
G75*
G02*
X160543750Y-96075000I243750J0D01*
G01*
G37*
%TD.AperFunction*%
%TO.P,C1,2*%
%TO.N,GND*%
%TA.AperFunction,SMDPad,CuDef*%
G36*
G01*
X160543750Y-97950000D02*
X161456250Y-97950000D01*
G75*
G02*
X161700000Y-98193750I0J-243750D01*
G01*
X161700000Y-98681250D01*
G75*
G02*
X161456250Y-98925000I-243750J0D01*
G01*
X160543750Y-98925000D01*
G75*
G02*
X160300000Y-98681250I0J243750D01*
G01*
X160300000Y-98193750D01*
G75*
G02*
X160543750Y-97950000I243750J0D01*
G01*
G37*
%TD.AperFunction*%
%TD*%
%TO.P,R1,2*%
%TO.N,SCL*%
%TA.AperFunction,SMDPad,CuDef*%
G36*
G01*
X155456250Y-87550000D02*
X154543750Y-87550000D01*
G75*
G02*
X154300000Y-87306250I0J243750D01*
G01*
X154300000Y-86818750D01*
G75*
G02*
X154543750Y-86575000I243750J0D01*
G01*
X155456250Y-86575000D01*
G75*
G02*
X155700000Y-86818750I0J-243750D01*
G01*
X155700000Y-87306250D01*
G75*
G02*
X155456250Y-87550000I-243750J0D01*
G01*
G37*
%TD.AperFunction*%
%TO.P,R1,1*%
%TO.N,+3V3*%
%TA.AperFunction,SMDPad,CuDef*%
G36*
G01*
X155456250Y-89425000D02*
X154543750Y-89425000D01*
G75*
G02*
X154300000Y-89181250I0J243750D01*
G01*
X154300000Y-88693750D01*
G75*
G02*
X154543750Y-88450000I243750J0D01*
G01*
X155456250Y-88450000D01*
G75*
G02*
X155700000Y-88693750I0J-243750D01*
G01*
X155700000Y-89181250D01*
G75*
G02*
X155456250Y-89425000I-243750J0D01*
G01*
G37*
%TD.AperFunction*%
%TD*%
%TO.P,R2,1*%
%TO.N,+3V3*%
%TA.AperFunction,SMDPad,CuDef*%
G36*
G01*
X156793750Y-92387500D02*
X157706250Y-92387500D01*
G75*
G02*
X157950000Y-92631250I0J-243750D01*
G01*
X157950000Y-93118750D01*
G75*
G02*
X157706250Y-93362500I-243750J0D01*
G01*
X156793750Y-93362500D01*
G75*
G02*
X156550000Y-93118750I0J243750D01*
G01*
X156550000Y-92631250D01*
G75*
G02*
X156793750Y-92387500I243750J0D01*
G01*
G37*
%TD.AperFunction*%
%TO.P,R2,2*%
%TO.N,SDA1*%
%TA.AperFunction,SMDPad,CuDef*%
G36*
G01*
X156793750Y-94262500D02*
X157706250Y-94262500D01*
G75*
G02*
X157950000Y-94506250I0J-243750D01*
G01*
X157950000Y-94993750D01*
G75*
G02*
X157706250Y-95237500I-243750J0D01*
G01*
X156793750Y-95237500D01*
G75*
G02*
X156550000Y-94993750I0J243750D01*
G01*
X156550000Y-94506250D01*
G75*
G02*
X156793750Y-94262500I243750J0D01*
G01*
G37*
%TD.AperFunction*%
%TD*%
%TO.P,R3,2*%
%TO.N,SDA2*%
%TA.AperFunction,SMDPad,CuDef*%
G36*
G01*
X157706250Y-97737500D02*
X156793750Y-97737500D01*
G75*
G02*
X156550000Y-97493750I0J243750D01*
G01*
X156550000Y-97006250D01*
G75*
G02*
X156793750Y-96762500I243750J0D01*
G01*
X157706250Y-96762500D01*
G75*
G02*
X157950000Y-97006250I0J-243750D01*
G01*
X157950000Y-97493750D01*
G75*
G02*
X157706250Y-97737500I-243750J0D01*
G01*
G37*
%TD.AperFunction*%
%TO.P,R3,1*%
%TO.N,+3V3*%
%TA.AperFunction,SMDPad,CuDef*%
G36*
G01*
X157706250Y-99612500D02*
X156793750Y-99612500D01*
G75*
G02*
X156550000Y-99368750I0J243750D01*
G01*
X156550000Y-98881250D01*
G75*
G02*
X156793750Y-98637500I243750J0D01*
G01*
X157706250Y-98637500D01*
G75*
G02*
X157950000Y-98881250I0J-243750D01*
G01*
X157950000Y-99368750D01*
G75*
G02*
X157706250Y-99612500I-243750J0D01*
G01*
G37*
%TD.AperFunction*%
%TD*%
%TO.P,R4,1*%
%TO.N,+3V3*%
%TA.AperFunction,SMDPad,CuDef*%
G36*
G01*
X154543750Y-82137500D02*
X155456250Y-82137500D01*
G75*
G02*
X155700000Y-82381250I0J-243750D01*
G01*
X155700000Y-82868750D01*
G75*
G02*
X155456250Y-83112500I-243750J0D01*
G01*
X154543750Y-83112500D01*
G75*
G02*
X154300000Y-82868750I0J243750D01*
G01*
X154300000Y-82381250D01*
G75*
G02*
X154543750Y-82137500I243750J0D01*
G01*
G37*
%TD.AperFunction*%
%TO.P,R4,2*%
%TO.N,SDA*%
%TA.AperFunction,SMDPad,CuDef*%
G36*
G01*
X154543750Y-84012500D02*
X155456250Y-84012500D01*
G75*
G02*
X155700000Y-84256250I0J-243750D01*
G01*
X155700000Y-84743750D01*
G75*
G02*
X155456250Y-84987500I-243750J0D01*
G01*
X154543750Y-84987500D01*
G75*
G02*
X154300000Y-84743750I0J243750D01*
G01*
X154300000Y-84256250D01*
G75*
G02*
X154543750Y-84012500I243750J0D01*
G01*
G37*
%TD.AperFunction*%
%TD*%
D10*
%TO.P,U1,1*%
%TO.N,Net-(U1-Pad1)*%
X150382000Y-74423180D03*
%TO.P,U1,2*%
%TO.N,Net-(U1-Pad2)*%
X150382000Y-76963180D03*
%TO.P,U1,3*%
%TO.N,Net-(U1-Pad3)*%
X150382000Y-79503180D03*
%TO.P,U1,4*%
%TO.N,SEL*%
X150382000Y-82000000D03*
%TO.P,U1,5*%
%TO.N,SDA*%
X150382000Y-84540000D03*
%TO.P,U1,6*%
%TO.N,SCL*%
X150382000Y-87123180D03*
%TO.P,U1,7*%
%TO.N,Net-(U1-Pad7)*%
X150382000Y-89663180D03*
%TO.P,U1,8*%
%TO.N,Net-(U1-Pad8)*%
X133618000Y-89620000D03*
%TO.P,U1,9*%
%TO.N,Net-(U1-Pad9)*%
X133618000Y-87080000D03*
%TO.P,U1,10*%
%TO.N,Net-(U1-Pad10)*%
X133618000Y-84540000D03*
%TO.P,U1,11*%
%TO.N,Net-(U1-Pad11)*%
X133618000Y-82000000D03*
%TO.P,U1,12*%
%TO.N,+3V3*%
X133618000Y-79460000D03*
%TO.P,U1,13*%
%TO.N,GND*%
X133618000Y-76920000D03*
%TO.P,U1,14*%
%TO.N,Net-(U1-Pad14)*%
X133618000Y-74380000D03*
%TD*%
D11*
%TO.P,U2,1*%
%TO.N,SDA1*%
X154950000Y-95350000D03*
%TO.P,U2,3*%
%TO.N,SDA2*%
X154950000Y-96650000D03*
%TO.P,U2,5*%
%TO.N,+3V3*%
X153050000Y-96000000D03*
%TO.P,U2,2*%
%TO.N,GND*%
X154950000Y-96000000D03*
%TO.P,U2,4*%
%TO.N,SDA*%
X153050000Y-96650000D03*
%TO.P,U2,6*%
%TO.N,SEL*%
X153050000Y-95350000D03*
%TD*%
D12*
%TO.N,+3V3*%
X145000000Y-92000000D03*
X160750000Y-93500000D03*
%TO.N,GND*%
X131000000Y-76250000D03*
X136250000Y-76250000D03*
X129500000Y-76250000D03*
X129500000Y-77750000D03*
X131000000Y-77750000D03*
X137750000Y-76250000D03*
X137750000Y-77750000D03*
X136250000Y-77750000D03*
X161000000Y-100000000D03*
X156250000Y-96000000D03*
%TO.N,SDA2*%
X148000000Y-92000000D03*
%TO.N,SCL*%
X147000000Y-92000000D03*
X168250020Y-94500000D03*
%TO.N,SDA1*%
X168250000Y-97000013D03*
%TO.N,SDA*%
X147000000Y-86500008D03*
X150249974Y-92000000D03*
%TO.N,SEL*%
X153000000Y-82500000D03*
X153000000Y-93250000D03*
%TD*%
D13*
%TO.N,+3V3*%
X153050000Y-96000000D02*
X152250000Y-96000000D01*
X152250000Y-96000000D02*
X151750000Y-95500000D01*
%TO.N,GND*%
X161000000Y-98437500D02*
X161000000Y-100000000D01*
X154950000Y-96000000D02*
X156250000Y-96000000D01*
%TO.N,SDA2*%
X156250000Y-97250000D02*
X157250000Y-97250000D01*
X154950000Y-96650000D02*
X155650000Y-96650000D01*
X155650000Y-96650000D02*
X156250000Y-97250000D01*
X154100000Y-97500000D02*
X154950000Y-96650000D01*
X149250000Y-97500000D02*
X154100000Y-97500000D01*
X148000000Y-92000000D02*
X148000000Y-96250000D01*
X148000000Y-96250000D02*
X149250000Y-97500000D01*
%TO.N,SCL*%
X166374993Y-94500000D02*
X167250000Y-94500000D01*
X155000000Y-87062500D02*
X158937493Y-87062500D01*
X167250000Y-94500000D02*
X168250020Y-94500000D01*
X158937493Y-87062500D02*
X166374993Y-94500000D01*
X154939320Y-87123180D02*
X150382000Y-87123180D01*
X155000000Y-87062500D02*
X154939320Y-87123180D01*
X147000000Y-88250000D02*
X147000000Y-92000000D01*
X150382000Y-87123180D02*
X148126820Y-87123180D01*
X148126820Y-87123180D02*
X147000000Y-88250000D01*
%TO.N,SDA1*%
X155675000Y-95350000D02*
X154950000Y-95350000D01*
X157250000Y-94750000D02*
X156275000Y-94750000D01*
X156275000Y-94750000D02*
X155675000Y-95350000D01*
X164750013Y-97000013D02*
X168250000Y-97000013D01*
X157250000Y-94750000D02*
X162500000Y-94750000D01*
X162500000Y-94750000D02*
X164750013Y-97000013D01*
%TO.N,SDA*%
X150382000Y-84540000D02*
X150790000Y-84540000D01*
X153050000Y-96650000D02*
X150650000Y-96650000D01*
X150249974Y-96249974D02*
X150249974Y-92000000D01*
X150650000Y-96650000D02*
X150249974Y-96249974D01*
X155000000Y-84540000D02*
X155000000Y-84500000D01*
X150382000Y-84540000D02*
X155000000Y-84540000D01*
X150382000Y-84540000D02*
X147710000Y-84540000D01*
X147000000Y-85250000D02*
X147000000Y-86500008D01*
X147710000Y-84540000D02*
X147000000Y-85250000D01*
%TO.N,SEL*%
X150382000Y-82000000D02*
X152500000Y-82000000D01*
X152500000Y-82000000D02*
X153000000Y-82500000D01*
X153000000Y-95300000D02*
X153050000Y-95350000D01*
X153000000Y-93250000D02*
X153000000Y-95300000D01*
%TD*%
D14*
%TO.N,+3V3*%
G36*
X162773955Y-71698566D02*
G01*
X163523433Y-71903600D01*
X164224773Y-72238122D01*
X164855776Y-72691544D01*
X165396523Y-73249551D01*
X165829906Y-73894493D01*
X166142229Y-74605983D01*
X166324781Y-75366369D01*
X166373001Y-76023001D01*
X166373000Y-78739177D01*
X166373664Y-78745919D01*
X166377800Y-78937599D01*
X166378288Y-78941993D01*
X166383122Y-79006698D01*
X166500266Y-79887889D01*
X166504593Y-79907134D01*
X166506680Y-79926752D01*
X166524720Y-79996647D01*
X166796057Y-80843166D01*
X166803725Y-80861343D01*
X166809252Y-80880279D01*
X166839378Y-80945860D01*
X166839384Y-80945874D01*
X166839385Y-80945875D01*
X167256340Y-81730966D01*
X167267102Y-81747493D01*
X167275898Y-81765156D01*
X167317161Y-81824364D01*
X167317171Y-81824379D01*
X167317176Y-81824384D01*
X167866564Y-82523225D01*
X167880083Y-82537585D01*
X167891868Y-82553412D01*
X167942960Y-82604374D01*
X167942975Y-82604390D01*
X167942981Y-82604394D01*
X168607442Y-83194903D01*
X168623291Y-83206643D01*
X168637690Y-83220130D01*
X168697018Y-83261253D01*
X169455552Y-83724767D01*
X169473236Y-83733518D01*
X169489791Y-83744239D01*
X169555450Y-83774200D01*
X169555462Y-83774206D01*
X169555466Y-83774207D01*
X170384091Y-84096069D01*
X170387511Y-84097058D01*
X170404110Y-84103455D01*
X171720132Y-84563743D01*
X172946579Y-85150768D01*
X174101194Y-85868827D01*
X175170057Y-86709263D01*
X176140230Y-87661904D01*
X177000004Y-88715253D01*
X177739002Y-89856592D01*
X178348294Y-91072134D01*
X178820514Y-92347180D01*
X179149968Y-93666354D01*
X179332676Y-95013722D01*
X179366427Y-96372999D01*
X179250816Y-97727762D01*
X178987237Y-99061661D01*
X178578877Y-100358583D01*
X178030663Y-101602867D01*
X177349223Y-102779471D01*
X176542778Y-103874200D01*
X175621088Y-104873808D01*
X174595263Y-105766248D01*
X173477697Y-106540734D01*
X172281899Y-107187902D01*
X171013532Y-107703511D01*
X170423013Y-107890268D01*
X170218082Y-107954347D01*
X170213985Y-107956041D01*
X170153181Y-107978654D01*
X169339210Y-108335963D01*
X169321928Y-108345464D01*
X169303659Y-108352919D01*
X169241539Y-108389657D01*
X169241525Y-108389665D01*
X169241520Y-108389669D01*
X168503692Y-108885468D01*
X168488360Y-108897883D01*
X168471705Y-108908453D01*
X168417080Y-108955605D01*
X168417061Y-108955620D01*
X168417056Y-108955626D01*
X167778687Y-109574248D01*
X167765796Y-109589182D01*
X167751276Y-109602534D01*
X167705864Y-109658614D01*
X167705848Y-109658633D01*
X167705843Y-109658641D01*
X167187114Y-110380529D01*
X167177075Y-110397504D01*
X167165144Y-110413222D01*
X167130377Y-110476465D01*
X167130369Y-110476478D01*
X167130369Y-110476479D01*
X166747669Y-111278825D01*
X166740792Y-111297315D01*
X166731836Y-111314893D01*
X166708812Y-111383308D01*
X166474245Y-112240744D01*
X166470753Y-112260154D01*
X166465049Y-112279044D01*
X166454504Y-112350456D01*
X166375717Y-113233249D01*
X166373001Y-113260822D01*
X166373000Y-115972074D01*
X166301434Y-116773950D01*
X166096399Y-117523435D01*
X165761878Y-118224773D01*
X165308454Y-118855779D01*
X164750449Y-119396523D01*
X164105507Y-119829906D01*
X163394015Y-120142229D01*
X162633632Y-120324781D01*
X161977012Y-120373000D01*
X122027937Y-120373000D01*
X121226050Y-120301433D01*
X120476565Y-120096398D01*
X119775227Y-119761877D01*
X119144225Y-119308456D01*
X118603480Y-118750451D01*
X118170097Y-118105510D01*
X117857771Y-117394012D01*
X117675220Y-116633631D01*
X117627000Y-115976998D01*
X117627000Y-115779755D01*
X119763820Y-115779755D01*
X119763820Y-116220245D01*
X119849755Y-116652270D01*
X120018323Y-117059228D01*
X120263046Y-117425482D01*
X120574518Y-117736954D01*
X120940772Y-117981677D01*
X121347730Y-118150245D01*
X121779755Y-118236180D01*
X122220245Y-118236180D01*
X122652270Y-118150245D01*
X123059228Y-117981677D01*
X123425482Y-117736954D01*
X123736954Y-117425482D01*
X123981677Y-117059228D01*
X124150245Y-116652270D01*
X124236180Y-116220245D01*
X124236180Y-115779755D01*
X159763819Y-115779755D01*
X159763819Y-116220245D01*
X159849754Y-116652270D01*
X160018322Y-117059229D01*
X160263045Y-117425482D01*
X160574518Y-117736955D01*
X160940771Y-117981678D01*
X161347730Y-118150246D01*
X161779755Y-118236181D01*
X162220245Y-118236181D01*
X162652270Y-118150246D01*
X163059229Y-117981678D01*
X163425482Y-117736955D01*
X163736955Y-117425482D01*
X163981678Y-117059229D01*
X164150246Y-116652270D01*
X164236181Y-116220245D01*
X164236181Y-115779755D01*
X164150246Y-115347730D01*
X163981678Y-114940771D01*
X163736955Y-114574518D01*
X163425482Y-114263045D01*
X163059229Y-114018322D01*
X162652270Y-113849754D01*
X162220245Y-113763819D01*
X161779755Y-113763819D01*
X161347730Y-113849754D01*
X160940771Y-114018322D01*
X160574518Y-114263045D01*
X160263045Y-114574518D01*
X160018322Y-114940771D01*
X159849754Y-115347730D01*
X159763819Y-115779755D01*
X124236180Y-115779755D01*
X124150245Y-115347730D01*
X123981677Y-114940772D01*
X123736954Y-114574518D01*
X123425482Y-114263046D01*
X123059228Y-114018323D01*
X122652270Y-113849755D01*
X122220245Y-113763820D01*
X121779755Y-113763820D01*
X121347730Y-113849755D01*
X120940772Y-114018323D01*
X120574518Y-114263046D01*
X120263046Y-114574518D01*
X120018323Y-114940772D01*
X119849755Y-115347730D01*
X119763820Y-115779755D01*
X117627000Y-115779755D01*
X117627000Y-104923171D01*
X160023000Y-104923171D01*
X160023000Y-105263361D01*
X160089368Y-105597013D01*
X160219553Y-105911307D01*
X160408552Y-106194164D01*
X160649102Y-106434714D01*
X160931959Y-106623713D01*
X161246253Y-106753898D01*
X161579905Y-106820266D01*
X161920095Y-106820266D01*
X162253747Y-106753898D01*
X162568041Y-106623713D01*
X162850898Y-106434714D01*
X163091448Y-106194164D01*
X163280447Y-105911307D01*
X163410632Y-105597013D01*
X163477000Y-105263361D01*
X163477000Y-104923171D01*
X163410632Y-104589519D01*
X163280447Y-104275225D01*
X163091448Y-103992368D01*
X162850898Y-103751818D01*
X162568041Y-103562819D01*
X162253747Y-103432634D01*
X161920095Y-103366266D01*
X161579905Y-103366266D01*
X161246253Y-103432634D01*
X160931959Y-103562819D01*
X160649102Y-103751818D01*
X160408552Y-103992368D01*
X160219553Y-104275225D01*
X160089368Y-104589519D01*
X160023000Y-104923171D01*
X117627000Y-104923171D01*
X117627000Y-99612500D01*
X155911928Y-99612500D01*
X155924188Y-99736982D01*
X155960498Y-99856680D01*
X156019463Y-99966994D01*
X156098815Y-100063685D01*
X156195506Y-100143037D01*
X156305820Y-100202002D01*
X156425518Y-100238312D01*
X156550000Y-100250572D01*
X156964250Y-100247500D01*
X157123000Y-100088750D01*
X157123000Y-99252000D01*
X157377000Y-99252000D01*
X157377000Y-100088750D01*
X157535750Y-100247500D01*
X157950000Y-100250572D01*
X158074482Y-100238312D01*
X158194180Y-100202002D01*
X158304494Y-100143037D01*
X158401185Y-100063685D01*
X158480537Y-99966994D01*
X158539502Y-99856680D01*
X158575812Y-99736982D01*
X158588072Y-99612500D01*
X158585000Y-99410750D01*
X158426250Y-99252000D01*
X157377000Y-99252000D01*
X157123000Y-99252000D01*
X156073750Y-99252000D01*
X155915000Y-99410750D01*
X155911928Y-99612500D01*
X117627000Y-99612500D01*
X117627000Y-82000000D01*
X131460280Y-82000000D01*
X131487098Y-82272291D01*
X131566523Y-82534119D01*
X131695501Y-82775420D01*
X131869077Y-82986923D01*
X132080580Y-83160499D01*
X132285442Y-83270000D01*
X132080580Y-83379501D01*
X131869077Y-83553077D01*
X131695501Y-83764580D01*
X131566523Y-84005881D01*
X131487098Y-84267709D01*
X131460280Y-84540000D01*
X131487098Y-84812291D01*
X131566523Y-85074119D01*
X131695501Y-85315420D01*
X131869077Y-85526923D01*
X132080580Y-85700499D01*
X132285442Y-85810000D01*
X132080580Y-85919501D01*
X131869077Y-86093077D01*
X131695501Y-86304580D01*
X131566523Y-86545881D01*
X131487098Y-86807709D01*
X131460280Y-87080000D01*
X131487098Y-87352291D01*
X131566523Y-87614119D01*
X131695501Y-87855420D01*
X131869077Y-88066923D01*
X132080580Y-88240499D01*
X132285442Y-88350000D01*
X132080580Y-88459501D01*
X131869077Y-88633077D01*
X131695501Y-88844580D01*
X131566523Y-89085881D01*
X131487098Y-89347709D01*
X131460280Y-89620000D01*
X131487098Y-89892291D01*
X131566523Y-90154119D01*
X131695501Y-90395420D01*
X131869077Y-90606923D01*
X132080580Y-90780499D01*
X132321881Y-90909477D01*
X132583709Y-90988902D01*
X132787770Y-91009000D01*
X134448230Y-91009000D01*
X134652291Y-90988902D01*
X134914119Y-90909477D01*
X135155420Y-90780499D01*
X135366923Y-90606923D01*
X135540499Y-90395420D01*
X135669477Y-90154119D01*
X135748902Y-89892291D01*
X135775720Y-89620000D01*
X135748902Y-89347709D01*
X135669477Y-89085881D01*
X135540499Y-88844580D01*
X135366923Y-88633077D01*
X135155420Y-88459501D01*
X134950558Y-88350000D01*
X135155420Y-88240499D01*
X135366923Y-88066923D01*
X135540499Y-87855420D01*
X135669477Y-87614119D01*
X135748902Y-87352291D01*
X135775720Y-87080000D01*
X135748902Y-86807709D01*
X135669477Y-86545881D01*
X135590892Y-86398857D01*
X145973000Y-86398857D01*
X145973000Y-86601159D01*
X146012467Y-86799573D01*
X146089885Y-86986475D01*
X146202277Y-87154682D01*
X146345326Y-87297731D01*
X146513533Y-87410123D01*
X146699400Y-87487112D01*
X146494379Y-87692133D01*
X146465683Y-87715683D01*
X146420177Y-87771133D01*
X146371710Y-87830190D01*
X146338469Y-87892381D01*
X146301882Y-87960831D01*
X146258881Y-88102583D01*
X146248000Y-88213062D01*
X146244362Y-88250000D01*
X146248000Y-88286936D01*
X146248001Y-91299602D01*
X146202277Y-91345326D01*
X146089885Y-91513533D01*
X146012467Y-91700435D01*
X145973000Y-91898849D01*
X145973000Y-92101151D01*
X146012467Y-92299565D01*
X146089885Y-92486467D01*
X146202277Y-92654674D01*
X146345326Y-92797723D01*
X146513533Y-92910115D01*
X146700435Y-92987533D01*
X146898849Y-93027000D01*
X147101151Y-93027000D01*
X147248000Y-92997790D01*
X147248001Y-96213055D01*
X147244362Y-96250000D01*
X147256351Y-96371723D01*
X147258880Y-96397392D01*
X147258882Y-96397417D01*
X147301882Y-96539169D01*
X147371710Y-96669810D01*
X147439162Y-96752000D01*
X147465684Y-96784317D01*
X147494375Y-96807863D01*
X148692137Y-98005626D01*
X148715683Y-98034317D01*
X148830190Y-98128290D01*
X148960830Y-98198118D01*
X149102582Y-98241119D01*
X149213062Y-98252000D01*
X149213064Y-98252000D01*
X149250000Y-98255638D01*
X149286935Y-98252000D01*
X154063065Y-98252000D01*
X154100000Y-98255638D01*
X154136935Y-98252000D01*
X154136938Y-98252000D01*
X154247418Y-98241119D01*
X154389170Y-98198118D01*
X154519810Y-98128290D01*
X154634317Y-98034317D01*
X154657867Y-98005621D01*
X155183455Y-97480033D01*
X155275000Y-97480033D01*
X155397913Y-97467927D01*
X155402920Y-97466408D01*
X155692137Y-97755626D01*
X155715683Y-97784317D01*
X155744374Y-97807863D01*
X155830189Y-97878290D01*
X155876762Y-97903183D01*
X155960830Y-97948118D01*
X156068532Y-97980790D01*
X156175892Y-98111608D01*
X156182869Y-98117334D01*
X156098815Y-98186315D01*
X156019463Y-98283006D01*
X155960498Y-98393320D01*
X155924188Y-98513018D01*
X155911928Y-98637500D01*
X155915000Y-98839250D01*
X156073750Y-98998000D01*
X157123000Y-98998000D01*
X157123000Y-98978000D01*
X157377000Y-98978000D01*
X157377000Y-98998000D01*
X158426250Y-98998000D01*
X158585000Y-98839250D01*
X158588072Y-98637500D01*
X158575812Y-98513018D01*
X158539502Y-98393320D01*
X158480537Y-98283006D01*
X158401185Y-98186315D01*
X158317131Y-98117334D01*
X158324108Y-98111608D01*
X158432774Y-97979198D01*
X158513520Y-97828132D01*
X158563244Y-97664217D01*
X158580033Y-97493750D01*
X158580033Y-97050000D01*
X159661928Y-97050000D01*
X159674188Y-97174482D01*
X159710498Y-97294180D01*
X159769463Y-97404494D01*
X159848815Y-97501185D01*
X159932869Y-97570166D01*
X159925892Y-97575892D01*
X159817226Y-97708302D01*
X159736480Y-97859368D01*
X159686756Y-98023283D01*
X159669967Y-98193750D01*
X159669967Y-98681250D01*
X159686756Y-98851717D01*
X159736480Y-99015632D01*
X159817226Y-99166698D01*
X159925892Y-99299108D01*
X160058302Y-99407774D01*
X160133643Y-99448044D01*
X160089885Y-99513533D01*
X160012467Y-99700435D01*
X159973000Y-99898849D01*
X159973000Y-100101151D01*
X160012467Y-100299565D01*
X160089885Y-100486467D01*
X160202277Y-100654674D01*
X160345326Y-100797723D01*
X160513533Y-100910115D01*
X160700435Y-100987533D01*
X160898849Y-101027000D01*
X161101151Y-101027000D01*
X161299565Y-100987533D01*
X161486467Y-100910115D01*
X161654674Y-100797723D01*
X161797723Y-100654674D01*
X161910115Y-100486467D01*
X161987533Y-100299565D01*
X162027000Y-100101151D01*
X162027000Y-99898849D01*
X161987533Y-99700435D01*
X161910115Y-99513533D01*
X161866357Y-99448044D01*
X161941698Y-99407774D01*
X162074108Y-99299108D01*
X162182774Y-99166698D01*
X162263520Y-99015632D01*
X162313244Y-98851717D01*
X162330033Y-98681250D01*
X162330033Y-98193750D01*
X162313244Y-98023283D01*
X162263520Y-97859368D01*
X162182774Y-97708302D01*
X162074108Y-97575892D01*
X162067131Y-97570166D01*
X162151185Y-97501185D01*
X162230537Y-97404494D01*
X162289502Y-97294180D01*
X162325812Y-97174482D01*
X162338072Y-97050000D01*
X162335000Y-96848250D01*
X162176250Y-96689500D01*
X161127000Y-96689500D01*
X161127000Y-96709500D01*
X160873000Y-96709500D01*
X160873000Y-96689500D01*
X159823750Y-96689500D01*
X159665000Y-96848250D01*
X159661928Y-97050000D01*
X158580033Y-97050000D01*
X158580033Y-97006250D01*
X158563244Y-96835783D01*
X158513520Y-96671868D01*
X158432774Y-96520802D01*
X158324108Y-96388392D01*
X158191698Y-96279726D01*
X158040632Y-96198980D01*
X157876717Y-96149256D01*
X157706250Y-96132467D01*
X157270771Y-96132467D01*
X157277000Y-96101151D01*
X157277000Y-95898849D01*
X157270771Y-95867533D01*
X157706250Y-95867533D01*
X157876717Y-95850744D01*
X158040632Y-95801020D01*
X158191698Y-95720274D01*
X158324108Y-95611608D01*
X158414061Y-95502000D01*
X160024947Y-95502000D01*
X159945506Y-95544463D01*
X159848815Y-95623815D01*
X159769463Y-95720506D01*
X159710498Y-95830820D01*
X159674188Y-95950518D01*
X159661928Y-96075000D01*
X159665000Y-96276750D01*
X159823750Y-96435500D01*
X160873000Y-96435500D01*
X160873000Y-96415500D01*
X161127000Y-96415500D01*
X161127000Y-96435500D01*
X162176250Y-96435500D01*
X162335000Y-96276750D01*
X162338072Y-96075000D01*
X162325812Y-95950518D01*
X162289502Y-95830820D01*
X162230537Y-95720506D01*
X162151185Y-95623815D01*
X162054494Y-95544463D01*
X161975053Y-95502000D01*
X162188512Y-95502000D01*
X164192150Y-97505639D01*
X164215696Y-97534330D01*
X164330203Y-97628303D01*
X164460843Y-97698131D01*
X164602595Y-97741132D01*
X164713075Y-97752013D01*
X164713077Y-97752013D01*
X164750013Y-97755651D01*
X164786948Y-97752013D01*
X167549603Y-97752013D01*
X167595326Y-97797736D01*
X167763533Y-97910128D01*
X167950435Y-97987546D01*
X168148849Y-98027013D01*
X168351151Y-98027013D01*
X168549565Y-97987546D01*
X168736467Y-97910128D01*
X168904674Y-97797736D01*
X169047723Y-97654687D01*
X169160115Y-97486480D01*
X169237533Y-97299578D01*
X169277000Y-97101164D01*
X169277000Y-96898862D01*
X169237533Y-96700448D01*
X169160115Y-96513546D01*
X169047723Y-96345339D01*
X168904674Y-96202290D01*
X168736467Y-96089898D01*
X168549565Y-96012480D01*
X168351151Y-95973013D01*
X168148849Y-95973013D01*
X167950435Y-96012480D01*
X167763533Y-96089898D01*
X167595326Y-96202290D01*
X167549603Y-96248013D01*
X165061502Y-96248013D01*
X164643394Y-95829905D01*
X175773000Y-95829905D01*
X175773000Y-96170095D01*
X175839368Y-96503747D01*
X175969553Y-96818041D01*
X176158552Y-97100898D01*
X176399102Y-97341448D01*
X176681959Y-97530447D01*
X176996253Y-97660632D01*
X177329905Y-97727000D01*
X177670095Y-97727000D01*
X178003747Y-97660632D01*
X178318041Y-97530447D01*
X178600898Y-97341448D01*
X178841448Y-97100898D01*
X179030447Y-96818041D01*
X179160632Y-96503747D01*
X179227000Y-96170095D01*
X179227000Y-95829905D01*
X179160632Y-95496253D01*
X179030447Y-95181959D01*
X178841448Y-94899102D01*
X178600898Y-94658552D01*
X178318041Y-94469553D01*
X178003747Y-94339368D01*
X177670095Y-94273000D01*
X177329905Y-94273000D01*
X176996253Y-94339368D01*
X176681959Y-94469553D01*
X176399102Y-94658552D01*
X176158552Y-94899102D01*
X175969553Y-95181959D01*
X175839368Y-95496253D01*
X175773000Y-95829905D01*
X164643394Y-95829905D01*
X163057867Y-94244379D01*
X163034317Y-94215683D01*
X162919810Y-94121710D01*
X162789170Y-94051882D01*
X162647418Y-94008881D01*
X162536938Y-93998000D01*
X162536935Y-93998000D01*
X162500000Y-93994362D01*
X162463065Y-93998000D01*
X158414061Y-93998000D01*
X158324108Y-93888392D01*
X158317131Y-93882666D01*
X158401185Y-93813685D01*
X158480537Y-93716994D01*
X158539502Y-93606680D01*
X158575812Y-93486982D01*
X158588072Y-93362500D01*
X158585000Y-93160750D01*
X158426250Y-93002000D01*
X157377000Y-93002000D01*
X157377000Y-93022000D01*
X157123000Y-93022000D01*
X157123000Y-93002000D01*
X156073750Y-93002000D01*
X155915000Y-93160750D01*
X155911928Y-93362500D01*
X155924188Y-93486982D01*
X155960498Y-93606680D01*
X156019463Y-93716994D01*
X156098815Y-93813685D01*
X156182869Y-93882666D01*
X156175892Y-93888392D01*
X156067226Y-94020802D01*
X156063151Y-94028426D01*
X155985830Y-94051882D01*
X155925017Y-94084387D01*
X155855189Y-94121710D01*
X155794072Y-94171868D01*
X155740683Y-94215683D01*
X155717137Y-94244374D01*
X155422101Y-94539410D01*
X155397913Y-94532073D01*
X155275000Y-94519967D01*
X154625000Y-94519967D01*
X154502087Y-94532073D01*
X154383897Y-94567925D01*
X154274972Y-94626147D01*
X154179499Y-94704499D01*
X154101147Y-94799972D01*
X154042925Y-94908897D01*
X154007073Y-95027087D01*
X154000000Y-95098900D01*
X153992927Y-95027087D01*
X153957075Y-94908897D01*
X153898853Y-94799972D01*
X153820501Y-94704499D01*
X153752000Y-94648282D01*
X153752000Y-93950397D01*
X153797723Y-93904674D01*
X153910115Y-93736467D01*
X153987533Y-93549565D01*
X154027000Y-93351151D01*
X154027000Y-93148849D01*
X153987533Y-92950435D01*
X153910115Y-92763533D01*
X153797723Y-92595326D01*
X153654674Y-92452277D01*
X153557729Y-92387500D01*
X155911928Y-92387500D01*
X155915000Y-92589250D01*
X156073750Y-92748000D01*
X157123000Y-92748000D01*
X157123000Y-91911250D01*
X157377000Y-91911250D01*
X157377000Y-92748000D01*
X158426250Y-92748000D01*
X158585000Y-92589250D01*
X158588072Y-92387500D01*
X158575812Y-92263018D01*
X158539502Y-92143320D01*
X158480537Y-92033006D01*
X158401185Y-91936315D01*
X158304494Y-91856963D01*
X158194180Y-91797998D01*
X158074482Y-91761688D01*
X157950000Y-91749428D01*
X157535750Y-91752500D01*
X157377000Y-91911250D01*
X157123000Y-91911250D01*
X156964250Y-91752500D01*
X156550000Y-91749428D01*
X156425518Y-91761688D01*
X156305820Y-91797998D01*
X156195506Y-91856963D01*
X156098815Y-91936315D01*
X156019463Y-92033006D01*
X155960498Y-92143320D01*
X155924188Y-92263018D01*
X155911928Y-92387500D01*
X153557729Y-92387500D01*
X153486467Y-92339885D01*
X153299565Y-92262467D01*
X153101151Y-92223000D01*
X152898849Y-92223000D01*
X152700435Y-92262467D01*
X152513533Y-92339885D01*
X152345326Y-92452277D01*
X152202277Y-92595326D01*
X152089885Y-92763533D01*
X152012467Y-92950435D01*
X151973000Y-93148849D01*
X151973000Y-93351151D01*
X152012467Y-93549565D01*
X152089885Y-93736467D01*
X152202277Y-93904674D01*
X152248000Y-93950397D01*
X152248001Y-94742880D01*
X152201147Y-94799972D01*
X152142925Y-94908897D01*
X152107073Y-95027087D01*
X152094967Y-95150000D01*
X152094967Y-95550000D01*
X152105040Y-95652274D01*
X152102454Y-95660098D01*
X152090000Y-95768250D01*
X152177457Y-95855707D01*
X152186699Y-95872998D01*
X152090000Y-95872998D01*
X152090000Y-95898000D01*
X151001974Y-95898000D01*
X151001974Y-92700397D01*
X151047697Y-92654674D01*
X151160089Y-92486467D01*
X151237507Y-92299565D01*
X151276974Y-92101151D01*
X151276974Y-91898849D01*
X151237507Y-91700435D01*
X151160089Y-91513533D01*
X151047697Y-91345326D01*
X150904648Y-91202277D01*
X150736441Y-91089885D01*
X150645414Y-91052180D01*
X151212230Y-91052180D01*
X151416291Y-91032082D01*
X151678119Y-90952657D01*
X151919420Y-90823679D01*
X152130923Y-90650103D01*
X152304499Y-90438600D01*
X152433477Y-90197299D01*
X152512902Y-89935471D01*
X152539720Y-89663180D01*
X152516262Y-89425000D01*
X153661928Y-89425000D01*
X153674188Y-89549482D01*
X153710498Y-89669180D01*
X153769463Y-89779494D01*
X153848815Y-89876185D01*
X153945506Y-89955537D01*
X154055820Y-90014502D01*
X154175518Y-90050812D01*
X154300000Y-90063072D01*
X154714250Y-90060000D01*
X154873000Y-89901250D01*
X154873000Y-89064500D01*
X155127000Y-89064500D01*
X155127000Y-89901250D01*
X155285750Y-90060000D01*
X155700000Y-90063072D01*
X155824482Y-90050812D01*
X155944180Y-90014502D01*
X156054494Y-89955537D01*
X156151185Y-89876185D01*
X156230537Y-89779494D01*
X156289502Y-89669180D01*
X156325812Y-89549482D01*
X156338072Y-89425000D01*
X156335000Y-89223250D01*
X156176250Y-89064500D01*
X155127000Y-89064500D01*
X154873000Y-89064500D01*
X153823750Y-89064500D01*
X153665000Y-89223250D01*
X153661928Y-89425000D01*
X152516262Y-89425000D01*
X152512902Y-89390889D01*
X152433477Y-89129061D01*
X152304499Y-88887760D01*
X152130923Y-88676257D01*
X151919420Y-88502681D01*
X151714558Y-88393180D01*
X151919420Y-88283679D01*
X152130923Y-88110103D01*
X152304499Y-87898600D01*
X152317017Y-87875180D01*
X153885738Y-87875180D01*
X153925892Y-87924108D01*
X153932869Y-87929834D01*
X153848815Y-87998815D01*
X153769463Y-88095506D01*
X153710498Y-88205820D01*
X153674188Y-88325518D01*
X153661928Y-88450000D01*
X153665000Y-88651750D01*
X153823750Y-88810500D01*
X154873000Y-88810500D01*
X154873000Y-88790500D01*
X155127000Y-88790500D01*
X155127000Y-88810500D01*
X156176250Y-88810500D01*
X156335000Y-88651750D01*
X156338072Y-88450000D01*
X156325812Y-88325518D01*
X156289502Y-88205820D01*
X156230537Y-88095506D01*
X156151185Y-87998815D01*
X156067131Y-87929834D01*
X156074108Y-87924108D01*
X156164061Y-87814500D01*
X158626005Y-87814500D01*
X165817130Y-95005626D01*
X165840676Y-95034317D01*
X165869367Y-95057863D01*
X165955182Y-95128290D01*
X166022398Y-95164217D01*
X166085823Y-95198118D01*
X166227575Y-95241119D01*
X166338055Y-95252000D01*
X166338057Y-95252000D01*
X166374992Y-95255638D01*
X166411928Y-95252000D01*
X167549623Y-95252000D01*
X167595346Y-95297723D01*
X167763553Y-95410115D01*
X167950455Y-95487533D01*
X168148869Y-95527000D01*
X168351171Y-95527000D01*
X168549585Y-95487533D01*
X168736487Y-95410115D01*
X168904694Y-95297723D01*
X169047743Y-95154674D01*
X169160135Y-94986467D01*
X169237553Y-94799565D01*
X169277020Y-94601151D01*
X169277020Y-94398849D01*
X169237553Y-94200435D01*
X169160135Y-94013533D01*
X169047743Y-93845326D01*
X168904694Y-93702277D01*
X168736487Y-93589885D01*
X168549585Y-93512467D01*
X168351171Y-93473000D01*
X168148869Y-93473000D01*
X167950455Y-93512467D01*
X167763553Y-93589885D01*
X167595346Y-93702277D01*
X167549623Y-93748000D01*
X166686482Y-93748000D01*
X161570306Y-88631825D01*
X161579905Y-88633734D01*
X161920095Y-88633734D01*
X162253747Y-88567366D01*
X162568041Y-88437181D01*
X162850898Y-88248182D01*
X163091448Y-88007632D01*
X163280447Y-87724775D01*
X163410632Y-87410481D01*
X163477000Y-87076829D01*
X163477000Y-86736639D01*
X163410632Y-86402987D01*
X163280447Y-86088693D01*
X163091448Y-85805836D01*
X162850898Y-85565286D01*
X162568041Y-85376287D01*
X162253747Y-85246102D01*
X161920095Y-85179734D01*
X161579905Y-85179734D01*
X161246253Y-85246102D01*
X160931959Y-85376287D01*
X160649102Y-85565286D01*
X160408552Y-85805836D01*
X160219553Y-86088693D01*
X160089368Y-86402987D01*
X160023000Y-86736639D01*
X160023000Y-87076829D01*
X160024909Y-87086428D01*
X159495360Y-86556879D01*
X159471810Y-86528183D01*
X159357303Y-86434210D01*
X159226663Y-86364382D01*
X159084911Y-86321381D01*
X158974431Y-86310500D01*
X158974428Y-86310500D01*
X158937493Y-86306862D01*
X158900558Y-86310500D01*
X156164061Y-86310500D01*
X156074108Y-86200892D01*
X155941698Y-86092226D01*
X155790632Y-86011480D01*
X155626717Y-85961756D01*
X155456250Y-85944967D01*
X154543750Y-85944967D01*
X154373283Y-85961756D01*
X154209368Y-86011480D01*
X154058302Y-86092226D01*
X153925892Y-86200892D01*
X153817226Y-86333302D01*
X153796980Y-86371180D01*
X152317017Y-86371180D01*
X152304499Y-86347760D01*
X152130923Y-86136257D01*
X151919420Y-85962681D01*
X151678119Y-85833703D01*
X151671153Y-85831590D01*
X151678119Y-85829477D01*
X151919420Y-85700499D01*
X152130923Y-85526923D01*
X152304499Y-85315420D01*
X152317017Y-85292000D01*
X153868766Y-85292000D01*
X153925892Y-85361608D01*
X154058302Y-85470274D01*
X154209368Y-85551020D01*
X154373283Y-85600744D01*
X154543750Y-85617533D01*
X155456250Y-85617533D01*
X155626717Y-85600744D01*
X155790632Y-85551020D01*
X155941698Y-85470274D01*
X156074108Y-85361608D01*
X156182774Y-85229198D01*
X156263520Y-85078132D01*
X156313244Y-84914217D01*
X156330033Y-84743750D01*
X156330033Y-84256250D01*
X156313244Y-84085783D01*
X156263520Y-83921868D01*
X156182774Y-83770802D01*
X156074108Y-83638392D01*
X156067131Y-83632666D01*
X156151185Y-83563685D01*
X156230537Y-83466994D01*
X156289502Y-83356680D01*
X156325812Y-83236982D01*
X156338072Y-83112500D01*
X156335000Y-82910750D01*
X156176250Y-82752000D01*
X155127000Y-82752000D01*
X155127000Y-82772000D01*
X154873000Y-82772000D01*
X154873000Y-82752000D01*
X154853000Y-82752000D01*
X154853000Y-82498000D01*
X154873000Y-82498000D01*
X154873000Y-81661250D01*
X155127000Y-81661250D01*
X155127000Y-82498000D01*
X156176250Y-82498000D01*
X156335000Y-82339250D01*
X156338072Y-82137500D01*
X156325812Y-82013018D01*
X156289502Y-81893320D01*
X156230537Y-81783006D01*
X156151185Y-81686315D01*
X156054494Y-81606963D01*
X155944180Y-81547998D01*
X155824482Y-81511688D01*
X155700000Y-81499428D01*
X155285750Y-81502500D01*
X155127000Y-81661250D01*
X154873000Y-81661250D01*
X154714250Y-81502500D01*
X154300000Y-81499428D01*
X154175518Y-81511688D01*
X154055820Y-81547998D01*
X153945506Y-81606963D01*
X153848815Y-81686315D01*
X153769463Y-81783006D01*
X153757599Y-81805202D01*
X153654674Y-81702277D01*
X153486467Y-81589885D01*
X153299565Y-81512467D01*
X153101151Y-81473000D01*
X153040322Y-81473000D01*
X153034317Y-81465683D01*
X152919810Y-81371710D01*
X152789170Y-81301882D01*
X152647418Y-81258881D01*
X152536938Y-81248000D01*
X152536935Y-81248000D01*
X152500000Y-81244362D01*
X152463065Y-81248000D01*
X152317017Y-81248000D01*
X152304499Y-81224580D01*
X152130923Y-81013077D01*
X151919420Y-80839501D01*
X151754950Y-80751590D01*
X151919420Y-80663679D01*
X152130923Y-80490103D01*
X152304499Y-80278600D01*
X152433477Y-80037299D01*
X152512902Y-79775471D01*
X152539720Y-79503180D01*
X152512902Y-79230889D01*
X152433477Y-78969061D01*
X152304499Y-78727760D01*
X152130923Y-78516257D01*
X151919420Y-78342681D01*
X151714558Y-78233180D01*
X151919420Y-78123679D01*
X152130923Y-77950103D01*
X152304499Y-77738600D01*
X152433477Y-77497299D01*
X152512902Y-77235471D01*
X152539720Y-76963180D01*
X152512902Y-76690889D01*
X152433477Y-76429061D01*
X152304499Y-76187760D01*
X152130923Y-75976257D01*
X151919420Y-75802681D01*
X151876529Y-75779755D01*
X159763819Y-75779755D01*
X159763819Y-76220245D01*
X159849754Y-76652270D01*
X160018322Y-77059229D01*
X160263045Y-77425482D01*
X160574518Y-77736955D01*
X160940771Y-77981678D01*
X161347730Y-78150246D01*
X161779755Y-78236181D01*
X162220245Y-78236181D01*
X162652270Y-78150246D01*
X163059229Y-77981678D01*
X163425482Y-77736955D01*
X163736955Y-77425482D01*
X163981678Y-77059229D01*
X164150246Y-76652270D01*
X164236181Y-76220245D01*
X164236181Y-75779755D01*
X164150246Y-75347730D01*
X163981678Y-74940771D01*
X163736955Y-74574518D01*
X163425482Y-74263045D01*
X163059229Y-74018322D01*
X162652270Y-73849754D01*
X162220245Y-73763819D01*
X161779755Y-73763819D01*
X161347730Y-73849754D01*
X160940771Y-74018322D01*
X160574518Y-74263045D01*
X160263045Y-74574518D01*
X160018322Y-74940771D01*
X159849754Y-75347730D01*
X159763819Y-75779755D01*
X151876529Y-75779755D01*
X151714558Y-75693180D01*
X151919420Y-75583679D01*
X152130923Y-75410103D01*
X152304499Y-75198600D01*
X152433477Y-74957299D01*
X152512902Y-74695471D01*
X152539720Y-74423180D01*
X152512902Y-74150889D01*
X152433477Y-73889061D01*
X152304499Y-73647760D01*
X152130923Y-73436257D01*
X151919420Y-73262681D01*
X151678119Y-73133703D01*
X151416291Y-73054278D01*
X151212230Y-73034180D01*
X149551770Y-73034180D01*
X149347709Y-73054278D01*
X149085881Y-73133703D01*
X148844580Y-73262681D01*
X148633077Y-73436257D01*
X148459501Y-73647760D01*
X148330523Y-73889061D01*
X148251098Y-74150889D01*
X148224280Y-74423180D01*
X148251098Y-74695471D01*
X148330523Y-74957299D01*
X148459501Y-75198600D01*
X148633077Y-75410103D01*
X148844580Y-75583679D01*
X149049442Y-75693180D01*
X148844580Y-75802681D01*
X148633077Y-75976257D01*
X148459501Y-76187760D01*
X148330523Y-76429061D01*
X148251098Y-76690889D01*
X148224280Y-76963180D01*
X148251098Y-77235471D01*
X148330523Y-77497299D01*
X148459501Y-77738600D01*
X148633077Y-77950103D01*
X148844580Y-78123679D01*
X149049442Y-78233180D01*
X148844580Y-78342681D01*
X148633077Y-78516257D01*
X148459501Y-78727760D01*
X148330523Y-78969061D01*
X148251098Y-79230889D01*
X148224280Y-79503180D01*
X148251098Y-79775471D01*
X148330523Y-80037299D01*
X148459501Y-80278600D01*
X148633077Y-80490103D01*
X148844580Y-80663679D01*
X149009050Y-80751590D01*
X148844580Y-80839501D01*
X148633077Y-81013077D01*
X148459501Y-81224580D01*
X148330523Y-81465881D01*
X148251098Y-81727709D01*
X148224280Y-82000000D01*
X148251098Y-82272291D01*
X148330523Y-82534119D01*
X148459501Y-82775420D01*
X148633077Y-82986923D01*
X148844580Y-83160499D01*
X149049442Y-83270000D01*
X148844580Y-83379501D01*
X148633077Y-83553077D01*
X148459501Y-83764580D01*
X148446983Y-83788000D01*
X147746935Y-83788000D01*
X147710000Y-83784362D01*
X147673064Y-83788000D01*
X147673062Y-83788000D01*
X147562582Y-83798881D01*
X147420830Y-83841882D01*
X147290190Y-83911710D01*
X147175683Y-84005683D01*
X147152133Y-84034379D01*
X146494379Y-84692133D01*
X146465683Y-84715683D01*
X146412583Y-84780386D01*
X146371710Y-84830190D01*
X146315311Y-84935707D01*
X146301882Y-84960831D01*
X146258881Y-85102583D01*
X146248194Y-85211096D01*
X146244362Y-85250000D01*
X146248000Y-85286936D01*
X146248000Y-85799611D01*
X146202277Y-85845334D01*
X146089885Y-86013541D01*
X146012467Y-86200443D01*
X145973000Y-86398857D01*
X135590892Y-86398857D01*
X135540499Y-86304580D01*
X135366923Y-86093077D01*
X135155420Y-85919501D01*
X134950558Y-85810000D01*
X135155420Y-85700499D01*
X135366923Y-85526923D01*
X135540499Y-85315420D01*
X135669477Y-85074119D01*
X135748902Y-84812291D01*
X135775720Y-84540000D01*
X135748902Y-84267709D01*
X135669477Y-84005881D01*
X135540499Y-83764580D01*
X135366923Y-83553077D01*
X135155420Y-83379501D01*
X134950558Y-83270000D01*
X135155420Y-83160499D01*
X135366923Y-82986923D01*
X135540499Y-82775420D01*
X135669477Y-82534119D01*
X135748902Y-82272291D01*
X135775720Y-82000000D01*
X135748902Y-81727709D01*
X135669477Y-81465881D01*
X135540499Y-81224580D01*
X135366923Y-81013077D01*
X135155420Y-80839501D01*
X134955936Y-80732875D01*
X135031942Y-80702059D01*
X135261729Y-80551006D01*
X135457632Y-80358026D01*
X135612122Y-80130535D01*
X135719262Y-79877276D01*
X135734220Y-79803070D01*
X135611720Y-79587000D01*
X133745000Y-79587000D01*
X133745000Y-79607000D01*
X133491000Y-79607000D01*
X133491000Y-79587000D01*
X131624280Y-79587000D01*
X131501780Y-79803070D01*
X131516738Y-79877276D01*
X131623878Y-80130535D01*
X131778368Y-80358026D01*
X131974271Y-80551006D01*
X132204058Y-80702059D01*
X132280064Y-80732875D01*
X132080580Y-80839501D01*
X131869077Y-81013077D01*
X131695501Y-81224580D01*
X131566523Y-81465881D01*
X131487098Y-81727709D01*
X131460280Y-82000000D01*
X117627000Y-82000000D01*
X117627000Y-76027938D01*
X117649149Y-75779755D01*
X119763820Y-75779755D01*
X119763820Y-76220245D01*
X119849755Y-76652270D01*
X120018323Y-77059228D01*
X120263046Y-77425482D01*
X120574518Y-77736954D01*
X120940772Y-77981677D01*
X121347730Y-78150245D01*
X121779755Y-78236180D01*
X122220245Y-78236180D01*
X122652270Y-78150245D01*
X123059228Y-77981677D01*
X123425482Y-77736954D01*
X123736954Y-77425482D01*
X123981677Y-77059228D01*
X124150245Y-76652270D01*
X124236180Y-76220245D01*
X124236180Y-75779755D01*
X124180534Y-75500000D01*
X128115000Y-75500000D01*
X128115000Y-78500000D01*
X128123000Y-78581227D01*
X128123000Y-79000000D01*
X128125440Y-79024776D01*
X128132667Y-79048601D01*
X128144403Y-79070557D01*
X128160197Y-79089803D01*
X128179443Y-79105597D01*
X128201399Y-79117333D01*
X128225224Y-79124560D01*
X128250000Y-79127000D01*
X128668773Y-79127000D01*
X128750000Y-79135000D01*
X131512025Y-79135000D01*
X131624280Y-79333000D01*
X133491000Y-79333000D01*
X133491000Y-79313000D01*
X133745000Y-79313000D01*
X133745000Y-79333000D01*
X135611720Y-79333000D01*
X135723975Y-79135000D01*
X138500000Y-79135000D01*
X138581227Y-79127000D01*
X139000000Y-79127000D01*
X139024776Y-79124560D01*
X139048601Y-79117333D01*
X139070557Y-79105597D01*
X139089803Y-79089803D01*
X139105597Y-79070557D01*
X139117333Y-79048601D01*
X139124560Y-79024776D01*
X139127000Y-79000000D01*
X139127000Y-78581227D01*
X139135000Y-78500000D01*
X139135000Y-75500000D01*
X139127000Y-75418773D01*
X139127000Y-75000000D01*
X139124560Y-74975224D01*
X139117333Y-74951399D01*
X139105597Y-74929443D01*
X139089803Y-74910197D01*
X139070557Y-74894403D01*
X139048601Y-74882667D01*
X139024776Y-74875440D01*
X139000000Y-74873000D01*
X138581227Y-74873000D01*
X138500000Y-74865000D01*
X135684377Y-74865000D01*
X135748902Y-74652291D01*
X135775720Y-74380000D01*
X135748902Y-74107709D01*
X135669477Y-73845881D01*
X135540499Y-73604580D01*
X135366923Y-73393077D01*
X135155420Y-73219501D01*
X134914119Y-73090523D01*
X134652291Y-73011098D01*
X134448230Y-72991000D01*
X132787770Y-72991000D01*
X132583709Y-73011098D01*
X132321881Y-73090523D01*
X132080580Y-73219501D01*
X131869077Y-73393077D01*
X131695501Y-73604580D01*
X131566523Y-73845881D01*
X131487098Y-74107709D01*
X131460280Y-74380000D01*
X131487098Y-74652291D01*
X131551623Y-74865000D01*
X128750000Y-74865000D01*
X128668773Y-74873000D01*
X128250000Y-74873000D01*
X128225224Y-74875440D01*
X128201399Y-74882667D01*
X128179443Y-74894403D01*
X128160197Y-74910197D01*
X128144403Y-74929443D01*
X128132667Y-74951399D01*
X128125440Y-74975224D01*
X128123000Y-75000000D01*
X128123000Y-75418773D01*
X128115000Y-75500000D01*
X124180534Y-75500000D01*
X124150245Y-75347730D01*
X123981677Y-74940772D01*
X123736954Y-74574518D01*
X123425482Y-74263046D01*
X123059228Y-74018323D01*
X122652270Y-73849755D01*
X122220245Y-73763820D01*
X121779755Y-73763820D01*
X121347730Y-73849755D01*
X120940772Y-74018323D01*
X120574518Y-74263046D01*
X120263046Y-74574518D01*
X120018323Y-74940772D01*
X119849755Y-75347730D01*
X119763820Y-75779755D01*
X117649149Y-75779755D01*
X117698567Y-75226045D01*
X117903601Y-74476567D01*
X118238123Y-73775227D01*
X118691550Y-73144218D01*
X119249550Y-72603479D01*
X119894490Y-72170097D01*
X120605987Y-71857772D01*
X121366369Y-71675220D01*
X122023002Y-71627000D01*
X161972073Y-71627000D01*
X162773955Y-71698566D01*
G37*
X162773955Y-71698566D02*
X163523433Y-71903600D01*
X164224773Y-72238122D01*
X164855776Y-72691544D01*
X165396523Y-73249551D01*
X165829906Y-73894493D01*
X166142229Y-74605983D01*
X166324781Y-75366369D01*
X166373001Y-76023001D01*
X166373000Y-78739177D01*
X166373664Y-78745919D01*
X166377800Y-78937599D01*
X166378288Y-78941993D01*
X166383122Y-79006698D01*
X166500266Y-79887889D01*
X166504593Y-79907134D01*
X166506680Y-79926752D01*
X166524720Y-79996647D01*
X166796057Y-80843166D01*
X166803725Y-80861343D01*
X166809252Y-80880279D01*
X166839378Y-80945860D01*
X166839384Y-80945874D01*
X166839385Y-80945875D01*
X167256340Y-81730966D01*
X167267102Y-81747493D01*
X167275898Y-81765156D01*
X167317161Y-81824364D01*
X167317171Y-81824379D01*
X167317176Y-81824384D01*
X167866564Y-82523225D01*
X167880083Y-82537585D01*
X167891868Y-82553412D01*
X167942960Y-82604374D01*
X167942975Y-82604390D01*
X167942981Y-82604394D01*
X168607442Y-83194903D01*
X168623291Y-83206643D01*
X168637690Y-83220130D01*
X168697018Y-83261253D01*
X169455552Y-83724767D01*
X169473236Y-83733518D01*
X169489791Y-83744239D01*
X169555450Y-83774200D01*
X169555462Y-83774206D01*
X169555466Y-83774207D01*
X170384091Y-84096069D01*
X170387511Y-84097058D01*
X170404110Y-84103455D01*
X171720132Y-84563743D01*
X172946579Y-85150768D01*
X174101194Y-85868827D01*
X175170057Y-86709263D01*
X176140230Y-87661904D01*
X177000004Y-88715253D01*
X177739002Y-89856592D01*
X178348294Y-91072134D01*
X178820514Y-92347180D01*
X179149968Y-93666354D01*
X179332676Y-95013722D01*
X179366427Y-96372999D01*
X179250816Y-97727762D01*
X178987237Y-99061661D01*
X178578877Y-100358583D01*
X178030663Y-101602867D01*
X177349223Y-102779471D01*
X176542778Y-103874200D01*
X175621088Y-104873808D01*
X174595263Y-105766248D01*
X173477697Y-106540734D01*
X172281899Y-107187902D01*
X171013532Y-107703511D01*
X170423013Y-107890268D01*
X170218082Y-107954347D01*
X170213985Y-107956041D01*
X170153181Y-107978654D01*
X169339210Y-108335963D01*
X169321928Y-108345464D01*
X169303659Y-108352919D01*
X169241539Y-108389657D01*
X169241525Y-108389665D01*
X169241520Y-108389669D01*
X168503692Y-108885468D01*
X168488360Y-108897883D01*
X168471705Y-108908453D01*
X168417080Y-108955605D01*
X168417061Y-108955620D01*
X168417056Y-108955626D01*
X167778687Y-109574248D01*
X167765796Y-109589182D01*
X167751276Y-109602534D01*
X167705864Y-109658614D01*
X167705848Y-109658633D01*
X167705843Y-109658641D01*
X167187114Y-110380529D01*
X167177075Y-110397504D01*
X167165144Y-110413222D01*
X167130377Y-110476465D01*
X167130369Y-110476478D01*
X167130369Y-110476479D01*
X166747669Y-111278825D01*
X166740792Y-111297315D01*
X166731836Y-111314893D01*
X166708812Y-111383308D01*
X166474245Y-112240744D01*
X166470753Y-112260154D01*
X166465049Y-112279044D01*
X166454504Y-112350456D01*
X166375717Y-113233249D01*
X166373001Y-113260822D01*
X166373000Y-115972074D01*
X166301434Y-116773950D01*
X166096399Y-117523435D01*
X165761878Y-118224773D01*
X165308454Y-118855779D01*
X164750449Y-119396523D01*
X164105507Y-119829906D01*
X163394015Y-120142229D01*
X162633632Y-120324781D01*
X161977012Y-120373000D01*
X122027937Y-120373000D01*
X121226050Y-120301433D01*
X120476565Y-120096398D01*
X119775227Y-119761877D01*
X119144225Y-119308456D01*
X118603480Y-118750451D01*
X118170097Y-118105510D01*
X117857771Y-117394012D01*
X117675220Y-116633631D01*
X117627000Y-115976998D01*
X117627000Y-115779755D01*
X119763820Y-115779755D01*
X119763820Y-116220245D01*
X119849755Y-116652270D01*
X120018323Y-117059228D01*
X120263046Y-117425482D01*
X120574518Y-117736954D01*
X120940772Y-117981677D01*
X121347730Y-118150245D01*
X121779755Y-118236180D01*
X122220245Y-118236180D01*
X122652270Y-118150245D01*
X123059228Y-117981677D01*
X123425482Y-117736954D01*
X123736954Y-117425482D01*
X123981677Y-117059228D01*
X124150245Y-116652270D01*
X124236180Y-116220245D01*
X124236180Y-115779755D01*
X159763819Y-115779755D01*
X159763819Y-116220245D01*
X159849754Y-116652270D01*
X160018322Y-117059229D01*
X160263045Y-117425482D01*
X160574518Y-117736955D01*
X160940771Y-117981678D01*
X161347730Y-118150246D01*
X161779755Y-118236181D01*
X162220245Y-118236181D01*
X162652270Y-118150246D01*
X163059229Y-117981678D01*
X163425482Y-117736955D01*
X163736955Y-117425482D01*
X163981678Y-117059229D01*
X164150246Y-116652270D01*
X164236181Y-116220245D01*
X164236181Y-115779755D01*
X164150246Y-115347730D01*
X163981678Y-114940771D01*
X163736955Y-114574518D01*
X163425482Y-114263045D01*
X163059229Y-114018322D01*
X162652270Y-113849754D01*
X162220245Y-113763819D01*
X161779755Y-113763819D01*
X161347730Y-113849754D01*
X160940771Y-114018322D01*
X160574518Y-114263045D01*
X160263045Y-114574518D01*
X160018322Y-114940771D01*
X159849754Y-115347730D01*
X159763819Y-115779755D01*
X124236180Y-115779755D01*
X124150245Y-115347730D01*
X123981677Y-114940772D01*
X123736954Y-114574518D01*
X123425482Y-114263046D01*
X123059228Y-114018323D01*
X122652270Y-113849755D01*
X122220245Y-113763820D01*
X121779755Y-113763820D01*
X121347730Y-113849755D01*
X120940772Y-114018323D01*
X120574518Y-114263046D01*
X120263046Y-114574518D01*
X120018323Y-114940772D01*
X119849755Y-115347730D01*
X119763820Y-115779755D01*
X117627000Y-115779755D01*
X117627000Y-104923171D01*
X160023000Y-104923171D01*
X160023000Y-105263361D01*
X160089368Y-105597013D01*
X160219553Y-105911307D01*
X160408552Y-106194164D01*
X160649102Y-106434714D01*
X160931959Y-106623713D01*
X161246253Y-106753898D01*
X161579905Y-106820266D01*
X161920095Y-106820266D01*
X162253747Y-106753898D01*
X162568041Y-106623713D01*
X162850898Y-106434714D01*
X163091448Y-106194164D01*
X163280447Y-105911307D01*
X163410632Y-105597013D01*
X163477000Y-105263361D01*
X163477000Y-104923171D01*
X163410632Y-104589519D01*
X163280447Y-104275225D01*
X163091448Y-103992368D01*
X162850898Y-103751818D01*
X162568041Y-103562819D01*
X162253747Y-103432634D01*
X161920095Y-103366266D01*
X161579905Y-103366266D01*
X161246253Y-103432634D01*
X160931959Y-103562819D01*
X160649102Y-103751818D01*
X160408552Y-103992368D01*
X160219553Y-104275225D01*
X160089368Y-104589519D01*
X160023000Y-104923171D01*
X117627000Y-104923171D01*
X117627000Y-99612500D01*
X155911928Y-99612500D01*
X155924188Y-99736982D01*
X155960498Y-99856680D01*
X156019463Y-99966994D01*
X156098815Y-100063685D01*
X156195506Y-100143037D01*
X156305820Y-100202002D01*
X156425518Y-100238312D01*
X156550000Y-100250572D01*
X156964250Y-100247500D01*
X157123000Y-100088750D01*
X157123000Y-99252000D01*
X157377000Y-99252000D01*
X157377000Y-100088750D01*
X157535750Y-100247500D01*
X157950000Y-100250572D01*
X158074482Y-100238312D01*
X158194180Y-100202002D01*
X158304494Y-100143037D01*
X158401185Y-100063685D01*
X158480537Y-99966994D01*
X158539502Y-99856680D01*
X158575812Y-99736982D01*
X158588072Y-99612500D01*
X158585000Y-99410750D01*
X158426250Y-99252000D01*
X157377000Y-99252000D01*
X157123000Y-99252000D01*
X156073750Y-99252000D01*
X155915000Y-99410750D01*
X155911928Y-99612500D01*
X117627000Y-99612500D01*
X117627000Y-82000000D01*
X131460280Y-82000000D01*
X131487098Y-82272291D01*
X131566523Y-82534119D01*
X131695501Y-82775420D01*
X131869077Y-82986923D01*
X132080580Y-83160499D01*
X132285442Y-83270000D01*
X132080580Y-83379501D01*
X131869077Y-83553077D01*
X131695501Y-83764580D01*
X131566523Y-84005881D01*
X131487098Y-84267709D01*
X131460280Y-84540000D01*
X131487098Y-84812291D01*
X131566523Y-85074119D01*
X131695501Y-85315420D01*
X131869077Y-85526923D01*
X132080580Y-85700499D01*
X132285442Y-85810000D01*
X132080580Y-85919501D01*
X131869077Y-86093077D01*
X131695501Y-86304580D01*
X131566523Y-86545881D01*
X131487098Y-86807709D01*
X131460280Y-87080000D01*
X131487098Y-87352291D01*
X131566523Y-87614119D01*
X131695501Y-87855420D01*
X131869077Y-88066923D01*
X132080580Y-88240499D01*
X132285442Y-88350000D01*
X132080580Y-88459501D01*
X131869077Y-88633077D01*
X131695501Y-88844580D01*
X131566523Y-89085881D01*
X131487098Y-89347709D01*
X131460280Y-89620000D01*
X131487098Y-89892291D01*
X131566523Y-90154119D01*
X131695501Y-90395420D01*
X131869077Y-90606923D01*
X132080580Y-90780499D01*
X132321881Y-90909477D01*
X132583709Y-90988902D01*
X132787770Y-91009000D01*
X134448230Y-91009000D01*
X134652291Y-90988902D01*
X134914119Y-90909477D01*
X135155420Y-90780499D01*
X135366923Y-90606923D01*
X135540499Y-90395420D01*
X135669477Y-90154119D01*
X135748902Y-89892291D01*
X135775720Y-89620000D01*
X135748902Y-89347709D01*
X135669477Y-89085881D01*
X135540499Y-88844580D01*
X135366923Y-88633077D01*
X135155420Y-88459501D01*
X134950558Y-88350000D01*
X135155420Y-88240499D01*
X135366923Y-88066923D01*
X135540499Y-87855420D01*
X135669477Y-87614119D01*
X135748902Y-87352291D01*
X135775720Y-87080000D01*
X135748902Y-86807709D01*
X135669477Y-86545881D01*
X135590892Y-86398857D01*
X145973000Y-86398857D01*
X145973000Y-86601159D01*
X146012467Y-86799573D01*
X146089885Y-86986475D01*
X146202277Y-87154682D01*
X146345326Y-87297731D01*
X146513533Y-87410123D01*
X146699400Y-87487112D01*
X146494379Y-87692133D01*
X146465683Y-87715683D01*
X146420177Y-87771133D01*
X146371710Y-87830190D01*
X146338469Y-87892381D01*
X146301882Y-87960831D01*
X146258881Y-88102583D01*
X146248000Y-88213062D01*
X146244362Y-88250000D01*
X146248000Y-88286936D01*
X146248001Y-91299602D01*
X146202277Y-91345326D01*
X146089885Y-91513533D01*
X146012467Y-91700435D01*
X145973000Y-91898849D01*
X145973000Y-92101151D01*
X146012467Y-92299565D01*
X146089885Y-92486467D01*
X146202277Y-92654674D01*
X146345326Y-92797723D01*
X146513533Y-92910115D01*
X146700435Y-92987533D01*
X146898849Y-93027000D01*
X147101151Y-93027000D01*
X147248000Y-92997790D01*
X147248001Y-96213055D01*
X147244362Y-96250000D01*
X147256351Y-96371723D01*
X147258880Y-96397392D01*
X147258882Y-96397417D01*
X147301882Y-96539169D01*
X147371710Y-96669810D01*
X147439162Y-96752000D01*
X147465684Y-96784317D01*
X147494375Y-96807863D01*
X148692137Y-98005626D01*
X148715683Y-98034317D01*
X148830190Y-98128290D01*
X148960830Y-98198118D01*
X149102582Y-98241119D01*
X149213062Y-98252000D01*
X149213064Y-98252000D01*
X149250000Y-98255638D01*
X149286935Y-98252000D01*
X154063065Y-98252000D01*
X154100000Y-98255638D01*
X154136935Y-98252000D01*
X154136938Y-98252000D01*
X154247418Y-98241119D01*
X154389170Y-98198118D01*
X154519810Y-98128290D01*
X154634317Y-98034317D01*
X154657867Y-98005621D01*
X155183455Y-97480033D01*
X155275000Y-97480033D01*
X155397913Y-97467927D01*
X155402920Y-97466408D01*
X155692137Y-97755626D01*
X155715683Y-97784317D01*
X155744374Y-97807863D01*
X155830189Y-97878290D01*
X155876762Y-97903183D01*
X155960830Y-97948118D01*
X156068532Y-97980790D01*
X156175892Y-98111608D01*
X156182869Y-98117334D01*
X156098815Y-98186315D01*
X156019463Y-98283006D01*
X155960498Y-98393320D01*
X155924188Y-98513018D01*
X155911928Y-98637500D01*
X155915000Y-98839250D01*
X156073750Y-98998000D01*
X157123000Y-98998000D01*
X157123000Y-98978000D01*
X157377000Y-98978000D01*
X157377000Y-98998000D01*
X158426250Y-98998000D01*
X158585000Y-98839250D01*
X158588072Y-98637500D01*
X158575812Y-98513018D01*
X158539502Y-98393320D01*
X158480537Y-98283006D01*
X158401185Y-98186315D01*
X158317131Y-98117334D01*
X158324108Y-98111608D01*
X158432774Y-97979198D01*
X158513520Y-97828132D01*
X158563244Y-97664217D01*
X158580033Y-97493750D01*
X158580033Y-97050000D01*
X159661928Y-97050000D01*
X159674188Y-97174482D01*
X159710498Y-97294180D01*
X159769463Y-97404494D01*
X159848815Y-97501185D01*
X159932869Y-97570166D01*
X159925892Y-97575892D01*
X159817226Y-97708302D01*
X159736480Y-97859368D01*
X159686756Y-98023283D01*
X159669967Y-98193750D01*
X159669967Y-98681250D01*
X159686756Y-98851717D01*
X159736480Y-99015632D01*
X159817226Y-99166698D01*
X159925892Y-99299108D01*
X160058302Y-99407774D01*
X160133643Y-99448044D01*
X160089885Y-99513533D01*
X160012467Y-99700435D01*
X159973000Y-99898849D01*
X159973000Y-100101151D01*
X160012467Y-100299565D01*
X160089885Y-100486467D01*
X160202277Y-100654674D01*
X160345326Y-100797723D01*
X160513533Y-100910115D01*
X160700435Y-100987533D01*
X160898849Y-101027000D01*
X161101151Y-101027000D01*
X161299565Y-100987533D01*
X161486467Y-100910115D01*
X161654674Y-100797723D01*
X161797723Y-100654674D01*
X161910115Y-100486467D01*
X161987533Y-100299565D01*
X162027000Y-100101151D01*
X162027000Y-99898849D01*
X161987533Y-99700435D01*
X161910115Y-99513533D01*
X161866357Y-99448044D01*
X161941698Y-99407774D01*
X162074108Y-99299108D01*
X162182774Y-99166698D01*
X162263520Y-99015632D01*
X162313244Y-98851717D01*
X162330033Y-98681250D01*
X162330033Y-98193750D01*
X162313244Y-98023283D01*
X162263520Y-97859368D01*
X162182774Y-97708302D01*
X162074108Y-97575892D01*
X162067131Y-97570166D01*
X162151185Y-97501185D01*
X162230537Y-97404494D01*
X162289502Y-97294180D01*
X162325812Y-97174482D01*
X162338072Y-97050000D01*
X162335000Y-96848250D01*
X162176250Y-96689500D01*
X161127000Y-96689500D01*
X161127000Y-96709500D01*
X160873000Y-96709500D01*
X160873000Y-96689500D01*
X159823750Y-96689500D01*
X159665000Y-96848250D01*
X159661928Y-97050000D01*
X158580033Y-97050000D01*
X158580033Y-97006250D01*
X158563244Y-96835783D01*
X158513520Y-96671868D01*
X158432774Y-96520802D01*
X158324108Y-96388392D01*
X158191698Y-96279726D01*
X158040632Y-96198980D01*
X157876717Y-96149256D01*
X157706250Y-96132467D01*
X157270771Y-96132467D01*
X157277000Y-96101151D01*
X157277000Y-95898849D01*
X157270771Y-95867533D01*
X157706250Y-95867533D01*
X157876717Y-95850744D01*
X158040632Y-95801020D01*
X158191698Y-95720274D01*
X158324108Y-95611608D01*
X158414061Y-95502000D01*
X160024947Y-95502000D01*
X159945506Y-95544463D01*
X159848815Y-95623815D01*
X159769463Y-95720506D01*
X159710498Y-95830820D01*
X159674188Y-95950518D01*
X159661928Y-96075000D01*
X159665000Y-96276750D01*
X159823750Y-96435500D01*
X160873000Y-96435500D01*
X160873000Y-96415500D01*
X161127000Y-96415500D01*
X161127000Y-96435500D01*
X162176250Y-96435500D01*
X162335000Y-96276750D01*
X162338072Y-96075000D01*
X162325812Y-95950518D01*
X162289502Y-95830820D01*
X162230537Y-95720506D01*
X162151185Y-95623815D01*
X162054494Y-95544463D01*
X161975053Y-95502000D01*
X162188512Y-95502000D01*
X164192150Y-97505639D01*
X164215696Y-97534330D01*
X164330203Y-97628303D01*
X164460843Y-97698131D01*
X164602595Y-97741132D01*
X164713075Y-97752013D01*
X164713077Y-97752013D01*
X164750013Y-97755651D01*
X164786948Y-97752013D01*
X167549603Y-97752013D01*
X167595326Y-97797736D01*
X167763533Y-97910128D01*
X167950435Y-97987546D01*
X168148849Y-98027013D01*
X168351151Y-98027013D01*
X168549565Y-97987546D01*
X168736467Y-97910128D01*
X168904674Y-97797736D01*
X169047723Y-97654687D01*
X169160115Y-97486480D01*
X169237533Y-97299578D01*
X169277000Y-97101164D01*
X169277000Y-96898862D01*
X169237533Y-96700448D01*
X169160115Y-96513546D01*
X169047723Y-96345339D01*
X168904674Y-96202290D01*
X168736467Y-96089898D01*
X168549565Y-96012480D01*
X168351151Y-95973013D01*
X168148849Y-95973013D01*
X167950435Y-96012480D01*
X167763533Y-96089898D01*
X167595326Y-96202290D01*
X167549603Y-96248013D01*
X165061502Y-96248013D01*
X164643394Y-95829905D01*
X175773000Y-95829905D01*
X175773000Y-96170095D01*
X175839368Y-96503747D01*
X175969553Y-96818041D01*
X176158552Y-97100898D01*
X176399102Y-97341448D01*
X176681959Y-97530447D01*
X176996253Y-97660632D01*
X177329905Y-97727000D01*
X177670095Y-97727000D01*
X178003747Y-97660632D01*
X178318041Y-97530447D01*
X178600898Y-97341448D01*
X178841448Y-97100898D01*
X179030447Y-96818041D01*
X179160632Y-96503747D01*
X179227000Y-96170095D01*
X179227000Y-95829905D01*
X179160632Y-95496253D01*
X179030447Y-95181959D01*
X178841448Y-94899102D01*
X178600898Y-94658552D01*
X178318041Y-94469553D01*
X178003747Y-94339368D01*
X177670095Y-94273000D01*
X177329905Y-94273000D01*
X176996253Y-94339368D01*
X176681959Y-94469553D01*
X176399102Y-94658552D01*
X176158552Y-94899102D01*
X175969553Y-95181959D01*
X175839368Y-95496253D01*
X175773000Y-95829905D01*
X164643394Y-95829905D01*
X163057867Y-94244379D01*
X163034317Y-94215683D01*
X162919810Y-94121710D01*
X162789170Y-94051882D01*
X162647418Y-94008881D01*
X162536938Y-93998000D01*
X162536935Y-93998000D01*
X162500000Y-93994362D01*
X162463065Y-93998000D01*
X158414061Y-93998000D01*
X158324108Y-93888392D01*
X158317131Y-93882666D01*
X158401185Y-93813685D01*
X158480537Y-93716994D01*
X158539502Y-93606680D01*
X158575812Y-93486982D01*
X158588072Y-93362500D01*
X158585000Y-93160750D01*
X158426250Y-93002000D01*
X157377000Y-93002000D01*
X157377000Y-93022000D01*
X157123000Y-93022000D01*
X157123000Y-93002000D01*
X156073750Y-93002000D01*
X155915000Y-93160750D01*
X155911928Y-93362500D01*
X155924188Y-93486982D01*
X155960498Y-93606680D01*
X156019463Y-93716994D01*
X156098815Y-93813685D01*
X156182869Y-93882666D01*
X156175892Y-93888392D01*
X156067226Y-94020802D01*
X156063151Y-94028426D01*
X155985830Y-94051882D01*
X155925017Y-94084387D01*
X155855189Y-94121710D01*
X155794072Y-94171868D01*
X155740683Y-94215683D01*
X155717137Y-94244374D01*
X155422101Y-94539410D01*
X155397913Y-94532073D01*
X155275000Y-94519967D01*
X154625000Y-94519967D01*
X154502087Y-94532073D01*
X154383897Y-94567925D01*
X154274972Y-94626147D01*
X154179499Y-94704499D01*
X154101147Y-94799972D01*
X154042925Y-94908897D01*
X154007073Y-95027087D01*
X154000000Y-95098900D01*
X153992927Y-95027087D01*
X153957075Y-94908897D01*
X153898853Y-94799972D01*
X153820501Y-94704499D01*
X153752000Y-94648282D01*
X153752000Y-93950397D01*
X153797723Y-93904674D01*
X153910115Y-93736467D01*
X153987533Y-93549565D01*
X154027000Y-93351151D01*
X154027000Y-93148849D01*
X153987533Y-92950435D01*
X153910115Y-92763533D01*
X153797723Y-92595326D01*
X153654674Y-92452277D01*
X153557729Y-92387500D01*
X155911928Y-92387500D01*
X155915000Y-92589250D01*
X156073750Y-92748000D01*
X157123000Y-92748000D01*
X157123000Y-91911250D01*
X157377000Y-91911250D01*
X157377000Y-92748000D01*
X158426250Y-92748000D01*
X158585000Y-92589250D01*
X158588072Y-92387500D01*
X158575812Y-92263018D01*
X158539502Y-92143320D01*
X158480537Y-92033006D01*
X158401185Y-91936315D01*
X158304494Y-91856963D01*
X158194180Y-91797998D01*
X158074482Y-91761688D01*
X157950000Y-91749428D01*
X157535750Y-91752500D01*
X157377000Y-91911250D01*
X157123000Y-91911250D01*
X156964250Y-91752500D01*
X156550000Y-91749428D01*
X156425518Y-91761688D01*
X156305820Y-91797998D01*
X156195506Y-91856963D01*
X156098815Y-91936315D01*
X156019463Y-92033006D01*
X155960498Y-92143320D01*
X155924188Y-92263018D01*
X155911928Y-92387500D01*
X153557729Y-92387500D01*
X153486467Y-92339885D01*
X153299565Y-92262467D01*
X153101151Y-92223000D01*
X152898849Y-92223000D01*
X152700435Y-92262467D01*
X152513533Y-92339885D01*
X152345326Y-92452277D01*
X152202277Y-92595326D01*
X152089885Y-92763533D01*
X152012467Y-92950435D01*
X151973000Y-93148849D01*
X151973000Y-93351151D01*
X152012467Y-93549565D01*
X152089885Y-93736467D01*
X152202277Y-93904674D01*
X152248000Y-93950397D01*
X152248001Y-94742880D01*
X152201147Y-94799972D01*
X152142925Y-94908897D01*
X152107073Y-95027087D01*
X152094967Y-95150000D01*
X152094967Y-95550000D01*
X152105040Y-95652274D01*
X152102454Y-95660098D01*
X152090000Y-95768250D01*
X152177457Y-95855707D01*
X152186699Y-95872998D01*
X152090000Y-95872998D01*
X152090000Y-95898000D01*
X151001974Y-95898000D01*
X151001974Y-92700397D01*
X151047697Y-92654674D01*
X151160089Y-92486467D01*
X151237507Y-92299565D01*
X151276974Y-92101151D01*
X151276974Y-91898849D01*
X151237507Y-91700435D01*
X151160089Y-91513533D01*
X151047697Y-91345326D01*
X150904648Y-91202277D01*
X150736441Y-91089885D01*
X150645414Y-91052180D01*
X151212230Y-91052180D01*
X151416291Y-91032082D01*
X151678119Y-90952657D01*
X151919420Y-90823679D01*
X152130923Y-90650103D01*
X152304499Y-90438600D01*
X152433477Y-90197299D01*
X152512902Y-89935471D01*
X152539720Y-89663180D01*
X152516262Y-89425000D01*
X153661928Y-89425000D01*
X153674188Y-89549482D01*
X153710498Y-89669180D01*
X153769463Y-89779494D01*
X153848815Y-89876185D01*
X153945506Y-89955537D01*
X154055820Y-90014502D01*
X154175518Y-90050812D01*
X154300000Y-90063072D01*
X154714250Y-90060000D01*
X154873000Y-89901250D01*
X154873000Y-89064500D01*
X155127000Y-89064500D01*
X155127000Y-89901250D01*
X155285750Y-90060000D01*
X155700000Y-90063072D01*
X155824482Y-90050812D01*
X155944180Y-90014502D01*
X156054494Y-89955537D01*
X156151185Y-89876185D01*
X156230537Y-89779494D01*
X156289502Y-89669180D01*
X156325812Y-89549482D01*
X156338072Y-89425000D01*
X156335000Y-89223250D01*
X156176250Y-89064500D01*
X155127000Y-89064500D01*
X154873000Y-89064500D01*
X153823750Y-89064500D01*
X153665000Y-89223250D01*
X153661928Y-89425000D01*
X152516262Y-89425000D01*
X152512902Y-89390889D01*
X152433477Y-89129061D01*
X152304499Y-88887760D01*
X152130923Y-88676257D01*
X151919420Y-88502681D01*
X151714558Y-88393180D01*
X151919420Y-88283679D01*
X152130923Y-88110103D01*
X152304499Y-87898600D01*
X152317017Y-87875180D01*
X153885738Y-87875180D01*
X153925892Y-87924108D01*
X153932869Y-87929834D01*
X153848815Y-87998815D01*
X153769463Y-88095506D01*
X153710498Y-88205820D01*
X153674188Y-88325518D01*
X153661928Y-88450000D01*
X153665000Y-88651750D01*
X153823750Y-88810500D01*
X154873000Y-88810500D01*
X154873000Y-88790500D01*
X155127000Y-88790500D01*
X155127000Y-88810500D01*
X156176250Y-88810500D01*
X156335000Y-88651750D01*
X156338072Y-88450000D01*
X156325812Y-88325518D01*
X156289502Y-88205820D01*
X156230537Y-88095506D01*
X156151185Y-87998815D01*
X156067131Y-87929834D01*
X156074108Y-87924108D01*
X156164061Y-87814500D01*
X158626005Y-87814500D01*
X165817130Y-95005626D01*
X165840676Y-95034317D01*
X165869367Y-95057863D01*
X165955182Y-95128290D01*
X166022398Y-95164217D01*
X166085823Y-95198118D01*
X166227575Y-95241119D01*
X166338055Y-95252000D01*
X166338057Y-95252000D01*
X166374992Y-95255638D01*
X166411928Y-95252000D01*
X167549623Y-95252000D01*
X167595346Y-95297723D01*
X167763553Y-95410115D01*
X167950455Y-95487533D01*
X168148869Y-95527000D01*
X168351171Y-95527000D01*
X168549585Y-95487533D01*
X168736487Y-95410115D01*
X168904694Y-95297723D01*
X169047743Y-95154674D01*
X169160135Y-94986467D01*
X169237553Y-94799565D01*
X169277020Y-94601151D01*
X169277020Y-94398849D01*
X169237553Y-94200435D01*
X169160135Y-94013533D01*
X169047743Y-93845326D01*
X168904694Y-93702277D01*
X168736487Y-93589885D01*
X168549585Y-93512467D01*
X168351171Y-93473000D01*
X168148869Y-93473000D01*
X167950455Y-93512467D01*
X167763553Y-93589885D01*
X167595346Y-93702277D01*
X167549623Y-93748000D01*
X166686482Y-93748000D01*
X161570306Y-88631825D01*
X161579905Y-88633734D01*
X161920095Y-88633734D01*
X162253747Y-88567366D01*
X162568041Y-88437181D01*
X162850898Y-88248182D01*
X163091448Y-88007632D01*
X163280447Y-87724775D01*
X163410632Y-87410481D01*
X163477000Y-87076829D01*
X163477000Y-86736639D01*
X163410632Y-86402987D01*
X163280447Y-86088693D01*
X163091448Y-85805836D01*
X162850898Y-85565286D01*
X162568041Y-85376287D01*
X162253747Y-85246102D01*
X161920095Y-85179734D01*
X161579905Y-85179734D01*
X161246253Y-85246102D01*
X160931959Y-85376287D01*
X160649102Y-85565286D01*
X160408552Y-85805836D01*
X160219553Y-86088693D01*
X160089368Y-86402987D01*
X160023000Y-86736639D01*
X160023000Y-87076829D01*
X160024909Y-87086428D01*
X159495360Y-86556879D01*
X159471810Y-86528183D01*
X159357303Y-86434210D01*
X159226663Y-86364382D01*
X159084911Y-86321381D01*
X158974431Y-86310500D01*
X158974428Y-86310500D01*
X158937493Y-86306862D01*
X158900558Y-86310500D01*
X156164061Y-86310500D01*
X156074108Y-86200892D01*
X155941698Y-86092226D01*
X155790632Y-86011480D01*
X155626717Y-85961756D01*
X155456250Y-85944967D01*
X154543750Y-85944967D01*
X154373283Y-85961756D01*
X154209368Y-86011480D01*
X154058302Y-86092226D01*
X153925892Y-86200892D01*
X153817226Y-86333302D01*
X153796980Y-86371180D01*
X152317017Y-86371180D01*
X152304499Y-86347760D01*
X152130923Y-86136257D01*
X151919420Y-85962681D01*
X151678119Y-85833703D01*
X151671153Y-85831590D01*
X151678119Y-85829477D01*
X151919420Y-85700499D01*
X152130923Y-85526923D01*
X152304499Y-85315420D01*
X152317017Y-85292000D01*
X153868766Y-85292000D01*
X153925892Y-85361608D01*
X154058302Y-85470274D01*
X154209368Y-85551020D01*
X154373283Y-85600744D01*
X154543750Y-85617533D01*
X155456250Y-85617533D01*
X155626717Y-85600744D01*
X155790632Y-85551020D01*
X155941698Y-85470274D01*
X156074108Y-85361608D01*
X156182774Y-85229198D01*
X156263520Y-85078132D01*
X156313244Y-84914217D01*
X156330033Y-84743750D01*
X156330033Y-84256250D01*
X156313244Y-84085783D01*
X156263520Y-83921868D01*
X156182774Y-83770802D01*
X156074108Y-83638392D01*
X156067131Y-83632666D01*
X156151185Y-83563685D01*
X156230537Y-83466994D01*
X156289502Y-83356680D01*
X156325812Y-83236982D01*
X156338072Y-83112500D01*
X156335000Y-82910750D01*
X156176250Y-82752000D01*
X155127000Y-82752000D01*
X155127000Y-82772000D01*
X154873000Y-82772000D01*
X154873000Y-82752000D01*
X154853000Y-82752000D01*
X154853000Y-82498000D01*
X154873000Y-82498000D01*
X154873000Y-81661250D01*
X155127000Y-81661250D01*
X155127000Y-82498000D01*
X156176250Y-82498000D01*
X156335000Y-82339250D01*
X156338072Y-82137500D01*
X156325812Y-82013018D01*
X156289502Y-81893320D01*
X156230537Y-81783006D01*
X156151185Y-81686315D01*
X156054494Y-81606963D01*
X155944180Y-81547998D01*
X155824482Y-81511688D01*
X155700000Y-81499428D01*
X155285750Y-81502500D01*
X155127000Y-81661250D01*
X154873000Y-81661250D01*
X154714250Y-81502500D01*
X154300000Y-81499428D01*
X154175518Y-81511688D01*
X154055820Y-81547998D01*
X153945506Y-81606963D01*
X153848815Y-81686315D01*
X153769463Y-81783006D01*
X153757599Y-81805202D01*
X153654674Y-81702277D01*
X153486467Y-81589885D01*
X153299565Y-81512467D01*
X153101151Y-81473000D01*
X153040322Y-81473000D01*
X153034317Y-81465683D01*
X152919810Y-81371710D01*
X152789170Y-81301882D01*
X152647418Y-81258881D01*
X152536938Y-81248000D01*
X152536935Y-81248000D01*
X152500000Y-81244362D01*
X152463065Y-81248000D01*
X152317017Y-81248000D01*
X152304499Y-81224580D01*
X152130923Y-81013077D01*
X151919420Y-80839501D01*
X151754950Y-80751590D01*
X151919420Y-80663679D01*
X152130923Y-80490103D01*
X152304499Y-80278600D01*
X152433477Y-80037299D01*
X152512902Y-79775471D01*
X152539720Y-79503180D01*
X152512902Y-79230889D01*
X152433477Y-78969061D01*
X152304499Y-78727760D01*
X152130923Y-78516257D01*
X151919420Y-78342681D01*
X151714558Y-78233180D01*
X151919420Y-78123679D01*
X152130923Y-77950103D01*
X152304499Y-77738600D01*
X152433477Y-77497299D01*
X152512902Y-77235471D01*
X152539720Y-76963180D01*
X152512902Y-76690889D01*
X152433477Y-76429061D01*
X152304499Y-76187760D01*
X152130923Y-75976257D01*
X151919420Y-75802681D01*
X151876529Y-75779755D01*
X159763819Y-75779755D01*
X159763819Y-76220245D01*
X159849754Y-76652270D01*
X160018322Y-77059229D01*
X160263045Y-77425482D01*
X160574518Y-77736955D01*
X160940771Y-77981678D01*
X161347730Y-78150246D01*
X161779755Y-78236181D01*
X162220245Y-78236181D01*
X162652270Y-78150246D01*
X163059229Y-77981678D01*
X163425482Y-77736955D01*
X163736955Y-77425482D01*
X163981678Y-77059229D01*
X164150246Y-76652270D01*
X164236181Y-76220245D01*
X164236181Y-75779755D01*
X164150246Y-75347730D01*
X163981678Y-74940771D01*
X163736955Y-74574518D01*
X163425482Y-74263045D01*
X163059229Y-74018322D01*
X162652270Y-73849754D01*
X162220245Y-73763819D01*
X161779755Y-73763819D01*
X161347730Y-73849754D01*
X160940771Y-74018322D01*
X160574518Y-74263045D01*
X160263045Y-74574518D01*
X160018322Y-74940771D01*
X159849754Y-75347730D01*
X159763819Y-75779755D01*
X151876529Y-75779755D01*
X151714558Y-75693180D01*
X151919420Y-75583679D01*
X152130923Y-75410103D01*
X152304499Y-75198600D01*
X152433477Y-74957299D01*
X152512902Y-74695471D01*
X152539720Y-74423180D01*
X152512902Y-74150889D01*
X152433477Y-73889061D01*
X152304499Y-73647760D01*
X152130923Y-73436257D01*
X151919420Y-73262681D01*
X151678119Y-73133703D01*
X151416291Y-73054278D01*
X151212230Y-73034180D01*
X149551770Y-73034180D01*
X149347709Y-73054278D01*
X149085881Y-73133703D01*
X148844580Y-73262681D01*
X148633077Y-73436257D01*
X148459501Y-73647760D01*
X148330523Y-73889061D01*
X148251098Y-74150889D01*
X148224280Y-74423180D01*
X148251098Y-74695471D01*
X148330523Y-74957299D01*
X148459501Y-75198600D01*
X148633077Y-75410103D01*
X148844580Y-75583679D01*
X149049442Y-75693180D01*
X148844580Y-75802681D01*
X148633077Y-75976257D01*
X148459501Y-76187760D01*
X148330523Y-76429061D01*
X148251098Y-76690889D01*
X148224280Y-76963180D01*
X148251098Y-77235471D01*
X148330523Y-77497299D01*
X148459501Y-77738600D01*
X148633077Y-77950103D01*
X148844580Y-78123679D01*
X149049442Y-78233180D01*
X148844580Y-78342681D01*
X148633077Y-78516257D01*
X148459501Y-78727760D01*
X148330523Y-78969061D01*
X148251098Y-79230889D01*
X148224280Y-79503180D01*
X148251098Y-79775471D01*
X148330523Y-80037299D01*
X148459501Y-80278600D01*
X148633077Y-80490103D01*
X148844580Y-80663679D01*
X149009050Y-80751590D01*
X148844580Y-80839501D01*
X148633077Y-81013077D01*
X148459501Y-81224580D01*
X148330523Y-81465881D01*
X148251098Y-81727709D01*
X148224280Y-82000000D01*
X148251098Y-82272291D01*
X148330523Y-82534119D01*
X148459501Y-82775420D01*
X148633077Y-82986923D01*
X148844580Y-83160499D01*
X149049442Y-83270000D01*
X148844580Y-83379501D01*
X148633077Y-83553077D01*
X148459501Y-83764580D01*
X148446983Y-83788000D01*
X147746935Y-83788000D01*
X147710000Y-83784362D01*
X147673064Y-83788000D01*
X147673062Y-83788000D01*
X147562582Y-83798881D01*
X147420830Y-83841882D01*
X147290190Y-83911710D01*
X147175683Y-84005683D01*
X147152133Y-84034379D01*
X146494379Y-84692133D01*
X146465683Y-84715683D01*
X146412583Y-84780386D01*
X146371710Y-84830190D01*
X146315311Y-84935707D01*
X146301882Y-84960831D01*
X146258881Y-85102583D01*
X146248194Y-85211096D01*
X146244362Y-85250000D01*
X146248000Y-85286936D01*
X146248000Y-85799611D01*
X146202277Y-85845334D01*
X146089885Y-86013541D01*
X146012467Y-86200443D01*
X145973000Y-86398857D01*
X135590892Y-86398857D01*
X135540499Y-86304580D01*
X135366923Y-86093077D01*
X135155420Y-85919501D01*
X134950558Y-85810000D01*
X135155420Y-85700499D01*
X135366923Y-85526923D01*
X135540499Y-85315420D01*
X135669477Y-85074119D01*
X135748902Y-84812291D01*
X135775720Y-84540000D01*
X135748902Y-84267709D01*
X135669477Y-84005881D01*
X135540499Y-83764580D01*
X135366923Y-83553077D01*
X135155420Y-83379501D01*
X134950558Y-83270000D01*
X135155420Y-83160499D01*
X135366923Y-82986923D01*
X135540499Y-82775420D01*
X135669477Y-82534119D01*
X135748902Y-82272291D01*
X135775720Y-82000000D01*
X135748902Y-81727709D01*
X135669477Y-81465881D01*
X135540499Y-81224580D01*
X135366923Y-81013077D01*
X135155420Y-80839501D01*
X134955936Y-80732875D01*
X135031942Y-80702059D01*
X135261729Y-80551006D01*
X135457632Y-80358026D01*
X135612122Y-80130535D01*
X135719262Y-79877276D01*
X135734220Y-79803070D01*
X135611720Y-79587000D01*
X133745000Y-79587000D01*
X133745000Y-79607000D01*
X133491000Y-79607000D01*
X133491000Y-79587000D01*
X131624280Y-79587000D01*
X131501780Y-79803070D01*
X131516738Y-79877276D01*
X131623878Y-80130535D01*
X131778368Y-80358026D01*
X131974271Y-80551006D01*
X132204058Y-80702059D01*
X132280064Y-80732875D01*
X132080580Y-80839501D01*
X131869077Y-81013077D01*
X131695501Y-81224580D01*
X131566523Y-81465881D01*
X131487098Y-81727709D01*
X131460280Y-82000000D01*
X117627000Y-82000000D01*
X117627000Y-76027938D01*
X117649149Y-75779755D01*
X119763820Y-75779755D01*
X119763820Y-76220245D01*
X119849755Y-76652270D01*
X120018323Y-77059228D01*
X120263046Y-77425482D01*
X120574518Y-77736954D01*
X120940772Y-77981677D01*
X121347730Y-78150245D01*
X121779755Y-78236180D01*
X122220245Y-78236180D01*
X122652270Y-78150245D01*
X123059228Y-77981677D01*
X123425482Y-77736954D01*
X123736954Y-77425482D01*
X123981677Y-77059228D01*
X124150245Y-76652270D01*
X124236180Y-76220245D01*
X124236180Y-75779755D01*
X124180534Y-75500000D01*
X128115000Y-75500000D01*
X128115000Y-78500000D01*
X128123000Y-78581227D01*
X128123000Y-79000000D01*
X128125440Y-79024776D01*
X128132667Y-79048601D01*
X128144403Y-79070557D01*
X128160197Y-79089803D01*
X128179443Y-79105597D01*
X128201399Y-79117333D01*
X128225224Y-79124560D01*
X128250000Y-79127000D01*
X128668773Y-79127000D01*
X128750000Y-79135000D01*
X131512025Y-79135000D01*
X131624280Y-79333000D01*
X133491000Y-79333000D01*
X133491000Y-79313000D01*
X133745000Y-79313000D01*
X133745000Y-79333000D01*
X135611720Y-79333000D01*
X135723975Y-79135000D01*
X138500000Y-79135000D01*
X138581227Y-79127000D01*
X139000000Y-79127000D01*
X139024776Y-79124560D01*
X139048601Y-79117333D01*
X139070557Y-79105597D01*
X139089803Y-79089803D01*
X139105597Y-79070557D01*
X139117333Y-79048601D01*
X139124560Y-79024776D01*
X139127000Y-79000000D01*
X139127000Y-78581227D01*
X139135000Y-78500000D01*
X139135000Y-75500000D01*
X139127000Y-75418773D01*
X139127000Y-75000000D01*
X139124560Y-74975224D01*
X139117333Y-74951399D01*
X139105597Y-74929443D01*
X139089803Y-74910197D01*
X139070557Y-74894403D01*
X139048601Y-74882667D01*
X139024776Y-74875440D01*
X139000000Y-74873000D01*
X138581227Y-74873000D01*
X138500000Y-74865000D01*
X135684377Y-74865000D01*
X135748902Y-74652291D01*
X135775720Y-74380000D01*
X135748902Y-74107709D01*
X135669477Y-73845881D01*
X135540499Y-73604580D01*
X135366923Y-73393077D01*
X135155420Y-73219501D01*
X134914119Y-73090523D01*
X134652291Y-73011098D01*
X134448230Y-72991000D01*
X132787770Y-72991000D01*
X132583709Y-73011098D01*
X132321881Y-73090523D01*
X132080580Y-73219501D01*
X131869077Y-73393077D01*
X131695501Y-73604580D01*
X131566523Y-73845881D01*
X131487098Y-74107709D01*
X131460280Y-74380000D01*
X131487098Y-74652291D01*
X131551623Y-74865000D01*
X128750000Y-74865000D01*
X128668773Y-74873000D01*
X128250000Y-74873000D01*
X128225224Y-74875440D01*
X128201399Y-74882667D01*
X128179443Y-74894403D01*
X128160197Y-74910197D01*
X128144403Y-74929443D01*
X128132667Y-74951399D01*
X128125440Y-74975224D01*
X128123000Y-75000000D01*
X128123000Y-75418773D01*
X128115000Y-75500000D01*
X124180534Y-75500000D01*
X124150245Y-75347730D01*
X123981677Y-74940772D01*
X123736954Y-74574518D01*
X123425482Y-74263046D01*
X123059228Y-74018323D01*
X122652270Y-73849755D01*
X122220245Y-73763820D01*
X121779755Y-73763820D01*
X121347730Y-73849755D01*
X120940772Y-74018323D01*
X120574518Y-74263046D01*
X120263046Y-74574518D01*
X120018323Y-74940772D01*
X119849755Y-75347730D01*
X119763820Y-75779755D01*
X117649149Y-75779755D01*
X117698567Y-75226045D01*
X117903601Y-74476567D01*
X118238123Y-73775227D01*
X118691550Y-73144218D01*
X119249550Y-72603479D01*
X119894490Y-72170097D01*
X120605987Y-71857772D01*
X121366369Y-71675220D01*
X122023002Y-71627000D01*
X161972073Y-71627000D01*
X162773955Y-71698566D01*
%TO.N,GND*%
G36*
X131623878Y-76249465D02*
G01*
X131516738Y-76502724D01*
X131501780Y-76576930D01*
X131624280Y-76793000D01*
X133491000Y-76793000D01*
X133491000Y-76773000D01*
X133745000Y-76773000D01*
X133745000Y-76793000D01*
X135611720Y-76793000D01*
X135734220Y-76576930D01*
X135719262Y-76502724D01*
X135612122Y-76249465D01*
X135461045Y-76027000D01*
X137873000Y-76027000D01*
X137873000Y-77773000D01*
X135488209Y-77773000D01*
X135612122Y-77590535D01*
X135719262Y-77337276D01*
X135734220Y-77263070D01*
X135611720Y-77047000D01*
X133745000Y-77047000D01*
X133745000Y-77067000D01*
X133491000Y-77067000D01*
X133491000Y-77047000D01*
X131624280Y-77047000D01*
X131501780Y-77263070D01*
X131516738Y-77337276D01*
X131623878Y-77590535D01*
X131747791Y-77773000D01*
X129127000Y-77773000D01*
X129127000Y-76027000D01*
X131774955Y-76027000D01*
X131623878Y-76249465D01*
G37*
X131623878Y-76249465D02*
X131516738Y-76502724D01*
X131501780Y-76576930D01*
X131624280Y-76793000D01*
X133491000Y-76793000D01*
X133491000Y-76773000D01*
X133745000Y-76773000D01*
X133745000Y-76793000D01*
X135611720Y-76793000D01*
X135734220Y-76576930D01*
X135719262Y-76502724D01*
X135612122Y-76249465D01*
X135461045Y-76027000D01*
X137873000Y-76027000D01*
X137873000Y-77773000D01*
X135488209Y-77773000D01*
X135612122Y-77590535D01*
X135719262Y-77337276D01*
X135734220Y-77263070D01*
X135611720Y-77047000D01*
X133745000Y-77047000D01*
X133745000Y-77067000D01*
X133491000Y-77067000D01*
X133491000Y-77047000D01*
X131624280Y-77047000D01*
X131501780Y-77263070D01*
X131516738Y-77337276D01*
X131623878Y-77590535D01*
X131747791Y-77773000D01*
X129127000Y-77773000D01*
X129127000Y-76027000D01*
X131774955Y-76027000D01*
X131623878Y-76249465D01*
G36*
X131623000Y-76251540D02*
G01*
X131516738Y-76502724D01*
X131501780Y-76576930D01*
X131623000Y-76790742D01*
X131623000Y-77049258D01*
X131501780Y-77263070D01*
X131516738Y-77337276D01*
X131623000Y-77588460D01*
X131623000Y-78373000D01*
X128877000Y-78373000D01*
X128877000Y-75627000D01*
X131623000Y-75627000D01*
X131623000Y-76251540D01*
G37*
X131623000Y-76251540D02*
X131516738Y-76502724D01*
X131501780Y-76576930D01*
X131623000Y-76790742D01*
X131623000Y-77049258D01*
X131501780Y-77263070D01*
X131516738Y-77337276D01*
X131623000Y-77588460D01*
X131623000Y-78373000D01*
X128877000Y-78373000D01*
X128877000Y-75627000D01*
X131623000Y-75627000D01*
X131623000Y-76251540D01*
G36*
X138373000Y-78373000D02*
G01*
X135627000Y-78373000D01*
X135627000Y-77555366D01*
X135719262Y-77337276D01*
X135734220Y-77263070D01*
X135627000Y-77073951D01*
X135627000Y-76766049D01*
X135734220Y-76576930D01*
X135719262Y-76502724D01*
X135627000Y-76284634D01*
X135627000Y-75627000D01*
X138373000Y-75627000D01*
X138373000Y-78373000D01*
G37*
X138373000Y-78373000D02*
X135627000Y-78373000D01*
X135627000Y-77555366D01*
X135719262Y-77337276D01*
X135734220Y-77263070D01*
X135627000Y-77073951D01*
X135627000Y-76766049D01*
X135734220Y-76576930D01*
X135719262Y-76502724D01*
X135627000Y-76284634D01*
X135627000Y-75627000D01*
X138373000Y-75627000D01*
X138373000Y-78373000D01*
%TD*%
M02*
