M48
; DRILL file {KiCad (5.1.6)-1} date 12/10/21 22:35:28
; FORMAT={-:-/ absolute / inch / decimal}
; #@! TF.CreationDate,2021-12-10T22:35:28-05:00
; #@! TF.GenerationSoftware,Kicad,Pcbnew,(5.1.6)-1
FMAT,2
INCH
T1C0.0157
T2C0.0866
T3C0.1260
%
G90
G05
T1
X5.0984Y-3.002
X5.0984Y-3.061
X5.1575Y-3.002
X5.1575Y-3.061
X5.3642Y-3.002
X5.3642Y-3.061
X5.4232Y-3.002
X5.4232Y-3.061
X5.7087Y-3.622
X5.7874Y-3.4055
X5.7874Y-3.622
X5.8268Y-3.622
X5.9154Y-3.622
X6.0236Y-3.248
X6.0236Y-3.6713
X6.1516Y-3.7795
X6.3287Y-3.6811
X6.3386Y-3.937
X6.624Y-3.8189
X6.624Y-3.7205
T2
X6.3681Y-4.1375
X6.9882Y-3.7795
X6.3681Y-3.4215
T3
X6.378Y-2.9921
X4.8031Y-4.5669
X6.378Y-4.5669
X4.8031Y-2.9921
T0
M30
