M48
; DRILL file {KiCad (5.1.6)-1} date 02/18/22 00:55:24
; FORMAT={-:-/ absolute / metric / decimal}
; #@! TF.CreationDate,2022-02-18T00:55:24-05:00
; #@! TF.GenerationSoftware,Kicad,Pcbnew,(5.1.6)-1
FMAT,2
METRIC
T1C0.400
T2C0.500
T3C3.200
T4C1.152
T5C1.702
T6C3.000
T7C3.988
T8C4.500
%
G90
G05
T1
X119.0Y-112.0
X121.7Y-81.8
X124.25Y-81.8
X126.75Y-81.8
X129.25Y-102.25
X129.275Y-81.8
X129.3Y-96.25
X131.05Y-104.9
X131.8Y-102.25
X131.85Y-81.8
X132.125Y-80.0
X133.6Y-116.075
X134.35Y-102.2
X134.4Y-81.8
X135.4Y-79.6
X136.9Y-79.3
X137.0Y-104.6
X137.375Y-76.675
X137.5Y-101.8
X138.6Y-99.325
X141.4Y-103.1
X143.5Y-79.9
X144.025Y-100.525
X145.6Y-80.3
X146.7Y-103.0
X149.05Y-81.6
X151.75Y-107.7
X152.15Y-84.25
X162.1Y-98.75
X162.595Y-94.095
X164.0Y-92.5
X164.0Y-99.5
X165.5Y-92.5
X165.5Y-99.5
X167.0Y-92.5
X167.0Y-99.5
X168.5Y-92.5
X168.5Y-99.5
X170.0Y-92.5
X170.0Y-99.5
X171.5Y-96.7
X171.6Y-95.3
T2
X119.6Y-116.0
X120.303Y-114.303
X120.303Y-117.697
X122.0Y-113.6
X122.0Y-118.4
X123.697Y-114.303
X123.697Y-117.697
X124.4Y-116.0
X159.6Y-76.0
X160.303Y-74.303
X160.303Y-77.697
X162.0Y-73.6
X162.0Y-78.4
X163.697Y-74.303
X163.697Y-77.697
X164.4Y-76.0
X119.6Y-76.0
X120.303Y-74.303
X120.303Y-77.697
X122.0Y-73.6
X122.0Y-78.4
X123.697Y-74.303
X123.697Y-77.697
X124.4Y-76.0
X159.6Y-116.0
X160.303Y-114.303
X160.303Y-117.697
X162.0Y-113.6
X162.0Y-118.4
X163.697Y-114.303
X163.697Y-117.697
X164.4Y-116.0
T3
X122.0Y-116.0
X162.0Y-76.0
X122.0Y-76.0
X162.0Y-116.0
T4
X158.0Y-119.0
X126.0Y-119.0
X158.0Y-73.0
T5
X136.92Y-111.0
X147.08Y-111.0
T6
X139.46Y-116.08
X145.81Y-113.54
T7
X142.0Y-111.0
T8
X142.0Y-106.5
T0
M30
