M48
; DRILL file {KiCad (5.1.6)-1} date 12/22/21 23:27:49
; FORMAT={-:-/ absolute / metric / decimal}
; #@! TF.CreationDate,2021-12-22T23:27:49-05:00
; #@! TF.GenerationSoftware,Kicad,Pcbnew,(5.1.6)-1
FMAT,2
METRIC
T1C0.400
T2C0.500
T3C3.200
T4C1.702
T5C3.000
T6C3.988
T7C4.500
%
G90
G05
T1
X120.5Y-85.9
X120.5Y-91.0
X126.1Y-85.9
X126.1Y-90.9
X129.5Y-76.25
X129.5Y-77.75
X131.0Y-76.25
X131.0Y-77.75
X131.4Y-83.3
X131.4Y-85.9
X131.4Y-88.3
X131.4Y-91.0
X134.0Y-95.4
X134.3Y-106.4
X135.822Y-104.751
X136.25Y-76.25
X136.25Y-77.75
X136.8Y-106.3
X136.9Y-97.6
X137.75Y-76.25
X137.75Y-77.75
X146.0Y-106.2
X146.5Y-94.6
X147.0Y-88.15
X147.0Y-86.5
X149.5Y-93.3
X151.0Y-93.0
X152.5Y-75.7
X152.5Y-78.2
X152.5Y-80.8
X152.5Y-83.3
X152.5Y-85.8
X152.5Y-88.4
X153.3Y-82.1
X153.9Y-93.4
X156.25Y-96.0
X158.0Y-91.0
X162.205Y-94.095
X162.6Y-95.75
X164.0Y-92.5
X164.0Y-99.5
X165.5Y-92.5
X165.5Y-99.5
X167.0Y-92.5
X167.0Y-99.5
X167.4Y-94.6
X167.5Y-96.6
X168.5Y-92.5
X168.5Y-99.5
X170.0Y-92.5
X170.0Y-99.5
T2
X119.6Y-116.0
X120.303Y-114.303
X120.303Y-117.697
X122.0Y-113.6
X122.0Y-118.4
X123.697Y-114.303
X123.697Y-117.697
X124.4Y-116.0
X159.6Y-116.0
X160.303Y-114.303
X160.303Y-117.697
X162.0Y-113.6
X162.0Y-118.4
X163.697Y-114.303
X163.697Y-117.697
X164.4Y-116.0
X159.6Y-76.0
X160.303Y-74.303
X160.303Y-77.697
X162.0Y-73.6
X162.0Y-78.4
X163.697Y-74.303
X163.697Y-77.697
X164.4Y-76.0
X119.6Y-76.0
X120.303Y-74.303
X120.303Y-77.697
X122.0Y-73.6
X122.0Y-78.4
X123.697Y-74.303
X123.697Y-77.697
X124.4Y-76.0
T3
X122.0Y-116.0
X162.0Y-116.0
X162.0Y-76.0
X122.0Y-76.0
T4
X136.92Y-110.0
X147.08Y-110.0
T5
X139.46Y-115.08
X145.81Y-112.54
T6
X142.0Y-110.0
T7
X142.0Y-105.5
T0
M30
