%TF.GenerationSoftware,KiCad,Pcbnew,(5.1.6)-1*%
%TF.CreationDate,2022-01-16T22:15:19-05:00*%
%TF.ProjectId,base,62617365-2e6b-4696-9361-645f70636258,rev?*%
%TF.SameCoordinates,Original*%
%TF.FileFunction,Soldermask,Bot*%
%TF.FilePolarity,Negative*%
%FSLAX46Y46*%
G04 Gerber Fmt 4.6, Leading zero omitted, Abs format (unit mm)*
G04 Created by KiCad (PCBNEW (5.1.6)-1) date 2022-01-16 22:15:19*
%MOMM*%
%LPD*%
G01*
G04 APERTURE LIST*
%ADD10C,1.448000*%
%ADD11O,1.584000X3.108000*%
%ADD12R,1.600000X0.800000*%
%ADD13C,4.600000*%
%ADD14R,2.650000X2.600000*%
%ADD15C,3.100000*%
%ADD16C,4.087800*%
%ADD17C,1.801800*%
%ADD18R,1.000000X0.900000*%
%ADD19R,1.090600X2.894000*%
%ADD20R,0.709600X1.801800*%
%ADD21C,0.900000*%
%ADD22C,6.500000*%
%ADD23R,0.750000X0.500000*%
G04 APERTURE END LIST*
D10*
%TO.C,REF\u002A\u002A*%
X158000000Y-73000000D03*
%TD*%
%TO.C,REF\u002A\u002A*%
X126000000Y-119000000D03*
%TD*%
%TO.C,REF\u002A\u002A*%
X158000000Y-119000000D03*
%TD*%
D11*
%TO.C,U1*%
X120423180Y-83618000D03*
X122963180Y-83618000D03*
X125503180Y-83618000D03*
X128000000Y-83618000D03*
X130540000Y-83618000D03*
X133123180Y-83618000D03*
X135663180Y-83618000D03*
X135620000Y-100382000D03*
X133080000Y-100382000D03*
X130540000Y-100382000D03*
X128000000Y-100382000D03*
X125460000Y-100382000D03*
X122920000Y-100382000D03*
X120380000Y-100382000D03*
%TD*%
D12*
%TO.C,SW2*%
X139500000Y-107250000D03*
X139500000Y-105750000D03*
X144500000Y-105750000D03*
X144500000Y-107250000D03*
D13*
X142000000Y-106500000D03*
D14*
X135710000Y-116080000D03*
D15*
X139460000Y-116080000D03*
X145810000Y-113540000D03*
D16*
X142000000Y-111000000D03*
D17*
X136920000Y-111000000D03*
X147080000Y-111000000D03*
D14*
X149560000Y-113540000D03*
%TD*%
%TO.C,R10*%
G36*
G01*
X126581250Y-105900000D02*
X125618750Y-105900000D01*
G75*
G02*
X125350000Y-105631250I0J268750D01*
G01*
X125350000Y-105093750D01*
G75*
G02*
X125618750Y-104825000I268750J0D01*
G01*
X126581250Y-104825000D01*
G75*
G02*
X126850000Y-105093750I0J-268750D01*
G01*
X126850000Y-105631250D01*
G75*
G02*
X126581250Y-105900000I-268750J0D01*
G01*
G37*
G36*
G01*
X126581250Y-107775000D02*
X125618750Y-107775000D01*
G75*
G02*
X125350000Y-107506250I0J268750D01*
G01*
X125350000Y-106968750D01*
G75*
G02*
X125618750Y-106700000I268750J0D01*
G01*
X126581250Y-106700000D01*
G75*
G02*
X126850000Y-106968750I0J-268750D01*
G01*
X126850000Y-107506250D01*
G75*
G02*
X126581250Y-107775000I-268750J0D01*
G01*
G37*
%TD*%
%TO.C,R9*%
G36*
G01*
X126581250Y-110900000D02*
X125618750Y-110900000D01*
G75*
G02*
X125350000Y-110631250I0J268750D01*
G01*
X125350000Y-110093750D01*
G75*
G02*
X125618750Y-109825000I268750J0D01*
G01*
X126581250Y-109825000D01*
G75*
G02*
X126850000Y-110093750I0J-268750D01*
G01*
X126850000Y-110631250D01*
G75*
G02*
X126581250Y-110900000I-268750J0D01*
G01*
G37*
G36*
G01*
X126581250Y-112775000D02*
X125618750Y-112775000D01*
G75*
G02*
X125350000Y-112506250I0J268750D01*
G01*
X125350000Y-111968750D01*
G75*
G02*
X125618750Y-111700000I268750J0D01*
G01*
X126581250Y-111700000D01*
G75*
G02*
X126850000Y-111968750I0J-268750D01*
G01*
X126850000Y-112506250D01*
G75*
G02*
X126581250Y-112775000I-268750J0D01*
G01*
G37*
%TD*%
%TO.C,R8*%
G36*
G01*
X151781250Y-101600000D02*
X150818750Y-101600000D01*
G75*
G02*
X150550000Y-101331250I0J268750D01*
G01*
X150550000Y-100793750D01*
G75*
G02*
X150818750Y-100525000I268750J0D01*
G01*
X151781250Y-100525000D01*
G75*
G02*
X152050000Y-100793750I0J-268750D01*
G01*
X152050000Y-101331250D01*
G75*
G02*
X151781250Y-101600000I-268750J0D01*
G01*
G37*
G36*
G01*
X151781250Y-103475000D02*
X150818750Y-103475000D01*
G75*
G02*
X150550000Y-103206250I0J268750D01*
G01*
X150550000Y-102668750D01*
G75*
G02*
X150818750Y-102400000I268750J0D01*
G01*
X151781250Y-102400000D01*
G75*
G02*
X152050000Y-102668750I0J-268750D01*
G01*
X152050000Y-103206250D01*
G75*
G02*
X151781250Y-103475000I-268750J0D01*
G01*
G37*
%TD*%
D18*
%TO.C,Q3*%
X130600000Y-106300000D03*
X128600000Y-105350000D03*
X128600000Y-107250000D03*
%TD*%
%TO.C,Q2*%
X130600000Y-111300000D03*
X128600000Y-110350000D03*
X128600000Y-112250000D03*
%TD*%
%TO.C,Q1*%
X155800000Y-102000000D03*
X153800000Y-101050000D03*
X153800000Y-102950000D03*
%TD*%
%TO.C,R7*%
G36*
G01*
X132618750Y-106700000D02*
X133581250Y-106700000D01*
G75*
G02*
X133850000Y-106968750I0J-268750D01*
G01*
X133850000Y-107506250D01*
G75*
G02*
X133581250Y-107775000I-268750J0D01*
G01*
X132618750Y-107775000D01*
G75*
G02*
X132350000Y-107506250I0J268750D01*
G01*
X132350000Y-106968750D01*
G75*
G02*
X132618750Y-106700000I268750J0D01*
G01*
G37*
G36*
G01*
X132618750Y-104825000D02*
X133581250Y-104825000D01*
G75*
G02*
X133850000Y-105093750I0J-268750D01*
G01*
X133850000Y-105631250D01*
G75*
G02*
X133581250Y-105900000I-268750J0D01*
G01*
X132618750Y-105900000D01*
G75*
G02*
X132350000Y-105631250I0J268750D01*
G01*
X132350000Y-105093750D01*
G75*
G02*
X132618750Y-104825000I268750J0D01*
G01*
G37*
%TD*%
%TO.C,R6*%
G36*
G01*
X157818750Y-102400000D02*
X158781250Y-102400000D01*
G75*
G02*
X159050000Y-102668750I0J-268750D01*
G01*
X159050000Y-103206250D01*
G75*
G02*
X158781250Y-103475000I-268750J0D01*
G01*
X157818750Y-103475000D01*
G75*
G02*
X157550000Y-103206250I0J268750D01*
G01*
X157550000Y-102668750D01*
G75*
G02*
X157818750Y-102400000I268750J0D01*
G01*
G37*
G36*
G01*
X157818750Y-100525000D02*
X158781250Y-100525000D01*
G75*
G02*
X159050000Y-100793750I0J-268750D01*
G01*
X159050000Y-101331250D01*
G75*
G02*
X158781250Y-101600000I-268750J0D01*
G01*
X157818750Y-101600000D01*
G75*
G02*
X157550000Y-101331250I0J268750D01*
G01*
X157550000Y-100793750D01*
G75*
G02*
X157818750Y-100525000I268750J0D01*
G01*
G37*
%TD*%
%TO.C,R5*%
G36*
G01*
X132618750Y-111700000D02*
X133581250Y-111700000D01*
G75*
G02*
X133850000Y-111968750I0J-268750D01*
G01*
X133850000Y-112506250D01*
G75*
G02*
X133581250Y-112775000I-268750J0D01*
G01*
X132618750Y-112775000D01*
G75*
G02*
X132350000Y-112506250I0J268750D01*
G01*
X132350000Y-111968750D01*
G75*
G02*
X132618750Y-111700000I268750J0D01*
G01*
G37*
G36*
G01*
X132618750Y-109825000D02*
X133581250Y-109825000D01*
G75*
G02*
X133850000Y-110093750I0J-268750D01*
G01*
X133850000Y-110631250D01*
G75*
G02*
X133581250Y-110900000I-268750J0D01*
G01*
X132618750Y-110900000D01*
G75*
G02*
X132350000Y-110631250I0J268750D01*
G01*
X132350000Y-110093750D01*
G75*
G02*
X132618750Y-109825000I268750J0D01*
G01*
G37*
%TD*%
D19*
%TO.C,J1*%
X141900001Y-90296399D03*
X148099999Y-90296399D03*
D20*
X142999999Y-85146399D03*
X143999999Y-85146399D03*
X145000000Y-85146399D03*
X146000001Y-85146399D03*
X147000001Y-85146399D03*
%TD*%
D21*
%TO.C,H4*%
X163697056Y-74302944D03*
X162000000Y-73600000D03*
X160302944Y-74302944D03*
X159600000Y-76000000D03*
X160302944Y-77697056D03*
X162000000Y-78400000D03*
X163697056Y-77697056D03*
X164400000Y-76000000D03*
D22*
X162000000Y-76000000D03*
%TD*%
D21*
%TO.C,H3*%
X163697056Y-114302944D03*
X162000000Y-113600000D03*
X160302944Y-114302944D03*
X159600000Y-116000000D03*
X160302944Y-117697056D03*
X162000000Y-118400000D03*
X163697056Y-117697056D03*
X164400000Y-116000000D03*
D22*
X162000000Y-116000000D03*
%TD*%
D21*
%TO.C,H2*%
X123697056Y-114302944D03*
X122000000Y-113600000D03*
X120302944Y-114302944D03*
X119600000Y-116000000D03*
X120302944Y-117697056D03*
X122000000Y-118400000D03*
X123697056Y-117697056D03*
X124400000Y-116000000D03*
D22*
X122000000Y-116000000D03*
%TD*%
D21*
%TO.C,H1*%
X123697056Y-74302944D03*
X122000000Y-73600000D03*
X120302944Y-74302944D03*
X119600000Y-76000000D03*
X120302944Y-77697056D03*
X122000000Y-78400000D03*
X123697056Y-77697056D03*
X124400000Y-76000000D03*
D22*
X122000000Y-76000000D03*
%TD*%
%TO.C,C1*%
G36*
G01*
X160518750Y-94525000D02*
X161481250Y-94525000D01*
G75*
G02*
X161750000Y-94793750I0J-268750D01*
G01*
X161750000Y-95331250D01*
G75*
G02*
X161481250Y-95600000I-268750J0D01*
G01*
X160518750Y-95600000D01*
G75*
G02*
X160250000Y-95331250I0J268750D01*
G01*
X160250000Y-94793750D01*
G75*
G02*
X160518750Y-94525000I268750J0D01*
G01*
G37*
G36*
G01*
X160518750Y-96400000D02*
X161481250Y-96400000D01*
G75*
G02*
X161750000Y-96668750I0J-268750D01*
G01*
X161750000Y-97206250D01*
G75*
G02*
X161481250Y-97475000I-268750J0D01*
G01*
X160518750Y-97475000D01*
G75*
G02*
X160250000Y-97206250I0J268750D01*
G01*
X160250000Y-96668750D01*
G75*
G02*
X160518750Y-96400000I268750J0D01*
G01*
G37*
%TD*%
%TO.C,R1*%
G36*
G01*
X138518750Y-78400000D02*
X139481250Y-78400000D01*
G75*
G02*
X139750000Y-78668750I0J-268750D01*
G01*
X139750000Y-79206250D01*
G75*
G02*
X139481250Y-79475000I-268750J0D01*
G01*
X138518750Y-79475000D01*
G75*
G02*
X138250000Y-79206250I0J268750D01*
G01*
X138250000Y-78668750D01*
G75*
G02*
X138518750Y-78400000I268750J0D01*
G01*
G37*
G36*
G01*
X138518750Y-76525000D02*
X139481250Y-76525000D01*
G75*
G02*
X139750000Y-76793750I0J-268750D01*
G01*
X139750000Y-77331250D01*
G75*
G02*
X139481250Y-77600000I-268750J0D01*
G01*
X138518750Y-77600000D01*
G75*
G02*
X138250000Y-77331250I0J268750D01*
G01*
X138250000Y-76793750D01*
G75*
G02*
X138518750Y-76525000I268750J0D01*
G01*
G37*
%TD*%
%TO.C,R2*%
G36*
G01*
X141518750Y-76525000D02*
X142481250Y-76525000D01*
G75*
G02*
X142750000Y-76793750I0J-268750D01*
G01*
X142750000Y-77331250D01*
G75*
G02*
X142481250Y-77600000I-268750J0D01*
G01*
X141518750Y-77600000D01*
G75*
G02*
X141250000Y-77331250I0J268750D01*
G01*
X141250000Y-76793750D01*
G75*
G02*
X141518750Y-76525000I268750J0D01*
G01*
G37*
G36*
G01*
X141518750Y-78400000D02*
X142481250Y-78400000D01*
G75*
G02*
X142750000Y-78668750I0J-268750D01*
G01*
X142750000Y-79206250D01*
G75*
G02*
X142481250Y-79475000I-268750J0D01*
G01*
X141518750Y-79475000D01*
G75*
G02*
X141250000Y-79206250I0J268750D01*
G01*
X141250000Y-78668750D01*
G75*
G02*
X141518750Y-78400000I268750J0D01*
G01*
G37*
%TD*%
%TO.C,R3*%
G36*
G01*
X144518750Y-78400000D02*
X145481250Y-78400000D01*
G75*
G02*
X145750000Y-78668750I0J-268750D01*
G01*
X145750000Y-79206250D01*
G75*
G02*
X145481250Y-79475000I-268750J0D01*
G01*
X144518750Y-79475000D01*
G75*
G02*
X144250000Y-79206250I0J268750D01*
G01*
X144250000Y-78668750D01*
G75*
G02*
X144518750Y-78400000I268750J0D01*
G01*
G37*
G36*
G01*
X144518750Y-76525000D02*
X145481250Y-76525000D01*
G75*
G02*
X145750000Y-76793750I0J-268750D01*
G01*
X145750000Y-77331250D01*
G75*
G02*
X145481250Y-77600000I-268750J0D01*
G01*
X144518750Y-77600000D01*
G75*
G02*
X144250000Y-77331250I0J268750D01*
G01*
X144250000Y-76793750D01*
G75*
G02*
X144518750Y-76525000I268750J0D01*
G01*
G37*
%TD*%
%TO.C,R4*%
G36*
G01*
X147518750Y-76525000D02*
X148481250Y-76525000D01*
G75*
G02*
X148750000Y-76793750I0J-268750D01*
G01*
X148750000Y-77331250D01*
G75*
G02*
X148481250Y-77600000I-268750J0D01*
G01*
X147518750Y-77600000D01*
G75*
G02*
X147250000Y-77331250I0J268750D01*
G01*
X147250000Y-76793750D01*
G75*
G02*
X147518750Y-76525000I268750J0D01*
G01*
G37*
G36*
G01*
X147518750Y-78400000D02*
X148481250Y-78400000D01*
G75*
G02*
X148750000Y-78668750I0J-268750D01*
G01*
X148750000Y-79206250D01*
G75*
G02*
X148481250Y-79475000I-268750J0D01*
G01*
X147518750Y-79475000D01*
G75*
G02*
X147250000Y-79206250I0J268750D01*
G01*
X147250000Y-78668750D01*
G75*
G02*
X147518750Y-78400000I268750J0D01*
G01*
G37*
%TD*%
D23*
%TO.C,U2*%
X133950000Y-77350000D03*
X133950000Y-78650000D03*
X132050000Y-78000000D03*
X133950000Y-78000000D03*
X132050000Y-78650000D03*
X132050000Y-77350000D03*
%TD*%
M02*
