%TF.GenerationSoftware,KiCad,Pcbnew,(5.1.6)-1*%
%TF.CreationDate,2022-01-16T22:15:19-05:00*%
%TF.ProjectId,base,62617365-2e6b-4696-9361-645f70636258,rev?*%
%TF.SameCoordinates,Original*%
%TF.FileFunction,Legend,Top*%
%TF.FilePolarity,Positive*%
%FSLAX46Y46*%
G04 Gerber Fmt 4.6, Leading zero omitted, Abs format (unit mm)*
G04 Created by KiCad (PCBNEW (5.1.6)-1) date 2022-01-16 22:15:19*
%MOMM*%
%LPD*%
G01*
G04 APERTURE LIST*
%ADD10C,0.120000*%
%ADD11C,0.200000*%
%ADD12C,0.150000*%
G04 APERTURE END LIST*
D10*
%TO.C,U3*%
X167000000Y-93440000D02*
X163550000Y-93440000D01*
X167000000Y-93440000D02*
X168950000Y-93440000D01*
X167000000Y-98560000D02*
X165050000Y-98560000D01*
X167000000Y-98560000D02*
X168950000Y-98560000D01*
D11*
%TO.C,SW2*%
X146353553Y-108250000D02*
G75*
G03*
X146353553Y-108250000I-353553J0D01*
G01*
D12*
X149000000Y-117000000D02*
X149000000Y-118000000D01*
X149000000Y-104000000D02*
X148000000Y-104000000D01*
X148000000Y-118000000D02*
X149000000Y-118000000D01*
X149000000Y-104000000D02*
X149000000Y-105000000D01*
X135000000Y-105000000D02*
X135000000Y-104000000D01*
X135000000Y-118000000D02*
X136000000Y-118000000D01*
X136000000Y-104000000D02*
X135000000Y-104000000D01*
X135000000Y-118000000D02*
X135000000Y-117000000D01*
%TO.C,U3*%
X166238095Y-92052380D02*
X166238095Y-92861904D01*
X166285714Y-92957142D01*
X166333333Y-93004761D01*
X166428571Y-93052380D01*
X166619047Y-93052380D01*
X166714285Y-93004761D01*
X166761904Y-92957142D01*
X166809523Y-92861904D01*
X166809523Y-92052380D01*
X167190476Y-92052380D02*
X167809523Y-92052380D01*
X167476190Y-92433333D01*
X167619047Y-92433333D01*
X167714285Y-92480952D01*
X167761904Y-92528571D01*
X167809523Y-92623809D01*
X167809523Y-92861904D01*
X167761904Y-92957142D01*
X167714285Y-93004761D01*
X167619047Y-93052380D01*
X167333333Y-93052380D01*
X167238095Y-93004761D01*
X167190476Y-92957142D01*
%TD*%
M02*
