%TF.GenerationSoftware,KiCad,Pcbnew,(5.1.6)-1*%
%TF.CreationDate,2022-02-18T00:55:21-05:00*%
%TF.ProjectId,base,62617365-2e6b-4696-9361-645f70636258,rev?*%
%TF.SameCoordinates,Original*%
%TF.FileFunction,Soldermask,Top*%
%TF.FilePolarity,Negative*%
%FSLAX46Y46*%
G04 Gerber Fmt 4.6, Leading zero omitted, Abs format (unit mm)*
G04 Created by KiCad (PCBNEW (5.1.6)-1) date 2022-02-18 00:55:21*
%MOMM*%
%LPD*%
G01*
G04 APERTURE LIST*
%ADD10C,0.010000*%
%ADD11C,4.600000*%
%ADD12C,3.100000*%
%ADD13C,4.087800*%
%ADD14C,1.801800*%
%ADD15C,1.448000*%
%ADD16C,0.900000*%
%ADD17C,6.500000*%
G04 APERTURE END LIST*
D10*
%TO.C,G\u002A\u002A\u002A*%
G36*
X122978833Y-107748409D02*
G01*
X119359333Y-107770484D01*
X119359333Y-96040585D01*
X119359613Y-94335388D01*
X119360494Y-92792458D01*
X119362040Y-91404726D01*
X119364315Y-90165128D01*
X119367382Y-89066594D01*
X119371304Y-88102060D01*
X119376146Y-87264459D01*
X119381971Y-86546723D01*
X119388842Y-85941786D01*
X119396824Y-85442582D01*
X119405979Y-85042043D01*
X119416371Y-84733104D01*
X119428064Y-84508696D01*
X119441121Y-84361755D01*
X119455606Y-84285212D01*
X119465221Y-84270052D01*
X119570253Y-84261837D01*
X119826302Y-84255226D01*
X120215062Y-84250314D01*
X120707580Y-84247260D01*
X120707580Y-85731436D01*
X120731957Y-86568885D01*
X120756333Y-87406333D01*
X121560667Y-87491000D01*
X122365000Y-87575666D01*
X122390699Y-88072772D01*
X122416397Y-88569878D01*
X122136699Y-88519629D01*
X121903536Y-88484709D01*
X121578483Y-88444434D01*
X121285500Y-88412998D01*
X120714000Y-88356615D01*
X120714000Y-89172641D01*
X120720119Y-89521399D01*
X120736579Y-89796434D01*
X120760537Y-89961068D01*
X120777500Y-89991607D01*
X120875420Y-90002569D01*
X121118423Y-90031927D01*
X121483594Y-90076847D01*
X121948019Y-90134497D01*
X122488783Y-90202047D01*
X123025559Y-90269437D01*
X123613889Y-90341893D01*
X124145139Y-90404303D01*
X124596759Y-90454264D01*
X124946200Y-90489371D01*
X125170914Y-90507222D01*
X125210576Y-90506792D01*
X125210576Y-91343333D01*
X125111845Y-91377899D01*
X124888216Y-91473350D01*
X124567457Y-91617312D01*
X124177338Y-91797411D01*
X123919409Y-91918670D01*
X122703667Y-92494006D01*
X121984000Y-92391740D01*
X121615065Y-92343022D01*
X121277185Y-92304852D01*
X121030709Y-92283881D01*
X120989167Y-92282070D01*
X120714000Y-92274666D01*
X120714000Y-93079000D01*
X120721051Y-93484761D01*
X120743863Y-93740704D01*
X120784928Y-93865823D01*
X120798667Y-93873770D01*
X120798667Y-96208512D01*
X120798667Y-97840851D01*
X121200833Y-97891875D01*
X121506845Y-97928127D01*
X121887271Y-97969729D01*
X122180223Y-97999727D01*
X122757446Y-98056556D01*
X122180223Y-98287288D01*
X121820473Y-98434554D01*
X121457415Y-98588705D01*
X121200833Y-98702305D01*
X120798667Y-98886590D01*
X120798667Y-99729295D01*
X120801771Y-100083810D01*
X120810137Y-100364770D01*
X120822349Y-100536247D01*
X120831912Y-100572000D01*
X120914784Y-100534943D01*
X121119881Y-100433110D01*
X121419539Y-100280507D01*
X121786092Y-100091137D01*
X121935202Y-100013476D01*
X122111779Y-99924318D01*
X122111779Y-101750957D01*
X122019252Y-101758408D01*
X121584126Y-101882745D01*
X121246273Y-102119597D01*
X120984598Y-102488179D01*
X120834475Y-102837602D01*
X120765822Y-103139920D01*
X120728417Y-103534927D01*
X120722388Y-103962744D01*
X120747861Y-104363495D01*
X120804964Y-104677303D01*
X120830409Y-104750710D01*
X121059494Y-105142200D01*
X121379577Y-105485464D01*
X121739042Y-105728317D01*
X121839779Y-105771236D01*
X122017983Y-105816575D01*
X122328187Y-105875854D01*
X122734145Y-105943877D01*
X123199608Y-106015446D01*
X123688328Y-106085367D01*
X124164059Y-106148441D01*
X124590553Y-106199472D01*
X124931561Y-106233264D01*
X125142084Y-106244666D01*
X125209842Y-106224771D01*
X125252567Y-106144745D01*
X125275763Y-105974079D01*
X125284936Y-105682264D01*
X125286000Y-105447060D01*
X125286000Y-104649454D01*
X125053167Y-104603397D01*
X124883733Y-104576486D01*
X124585536Y-104535569D01*
X124198053Y-104485835D01*
X123760762Y-104432471D01*
X123679487Y-104422843D01*
X123124039Y-104352386D01*
X122715017Y-104285375D01*
X122429932Y-104213361D01*
X122246293Y-104127891D01*
X122141613Y-104020515D01*
X122093400Y-103882782D01*
X122085510Y-103823866D01*
X122080885Y-103639394D01*
X122123443Y-103510917D01*
X122234973Y-103433163D01*
X122437265Y-103400862D01*
X122752110Y-103408744D01*
X123201296Y-103451537D01*
X123487078Y-103484860D01*
X123943282Y-103540405D01*
X124366605Y-103593162D01*
X124714620Y-103637762D01*
X124944901Y-103668835D01*
X124971662Y-103672739D01*
X125292324Y-103720619D01*
X125267996Y-102887142D01*
X125243667Y-102053666D01*
X123811099Y-101878774D01*
X123283007Y-101820231D01*
X122800701Y-101777864D01*
X122398764Y-101753999D01*
X122111779Y-101750957D01*
X122111779Y-99924318D01*
X122426667Y-99765323D01*
X122782148Y-99605415D01*
X123008451Y-99530981D01*
X123108457Y-99535644D01*
X123404615Y-99765785D01*
X123745222Y-100028260D01*
X124102706Y-100302093D01*
X124449496Y-100566305D01*
X124758020Y-100799919D01*
X125000708Y-100981955D01*
X125149989Y-101091436D01*
X125180167Y-101111936D01*
X125228097Y-101103024D01*
X125259942Y-100994935D01*
X125278249Y-100766668D01*
X125285564Y-100397226D01*
X125286000Y-100239392D01*
X125286000Y-99304124D01*
X124926167Y-99073954D01*
X124676662Y-98919416D01*
X124344417Y-98720273D01*
X123994122Y-98515215D01*
X123933384Y-98480226D01*
X123660618Y-98318727D01*
X123466695Y-98194432D01*
X123379782Y-98125874D01*
X123383050Y-98118144D01*
X123498771Y-98131805D01*
X123738941Y-98167126D01*
X124061018Y-98217728D01*
X124227667Y-98244822D01*
X124666929Y-98318594D01*
X124964910Y-98357758D01*
X125148788Y-98344892D01*
X125245741Y-98262571D01*
X125282947Y-98093372D01*
X125287583Y-97819872D01*
X125286000Y-97566333D01*
X125279794Y-97220145D01*
X125263114Y-96947787D01*
X125238869Y-96786274D01*
X125222500Y-96757972D01*
X125124557Y-96746775D01*
X124881542Y-96717323D01*
X124516397Y-96672447D01*
X124052066Y-96614976D01*
X123511492Y-96547740D01*
X122978833Y-96481228D01*
X120798667Y-96208512D01*
X120798667Y-93873770D01*
X120819833Y-93886015D01*
X120944383Y-93897869D01*
X121195751Y-93927690D01*
X121532989Y-93970484D01*
X121789352Y-94004296D01*
X122264950Y-94079424D01*
X122606263Y-94162778D01*
X122848334Y-94263929D01*
X122932352Y-94316481D01*
X123105615Y-94440581D01*
X123379585Y-94639294D01*
X123718689Y-94886723D01*
X124087357Y-95156971D01*
X124143000Y-95197870D01*
X124492897Y-95454150D01*
X124799093Y-95676562D01*
X125033059Y-95844518D01*
X125166267Y-95937432D01*
X125180167Y-95946333D01*
X125227106Y-95937722D01*
X125258674Y-95831413D01*
X125277255Y-95606700D01*
X125285234Y-95242873D01*
X125286000Y-95027156D01*
X125286000Y-94044320D01*
X124629833Y-93732407D01*
X124305438Y-93567987D01*
X124135885Y-93457044D01*
X124123284Y-93401035D01*
X124143000Y-93396048D01*
X124315155Y-93360029D01*
X124582178Y-93292665D01*
X124799167Y-93233062D01*
X125286000Y-93094523D01*
X125286000Y-92218928D01*
X125279214Y-91856992D01*
X125260880Y-91567916D01*
X125234033Y-91386941D01*
X125210576Y-91343333D01*
X125210576Y-90506792D01*
X125248059Y-90506385D01*
X125264668Y-90410514D01*
X125277584Y-90185104D01*
X125284963Y-89869940D01*
X125286000Y-89687835D01*
X125286000Y-88907226D01*
X124905000Y-88855280D01*
X124558842Y-88808083D01*
X124198568Y-88758962D01*
X124143000Y-88751386D01*
X123762000Y-88699439D01*
X123762000Y-87765461D01*
X124291167Y-87825206D01*
X124614512Y-87864935D01*
X124902932Y-87905832D01*
X125053167Y-87931392D01*
X125286000Y-87977833D01*
X125286000Y-86294868D01*
X123359833Y-86061116D01*
X122783996Y-85991065D01*
X122243870Y-85925043D01*
X121769246Y-85866716D01*
X121389914Y-85819749D01*
X121135665Y-85787810D01*
X121070623Y-85779400D01*
X120707580Y-85731436D01*
X120707580Y-84247260D01*
X120718221Y-84247194D01*
X121317473Y-84245960D01*
X121994508Y-84246706D01*
X122731018Y-84249524D01*
X123084721Y-84251543D01*
X126598333Y-84273666D01*
X126598333Y-107726333D01*
X122978833Y-107748409D01*
G37*
X122978833Y-107748409D02*
X119359333Y-107770484D01*
X119359333Y-96040585D01*
X119359613Y-94335388D01*
X119360494Y-92792458D01*
X119362040Y-91404726D01*
X119364315Y-90165128D01*
X119367382Y-89066594D01*
X119371304Y-88102060D01*
X119376146Y-87264459D01*
X119381971Y-86546723D01*
X119388842Y-85941786D01*
X119396824Y-85442582D01*
X119405979Y-85042043D01*
X119416371Y-84733104D01*
X119428064Y-84508696D01*
X119441121Y-84361755D01*
X119455606Y-84285212D01*
X119465221Y-84270052D01*
X119570253Y-84261837D01*
X119826302Y-84255226D01*
X120215062Y-84250314D01*
X120707580Y-84247260D01*
X120707580Y-85731436D01*
X120731957Y-86568885D01*
X120756333Y-87406333D01*
X121560667Y-87491000D01*
X122365000Y-87575666D01*
X122390699Y-88072772D01*
X122416397Y-88569878D01*
X122136699Y-88519629D01*
X121903536Y-88484709D01*
X121578483Y-88444434D01*
X121285500Y-88412998D01*
X120714000Y-88356615D01*
X120714000Y-89172641D01*
X120720119Y-89521399D01*
X120736579Y-89796434D01*
X120760537Y-89961068D01*
X120777500Y-89991607D01*
X120875420Y-90002569D01*
X121118423Y-90031927D01*
X121483594Y-90076847D01*
X121948019Y-90134497D01*
X122488783Y-90202047D01*
X123025559Y-90269437D01*
X123613889Y-90341893D01*
X124145139Y-90404303D01*
X124596759Y-90454264D01*
X124946200Y-90489371D01*
X125170914Y-90507222D01*
X125210576Y-90506792D01*
X125210576Y-91343333D01*
X125111845Y-91377899D01*
X124888216Y-91473350D01*
X124567457Y-91617312D01*
X124177338Y-91797411D01*
X123919409Y-91918670D01*
X122703667Y-92494006D01*
X121984000Y-92391740D01*
X121615065Y-92343022D01*
X121277185Y-92304852D01*
X121030709Y-92283881D01*
X120989167Y-92282070D01*
X120714000Y-92274666D01*
X120714000Y-93079000D01*
X120721051Y-93484761D01*
X120743863Y-93740704D01*
X120784928Y-93865823D01*
X120798667Y-93873770D01*
X120798667Y-96208512D01*
X120798667Y-97840851D01*
X121200833Y-97891875D01*
X121506845Y-97928127D01*
X121887271Y-97969729D01*
X122180223Y-97999727D01*
X122757446Y-98056556D01*
X122180223Y-98287288D01*
X121820473Y-98434554D01*
X121457415Y-98588705D01*
X121200833Y-98702305D01*
X120798667Y-98886590D01*
X120798667Y-99729295D01*
X120801771Y-100083810D01*
X120810137Y-100364770D01*
X120822349Y-100536247D01*
X120831912Y-100572000D01*
X120914784Y-100534943D01*
X121119881Y-100433110D01*
X121419539Y-100280507D01*
X121786092Y-100091137D01*
X121935202Y-100013476D01*
X122111779Y-99924318D01*
X122111779Y-101750957D01*
X122019252Y-101758408D01*
X121584126Y-101882745D01*
X121246273Y-102119597D01*
X120984598Y-102488179D01*
X120834475Y-102837602D01*
X120765822Y-103139920D01*
X120728417Y-103534927D01*
X120722388Y-103962744D01*
X120747861Y-104363495D01*
X120804964Y-104677303D01*
X120830409Y-104750710D01*
X121059494Y-105142200D01*
X121379577Y-105485464D01*
X121739042Y-105728317D01*
X121839779Y-105771236D01*
X122017983Y-105816575D01*
X122328187Y-105875854D01*
X122734145Y-105943877D01*
X123199608Y-106015446D01*
X123688328Y-106085367D01*
X124164059Y-106148441D01*
X124590553Y-106199472D01*
X124931561Y-106233264D01*
X125142084Y-106244666D01*
X125209842Y-106224771D01*
X125252567Y-106144745D01*
X125275763Y-105974079D01*
X125284936Y-105682264D01*
X125286000Y-105447060D01*
X125286000Y-104649454D01*
X125053167Y-104603397D01*
X124883733Y-104576486D01*
X124585536Y-104535569D01*
X124198053Y-104485835D01*
X123760762Y-104432471D01*
X123679487Y-104422843D01*
X123124039Y-104352386D01*
X122715017Y-104285375D01*
X122429932Y-104213361D01*
X122246293Y-104127891D01*
X122141613Y-104020515D01*
X122093400Y-103882782D01*
X122085510Y-103823866D01*
X122080885Y-103639394D01*
X122123443Y-103510917D01*
X122234973Y-103433163D01*
X122437265Y-103400862D01*
X122752110Y-103408744D01*
X123201296Y-103451537D01*
X123487078Y-103484860D01*
X123943282Y-103540405D01*
X124366605Y-103593162D01*
X124714620Y-103637762D01*
X124944901Y-103668835D01*
X124971662Y-103672739D01*
X125292324Y-103720619D01*
X125267996Y-102887142D01*
X125243667Y-102053666D01*
X123811099Y-101878774D01*
X123283007Y-101820231D01*
X122800701Y-101777864D01*
X122398764Y-101753999D01*
X122111779Y-101750957D01*
X122111779Y-99924318D01*
X122426667Y-99765323D01*
X122782148Y-99605415D01*
X123008451Y-99530981D01*
X123108457Y-99535644D01*
X123404615Y-99765785D01*
X123745222Y-100028260D01*
X124102706Y-100302093D01*
X124449496Y-100566305D01*
X124758020Y-100799919D01*
X125000708Y-100981955D01*
X125149989Y-101091436D01*
X125180167Y-101111936D01*
X125228097Y-101103024D01*
X125259942Y-100994935D01*
X125278249Y-100766668D01*
X125285564Y-100397226D01*
X125286000Y-100239392D01*
X125286000Y-99304124D01*
X124926167Y-99073954D01*
X124676662Y-98919416D01*
X124344417Y-98720273D01*
X123994122Y-98515215D01*
X123933384Y-98480226D01*
X123660618Y-98318727D01*
X123466695Y-98194432D01*
X123379782Y-98125874D01*
X123383050Y-98118144D01*
X123498771Y-98131805D01*
X123738941Y-98167126D01*
X124061018Y-98217728D01*
X124227667Y-98244822D01*
X124666929Y-98318594D01*
X124964910Y-98357758D01*
X125148788Y-98344892D01*
X125245741Y-98262571D01*
X125282947Y-98093372D01*
X125287583Y-97819872D01*
X125286000Y-97566333D01*
X125279794Y-97220145D01*
X125263114Y-96947787D01*
X125238869Y-96786274D01*
X125222500Y-96757972D01*
X125124557Y-96746775D01*
X124881542Y-96717323D01*
X124516397Y-96672447D01*
X124052066Y-96614976D01*
X123511492Y-96547740D01*
X122978833Y-96481228D01*
X120798667Y-96208512D01*
X120798667Y-93873770D01*
X120819833Y-93886015D01*
X120944383Y-93897869D01*
X121195751Y-93927690D01*
X121532989Y-93970484D01*
X121789352Y-94004296D01*
X122264950Y-94079424D01*
X122606263Y-94162778D01*
X122848334Y-94263929D01*
X122932352Y-94316481D01*
X123105615Y-94440581D01*
X123379585Y-94639294D01*
X123718689Y-94886723D01*
X124087357Y-95156971D01*
X124143000Y-95197870D01*
X124492897Y-95454150D01*
X124799093Y-95676562D01*
X125033059Y-95844518D01*
X125166267Y-95937432D01*
X125180167Y-95946333D01*
X125227106Y-95937722D01*
X125258674Y-95831413D01*
X125277255Y-95606700D01*
X125285234Y-95242873D01*
X125286000Y-95027156D01*
X125286000Y-94044320D01*
X124629833Y-93732407D01*
X124305438Y-93567987D01*
X124135885Y-93457044D01*
X124123284Y-93401035D01*
X124143000Y-93396048D01*
X124315155Y-93360029D01*
X124582178Y-93292665D01*
X124799167Y-93233062D01*
X125286000Y-93094523D01*
X125286000Y-92218928D01*
X125279214Y-91856992D01*
X125260880Y-91567916D01*
X125234033Y-91386941D01*
X125210576Y-91343333D01*
X125210576Y-90506792D01*
X125248059Y-90506385D01*
X125264668Y-90410514D01*
X125277584Y-90185104D01*
X125284963Y-89869940D01*
X125286000Y-89687835D01*
X125286000Y-88907226D01*
X124905000Y-88855280D01*
X124558842Y-88808083D01*
X124198568Y-88758962D01*
X124143000Y-88751386D01*
X123762000Y-88699439D01*
X123762000Y-87765461D01*
X124291167Y-87825206D01*
X124614512Y-87864935D01*
X124902932Y-87905832D01*
X125053167Y-87931392D01*
X125286000Y-87977833D01*
X125286000Y-86294868D01*
X123359833Y-86061116D01*
X122783996Y-85991065D01*
X122243870Y-85925043D01*
X121769246Y-85866716D01*
X121389914Y-85819749D01*
X121135665Y-85787810D01*
X121070623Y-85779400D01*
X120707580Y-85731436D01*
X120707580Y-84247260D01*
X120718221Y-84247194D01*
X121317473Y-84245960D01*
X121994508Y-84246706D01*
X122731018Y-84249524D01*
X123084721Y-84251543D01*
X126598333Y-84273666D01*
X126598333Y-107726333D01*
X122978833Y-107748409D01*
%TD*%
D11*
%TO.C,SW2*%
X142000000Y-106500000D03*
D12*
X139460000Y-116080000D03*
X145810000Y-113540000D03*
D13*
X142000000Y-111000000D03*
D14*
X136920000Y-111000000D03*
X147080000Y-111000000D03*
%TD*%
D15*
%TO.C,REF\u002A\u002A*%
X158000000Y-73000000D03*
%TD*%
%TO.C,REF\u002A\u002A*%
X126000000Y-119000000D03*
%TD*%
%TO.C,REF\u002A\u002A*%
X158000000Y-119000000D03*
%TD*%
%TO.C,U3*%
G36*
G01*
X168450000Y-94270000D02*
X168450000Y-93920000D01*
G75*
G02*
X168625000Y-93745000I175000J0D01*
G01*
X170325000Y-93745000D01*
G75*
G02*
X170500000Y-93920000I0J-175000D01*
G01*
X170500000Y-94270000D01*
G75*
G02*
X170325000Y-94445000I-175000J0D01*
G01*
X168625000Y-94445000D01*
G75*
G02*
X168450000Y-94270000I0J175000D01*
G01*
G37*
G36*
G01*
X168450000Y-95540000D02*
X168450000Y-95190000D01*
G75*
G02*
X168625000Y-95015000I175000J0D01*
G01*
X170325000Y-95015000D01*
G75*
G02*
X170500000Y-95190000I0J-175000D01*
G01*
X170500000Y-95540000D01*
G75*
G02*
X170325000Y-95715000I-175000J0D01*
G01*
X168625000Y-95715000D01*
G75*
G02*
X168450000Y-95540000I0J175000D01*
G01*
G37*
G36*
G01*
X168450000Y-96810000D02*
X168450000Y-96460000D01*
G75*
G02*
X168625000Y-96285000I175000J0D01*
G01*
X170325000Y-96285000D01*
G75*
G02*
X170500000Y-96460000I0J-175000D01*
G01*
X170500000Y-96810000D01*
G75*
G02*
X170325000Y-96985000I-175000J0D01*
G01*
X168625000Y-96985000D01*
G75*
G02*
X168450000Y-96810000I0J175000D01*
G01*
G37*
G36*
G01*
X168450000Y-98080000D02*
X168450000Y-97730000D01*
G75*
G02*
X168625000Y-97555000I175000J0D01*
G01*
X170325000Y-97555000D01*
G75*
G02*
X170500000Y-97730000I0J-175000D01*
G01*
X170500000Y-98080000D01*
G75*
G02*
X170325000Y-98255000I-175000J0D01*
G01*
X168625000Y-98255000D01*
G75*
G02*
X168450000Y-98080000I0J175000D01*
G01*
G37*
G36*
G01*
X163500000Y-98080000D02*
X163500000Y-97730000D01*
G75*
G02*
X163675000Y-97555000I175000J0D01*
G01*
X165375000Y-97555000D01*
G75*
G02*
X165550000Y-97730000I0J-175000D01*
G01*
X165550000Y-98080000D01*
G75*
G02*
X165375000Y-98255000I-175000J0D01*
G01*
X163675000Y-98255000D01*
G75*
G02*
X163500000Y-98080000I0J175000D01*
G01*
G37*
G36*
G01*
X163500000Y-96810000D02*
X163500000Y-96460000D01*
G75*
G02*
X163675000Y-96285000I175000J0D01*
G01*
X165375000Y-96285000D01*
G75*
G02*
X165550000Y-96460000I0J-175000D01*
G01*
X165550000Y-96810000D01*
G75*
G02*
X165375000Y-96985000I-175000J0D01*
G01*
X163675000Y-96985000D01*
G75*
G02*
X163500000Y-96810000I0J175000D01*
G01*
G37*
G36*
G01*
X163500000Y-95540000D02*
X163500000Y-95190000D01*
G75*
G02*
X163675000Y-95015000I175000J0D01*
G01*
X165375000Y-95015000D01*
G75*
G02*
X165550000Y-95190000I0J-175000D01*
G01*
X165550000Y-95540000D01*
G75*
G02*
X165375000Y-95715000I-175000J0D01*
G01*
X163675000Y-95715000D01*
G75*
G02*
X163500000Y-95540000I0J175000D01*
G01*
G37*
G36*
G01*
X163500000Y-94270000D02*
X163500000Y-93920000D01*
G75*
G02*
X163675000Y-93745000I175000J0D01*
G01*
X165375000Y-93745000D01*
G75*
G02*
X165550000Y-93920000I0J-175000D01*
G01*
X165550000Y-94270000D01*
G75*
G02*
X165375000Y-94445000I-175000J0D01*
G01*
X163675000Y-94445000D01*
G75*
G02*
X163500000Y-94270000I0J175000D01*
G01*
G37*
%TD*%
D16*
%TO.C,H4*%
X163697056Y-74302944D03*
X162000000Y-73600000D03*
X160302944Y-74302944D03*
X159600000Y-76000000D03*
X160302944Y-77697056D03*
X162000000Y-78400000D03*
X163697056Y-77697056D03*
X164400000Y-76000000D03*
D17*
X162000000Y-76000000D03*
%TD*%
D16*
%TO.C,H3*%
X163697056Y-114302944D03*
X162000000Y-113600000D03*
X160302944Y-114302944D03*
X159600000Y-116000000D03*
X160302944Y-117697056D03*
X162000000Y-118400000D03*
X163697056Y-117697056D03*
X164400000Y-116000000D03*
D17*
X162000000Y-116000000D03*
%TD*%
D16*
%TO.C,H2*%
X123697056Y-114302944D03*
X122000000Y-113600000D03*
X120302944Y-114302944D03*
X119600000Y-116000000D03*
X120302944Y-117697056D03*
X122000000Y-118400000D03*
X123697056Y-117697056D03*
X124400000Y-116000000D03*
D17*
X122000000Y-116000000D03*
%TD*%
D16*
%TO.C,H1*%
X123697056Y-74302944D03*
X122000000Y-73600000D03*
X120302944Y-74302944D03*
X119600000Y-76000000D03*
X120302944Y-77697056D03*
X122000000Y-78400000D03*
X123697056Y-77697056D03*
X124400000Y-76000000D03*
D17*
X122000000Y-76000000D03*
%TD*%
M02*
