%TF.GenerationSoftware,KiCad,Pcbnew,(5.1.6)-1*%
%TF.CreationDate,2021-12-22T23:27:45-05:00*%
%TF.ProjectId,base,62617365-2e6b-4696-9361-645f70636258,rev?*%
%TF.SameCoordinates,Original*%
%TF.FileFunction,Legend,Bot*%
%TF.FilePolarity,Positive*%
%FSLAX46Y46*%
G04 Gerber Fmt 4.6, Leading zero omitted, Abs format (unit mm)*
G04 Created by KiCad (PCBNEW (5.1.6)-1) date 2021-12-22 23:27:45*
%MOMM*%
%LPD*%
G01*
G04 APERTURE LIST*
%ADD10C,0.150000*%
%ADD11C,0.120000*%
%ADD12C,0.127000*%
G04 APERTURE END LIST*
D10*
%TO.C,SW2*%
X148350000Y-114445000D02*
G75*
G02*
X145810000Y-116985000I-2540000J0D01*
G01*
X144464162Y-110616040D02*
G75*
G02*
X142000000Y-112540000I-2464162J616040D01*
G01*
X136920000Y-116985000D02*
X136920000Y-116604000D01*
X145810000Y-116985000D02*
X136920000Y-116985000D01*
X148350000Y-114445000D02*
X148350000Y-114064000D01*
X147969000Y-110635000D02*
X148350000Y-110635000D01*
X144464162Y-110635000D02*
X146191000Y-110635000D01*
X136920000Y-112540000D02*
X142000000Y-112540000D01*
X136920000Y-113556000D02*
X136920000Y-112540000D01*
X148350000Y-111016000D02*
X148350000Y-110635000D01*
D11*
%TO.C,R10*%
X126790000Y-93241422D02*
X126790000Y-93758578D01*
X128210000Y-93241422D02*
X128210000Y-93758578D01*
%TO.C,R9*%
X126790000Y-88241422D02*
X126790000Y-88758578D01*
X128210000Y-88241422D02*
X128210000Y-88758578D01*
%TO.C,R8*%
X126790000Y-83241422D02*
X126790000Y-83758578D01*
X128210000Y-83241422D02*
X128210000Y-83758578D01*
%TO.C,Q3*%
X123240000Y-95080000D02*
X123240000Y-94150000D01*
X123240000Y-91920000D02*
X123240000Y-92850000D01*
X123240000Y-91920000D02*
X125400000Y-91920000D01*
X123240000Y-95080000D02*
X124700000Y-95080000D01*
%TO.C,Q2*%
X123240000Y-90080000D02*
X123240000Y-89150000D01*
X123240000Y-86920000D02*
X123240000Y-87850000D01*
X123240000Y-86920000D02*
X125400000Y-86920000D01*
X123240000Y-90080000D02*
X124700000Y-90080000D01*
%TO.C,Q1*%
X123240000Y-85080000D02*
X123240000Y-84150000D01*
X123240000Y-81920000D02*
X123240000Y-82850000D01*
X123240000Y-81920000D02*
X125400000Y-81920000D01*
X123240000Y-85080000D02*
X124700000Y-85080000D01*
%TO.C,R7*%
X121210000Y-93758578D02*
X121210000Y-93241422D01*
X119790000Y-93758578D02*
X119790000Y-93241422D01*
%TO.C,R6*%
X121210000Y-83758578D02*
X121210000Y-83241422D01*
X119790000Y-83758578D02*
X119790000Y-83241422D01*
%TO.C,R5*%
X121210000Y-88758578D02*
X121210000Y-88241422D01*
X119790000Y-88758578D02*
X119790000Y-88241422D01*
%TO.C,J1*%
X139530600Y-96728041D02*
X139530600Y-101271959D01*
X136568711Y-102632200D02*
X132469399Y-102632200D01*
X132469399Y-102632200D02*
X132469399Y-101637541D01*
X132469399Y-95367800D02*
X136568711Y-95367800D01*
X132469399Y-96362459D02*
X132469399Y-95367800D01*
%TO.C,C1*%
X160290000Y-97241422D02*
X160290000Y-97758578D01*
X161710000Y-97241422D02*
X161710000Y-97758578D01*
%TO.C,R1*%
X154290000Y-88258578D02*
X154290000Y-87741422D01*
X155710000Y-88258578D02*
X155710000Y-87741422D01*
%TO.C,R2*%
X156540000Y-93553922D02*
X156540000Y-94071078D01*
X157960000Y-93553922D02*
X157960000Y-94071078D01*
%TO.C,R3*%
X156540000Y-98446078D02*
X156540000Y-97928922D01*
X157960000Y-98446078D02*
X157960000Y-97928922D01*
%TO.C,R4*%
X154290000Y-83303922D02*
X154290000Y-83821078D01*
X155710000Y-83303922D02*
X155710000Y-83821078D01*
%TO.C,U1*%
X148342000Y-74380000D02*
G75*
G03*
X148342000Y-74380000I-500000J0D01*
G01*
D12*
X137428000Y-70062000D02*
X146572000Y-70062000D01*
D11*
X148000000Y-91144000D02*
X148000000Y-79144000D01*
X136000000Y-91144000D02*
X148000000Y-91144000D01*
X136000000Y-79144000D02*
X136000000Y-91144000D01*
X148000000Y-79144000D02*
X136000000Y-79144000D01*
D12*
X137428000Y-70062000D02*
X137428000Y-77682000D01*
X137428000Y-77682000D02*
X146572000Y-77682000D01*
X146572000Y-77682000D02*
X146572000Y-70062000D01*
D11*
X149112000Y-71586000D02*
X134888000Y-71586000D01*
X133110000Y-73364000D02*
X133110000Y-90636000D01*
X134888000Y-92414000D02*
X149112000Y-92414000D01*
X150890000Y-90636000D02*
X150890000Y-73364000D01*
X133110000Y-90636000D02*
G75*
G03*
X134888000Y-92414000I1778000J0D01*
G01*
X149112000Y-92414000D02*
G75*
G03*
X150890000Y-90636000I0J1778000D01*
G01*
X150890000Y-73364000D02*
G75*
G03*
X149112000Y-71586000I-1778000J0D01*
G01*
X134888000Y-71586000D02*
G75*
G03*
X133110000Y-73364000I0J-1778000D01*
G01*
%TO.C,U2*%
X153300000Y-94840000D02*
X155200000Y-94840000D01*
X154700000Y-97160000D02*
X153300000Y-97160000D01*
%TO.C,SW2*%
D10*
X143333333Y-118659761D02*
X143190476Y-118707380D01*
X142952380Y-118707380D01*
X142857142Y-118659761D01*
X142809523Y-118612142D01*
X142761904Y-118516904D01*
X142761904Y-118421666D01*
X142809523Y-118326428D01*
X142857142Y-118278809D01*
X142952380Y-118231190D01*
X143142857Y-118183571D01*
X143238095Y-118135952D01*
X143285714Y-118088333D01*
X143333333Y-117993095D01*
X143333333Y-117897857D01*
X143285714Y-117802619D01*
X143238095Y-117755000D01*
X143142857Y-117707380D01*
X142904761Y-117707380D01*
X142761904Y-117755000D01*
X142428571Y-117707380D02*
X142190476Y-118707380D01*
X142000000Y-117993095D01*
X141809523Y-118707380D01*
X141571428Y-117707380D01*
X141238095Y-117802619D02*
X141190476Y-117755000D01*
X141095238Y-117707380D01*
X140857142Y-117707380D01*
X140761904Y-117755000D01*
X140714285Y-117802619D01*
X140666666Y-117897857D01*
X140666666Y-117993095D01*
X140714285Y-118135952D01*
X141285714Y-118707380D01*
X140666666Y-118707380D01*
%TO.C,R10*%
X129852380Y-92857142D02*
X129376190Y-92523809D01*
X129852380Y-92285714D02*
X128852380Y-92285714D01*
X128852380Y-92666666D01*
X128900000Y-92761904D01*
X128947619Y-92809523D01*
X129042857Y-92857142D01*
X129185714Y-92857142D01*
X129280952Y-92809523D01*
X129328571Y-92761904D01*
X129376190Y-92666666D01*
X129376190Y-92285714D01*
X129852380Y-93809523D02*
X129852380Y-93238095D01*
X129852380Y-93523809D02*
X128852380Y-93523809D01*
X128995238Y-93428571D01*
X129090476Y-93333333D01*
X129138095Y-93238095D01*
X128852380Y-94428571D02*
X128852380Y-94523809D01*
X128900000Y-94619047D01*
X128947619Y-94666666D01*
X129042857Y-94714285D01*
X129233333Y-94761904D01*
X129471428Y-94761904D01*
X129661904Y-94714285D01*
X129757142Y-94666666D01*
X129804761Y-94619047D01*
X129852380Y-94523809D01*
X129852380Y-94428571D01*
X129804761Y-94333333D01*
X129757142Y-94285714D01*
X129661904Y-94238095D01*
X129471428Y-94190476D01*
X129233333Y-94190476D01*
X129042857Y-94238095D01*
X128947619Y-94285714D01*
X128900000Y-94333333D01*
X128852380Y-94428571D01*
%TO.C,R9*%
X129852380Y-88333333D02*
X129376190Y-88000000D01*
X129852380Y-87761904D02*
X128852380Y-87761904D01*
X128852380Y-88142857D01*
X128900000Y-88238095D01*
X128947619Y-88285714D01*
X129042857Y-88333333D01*
X129185714Y-88333333D01*
X129280952Y-88285714D01*
X129328571Y-88238095D01*
X129376190Y-88142857D01*
X129376190Y-87761904D01*
X129852380Y-88809523D02*
X129852380Y-89000000D01*
X129804761Y-89095238D01*
X129757142Y-89142857D01*
X129614285Y-89238095D01*
X129423809Y-89285714D01*
X129042857Y-89285714D01*
X128947619Y-89238095D01*
X128900000Y-89190476D01*
X128852380Y-89095238D01*
X128852380Y-88904761D01*
X128900000Y-88809523D01*
X128947619Y-88761904D01*
X129042857Y-88714285D01*
X129280952Y-88714285D01*
X129376190Y-88761904D01*
X129423809Y-88809523D01*
X129471428Y-88904761D01*
X129471428Y-89095238D01*
X129423809Y-89190476D01*
X129376190Y-89238095D01*
X129280952Y-89285714D01*
%TO.C,R8*%
X129852380Y-83333333D02*
X129376190Y-83000000D01*
X129852380Y-82761904D02*
X128852380Y-82761904D01*
X128852380Y-83142857D01*
X128900000Y-83238095D01*
X128947619Y-83285714D01*
X129042857Y-83333333D01*
X129185714Y-83333333D01*
X129280952Y-83285714D01*
X129328571Y-83238095D01*
X129376190Y-83142857D01*
X129376190Y-82761904D01*
X129280952Y-83904761D02*
X129233333Y-83809523D01*
X129185714Y-83761904D01*
X129090476Y-83714285D01*
X129042857Y-83714285D01*
X128947619Y-83761904D01*
X128900000Y-83809523D01*
X128852380Y-83904761D01*
X128852380Y-84095238D01*
X128900000Y-84190476D01*
X128947619Y-84238095D01*
X129042857Y-84285714D01*
X129090476Y-84285714D01*
X129185714Y-84238095D01*
X129233333Y-84190476D01*
X129280952Y-84095238D01*
X129280952Y-83904761D01*
X129328571Y-83809523D01*
X129376190Y-83761904D01*
X129471428Y-83714285D01*
X129661904Y-83714285D01*
X129757142Y-83761904D01*
X129804761Y-83809523D01*
X129852380Y-83904761D01*
X129852380Y-84095238D01*
X129804761Y-84190476D01*
X129757142Y-84238095D01*
X129661904Y-84285714D01*
X129471428Y-84285714D01*
X129376190Y-84238095D01*
X129328571Y-84190476D01*
X129280952Y-84095238D01*
%TO.C,Q3*%
X124095238Y-91547619D02*
X124190476Y-91500000D01*
X124285714Y-91404761D01*
X124428571Y-91261904D01*
X124523809Y-91214285D01*
X124619047Y-91214285D01*
X124571428Y-91452380D02*
X124666666Y-91404761D01*
X124761904Y-91309523D01*
X124809523Y-91119047D01*
X124809523Y-90785714D01*
X124761904Y-90595238D01*
X124666666Y-90500000D01*
X124571428Y-90452380D01*
X124380952Y-90452380D01*
X124285714Y-90500000D01*
X124190476Y-90595238D01*
X124142857Y-90785714D01*
X124142857Y-91119047D01*
X124190476Y-91309523D01*
X124285714Y-91404761D01*
X124380952Y-91452380D01*
X124571428Y-91452380D01*
X123809523Y-90452380D02*
X123190476Y-90452380D01*
X123523809Y-90833333D01*
X123380952Y-90833333D01*
X123285714Y-90880952D01*
X123238095Y-90928571D01*
X123190476Y-91023809D01*
X123190476Y-91261904D01*
X123238095Y-91357142D01*
X123285714Y-91404761D01*
X123380952Y-91452380D01*
X123666666Y-91452380D01*
X123761904Y-91404761D01*
X123809523Y-91357142D01*
%TO.C,Q2*%
X124095238Y-86547619D02*
X124190476Y-86500000D01*
X124285714Y-86404761D01*
X124428571Y-86261904D01*
X124523809Y-86214285D01*
X124619047Y-86214285D01*
X124571428Y-86452380D02*
X124666666Y-86404761D01*
X124761904Y-86309523D01*
X124809523Y-86119047D01*
X124809523Y-85785714D01*
X124761904Y-85595238D01*
X124666666Y-85500000D01*
X124571428Y-85452380D01*
X124380952Y-85452380D01*
X124285714Y-85500000D01*
X124190476Y-85595238D01*
X124142857Y-85785714D01*
X124142857Y-86119047D01*
X124190476Y-86309523D01*
X124285714Y-86404761D01*
X124380952Y-86452380D01*
X124571428Y-86452380D01*
X123761904Y-85547619D02*
X123714285Y-85500000D01*
X123619047Y-85452380D01*
X123380952Y-85452380D01*
X123285714Y-85500000D01*
X123238095Y-85547619D01*
X123190476Y-85642857D01*
X123190476Y-85738095D01*
X123238095Y-85880952D01*
X123809523Y-86452380D01*
X123190476Y-86452380D01*
%TO.C,Q1*%
X124095238Y-81547619D02*
X124190476Y-81500000D01*
X124285714Y-81404761D01*
X124428571Y-81261904D01*
X124523809Y-81214285D01*
X124619047Y-81214285D01*
X124571428Y-81452380D02*
X124666666Y-81404761D01*
X124761904Y-81309523D01*
X124809523Y-81119047D01*
X124809523Y-80785714D01*
X124761904Y-80595238D01*
X124666666Y-80500000D01*
X124571428Y-80452380D01*
X124380952Y-80452380D01*
X124285714Y-80500000D01*
X124190476Y-80595238D01*
X124142857Y-80785714D01*
X124142857Y-81119047D01*
X124190476Y-81309523D01*
X124285714Y-81404761D01*
X124380952Y-81452380D01*
X124571428Y-81452380D01*
X123190476Y-81452380D02*
X123761904Y-81452380D01*
X123476190Y-81452380D02*
X123476190Y-80452380D01*
X123571428Y-80595238D01*
X123666666Y-80690476D01*
X123761904Y-80738095D01*
%TO.C,R7*%
X119152380Y-93333333D02*
X118676190Y-93000000D01*
X119152380Y-92761904D02*
X118152380Y-92761904D01*
X118152380Y-93142857D01*
X118200000Y-93238095D01*
X118247619Y-93285714D01*
X118342857Y-93333333D01*
X118485714Y-93333333D01*
X118580952Y-93285714D01*
X118628571Y-93238095D01*
X118676190Y-93142857D01*
X118676190Y-92761904D01*
X118152380Y-93666666D02*
X118152380Y-94333333D01*
X119152380Y-93904761D01*
%TO.C,R6*%
X119152380Y-83333333D02*
X118676190Y-83000000D01*
X119152380Y-82761904D02*
X118152380Y-82761904D01*
X118152380Y-83142857D01*
X118200000Y-83238095D01*
X118247619Y-83285714D01*
X118342857Y-83333333D01*
X118485714Y-83333333D01*
X118580952Y-83285714D01*
X118628571Y-83238095D01*
X118676190Y-83142857D01*
X118676190Y-82761904D01*
X118152380Y-84190476D02*
X118152380Y-84000000D01*
X118200000Y-83904761D01*
X118247619Y-83857142D01*
X118390476Y-83761904D01*
X118580952Y-83714285D01*
X118961904Y-83714285D01*
X119057142Y-83761904D01*
X119104761Y-83809523D01*
X119152380Y-83904761D01*
X119152380Y-84095238D01*
X119104761Y-84190476D01*
X119057142Y-84238095D01*
X118961904Y-84285714D01*
X118723809Y-84285714D01*
X118628571Y-84238095D01*
X118580952Y-84190476D01*
X118533333Y-84095238D01*
X118533333Y-83904761D01*
X118580952Y-83809523D01*
X118628571Y-83761904D01*
X118723809Y-83714285D01*
%TO.C,R5*%
X119152380Y-88333333D02*
X118676190Y-88000000D01*
X119152380Y-87761904D02*
X118152380Y-87761904D01*
X118152380Y-88142857D01*
X118200000Y-88238095D01*
X118247619Y-88285714D01*
X118342857Y-88333333D01*
X118485714Y-88333333D01*
X118580952Y-88285714D01*
X118628571Y-88238095D01*
X118676190Y-88142857D01*
X118676190Y-87761904D01*
X118152380Y-89238095D02*
X118152380Y-88761904D01*
X118628571Y-88714285D01*
X118580952Y-88761904D01*
X118533333Y-88857142D01*
X118533333Y-89095238D01*
X118580952Y-89190476D01*
X118628571Y-89238095D01*
X118723809Y-89285714D01*
X118961904Y-89285714D01*
X119057142Y-89238095D01*
X119104761Y-89190476D01*
X119152380Y-89095238D01*
X119152380Y-88857142D01*
X119104761Y-88761904D01*
X119057142Y-88714285D01*
%TO.C,J1*%
X132598779Y-98666666D02*
X133313065Y-98666666D01*
X133455922Y-98619047D01*
X133551160Y-98523809D01*
X133598779Y-98380952D01*
X133598779Y-98285714D01*
X133598779Y-99666666D02*
X133598779Y-99095238D01*
X133598779Y-99380952D02*
X132598779Y-99380952D01*
X132741637Y-99285714D01*
X132836875Y-99190476D01*
X132884494Y-99095238D01*
X130152380Y-96309523D02*
X130152380Y-96880952D01*
X131152380Y-96595238D02*
X130152380Y-96595238D01*
X130152380Y-97404761D02*
X130152380Y-97595238D01*
X130200000Y-97690476D01*
X130295238Y-97785714D01*
X130485714Y-97833333D01*
X130819047Y-97833333D01*
X131009523Y-97785714D01*
X131104761Y-97690476D01*
X131152380Y-97595238D01*
X131152380Y-97404761D01*
X131104761Y-97309523D01*
X131009523Y-97214285D01*
X130819047Y-97166666D01*
X130485714Y-97166666D01*
X130295238Y-97214285D01*
X130200000Y-97309523D01*
X130152380Y-97404761D01*
X130866666Y-98976190D02*
X130866666Y-99452380D01*
X131152380Y-98880952D02*
X130152380Y-99214285D01*
X131152380Y-99547619D01*
X131152380Y-100452380D02*
X130676190Y-100119047D01*
X131152380Y-99880952D02*
X130152380Y-99880952D01*
X130152380Y-100261904D01*
X130200000Y-100357142D01*
X130247619Y-100404761D01*
X130342857Y-100452380D01*
X130485714Y-100452380D01*
X130580952Y-100404761D01*
X130628571Y-100357142D01*
X130676190Y-100261904D01*
X130676190Y-99880952D01*
X131152380Y-100880952D02*
X130152380Y-100880952D01*
X130866666Y-101214285D01*
X130152380Y-101547619D01*
X131152380Y-101547619D01*
X135452380Y-99000000D02*
X135690476Y-99000000D01*
X135595238Y-98761904D02*
X135690476Y-99000000D01*
X135595238Y-99238095D01*
X135880952Y-98857142D02*
X135690476Y-99000000D01*
X135880952Y-99142857D01*
%TO.C,C1*%
X163357142Y-97333333D02*
X163404761Y-97285714D01*
X163452380Y-97142857D01*
X163452380Y-97047619D01*
X163404761Y-96904761D01*
X163309523Y-96809523D01*
X163214285Y-96761904D01*
X163023809Y-96714285D01*
X162880952Y-96714285D01*
X162690476Y-96761904D01*
X162595238Y-96809523D01*
X162500000Y-96904761D01*
X162452380Y-97047619D01*
X162452380Y-97142857D01*
X162500000Y-97285714D01*
X162547619Y-97333333D01*
X163452380Y-98285714D02*
X163452380Y-97714285D01*
X163452380Y-98000000D02*
X162452380Y-98000000D01*
X162595238Y-97904761D01*
X162690476Y-97809523D01*
X162738095Y-97714285D01*
%TO.C,R1*%
X156197619Y-88166666D02*
X156673809Y-88500000D01*
X156197619Y-88738095D02*
X157197619Y-88738095D01*
X157197619Y-88357142D01*
X157150000Y-88261904D01*
X157102380Y-88214285D01*
X157007142Y-88166666D01*
X156864285Y-88166666D01*
X156769047Y-88214285D01*
X156721428Y-88261904D01*
X156673809Y-88357142D01*
X156673809Y-88738095D01*
X156197619Y-87214285D02*
X156197619Y-87785714D01*
X156197619Y-87500000D02*
X157197619Y-87500000D01*
X157054761Y-87595238D01*
X156959523Y-87690476D01*
X156911904Y-87785714D01*
%TO.C,R2*%
X159702380Y-93645833D02*
X159226190Y-93312500D01*
X159702380Y-93074404D02*
X158702380Y-93074404D01*
X158702380Y-93455357D01*
X158750000Y-93550595D01*
X158797619Y-93598214D01*
X158892857Y-93645833D01*
X159035714Y-93645833D01*
X159130952Y-93598214D01*
X159178571Y-93550595D01*
X159226190Y-93455357D01*
X159226190Y-93074404D01*
X158797619Y-94026785D02*
X158750000Y-94074404D01*
X158702380Y-94169642D01*
X158702380Y-94407738D01*
X158750000Y-94502976D01*
X158797619Y-94550595D01*
X158892857Y-94598214D01*
X158988095Y-94598214D01*
X159130952Y-94550595D01*
X159702380Y-93979166D01*
X159702380Y-94598214D01*
%TO.C,R3*%
X159352380Y-98020833D02*
X158876190Y-97687500D01*
X159352380Y-97449404D02*
X158352380Y-97449404D01*
X158352380Y-97830357D01*
X158400000Y-97925595D01*
X158447619Y-97973214D01*
X158542857Y-98020833D01*
X158685714Y-98020833D01*
X158780952Y-97973214D01*
X158828571Y-97925595D01*
X158876190Y-97830357D01*
X158876190Y-97449404D01*
X158352380Y-98354166D02*
X158352380Y-98973214D01*
X158733333Y-98639880D01*
X158733333Y-98782738D01*
X158780952Y-98877976D01*
X158828571Y-98925595D01*
X158923809Y-98973214D01*
X159161904Y-98973214D01*
X159257142Y-98925595D01*
X159304761Y-98877976D01*
X159352380Y-98782738D01*
X159352380Y-98497023D01*
X159304761Y-98401785D01*
X159257142Y-98354166D01*
%TO.C,R4*%
X153802380Y-83395833D02*
X153326190Y-83062500D01*
X153802380Y-82824404D02*
X152802380Y-82824404D01*
X152802380Y-83205357D01*
X152850000Y-83300595D01*
X152897619Y-83348214D01*
X152992857Y-83395833D01*
X153135714Y-83395833D01*
X153230952Y-83348214D01*
X153278571Y-83300595D01*
X153326190Y-83205357D01*
X153326190Y-82824404D01*
X153135714Y-84252976D02*
X153802380Y-84252976D01*
X152754761Y-84014880D02*
X153469047Y-83776785D01*
X153469047Y-84395833D01*
%TO.C,U1*%
D11*
X142914285Y-83193095D02*
X142914285Y-84245476D01*
X142857142Y-84369285D01*
X142800000Y-84431190D01*
X142685714Y-84493095D01*
X142457142Y-84493095D01*
X142342857Y-84431190D01*
X142285714Y-84369285D01*
X142228571Y-84245476D01*
X142228571Y-83193095D01*
X141028571Y-84493095D02*
X141714285Y-84493095D01*
X141371428Y-84493095D02*
X141371428Y-83193095D01*
X141485714Y-83378809D01*
X141600000Y-83502619D01*
X141714285Y-83564523D01*
X143828571Y-85733095D02*
X143028571Y-87033095D01*
X143028571Y-85733095D02*
X143828571Y-87033095D01*
X142571428Y-87033095D02*
X142571428Y-85733095D01*
X142057142Y-86661666D02*
X141485714Y-86661666D01*
X142171428Y-87033095D02*
X141771428Y-85733095D01*
X141371428Y-87033095D01*
X140742857Y-85733095D02*
X140514285Y-85733095D01*
X140400000Y-85795000D01*
X140285714Y-85918809D01*
X140228571Y-86166428D01*
X140228571Y-86599761D01*
X140285714Y-86847380D01*
X140400000Y-86971190D01*
X140514285Y-87033095D01*
X140742857Y-87033095D01*
X140857142Y-86971190D01*
X140971428Y-86847380D01*
X141028571Y-86599761D01*
X141028571Y-86166428D01*
X140971428Y-85918809D01*
X140857142Y-85795000D01*
X140742857Y-85733095D01*
%TO.C,U2*%
D10*
X154761904Y-93452380D02*
X154761904Y-94261904D01*
X154714285Y-94357142D01*
X154666666Y-94404761D01*
X154571428Y-94452380D01*
X154380952Y-94452380D01*
X154285714Y-94404761D01*
X154238095Y-94357142D01*
X154190476Y-94261904D01*
X154190476Y-93452380D01*
X153761904Y-93547619D02*
X153714285Y-93500000D01*
X153619047Y-93452380D01*
X153380952Y-93452380D01*
X153285714Y-93500000D01*
X153238095Y-93547619D01*
X153190476Y-93642857D01*
X153190476Y-93738095D01*
X153238095Y-93880952D01*
X153809523Y-94452380D01*
X153190476Y-94452380D01*
%TD*%
M02*
