%TF.GenerationSoftware,KiCad,Pcbnew,(5.1.6)-1*%
%TF.CreationDate,2022-02-18T00:55:21-05:00*%
%TF.ProjectId,base,62617365-2e6b-4696-9361-645f70636258,rev?*%
%TF.SameCoordinates,Original*%
%TF.FileFunction,Copper,L2,Bot*%
%TF.FilePolarity,Positive*%
%FSLAX46Y46*%
G04 Gerber Fmt 4.6, Leading zero omitted, Abs format (unit mm)*
G04 Created by KiCad (PCBNEW (5.1.6)-1) date 2022-02-18 00:55:21*
%MOMM*%
%LPD*%
G01*
G04 APERTURE LIST*
%TA.AperFunction,SMDPad,CuDef*%
%ADD10R,1.500000X0.700000*%
%TD*%
%TA.AperFunction,SMDPad,CuDef*%
%ADD11R,2.550000X2.500000*%
%TD*%
%TA.AperFunction,SMDPad,CuDef*%
%ADD12O,1.524000X3.048000*%
%TD*%
%TA.AperFunction,SMDPad,CuDef*%
%ADD13R,0.900000X0.800000*%
%TD*%
%TA.AperFunction,SMDPad,CuDef*%
%ADD14R,0.990600X2.794000*%
%TD*%
%TA.AperFunction,SMDPad,CuDef*%
%ADD15R,0.609600X1.701800*%
%TD*%
%TA.AperFunction,ComponentPad*%
%ADD16C,0.800000*%
%TD*%
%TA.AperFunction,ComponentPad*%
%ADD17C,6.400000*%
%TD*%
%TA.AperFunction,SMDPad,CuDef*%
%ADD18R,0.650000X0.400000*%
%TD*%
%TA.AperFunction,ViaPad*%
%ADD19C,0.800000*%
%TD*%
%TA.AperFunction,Conductor*%
%ADD20C,0.500000*%
%TD*%
%TA.AperFunction,Conductor*%
%ADD21C,0.254000*%
%TD*%
%TA.AperFunction,Conductor*%
%ADD22C,0.250000*%
%TD*%
G04 APERTURE END LIST*
D10*
%TO.P,SW2,LED2*%
%TO.N,Net-(R6-Pad1)*%
X139500000Y-107250000D03*
%TO.P,SW2,LED3*%
%TO.N,Net-(R5-Pad1)*%
X139500000Y-105750000D03*
%TO.P,SW2,LED4*%
%TO.N,+3V3*%
X144500000Y-105750000D03*
%TO.P,SW2,LED1*%
%TO.N,Net-(R7-Pad1)*%
X144500000Y-107250000D03*
D11*
%TO.P,SW2,1*%
%TO.N,EN_SW*%
X135710000Y-116080000D03*
%TO.P,SW2,2*%
%TO.N,GND*%
X149560000Y-113540000D03*
%TD*%
D12*
%TO.P,U1,1*%
%TO.N,Net-(U1-Pad1)*%
X120423180Y-83618000D03*
%TO.P,U1,2*%
%TO.N,Net-(U1-Pad2)*%
X122963180Y-83618000D03*
%TO.P,U1,3*%
%TO.N,Net-(U1-Pad3)*%
X125503180Y-83618000D03*
%TO.P,U1,4*%
%TO.N,SEL*%
X128000000Y-83618000D03*
%TO.P,U1,5*%
%TO.N,SDA*%
X130540000Y-83618000D03*
%TO.P,U1,6*%
%TO.N,SCL*%
X133123180Y-83618000D03*
%TO.P,U1,7*%
%TO.N,Net-(U1-Pad7)*%
X135663180Y-83618000D03*
%TO.P,U1,8*%
%TO.N,EN_SW*%
X135620000Y-100382000D03*
%TO.P,U1,9*%
%TO.N,B_CONT*%
X133080000Y-100382000D03*
%TO.P,U1,10*%
%TO.N,R_CONT*%
X130540000Y-100382000D03*
%TO.P,U1,11*%
%TO.N,G_CONT*%
X128000000Y-100382000D03*
%TO.P,U1,12*%
%TO.N,+3V3*%
X125460000Y-100382000D03*
%TO.P,U1,13*%
%TO.N,GND*%
X122920000Y-100382000D03*
%TO.P,U1,14*%
%TO.N,Net-(U1-Pad14)*%
X120380000Y-100382000D03*
%TD*%
%TO.P,R10,2*%
%TO.N,B_CONT*%
%TA.AperFunction,SMDPad,CuDef*%
G36*
G01*
X126556250Y-105850000D02*
X125643750Y-105850000D01*
G75*
G02*
X125400000Y-105606250I0J243750D01*
G01*
X125400000Y-105118750D01*
G75*
G02*
X125643750Y-104875000I243750J0D01*
G01*
X126556250Y-104875000D01*
G75*
G02*
X126800000Y-105118750I0J-243750D01*
G01*
X126800000Y-105606250D01*
G75*
G02*
X126556250Y-105850000I-243750J0D01*
G01*
G37*
%TD.AperFunction*%
%TO.P,R10,1*%
%TO.N,Net-(Q3-Pad1)*%
%TA.AperFunction,SMDPad,CuDef*%
G36*
G01*
X126556250Y-107725000D02*
X125643750Y-107725000D01*
G75*
G02*
X125400000Y-107481250I0J243750D01*
G01*
X125400000Y-106993750D01*
G75*
G02*
X125643750Y-106750000I243750J0D01*
G01*
X126556250Y-106750000D01*
G75*
G02*
X126800000Y-106993750I0J-243750D01*
G01*
X126800000Y-107481250D01*
G75*
G02*
X126556250Y-107725000I-243750J0D01*
G01*
G37*
%TD.AperFunction*%
%TD*%
%TO.P,R9,2*%
%TO.N,R_CONT*%
%TA.AperFunction,SMDPad,CuDef*%
G36*
G01*
X126556250Y-110850000D02*
X125643750Y-110850000D01*
G75*
G02*
X125400000Y-110606250I0J243750D01*
G01*
X125400000Y-110118750D01*
G75*
G02*
X125643750Y-109875000I243750J0D01*
G01*
X126556250Y-109875000D01*
G75*
G02*
X126800000Y-110118750I0J-243750D01*
G01*
X126800000Y-110606250D01*
G75*
G02*
X126556250Y-110850000I-243750J0D01*
G01*
G37*
%TD.AperFunction*%
%TO.P,R9,1*%
%TO.N,Net-(Q2-Pad1)*%
%TA.AperFunction,SMDPad,CuDef*%
G36*
G01*
X126556250Y-112725000D02*
X125643750Y-112725000D01*
G75*
G02*
X125400000Y-112481250I0J243750D01*
G01*
X125400000Y-111993750D01*
G75*
G02*
X125643750Y-111750000I243750J0D01*
G01*
X126556250Y-111750000D01*
G75*
G02*
X126800000Y-111993750I0J-243750D01*
G01*
X126800000Y-112481250D01*
G75*
G02*
X126556250Y-112725000I-243750J0D01*
G01*
G37*
%TD.AperFunction*%
%TD*%
%TO.P,R8,2*%
%TO.N,G_CONT*%
%TA.AperFunction,SMDPad,CuDef*%
G36*
G01*
X151756250Y-101550000D02*
X150843750Y-101550000D01*
G75*
G02*
X150600000Y-101306250I0J243750D01*
G01*
X150600000Y-100818750D01*
G75*
G02*
X150843750Y-100575000I243750J0D01*
G01*
X151756250Y-100575000D01*
G75*
G02*
X152000000Y-100818750I0J-243750D01*
G01*
X152000000Y-101306250D01*
G75*
G02*
X151756250Y-101550000I-243750J0D01*
G01*
G37*
%TD.AperFunction*%
%TO.P,R8,1*%
%TO.N,Net-(Q1-Pad1)*%
%TA.AperFunction,SMDPad,CuDef*%
G36*
G01*
X151756250Y-103425000D02*
X150843750Y-103425000D01*
G75*
G02*
X150600000Y-103181250I0J243750D01*
G01*
X150600000Y-102693750D01*
G75*
G02*
X150843750Y-102450000I243750J0D01*
G01*
X151756250Y-102450000D01*
G75*
G02*
X152000000Y-102693750I0J-243750D01*
G01*
X152000000Y-103181250D01*
G75*
G02*
X151756250Y-103425000I-243750J0D01*
G01*
G37*
%TD.AperFunction*%
%TD*%
D13*
%TO.P,Q3,3*%
%TO.N,BLED*%
X130600000Y-106300000D03*
%TO.P,Q3,2*%
%TO.N,GND*%
X128600000Y-105350000D03*
%TO.P,Q3,1*%
%TO.N,Net-(Q3-Pad1)*%
X128600000Y-107250000D03*
%TD*%
%TO.P,Q2,3*%
%TO.N,RLED*%
X130600000Y-111300000D03*
%TO.P,Q2,2*%
%TO.N,GND*%
X128600000Y-110350000D03*
%TO.P,Q2,1*%
%TO.N,Net-(Q2-Pad1)*%
X128600000Y-112250000D03*
%TD*%
%TO.P,Q1,3*%
%TO.N,GLED*%
X155800000Y-102000000D03*
%TO.P,Q1,2*%
%TO.N,GND*%
X153800000Y-101050000D03*
%TO.P,Q1,1*%
%TO.N,Net-(Q1-Pad1)*%
X153800000Y-102950000D03*
%TD*%
%TO.P,R7,2*%
%TO.N,BLED*%
%TA.AperFunction,SMDPad,CuDef*%
G36*
G01*
X132643750Y-106750000D02*
X133556250Y-106750000D01*
G75*
G02*
X133800000Y-106993750I0J-243750D01*
G01*
X133800000Y-107481250D01*
G75*
G02*
X133556250Y-107725000I-243750J0D01*
G01*
X132643750Y-107725000D01*
G75*
G02*
X132400000Y-107481250I0J243750D01*
G01*
X132400000Y-106993750D01*
G75*
G02*
X132643750Y-106750000I243750J0D01*
G01*
G37*
%TD.AperFunction*%
%TO.P,R7,1*%
%TO.N,Net-(R7-Pad1)*%
%TA.AperFunction,SMDPad,CuDef*%
G36*
G01*
X132643750Y-104875000D02*
X133556250Y-104875000D01*
G75*
G02*
X133800000Y-105118750I0J-243750D01*
G01*
X133800000Y-105606250D01*
G75*
G02*
X133556250Y-105850000I-243750J0D01*
G01*
X132643750Y-105850000D01*
G75*
G02*
X132400000Y-105606250I0J243750D01*
G01*
X132400000Y-105118750D01*
G75*
G02*
X132643750Y-104875000I243750J0D01*
G01*
G37*
%TD.AperFunction*%
%TD*%
%TO.P,R6,2*%
%TO.N,GLED*%
%TA.AperFunction,SMDPad,CuDef*%
G36*
G01*
X157843750Y-102450000D02*
X158756250Y-102450000D01*
G75*
G02*
X159000000Y-102693750I0J-243750D01*
G01*
X159000000Y-103181250D01*
G75*
G02*
X158756250Y-103425000I-243750J0D01*
G01*
X157843750Y-103425000D01*
G75*
G02*
X157600000Y-103181250I0J243750D01*
G01*
X157600000Y-102693750D01*
G75*
G02*
X157843750Y-102450000I243750J0D01*
G01*
G37*
%TD.AperFunction*%
%TO.P,R6,1*%
%TO.N,Net-(R6-Pad1)*%
%TA.AperFunction,SMDPad,CuDef*%
G36*
G01*
X157843750Y-100575000D02*
X158756250Y-100575000D01*
G75*
G02*
X159000000Y-100818750I0J-243750D01*
G01*
X159000000Y-101306250D01*
G75*
G02*
X158756250Y-101550000I-243750J0D01*
G01*
X157843750Y-101550000D01*
G75*
G02*
X157600000Y-101306250I0J243750D01*
G01*
X157600000Y-100818750D01*
G75*
G02*
X157843750Y-100575000I243750J0D01*
G01*
G37*
%TD.AperFunction*%
%TD*%
%TO.P,R5,2*%
%TO.N,RLED*%
%TA.AperFunction,SMDPad,CuDef*%
G36*
G01*
X132643750Y-111750000D02*
X133556250Y-111750000D01*
G75*
G02*
X133800000Y-111993750I0J-243750D01*
G01*
X133800000Y-112481250D01*
G75*
G02*
X133556250Y-112725000I-243750J0D01*
G01*
X132643750Y-112725000D01*
G75*
G02*
X132400000Y-112481250I0J243750D01*
G01*
X132400000Y-111993750D01*
G75*
G02*
X132643750Y-111750000I243750J0D01*
G01*
G37*
%TD.AperFunction*%
%TO.P,R5,1*%
%TO.N,Net-(R5-Pad1)*%
%TA.AperFunction,SMDPad,CuDef*%
G36*
G01*
X132643750Y-109875000D02*
X133556250Y-109875000D01*
G75*
G02*
X133800000Y-110118750I0J-243750D01*
G01*
X133800000Y-110606250D01*
G75*
G02*
X133556250Y-110850000I-243750J0D01*
G01*
X132643750Y-110850000D01*
G75*
G02*
X132400000Y-110606250I0J243750D01*
G01*
X132400000Y-110118750D01*
G75*
G02*
X132643750Y-109875000I243750J0D01*
G01*
G37*
%TD.AperFunction*%
%TD*%
D14*
%TO.P,J1,7*%
%TO.N,N/C*%
X141900001Y-90296399D03*
%TO.P,J1,6*%
X148099999Y-90296399D03*
D15*
%TO.P,J1,5*%
%TO.N,+3V3*%
X142999999Y-85146399D03*
%TO.P,J1,4*%
%TO.N,GND*%
X143999999Y-85146399D03*
%TO.P,J1,3*%
%TO.N,SCL*%
X145000000Y-85146399D03*
%TO.P,J1,2*%
%TO.N,SDA2*%
X146000001Y-85146399D03*
%TO.P,J1,1*%
%TO.N,GND*%
X147000001Y-85146399D03*
%TD*%
D16*
%TO.P,H4,1*%
%TO.N,N/C*%
X163697056Y-74302944D03*
X162000000Y-73600000D03*
X160302944Y-74302944D03*
X159600000Y-76000000D03*
X160302944Y-77697056D03*
X162000000Y-78400000D03*
X163697056Y-77697056D03*
X164400000Y-76000000D03*
D17*
X162000000Y-76000000D03*
%TD*%
D16*
%TO.P,H3,1*%
%TO.N,N/C*%
X163697056Y-114302944D03*
X162000000Y-113600000D03*
X160302944Y-114302944D03*
X159600000Y-116000000D03*
X160302944Y-117697056D03*
X162000000Y-118400000D03*
X163697056Y-117697056D03*
X164400000Y-116000000D03*
D17*
X162000000Y-116000000D03*
%TD*%
D16*
%TO.P,H2,1*%
%TO.N,N/C*%
X123697056Y-114302944D03*
X122000000Y-113600000D03*
X120302944Y-114302944D03*
X119600000Y-116000000D03*
X120302944Y-117697056D03*
X122000000Y-118400000D03*
X123697056Y-117697056D03*
X124400000Y-116000000D03*
D17*
X122000000Y-116000000D03*
%TD*%
D16*
%TO.P,H1,1*%
%TO.N,N/C*%
X123697056Y-74302944D03*
X122000000Y-73600000D03*
X120302944Y-74302944D03*
X119600000Y-76000000D03*
X120302944Y-77697056D03*
X122000000Y-78400000D03*
X123697056Y-77697056D03*
X124400000Y-76000000D03*
D17*
X122000000Y-76000000D03*
%TD*%
%TO.P,C1,1*%
%TO.N,+3V3*%
%TA.AperFunction,SMDPad,CuDef*%
G36*
G01*
X160543750Y-94575000D02*
X161456250Y-94575000D01*
G75*
G02*
X161700000Y-94818750I0J-243750D01*
G01*
X161700000Y-95306250D01*
G75*
G02*
X161456250Y-95550000I-243750J0D01*
G01*
X160543750Y-95550000D01*
G75*
G02*
X160300000Y-95306250I0J243750D01*
G01*
X160300000Y-94818750D01*
G75*
G02*
X160543750Y-94575000I243750J0D01*
G01*
G37*
%TD.AperFunction*%
%TO.P,C1,2*%
%TO.N,GND*%
%TA.AperFunction,SMDPad,CuDef*%
G36*
G01*
X160543750Y-96450000D02*
X161456250Y-96450000D01*
G75*
G02*
X161700000Y-96693750I0J-243750D01*
G01*
X161700000Y-97181250D01*
G75*
G02*
X161456250Y-97425000I-243750J0D01*
G01*
X160543750Y-97425000D01*
G75*
G02*
X160300000Y-97181250I0J243750D01*
G01*
X160300000Y-96693750D01*
G75*
G02*
X160543750Y-96450000I243750J0D01*
G01*
G37*
%TD.AperFunction*%
%TD*%
%TO.P,R1,2*%
%TO.N,SCL*%
%TA.AperFunction,SMDPad,CuDef*%
G36*
G01*
X138543750Y-78450000D02*
X139456250Y-78450000D01*
G75*
G02*
X139700000Y-78693750I0J-243750D01*
G01*
X139700000Y-79181250D01*
G75*
G02*
X139456250Y-79425000I-243750J0D01*
G01*
X138543750Y-79425000D01*
G75*
G02*
X138300000Y-79181250I0J243750D01*
G01*
X138300000Y-78693750D01*
G75*
G02*
X138543750Y-78450000I243750J0D01*
G01*
G37*
%TD.AperFunction*%
%TO.P,R1,1*%
%TO.N,+3V3*%
%TA.AperFunction,SMDPad,CuDef*%
G36*
G01*
X138543750Y-76575000D02*
X139456250Y-76575000D01*
G75*
G02*
X139700000Y-76818750I0J-243750D01*
G01*
X139700000Y-77306250D01*
G75*
G02*
X139456250Y-77550000I-243750J0D01*
G01*
X138543750Y-77550000D01*
G75*
G02*
X138300000Y-77306250I0J243750D01*
G01*
X138300000Y-76818750D01*
G75*
G02*
X138543750Y-76575000I243750J0D01*
G01*
G37*
%TD.AperFunction*%
%TD*%
%TO.P,R2,1*%
%TO.N,+3V3*%
%TA.AperFunction,SMDPad,CuDef*%
G36*
G01*
X141543750Y-76575000D02*
X142456250Y-76575000D01*
G75*
G02*
X142700000Y-76818750I0J-243750D01*
G01*
X142700000Y-77306250D01*
G75*
G02*
X142456250Y-77550000I-243750J0D01*
G01*
X141543750Y-77550000D01*
G75*
G02*
X141300000Y-77306250I0J243750D01*
G01*
X141300000Y-76818750D01*
G75*
G02*
X141543750Y-76575000I243750J0D01*
G01*
G37*
%TD.AperFunction*%
%TO.P,R2,2*%
%TO.N,SDA1*%
%TA.AperFunction,SMDPad,CuDef*%
G36*
G01*
X141543750Y-78450000D02*
X142456250Y-78450000D01*
G75*
G02*
X142700000Y-78693750I0J-243750D01*
G01*
X142700000Y-79181250D01*
G75*
G02*
X142456250Y-79425000I-243750J0D01*
G01*
X141543750Y-79425000D01*
G75*
G02*
X141300000Y-79181250I0J243750D01*
G01*
X141300000Y-78693750D01*
G75*
G02*
X141543750Y-78450000I243750J0D01*
G01*
G37*
%TD.AperFunction*%
%TD*%
%TO.P,R3,2*%
%TO.N,SDA2*%
%TA.AperFunction,SMDPad,CuDef*%
G36*
G01*
X144543750Y-78450000D02*
X145456250Y-78450000D01*
G75*
G02*
X145700000Y-78693750I0J-243750D01*
G01*
X145700000Y-79181250D01*
G75*
G02*
X145456250Y-79425000I-243750J0D01*
G01*
X144543750Y-79425000D01*
G75*
G02*
X144300000Y-79181250I0J243750D01*
G01*
X144300000Y-78693750D01*
G75*
G02*
X144543750Y-78450000I243750J0D01*
G01*
G37*
%TD.AperFunction*%
%TO.P,R3,1*%
%TO.N,+3V3*%
%TA.AperFunction,SMDPad,CuDef*%
G36*
G01*
X144543750Y-76575000D02*
X145456250Y-76575000D01*
G75*
G02*
X145700000Y-76818750I0J-243750D01*
G01*
X145700000Y-77306250D01*
G75*
G02*
X145456250Y-77550000I-243750J0D01*
G01*
X144543750Y-77550000D01*
G75*
G02*
X144300000Y-77306250I0J243750D01*
G01*
X144300000Y-76818750D01*
G75*
G02*
X144543750Y-76575000I243750J0D01*
G01*
G37*
%TD.AperFunction*%
%TD*%
%TO.P,R4,1*%
%TO.N,+3V3*%
%TA.AperFunction,SMDPad,CuDef*%
G36*
G01*
X147543750Y-76575000D02*
X148456250Y-76575000D01*
G75*
G02*
X148700000Y-76818750I0J-243750D01*
G01*
X148700000Y-77306250D01*
G75*
G02*
X148456250Y-77550000I-243750J0D01*
G01*
X147543750Y-77550000D01*
G75*
G02*
X147300000Y-77306250I0J243750D01*
G01*
X147300000Y-76818750D01*
G75*
G02*
X147543750Y-76575000I243750J0D01*
G01*
G37*
%TD.AperFunction*%
%TO.P,R4,2*%
%TO.N,SDA*%
%TA.AperFunction,SMDPad,CuDef*%
G36*
G01*
X147543750Y-78450000D02*
X148456250Y-78450000D01*
G75*
G02*
X148700000Y-78693750I0J-243750D01*
G01*
X148700000Y-79181250D01*
G75*
G02*
X148456250Y-79425000I-243750J0D01*
G01*
X147543750Y-79425000D01*
G75*
G02*
X147300000Y-79181250I0J243750D01*
G01*
X147300000Y-78693750D01*
G75*
G02*
X147543750Y-78450000I243750J0D01*
G01*
G37*
%TD.AperFunction*%
%TD*%
D18*
%TO.P,U2,1*%
%TO.N,SDA1*%
X133950000Y-77350000D03*
%TO.P,U2,3*%
%TO.N,SDA2*%
X133950000Y-78650000D03*
%TO.P,U2,5*%
%TO.N,+3V3*%
X132050000Y-78000000D03*
%TO.P,U2,2*%
%TO.N,GND*%
X133950000Y-78000000D03*
%TO.P,U2,4*%
%TO.N,SDA*%
X132050000Y-78650000D03*
%TO.P,U2,6*%
%TO.N,SEL*%
X132050000Y-77350000D03*
%TD*%
D19*
%TO.N,+3V3*%
X162594970Y-94095000D03*
%TO.N,GND*%
X165500000Y-92500000D03*
X124250000Y-81800000D03*
X121700000Y-81800000D03*
X170000000Y-92500000D03*
X168500000Y-92500000D03*
X167000000Y-92500000D03*
X164000000Y-92500000D03*
X164000000Y-99500000D03*
X165500000Y-99500000D03*
X167000000Y-99500000D03*
X168500000Y-99500000D03*
X170000000Y-99500000D03*
X126750000Y-81800000D03*
X131850000Y-81800000D03*
X134400000Y-81800000D03*
X136900000Y-79300000D03*
X137000000Y-104600000D03*
X151750000Y-107700000D03*
X149050000Y-81600000D03*
X152150000Y-84250000D03*
X129300000Y-96250000D03*
X131800000Y-102250000D03*
X129250000Y-102250000D03*
X131050000Y-104900000D03*
X134350000Y-102200000D03*
X162100000Y-98750000D03*
X129275000Y-81800000D03*
X137375000Y-76675000D03*
X119000000Y-112000000D03*
%TO.N,SDA2*%
X135400000Y-79600000D03*
X143499998Y-79899998D03*
%TO.N,SCL*%
X171600000Y-95300000D03*
%TO.N,SDA1*%
X171500000Y-96700000D03*
%TO.N,SDA*%
X145600000Y-80300000D03*
X132125000Y-80000000D03*
%TO.N,EN_SW*%
X137500000Y-101800000D03*
X133600000Y-116075000D03*
%TO.N,Net-(R7-Pad1)*%
X141400000Y-103100000D03*
X146700000Y-103000000D03*
%TO.N,G_CONT*%
X138600000Y-99325000D03*
X144025000Y-100525000D03*
%TD*%
D20*
%TO.N,+3V3*%
X145000000Y-77062500D02*
X145000000Y-75500000D01*
X145000000Y-75500000D02*
X146437500Y-75500000D01*
X142000000Y-77062500D02*
X142000000Y-75500000D01*
X142000000Y-75500000D02*
X145000000Y-75500000D01*
X139000000Y-77062500D02*
X139000000Y-75500000D01*
X139000000Y-75500000D02*
X142000000Y-75500000D01*
X157000000Y-88500030D02*
X162594970Y-94095000D01*
X157000000Y-83500000D02*
X157000000Y-88500030D01*
X149000000Y-75500000D02*
X157000000Y-83500000D01*
X161627470Y-95062500D02*
X161000000Y-95062500D01*
X162594970Y-94095000D02*
X161627470Y-95062500D01*
D21*
X132050000Y-78000000D02*
X132629000Y-78000000D01*
X133000000Y-77629000D02*
X133000000Y-75500000D01*
X132629000Y-78000000D02*
X133000000Y-77629000D01*
D20*
X133000000Y-75500000D02*
X139000000Y-75500000D01*
X148000000Y-77062500D02*
X148000000Y-75500000D01*
X146437500Y-75500000D02*
X148000000Y-75500000D01*
X148000000Y-75500000D02*
X149000000Y-75500000D01*
X138600000Y-88000000D02*
X141453601Y-85146399D01*
X125460000Y-100382000D02*
X125460000Y-94440000D01*
X141453601Y-85146399D02*
X142999999Y-85146399D01*
X131900000Y-88000000D02*
X138600000Y-88000000D01*
X125650000Y-94250000D02*
X131900000Y-88000000D01*
X125460000Y-94440000D02*
X125650000Y-94250000D01*
X125650000Y-94250000D02*
X135250000Y-94250000D01*
X144700001Y-103700001D02*
X144700001Y-105750000D01*
X135250000Y-94250000D02*
X144700001Y-103700001D01*
X130500000Y-75500000D02*
X133000000Y-75500000D01*
X125300000Y-80700000D02*
X130500000Y-75500000D01*
X125460000Y-94460000D02*
X119000000Y-88000000D01*
X125460000Y-100382000D02*
X125460000Y-94460000D01*
X119000000Y-81900000D02*
X120200000Y-80700000D01*
X119000000Y-88000000D02*
X119000000Y-81900000D01*
X120200000Y-80700000D02*
X125300000Y-80700000D01*
D21*
%TO.N,GND*%
X135600000Y-78000000D02*
X136900000Y-79300000D01*
X133950000Y-78000000D02*
X135600000Y-78000000D01*
%TO.N,SDA2*%
X133950000Y-78650000D02*
X134450000Y-78650000D01*
X134450000Y-78650000D02*
X135400000Y-79600000D01*
X145000000Y-78937500D02*
X144037502Y-79899998D01*
X144037502Y-79899998D02*
X143499998Y-79899998D01*
D22*
X146000001Y-85146399D02*
X146000001Y-83050001D01*
X143499998Y-80549998D02*
X143499998Y-79899998D01*
X146000001Y-83050001D02*
X143499998Y-80549998D01*
D21*
%TO.N,SCL*%
X139000000Y-78937500D02*
X139000000Y-80200000D01*
X145000000Y-86251299D02*
X145000000Y-85146399D01*
X146598701Y-87850000D02*
X145000000Y-86251299D01*
X148750000Y-87850000D02*
X146598701Y-87850000D01*
X172500000Y-96200000D02*
X172500000Y-99400000D01*
X171600000Y-95300000D02*
X172500000Y-96200000D01*
X170800000Y-101100000D02*
X162000000Y-101100000D01*
X172500000Y-99400000D02*
X170800000Y-101100000D01*
X162000000Y-101100000D02*
X148750000Y-87850000D01*
X133123180Y-81376820D02*
X133123180Y-83618000D01*
X133800000Y-80700000D02*
X133123180Y-81376820D01*
X139000000Y-80200000D02*
X138500000Y-80700000D01*
X138500000Y-80700000D02*
X133800000Y-80700000D01*
X145000000Y-83150000D02*
X145000000Y-85146399D01*
X143650000Y-81800000D02*
X145000000Y-83150000D01*
X139000000Y-80200000D02*
X140600000Y-81800000D01*
X140600000Y-81800000D02*
X143650000Y-81800000D01*
%TO.N,SDA1*%
X137215161Y-78000000D02*
X141062500Y-78000000D01*
X133950000Y-77350000D02*
X136565161Y-77350000D01*
X141062500Y-78000000D02*
X142000000Y-78937500D01*
X136565161Y-77350000D02*
X137215161Y-78000000D01*
X162250000Y-100500000D02*
X159500000Y-97750000D01*
X159500000Y-97750000D02*
X159500000Y-95902096D01*
X171500000Y-96700000D02*
X171500000Y-99500000D01*
X170500000Y-100500000D02*
X162250000Y-100500000D01*
X171500000Y-99500000D02*
X170500000Y-100500000D01*
D22*
X149775001Y-86177097D02*
X159500000Y-95902096D01*
X142087500Y-78937500D02*
X143025000Y-78000000D01*
X142000000Y-78937500D02*
X142087500Y-78937500D01*
X148800000Y-78000000D02*
X149775001Y-78975001D01*
X143025000Y-78000000D02*
X148800000Y-78000000D01*
X149775001Y-78975001D02*
X149775001Y-86177097D01*
D21*
%TO.N,SDA*%
X131350000Y-78650000D02*
X132050000Y-78650000D01*
X130540000Y-83618000D02*
X130540000Y-79460000D01*
X130540000Y-79460000D02*
X131350000Y-78650000D01*
X146637500Y-80300000D02*
X145600000Y-80300000D01*
X148000000Y-78937500D02*
X146637500Y-80300000D01*
X132050000Y-79925000D02*
X132125000Y-80000000D01*
X132050000Y-78650000D02*
X132050000Y-79925000D01*
%TO.N,SEL*%
X128000000Y-79500000D02*
X128000000Y-83618000D01*
X132050000Y-77350000D02*
X130150000Y-77350000D01*
X130150000Y-77350000D02*
X128000000Y-79500000D01*
D22*
%TO.N,EN_SW*%
X135620000Y-100382000D02*
X136082000Y-100382000D01*
X136082000Y-100382000D02*
X137500000Y-101800000D01*
X133605000Y-116080000D02*
X133600000Y-116075000D01*
X135710000Y-116080000D02*
X133605000Y-116080000D01*
D21*
%TO.N,RLED*%
X131537500Y-112237500D02*
X130600000Y-111300000D01*
X133100000Y-112237500D02*
X131537500Y-112237500D01*
%TO.N,BLED*%
X131537500Y-107237500D02*
X130600000Y-106300000D01*
X133100000Y-107237500D02*
X131537500Y-107237500D01*
%TO.N,GLED*%
X156737500Y-102937500D02*
X155800000Y-102000000D01*
X158300000Y-102937500D02*
X156737500Y-102937500D01*
D22*
%TO.N,Net-(R5-Pad1)*%
X137712500Y-105750000D02*
X139250000Y-105750000D01*
X133100000Y-110362500D02*
X137712500Y-105750000D01*
D21*
%TO.N,Net-(R6-Pad1)*%
X158300000Y-101000000D02*
X158300000Y-101062500D01*
D22*
X139200000Y-112000000D02*
X139200000Y-107250000D01*
X142775000Y-115575000D02*
X139200000Y-112000000D01*
X159475000Y-102237500D02*
X159475000Y-103950000D01*
X153475000Y-114300000D02*
X152200000Y-115575000D01*
X158300000Y-101062500D02*
X159475000Y-102237500D01*
X152200000Y-115575000D02*
X142775000Y-115575000D01*
X159475000Y-103950000D02*
X153475000Y-109950000D01*
X153475000Y-109950000D02*
X153475000Y-114300000D01*
%TO.N,Net-(R7-Pad1)*%
X133100000Y-105362500D02*
X135362500Y-103100000D01*
X135362500Y-103100000D02*
X141400000Y-103100000D01*
X146700000Y-103000000D02*
X146700000Y-106200000D01*
X145650000Y-107250000D02*
X144575001Y-107250000D01*
X146700000Y-106200000D02*
X145650000Y-107250000D01*
D21*
%TO.N,Net-(Q1-Pad1)*%
X151312500Y-102950000D02*
X151300000Y-102937500D01*
X153800000Y-102950000D02*
X151312500Y-102950000D01*
%TO.N,Net-(Q2-Pad1)*%
X128587500Y-112237500D02*
X128600000Y-112250000D01*
X126100000Y-112237500D02*
X128587500Y-112237500D01*
%TO.N,Net-(Q3-Pad1)*%
X128587500Y-107237500D02*
X128600000Y-107250000D01*
X126100000Y-107237500D02*
X128587500Y-107237500D01*
D22*
%TO.N,G_CONT*%
X136875000Y-97600000D02*
X138600000Y-99325000D01*
X130782000Y-97600000D02*
X136875000Y-97600000D01*
X128000000Y-100382000D02*
X130782000Y-97600000D01*
X144562500Y-101062500D02*
X144025000Y-100525000D01*
X151300000Y-101062500D02*
X144562500Y-101062500D01*
D21*
%TO.N,R_CONT*%
X124937500Y-110362500D02*
X126100000Y-110362500D01*
D22*
X124475001Y-109900001D02*
X124937500Y-110362500D01*
X130540000Y-102710000D02*
X130050000Y-103200000D01*
X124475001Y-105124999D02*
X124475001Y-109900001D01*
X130050000Y-103200000D02*
X126400000Y-103200000D01*
X130540000Y-100382000D02*
X130540000Y-102710000D01*
X126400000Y-103200000D02*
X124475001Y-105124999D01*
%TO.N,B_CONT*%
X132150000Y-103800000D02*
X133080000Y-102870000D01*
X133080000Y-102870000D02*
X133080000Y-100382000D01*
X126100000Y-105362500D02*
X127662500Y-103800000D01*
X127662500Y-103800000D02*
X132150000Y-103800000D01*
%TD*%
D21*
%TO.N,GND*%
G36*
X162765064Y-71747971D02*
G01*
X163505939Y-71950652D01*
X164199215Y-72281327D01*
X164822980Y-72729548D01*
X165357509Y-73281138D01*
X165785917Y-73918679D01*
X166094654Y-74622001D01*
X166275213Y-75374082D01*
X166323001Y-76024839D01*
X166323000Y-78741635D01*
X166323718Y-78748921D01*
X166327812Y-78938677D01*
X166328339Y-78943428D01*
X166333558Y-79013287D01*
X166450702Y-79894478D01*
X166455375Y-79915259D01*
X166457628Y-79936441D01*
X166477107Y-80011909D01*
X166748444Y-80858427D01*
X166756723Y-80878054D01*
X166762692Y-80898501D01*
X166795226Y-80969327D01*
X167212181Y-81754418D01*
X167223805Y-81772268D01*
X167233300Y-81791335D01*
X167277863Y-81855280D01*
X167827256Y-82554127D01*
X167841861Y-82569640D01*
X167854579Y-82586720D01*
X167909761Y-82641764D01*
X168574228Y-83232277D01*
X168591343Y-83244954D01*
X168606889Y-83259516D01*
X168670947Y-83303918D01*
X169429481Y-83767432D01*
X169448575Y-83776880D01*
X169466451Y-83788457D01*
X169537359Y-83820813D01*
X170365987Y-84142676D01*
X170369678Y-84143743D01*
X170387602Y-84150652D01*
X171701033Y-84610033D01*
X172922515Y-85194682D01*
X174072455Y-85909835D01*
X175136988Y-86746866D01*
X176103234Y-87695651D01*
X176959530Y-88744738D01*
X177695533Y-89881452D01*
X178302360Y-91092076D01*
X178772671Y-92361967D01*
X179100792Y-93675803D01*
X179244539Y-94735860D01*
X179210264Y-94700859D01*
X179202987Y-94694839D01*
X179202984Y-94694836D01*
X179202981Y-94694834D01*
X179036614Y-94559149D01*
X178985465Y-94525166D01*
X178934878Y-94490528D01*
X178926569Y-94486035D01*
X178926562Y-94486030D01*
X178926554Y-94486027D01*
X178737010Y-94385244D01*
X178680286Y-94361864D01*
X178623882Y-94337689D01*
X178614852Y-94334894D01*
X178409333Y-94272844D01*
X178349132Y-94260924D01*
X178289121Y-94248168D01*
X178279723Y-94247180D01*
X178279721Y-94247180D01*
X178066063Y-94226231D01*
X178066058Y-94226231D01*
X178033252Y-94223000D01*
X176966748Y-94223000D01*
X176932856Y-94226338D01*
X176918576Y-94226338D01*
X176909176Y-94227326D01*
X176695831Y-94251257D01*
X176635809Y-94264015D01*
X176575623Y-94275932D01*
X176566601Y-94278726D01*
X176566591Y-94278728D01*
X176566582Y-94278732D01*
X176361961Y-94343641D01*
X176305602Y-94367796D01*
X176248832Y-94391195D01*
X176240522Y-94395689D01*
X176240517Y-94395691D01*
X176240513Y-94395694D01*
X176052389Y-94499115D01*
X176001728Y-94533803D01*
X175950652Y-94567738D01*
X175943376Y-94573757D01*
X175943369Y-94573762D01*
X175943364Y-94573768D01*
X175778913Y-94711758D01*
X175735967Y-94755613D01*
X175692443Y-94798834D01*
X175686468Y-94806159D01*
X175551948Y-94973469D01*
X175518340Y-95024827D01*
X175484036Y-95075685D01*
X175479602Y-95084023D01*
X175479599Y-95084028D01*
X175479598Y-95084031D01*
X175380137Y-95274284D01*
X175357142Y-95331199D01*
X175333375Y-95387738D01*
X175330645Y-95396779D01*
X175330641Y-95396790D01*
X175330639Y-95396801D01*
X175270029Y-95602735D01*
X175258531Y-95663009D01*
X175246193Y-95723116D01*
X175245270Y-95732523D01*
X175225813Y-95946321D01*
X175226241Y-96007712D01*
X175225813Y-96069036D01*
X175226735Y-96078432D01*
X175226735Y-96078446D01*
X175226738Y-96078459D01*
X175249176Y-96291950D01*
X175261506Y-96352017D01*
X175273012Y-96412334D01*
X175275744Y-96421383D01*
X175339228Y-96626464D01*
X175363009Y-96683036D01*
X175385991Y-96739918D01*
X175390428Y-96748262D01*
X175390430Y-96748267D01*
X175390433Y-96748272D01*
X175492537Y-96937109D01*
X175526854Y-96987986D01*
X175560446Y-97039321D01*
X175566418Y-97046644D01*
X175566421Y-97046648D01*
X175566425Y-97046652D01*
X175703263Y-97212062D01*
X175746805Y-97255302D01*
X175789736Y-97299141D01*
X175797013Y-97305161D01*
X175797016Y-97305164D01*
X175797019Y-97305166D01*
X175963386Y-97440851D01*
X176014501Y-97474812D01*
X176065121Y-97509472D01*
X176073431Y-97513965D01*
X176073438Y-97513970D01*
X176073446Y-97513973D01*
X176262990Y-97614756D01*
X176319723Y-97638140D01*
X176376119Y-97662311D01*
X176385144Y-97665105D01*
X176385150Y-97665107D01*
X176590667Y-97727156D01*
X176650842Y-97739071D01*
X176710879Y-97751832D01*
X176720277Y-97752820D01*
X176720279Y-97752820D01*
X176933938Y-97773769D01*
X176933942Y-97773769D01*
X176966748Y-97777000D01*
X178033252Y-97777000D01*
X178067144Y-97773662D01*
X178081424Y-97773662D01*
X178090824Y-97772674D01*
X178304169Y-97748743D01*
X178364191Y-97735985D01*
X178424377Y-97724068D01*
X178433399Y-97721274D01*
X178433409Y-97721272D01*
X178433418Y-97721268D01*
X178638039Y-97656359D01*
X178694426Y-97632192D01*
X178751168Y-97608805D01*
X178759483Y-97604309D01*
X178947611Y-97500885D01*
X178998272Y-97466197D01*
X179049348Y-97432262D01*
X179056624Y-97426243D01*
X179056631Y-97426238D01*
X179056636Y-97426232D01*
X179221087Y-97288242D01*
X179239769Y-97269164D01*
X179201231Y-97720767D01*
X178938718Y-99049273D01*
X178532012Y-100340940D01*
X177986020Y-101580183D01*
X177307337Y-102752028D01*
X176504158Y-103842325D01*
X175586195Y-104837890D01*
X174564517Y-105726723D01*
X173451477Y-106498072D01*
X172260522Y-107142619D01*
X170996557Y-107656438D01*
X170407718Y-107842663D01*
X170203160Y-107906626D01*
X170198732Y-107908457D01*
X170133084Y-107932871D01*
X169319113Y-108290180D01*
X169300449Y-108300441D01*
X169280727Y-108308489D01*
X169213639Y-108348164D01*
X168475805Y-108843967D01*
X168459250Y-108857373D01*
X168441266Y-108868786D01*
X168382265Y-108919715D01*
X167743892Y-109538342D01*
X167729973Y-109554467D01*
X167714295Y-109568884D01*
X167665244Y-109629456D01*
X167146509Y-110351352D01*
X167135663Y-110369692D01*
X167122789Y-110386653D01*
X167085240Y-110454953D01*
X166702540Y-111257300D01*
X166695115Y-111277266D01*
X166685445Y-111296244D01*
X166660585Y-111370114D01*
X166426017Y-112227550D01*
X166422246Y-112248511D01*
X166416088Y-112268906D01*
X166404702Y-112346011D01*
X166325939Y-113228536D01*
X166323001Y-113258364D01*
X166323000Y-115969848D01*
X166252029Y-116765064D01*
X166049349Y-117505938D01*
X165718673Y-118199214D01*
X165270451Y-118822981D01*
X164718862Y-119357509D01*
X164081321Y-119785917D01*
X163378002Y-120094653D01*
X162625918Y-120275213D01*
X161975175Y-120323000D01*
X122030163Y-120323000D01*
X121234936Y-120252028D01*
X120494062Y-120049348D01*
X119800784Y-119718671D01*
X119177023Y-119270453D01*
X118642489Y-118718856D01*
X118214085Y-118081325D01*
X117905348Y-117378000D01*
X117724788Y-116625918D01*
X117677000Y-115975161D01*
X117677000Y-115623073D01*
X118173000Y-115623073D01*
X118173000Y-116376927D01*
X118320070Y-117116295D01*
X118608557Y-117812764D01*
X119027375Y-118439570D01*
X119560430Y-118972625D01*
X120187236Y-119391443D01*
X120883705Y-119679930D01*
X121623073Y-119827000D01*
X122376927Y-119827000D01*
X123116295Y-119679930D01*
X123812764Y-119391443D01*
X124439570Y-118972625D01*
X124899893Y-118512302D01*
X124843230Y-118649098D01*
X124797000Y-118881515D01*
X124797000Y-119118485D01*
X124843230Y-119350902D01*
X124933915Y-119569834D01*
X125065569Y-119766868D01*
X125233132Y-119934431D01*
X125430166Y-120066085D01*
X125649098Y-120156770D01*
X125881515Y-120203000D01*
X126118485Y-120203000D01*
X126350902Y-120156770D01*
X126569834Y-120066085D01*
X126766868Y-119934431D01*
X126934431Y-119766868D01*
X127066085Y-119569834D01*
X127156770Y-119350902D01*
X127203000Y-119118485D01*
X127203000Y-118881515D01*
X156797000Y-118881515D01*
X156797000Y-119118485D01*
X156843230Y-119350902D01*
X156933915Y-119569834D01*
X157065569Y-119766868D01*
X157233132Y-119934431D01*
X157430166Y-120066085D01*
X157649098Y-120156770D01*
X157881515Y-120203000D01*
X158118485Y-120203000D01*
X158350902Y-120156770D01*
X158569834Y-120066085D01*
X158766868Y-119934431D01*
X158934431Y-119766868D01*
X159066085Y-119569834D01*
X159156770Y-119350902D01*
X159203000Y-119118485D01*
X159203000Y-118881515D01*
X159156770Y-118649098D01*
X159100107Y-118512302D01*
X159560430Y-118972625D01*
X160187236Y-119391443D01*
X160883705Y-119679930D01*
X161623073Y-119827000D01*
X162376927Y-119827000D01*
X163116295Y-119679930D01*
X163812764Y-119391443D01*
X164439570Y-118972625D01*
X164972625Y-118439570D01*
X165391443Y-117812764D01*
X165679930Y-117116295D01*
X165827000Y-116376927D01*
X165827000Y-115623073D01*
X165679930Y-114883705D01*
X165391443Y-114187236D01*
X164972625Y-113560430D01*
X164439570Y-113027375D01*
X163812764Y-112608557D01*
X163116295Y-112320070D01*
X162376927Y-112173000D01*
X161623073Y-112173000D01*
X160883705Y-112320070D01*
X160187236Y-112608557D01*
X159560430Y-113027375D01*
X159027375Y-113560430D01*
X158608557Y-114187236D01*
X158320070Y-114883705D01*
X158173000Y-115623073D01*
X158173000Y-116376927D01*
X158320070Y-117116295D01*
X158608557Y-117812764D01*
X158798836Y-118097537D01*
X158766868Y-118065569D01*
X158569834Y-117933915D01*
X158350902Y-117843230D01*
X158118485Y-117797000D01*
X157881515Y-117797000D01*
X157649098Y-117843230D01*
X157430166Y-117933915D01*
X157233132Y-118065569D01*
X157065569Y-118233132D01*
X156933915Y-118430166D01*
X156843230Y-118649098D01*
X156797000Y-118881515D01*
X127203000Y-118881515D01*
X127156770Y-118649098D01*
X127066085Y-118430166D01*
X126934431Y-118233132D01*
X126766868Y-118065569D01*
X126569834Y-117933915D01*
X126350902Y-117843230D01*
X126118485Y-117797000D01*
X125881515Y-117797000D01*
X125649098Y-117843230D01*
X125430166Y-117933915D01*
X125233132Y-118065569D01*
X125201164Y-118097537D01*
X125391443Y-117812764D01*
X125679930Y-117116295D01*
X125827000Y-116376927D01*
X125827000Y-115623073D01*
X125679930Y-114883705D01*
X125391443Y-114187236D01*
X124972625Y-113560430D01*
X124439570Y-113027375D01*
X123812764Y-112608557D01*
X123116295Y-112320070D01*
X122376927Y-112173000D01*
X121623073Y-112173000D01*
X120883705Y-112320070D01*
X120187236Y-112608557D01*
X119560430Y-113027375D01*
X119027375Y-113560430D01*
X118608557Y-114187236D01*
X118320070Y-114883705D01*
X118173000Y-115623073D01*
X117677000Y-115623073D01*
X117677000Y-99551770D01*
X118991000Y-99551770D01*
X118991000Y-101212229D01*
X119011098Y-101416290D01*
X119090523Y-101678118D01*
X119219501Y-101919419D01*
X119393077Y-102130922D01*
X119604580Y-102304499D01*
X119845881Y-102433477D01*
X120107709Y-102512902D01*
X120380000Y-102539720D01*
X120652290Y-102512902D01*
X120914118Y-102433477D01*
X121155419Y-102304499D01*
X121366922Y-102130923D01*
X121540499Y-101919420D01*
X121648193Y-101717939D01*
X121771215Y-101939255D01*
X121948435Y-102148091D01*
X122162992Y-102318341D01*
X122406640Y-102443461D01*
X122670016Y-102518644D01*
X122678774Y-102520016D01*
X122897000Y-102382036D01*
X122897000Y-100405000D01*
X122877000Y-100405000D01*
X122877000Y-100359000D01*
X122897000Y-100359000D01*
X122897000Y-98381964D01*
X122678774Y-98243984D01*
X122670016Y-98245356D01*
X122406640Y-98320539D01*
X122162992Y-98445659D01*
X121948435Y-98615909D01*
X121771215Y-98824745D01*
X121648193Y-99046061D01*
X121540499Y-98844580D01*
X121366923Y-98633077D01*
X121155420Y-98459501D01*
X120914119Y-98330523D01*
X120652291Y-98251098D01*
X120380000Y-98224280D01*
X120107710Y-98251098D01*
X119845882Y-98330523D01*
X119604581Y-98459501D01*
X119393078Y-98633077D01*
X119219502Y-98844580D01*
X119090524Y-99085881D01*
X119011098Y-99347709D01*
X118991000Y-99551770D01*
X117677000Y-99551770D01*
X117677000Y-81900000D01*
X118118757Y-81900000D01*
X118123001Y-81943090D01*
X118123000Y-87956920D01*
X118118757Y-88000000D01*
X118135690Y-88171922D01*
X118179414Y-88316060D01*
X118185838Y-88337236D01*
X118267273Y-88489591D01*
X118376867Y-88623133D01*
X118410332Y-88650597D01*
X124583001Y-94823266D01*
X124583000Y-98542866D01*
X124473078Y-98633077D01*
X124299502Y-98844580D01*
X124191808Y-99046062D01*
X124068785Y-98824745D01*
X123891565Y-98615909D01*
X123677008Y-98445659D01*
X123433360Y-98320539D01*
X123169984Y-98245356D01*
X123161226Y-98243984D01*
X122943000Y-98381964D01*
X122943000Y-100359000D01*
X122963000Y-100359000D01*
X122963000Y-100405000D01*
X122943000Y-100405000D01*
X122943000Y-102382036D01*
X123161226Y-102520016D01*
X123169984Y-102518644D01*
X123433360Y-102443461D01*
X123677008Y-102318341D01*
X123891565Y-102148091D01*
X124068785Y-101939255D01*
X124191808Y-101717939D01*
X124299501Y-101919419D01*
X124473077Y-102130922D01*
X124684580Y-102304499D01*
X124925881Y-102433477D01*
X125187709Y-102512902D01*
X125460000Y-102539720D01*
X125732290Y-102512902D01*
X125994118Y-102433477D01*
X126235419Y-102304499D01*
X126446922Y-102130923D01*
X126620499Y-101919420D01*
X126730000Y-101714557D01*
X126839501Y-101919419D01*
X127013077Y-102130922D01*
X127224580Y-102304499D01*
X127465881Y-102433477D01*
X127513757Y-102448000D01*
X126436935Y-102448000D01*
X126400000Y-102444362D01*
X126363064Y-102448000D01*
X126363062Y-102448000D01*
X126252582Y-102458881D01*
X126110830Y-102501882D01*
X125980190Y-102571710D01*
X125865683Y-102665683D01*
X125842133Y-102694379D01*
X123969380Y-104567132D01*
X123940684Y-104590682D01*
X123897583Y-104643202D01*
X123846711Y-104705189D01*
X123796690Y-104798773D01*
X123776883Y-104835830D01*
X123733882Y-104977582D01*
X123726015Y-105057463D01*
X123719363Y-105124999D01*
X123723001Y-105161935D01*
X123723002Y-109863056D01*
X123719363Y-109900001D01*
X123729949Y-110007480D01*
X123733883Y-110047419D01*
X123741510Y-110072561D01*
X123776883Y-110189170D01*
X123846711Y-110319811D01*
X123917138Y-110405626D01*
X123940685Y-110434318D01*
X123969376Y-110457864D01*
X124365204Y-110853692D01*
X124401762Y-110898238D01*
X124516573Y-110992461D01*
X124647561Y-111062475D01*
X124789690Y-111105590D01*
X124900461Y-111116500D01*
X124920869Y-111116500D01*
X124937499Y-111118138D01*
X124938818Y-111118008D01*
X125025892Y-111224108D01*
X125118367Y-111300000D01*
X125025892Y-111375892D01*
X124917226Y-111508302D01*
X124836480Y-111659368D01*
X124786756Y-111823283D01*
X124769967Y-111993750D01*
X124769967Y-112481250D01*
X124786756Y-112651717D01*
X124836480Y-112815632D01*
X124917226Y-112966698D01*
X125025892Y-113099108D01*
X125158302Y-113207774D01*
X125309368Y-113288520D01*
X125473283Y-113338244D01*
X125643750Y-113355033D01*
X126556250Y-113355033D01*
X126726717Y-113338244D01*
X126890632Y-113288520D01*
X127041698Y-113207774D01*
X127174108Y-113099108D01*
X127262420Y-112991500D01*
X127621589Y-112991500D01*
X127626147Y-113000028D01*
X127704499Y-113095501D01*
X127799972Y-113173853D01*
X127908897Y-113232075D01*
X128027087Y-113267927D01*
X128150000Y-113280033D01*
X129050000Y-113280033D01*
X129172913Y-113267927D01*
X129291103Y-113232075D01*
X129400028Y-113173853D01*
X129495501Y-113095501D01*
X129573853Y-113000028D01*
X129632075Y-112891103D01*
X129667927Y-112772913D01*
X129680033Y-112650000D01*
X129680033Y-112115689D01*
X129704499Y-112145501D01*
X129799972Y-112223853D01*
X129908897Y-112282075D01*
X130027087Y-112317927D01*
X130150000Y-112330033D01*
X130563716Y-112330033D01*
X130978150Y-112744467D01*
X131001762Y-112773238D01*
X131116573Y-112867461D01*
X131247561Y-112937475D01*
X131389690Y-112980590D01*
X131500461Y-112991500D01*
X131500471Y-112991500D01*
X131537499Y-112995147D01*
X131574528Y-112991500D01*
X131937580Y-112991500D01*
X132025892Y-113099108D01*
X132158302Y-113207774D01*
X132309368Y-113288520D01*
X132473283Y-113338244D01*
X132643750Y-113355033D01*
X133556250Y-113355033D01*
X133726717Y-113338244D01*
X133890632Y-113288520D01*
X134041698Y-113207774D01*
X134174108Y-113099108D01*
X134282774Y-112966698D01*
X134363520Y-112815632D01*
X134413244Y-112651717D01*
X134430033Y-112481250D01*
X134430033Y-111993750D01*
X134413244Y-111823283D01*
X134363520Y-111659368D01*
X134282774Y-111508302D01*
X134174108Y-111375892D01*
X134081633Y-111300000D01*
X134174108Y-111224108D01*
X134282774Y-111091698D01*
X134363520Y-110940632D01*
X134389666Y-110854440D01*
X135442100Y-110854440D01*
X135442100Y-111145560D01*
X135498895Y-111431088D01*
X135610302Y-111700048D01*
X135772040Y-111942106D01*
X135977894Y-112147960D01*
X136219952Y-112309698D01*
X136488912Y-112421105D01*
X136774440Y-112477900D01*
X137065560Y-112477900D01*
X137351088Y-112421105D01*
X137620048Y-112309698D01*
X137862106Y-112147960D01*
X138067960Y-111942106D01*
X138229698Y-111700048D01*
X138341105Y-111431088D01*
X138397900Y-111145560D01*
X138397900Y-110854440D01*
X138341105Y-110568912D01*
X138229698Y-110299952D01*
X138067960Y-110057894D01*
X137862106Y-109852040D01*
X137620048Y-109690302D01*
X137351088Y-109578895D01*
X137065560Y-109522100D01*
X136774440Y-109522100D01*
X136488912Y-109578895D01*
X136219952Y-109690302D01*
X135977894Y-109852040D01*
X135772040Y-110057894D01*
X135610302Y-110299952D01*
X135498895Y-110568912D01*
X135442100Y-110854440D01*
X134389666Y-110854440D01*
X134413244Y-110776717D01*
X134430033Y-110606250D01*
X134430033Y-110118750D01*
X134427989Y-110097999D01*
X138023989Y-106502000D01*
X138265516Y-106502000D01*
X138226147Y-106549972D01*
X138167925Y-106658897D01*
X138132073Y-106777087D01*
X138119967Y-106900000D01*
X138119967Y-107600000D01*
X138132073Y-107722913D01*
X138167925Y-107841103D01*
X138226147Y-107950028D01*
X138304499Y-108045501D01*
X138399972Y-108123853D01*
X138448001Y-108149525D01*
X138448000Y-111963064D01*
X138444362Y-112000000D01*
X138448000Y-112036935D01*
X138448000Y-112036937D01*
X138458881Y-112147417D01*
X138482305Y-112224633D01*
X138501882Y-112289169D01*
X138571710Y-112419810D01*
X138609924Y-112466373D01*
X138665683Y-112534317D01*
X138694379Y-112557867D01*
X140235476Y-114098964D01*
X140080423Y-114034739D01*
X139669491Y-113953000D01*
X139250509Y-113953000D01*
X138839577Y-114034739D01*
X138452488Y-114195077D01*
X138104116Y-114427851D01*
X137807851Y-114724116D01*
X137615033Y-115012689D01*
X137615033Y-114830000D01*
X137602927Y-114707087D01*
X137567075Y-114588897D01*
X137508853Y-114479972D01*
X137430501Y-114384499D01*
X137335028Y-114306147D01*
X137226103Y-114247925D01*
X137107913Y-114212073D01*
X136985000Y-114199967D01*
X134435000Y-114199967D01*
X134312087Y-114212073D01*
X134193897Y-114247925D01*
X134084972Y-114306147D01*
X133989499Y-114384499D01*
X133911147Y-114479972D01*
X133852925Y-114588897D01*
X133817073Y-114707087D01*
X133804967Y-114830000D01*
X133804967Y-115068650D01*
X133701151Y-115048000D01*
X133498849Y-115048000D01*
X133300435Y-115087467D01*
X133113533Y-115164885D01*
X132945326Y-115277277D01*
X132802277Y-115420326D01*
X132689885Y-115588533D01*
X132612467Y-115775435D01*
X132573000Y-115973849D01*
X132573000Y-116176151D01*
X132612467Y-116374565D01*
X132689885Y-116561467D01*
X132802277Y-116729674D01*
X132945326Y-116872723D01*
X133113533Y-116985115D01*
X133300435Y-117062533D01*
X133498849Y-117102000D01*
X133701151Y-117102000D01*
X133804967Y-117081350D01*
X133804967Y-117330000D01*
X133817073Y-117452913D01*
X133852925Y-117571103D01*
X133911147Y-117680028D01*
X133989499Y-117775501D01*
X134084972Y-117853853D01*
X134193897Y-117912075D01*
X134312087Y-117947927D01*
X134435000Y-117960033D01*
X136985000Y-117960033D01*
X137107913Y-117947927D01*
X137226103Y-117912075D01*
X137335028Y-117853853D01*
X137430501Y-117775501D01*
X137508853Y-117680028D01*
X137567075Y-117571103D01*
X137602927Y-117452913D01*
X137615033Y-117330000D01*
X137615033Y-117147311D01*
X137807851Y-117435884D01*
X138104116Y-117732149D01*
X138452488Y-117964923D01*
X138839577Y-118125261D01*
X139250509Y-118207000D01*
X139669491Y-118207000D01*
X140080423Y-118125261D01*
X140467512Y-117964923D01*
X140815884Y-117732149D01*
X141112149Y-117435884D01*
X141344923Y-117087512D01*
X141505261Y-116700423D01*
X141587000Y-116289491D01*
X141587000Y-115870509D01*
X141505261Y-115459577D01*
X141441036Y-115304525D01*
X142217137Y-116080626D01*
X142240683Y-116109317D01*
X142269374Y-116132863D01*
X142355189Y-116203290D01*
X142420787Y-116238352D01*
X142485830Y-116273118D01*
X142627582Y-116316119D01*
X142738062Y-116327000D01*
X142738064Y-116327000D01*
X142774999Y-116330638D01*
X142811935Y-116327000D01*
X152163065Y-116327000D01*
X152200000Y-116330638D01*
X152236935Y-116327000D01*
X152236938Y-116327000D01*
X152347418Y-116316119D01*
X152489170Y-116273118D01*
X152619810Y-116203290D01*
X152734317Y-116109317D01*
X152757867Y-116080621D01*
X153980626Y-114857863D01*
X154009317Y-114834317D01*
X154046170Y-114789411D01*
X154103290Y-114719811D01*
X154140613Y-114649983D01*
X154173118Y-114589170D01*
X154216119Y-114447418D01*
X154227000Y-114336938D01*
X154227000Y-114336936D01*
X154230638Y-114300001D01*
X154227000Y-114263065D01*
X154227000Y-110261488D01*
X158891997Y-105596491D01*
X159726391Y-105596491D01*
X159731100Y-105657691D01*
X159734952Y-105718908D01*
X159736528Y-105728228D01*
X159773807Y-105939649D01*
X159790311Y-105998762D01*
X159805982Y-106058072D01*
X159809338Y-106066908D01*
X159886972Y-106267062D01*
X159914651Y-106321858D01*
X159941538Y-106376984D01*
X159946542Y-106384992D01*
X159946545Y-106384998D01*
X159946547Y-106385000D01*
X160061580Y-106566262D01*
X160099360Y-106614618D01*
X160136454Y-106663488D01*
X160142924Y-106670378D01*
X160290973Y-106825845D01*
X160337445Y-106865958D01*
X160383309Y-106906678D01*
X160390994Y-106912181D01*
X160566420Y-107035930D01*
X160619818Y-107066264D01*
X160672693Y-107097286D01*
X160681298Y-107101190D01*
X160681304Y-107101193D01*
X160681310Y-107101195D01*
X160877423Y-107188511D01*
X160935648Y-107207880D01*
X160993597Y-107228060D01*
X161002789Y-107230216D01*
X161002796Y-107230218D01*
X161002803Y-107230219D01*
X161212146Y-107277780D01*
X161273039Y-107285473D01*
X161333781Y-107294010D01*
X161343223Y-107294340D01*
X161343232Y-107294341D01*
X161343241Y-107294340D01*
X161557827Y-107300335D01*
X161619069Y-107296053D01*
X161680306Y-107292629D01*
X161689629Y-107291119D01*
X161689633Y-107291119D01*
X161689636Y-107291118D01*
X161901313Y-107255315D01*
X161960539Y-107239223D01*
X162019954Y-107223968D01*
X162028809Y-107220674D01*
X162028818Y-107220672D01*
X162028826Y-107220668D01*
X162229505Y-107144438D01*
X162284465Y-107117156D01*
X162339802Y-107090643D01*
X162347853Y-107085690D01*
X162529913Y-106971926D01*
X162578543Y-106934476D01*
X162627663Y-106897730D01*
X162634590Y-106891315D01*
X162634597Y-106891310D01*
X162634602Y-106891304D01*
X162791094Y-106744348D01*
X162831535Y-106698153D01*
X162872567Y-106652583D01*
X162878123Y-106644936D01*
X162878126Y-106644933D01*
X162878130Y-106644927D01*
X163003095Y-106470378D01*
X163022301Y-106443576D01*
X163555553Y-105519957D01*
X163569609Y-105488935D01*
X163576747Y-105476572D01*
X163580591Y-105467937D01*
X163666539Y-105271210D01*
X163685498Y-105212861D01*
X163705275Y-105154766D01*
X163707369Y-105145549D01*
X163753469Y-104935874D01*
X163760734Y-104874950D01*
X163768850Y-104814125D01*
X163769114Y-104804676D01*
X163773610Y-104590041D01*
X163768901Y-104528843D01*
X163765049Y-104467623D01*
X163763473Y-104458303D01*
X163726194Y-104246883D01*
X163709688Y-104187765D01*
X163694018Y-104128456D01*
X163690666Y-104119634D01*
X163690663Y-104119622D01*
X163690658Y-104119612D01*
X163613026Y-103919467D01*
X163585356Y-103864690D01*
X163558464Y-103809553D01*
X163553456Y-103801537D01*
X163438423Y-103620274D01*
X163400651Y-103571927D01*
X163363547Y-103523044D01*
X163357083Y-103516162D01*
X163357078Y-103516155D01*
X163357072Y-103516150D01*
X163209028Y-103360687D01*
X163162583Y-103320596D01*
X163116691Y-103279852D01*
X163109005Y-103274350D01*
X162933578Y-103150601D01*
X162880204Y-103120281D01*
X162827307Y-103089246D01*
X162818699Y-103085341D01*
X162818694Y-103085338D01*
X162818687Y-103085336D01*
X162622577Y-102998021D01*
X162564354Y-102978652D01*
X162506404Y-102958472D01*
X162497215Y-102956317D01*
X162497205Y-102956314D01*
X162497196Y-102956313D01*
X162287854Y-102908752D01*
X162226961Y-102901059D01*
X162166219Y-102892522D01*
X162156777Y-102892192D01*
X162156768Y-102892191D01*
X162156759Y-102892192D01*
X161942173Y-102886197D01*
X161880927Y-102890479D01*
X161819695Y-102893903D01*
X161810373Y-102895413D01*
X161810367Y-102895413D01*
X161810362Y-102895414D01*
X161598687Y-102931217D01*
X161539439Y-102947314D01*
X161480045Y-102962564D01*
X161471197Y-102965855D01*
X161471182Y-102965859D01*
X161471169Y-102965865D01*
X161270495Y-103042094D01*
X161215549Y-103069369D01*
X161160197Y-103095889D01*
X161152146Y-103100842D01*
X160970085Y-103214606D01*
X160921430Y-103252075D01*
X160872334Y-103288804D01*
X160865410Y-103295216D01*
X160865402Y-103295222D01*
X160865396Y-103295229D01*
X160708903Y-103442187D01*
X160668474Y-103488369D01*
X160627432Y-103533950D01*
X160621878Y-103541594D01*
X160621872Y-103541601D01*
X160621867Y-103541609D01*
X160496904Y-103716155D01*
X160496891Y-103716177D01*
X160477701Y-103742957D01*
X159944448Y-104666576D01*
X159930391Y-104697600D01*
X159923254Y-104709962D01*
X159919409Y-104718597D01*
X159833462Y-104915323D01*
X159814500Y-104973680D01*
X159794726Y-105031766D01*
X159792634Y-105040974D01*
X159792631Y-105040984D01*
X159792630Y-105040994D01*
X159746532Y-105250658D01*
X159739267Y-105311582D01*
X159731151Y-105372407D01*
X159730887Y-105381856D01*
X159726391Y-105596491D01*
X158891997Y-105596491D01*
X159980626Y-104507863D01*
X160009317Y-104484317D01*
X160047420Y-104437888D01*
X160103290Y-104369811D01*
X160158641Y-104266255D01*
X160173118Y-104239170D01*
X160216119Y-104097418D01*
X160227000Y-103986938D01*
X160227000Y-103986936D01*
X160230638Y-103950001D01*
X160227000Y-103913065D01*
X160227000Y-102274435D01*
X160230638Y-102237500D01*
X160226942Y-102199972D01*
X160216119Y-102090082D01*
X160173118Y-101948330D01*
X160103290Y-101817690D01*
X160009317Y-101703183D01*
X159980627Y-101679638D01*
X159627989Y-101327001D01*
X159630033Y-101306250D01*
X159630033Y-100818750D01*
X159613244Y-100648283D01*
X159563520Y-100484368D01*
X159482774Y-100333302D01*
X159374108Y-100200892D01*
X159241698Y-100092226D01*
X159090632Y-100011480D01*
X158926717Y-99961756D01*
X158756250Y-99944967D01*
X157843750Y-99944967D01*
X157673283Y-99961756D01*
X157509368Y-100011480D01*
X157358302Y-100092226D01*
X157225892Y-100200892D01*
X157117226Y-100333302D01*
X157036480Y-100484368D01*
X156986756Y-100648283D01*
X156969967Y-100818750D01*
X156969967Y-101306250D01*
X156986756Y-101476717D01*
X157036480Y-101640632D01*
X157117226Y-101791698D01*
X157225892Y-101924108D01*
X157318367Y-102000000D01*
X157225892Y-102075892D01*
X157137580Y-102183500D01*
X157049817Y-102183500D01*
X156880033Y-102013716D01*
X156880033Y-101600000D01*
X156867927Y-101477087D01*
X156832075Y-101358897D01*
X156773853Y-101249972D01*
X156695501Y-101154499D01*
X156600028Y-101076147D01*
X156491103Y-101017925D01*
X156372913Y-100982073D01*
X156250000Y-100969967D01*
X155350000Y-100969967D01*
X155227087Y-100982073D01*
X155108897Y-101017925D01*
X154999972Y-101076147D01*
X154904499Y-101154499D01*
X154860889Y-101207639D01*
X154726250Y-101073000D01*
X153823000Y-101073000D01*
X153823000Y-101093000D01*
X153777000Y-101093000D01*
X153777000Y-101073000D01*
X152873750Y-101073000D01*
X152715000Y-101231750D01*
X152711928Y-101450000D01*
X152724188Y-101574482D01*
X152760498Y-101694180D01*
X152819463Y-101804494D01*
X152898815Y-101901185D01*
X152995506Y-101980537D01*
X153040404Y-102004536D01*
X152999972Y-102026147D01*
X152904499Y-102104499D01*
X152829407Y-102196000D01*
X152472678Y-102196000D01*
X152374108Y-102075892D01*
X152281633Y-102000000D01*
X152374108Y-101924108D01*
X152482774Y-101791698D01*
X152563520Y-101640632D01*
X152613244Y-101476717D01*
X152630033Y-101306250D01*
X152630033Y-100818750D01*
X152613414Y-100650000D01*
X152711928Y-100650000D01*
X152715000Y-100868250D01*
X152873750Y-101027000D01*
X153777000Y-101027000D01*
X153777000Y-100173750D01*
X153823000Y-100173750D01*
X153823000Y-101027000D01*
X154726250Y-101027000D01*
X154885000Y-100868250D01*
X154888072Y-100650000D01*
X154875812Y-100525518D01*
X154839502Y-100405820D01*
X154780537Y-100295506D01*
X154701185Y-100198815D01*
X154604494Y-100119463D01*
X154494180Y-100060498D01*
X154374482Y-100024188D01*
X154250000Y-100011928D01*
X153981750Y-100015000D01*
X153823000Y-100173750D01*
X153777000Y-100173750D01*
X153618250Y-100015000D01*
X153350000Y-100011928D01*
X153225518Y-100024188D01*
X153105820Y-100060498D01*
X152995506Y-100119463D01*
X152898815Y-100198815D01*
X152819463Y-100295506D01*
X152760498Y-100405820D01*
X152724188Y-100525518D01*
X152711928Y-100650000D01*
X152613414Y-100650000D01*
X152613244Y-100648283D01*
X152563520Y-100484368D01*
X152482774Y-100333302D01*
X152374108Y-100200892D01*
X152241698Y-100092226D01*
X152090632Y-100011480D01*
X151926717Y-99961756D01*
X151756250Y-99944967D01*
X150843750Y-99944967D01*
X150673283Y-99961756D01*
X150509368Y-100011480D01*
X150358302Y-100092226D01*
X150225892Y-100200892D01*
X150135939Y-100310500D01*
X145029453Y-100310500D01*
X145012533Y-100225435D01*
X144935115Y-100038533D01*
X144822723Y-99870326D01*
X144679674Y-99727277D01*
X144511467Y-99614885D01*
X144324565Y-99537467D01*
X144126151Y-99498000D01*
X143923849Y-99498000D01*
X143725435Y-99537467D01*
X143538533Y-99614885D01*
X143370326Y-99727277D01*
X143227277Y-99870326D01*
X143114885Y-100038533D01*
X143037467Y-100225435D01*
X142998000Y-100423849D01*
X142998000Y-100626151D01*
X143030673Y-100790408D01*
X141218818Y-98978553D01*
X141301099Y-99022302D01*
X141357829Y-99045685D01*
X141414226Y-99069856D01*
X141423250Y-99072649D01*
X141423257Y-99072652D01*
X141423264Y-99072653D01*
X141610092Y-99129060D01*
X141670287Y-99140980D01*
X141730301Y-99153736D01*
X141739693Y-99154723D01*
X141739703Y-99154725D01*
X141739712Y-99154725D01*
X141933935Y-99173769D01*
X141933942Y-99173769D01*
X141966748Y-99177000D01*
X148033252Y-99177000D01*
X148062217Y-99174147D01*
X148068342Y-99174190D01*
X148077749Y-99173267D01*
X148271846Y-99152866D01*
X148331930Y-99140532D01*
X148392223Y-99129031D01*
X148401272Y-99126299D01*
X148587710Y-99068587D01*
X148644308Y-99044795D01*
X148701167Y-99021823D01*
X148709508Y-99017388D01*
X148709513Y-99017386D01*
X148709517Y-99017383D01*
X148881189Y-98924561D01*
X148932070Y-98890242D01*
X148983405Y-98856649D01*
X148990730Y-98850675D01*
X149141108Y-98726271D01*
X149184347Y-98682728D01*
X149228183Y-98639801D01*
X149234208Y-98632518D01*
X149357558Y-98481276D01*
X149391510Y-98430174D01*
X149426181Y-98379538D01*
X149430677Y-98371224D01*
X149522302Y-98198901D01*
X149545685Y-98142171D01*
X149569856Y-98085774D01*
X149572651Y-98076745D01*
X149572652Y-98076743D01*
X149572653Y-98076736D01*
X149629060Y-97889908D01*
X149640980Y-97829713D01*
X149653736Y-97769699D01*
X149654723Y-97760307D01*
X149654725Y-97760297D01*
X149654725Y-97760288D01*
X149673769Y-97566065D01*
X149673769Y-97566058D01*
X149677000Y-97533252D01*
X149677000Y-94466748D01*
X149674146Y-94437774D01*
X149674189Y-94431658D01*
X149673267Y-94422251D01*
X149652866Y-94228154D01*
X149640531Y-94168064D01*
X149629031Y-94107777D01*
X149626299Y-94098728D01*
X149568587Y-93912290D01*
X149544795Y-93855692D01*
X149521823Y-93798833D01*
X149517386Y-93790487D01*
X149424561Y-93618811D01*
X149390228Y-93567911D01*
X149356648Y-93516595D01*
X149350682Y-93509279D01*
X149350676Y-93509271D01*
X149350669Y-93509264D01*
X149226271Y-93358892D01*
X149182712Y-93315636D01*
X149139801Y-93271817D01*
X149132524Y-93265797D01*
X149132517Y-93265790D01*
X149132509Y-93265785D01*
X148981276Y-93142442D01*
X148930192Y-93108502D01*
X148879539Y-93073819D01*
X148871224Y-93069323D01*
X148698902Y-92977698D01*
X148642146Y-92954305D01*
X148585774Y-92930144D01*
X148576754Y-92927352D01*
X148576744Y-92927348D01*
X148576734Y-92927346D01*
X148389908Y-92870940D01*
X148329730Y-92859024D01*
X148269698Y-92846264D01*
X148260298Y-92845276D01*
X148066064Y-92826231D01*
X148066058Y-92826231D01*
X148033252Y-92823000D01*
X141966748Y-92823000D01*
X141937783Y-92825853D01*
X141931658Y-92825810D01*
X141922251Y-92826732D01*
X141728154Y-92847133D01*
X141668064Y-92859468D01*
X141607777Y-92870968D01*
X141598728Y-92873700D01*
X141412290Y-92931412D01*
X141355691Y-92955204D01*
X141298831Y-92978177D01*
X141290495Y-92982609D01*
X141290487Y-92982613D01*
X141290480Y-92982618D01*
X141118808Y-93075441D01*
X141067971Y-93109731D01*
X141016597Y-93143349D01*
X141009272Y-93149323D01*
X140858894Y-93273727D01*
X140815655Y-93317268D01*
X140771817Y-93360198D01*
X140765797Y-93367475D01*
X140765792Y-93367480D01*
X140765791Y-93367482D01*
X140642441Y-93518724D01*
X140608480Y-93569839D01*
X140573819Y-93620460D01*
X140569327Y-93628767D01*
X140569322Y-93628775D01*
X140569319Y-93628783D01*
X140477698Y-93801096D01*
X140454307Y-93857846D01*
X140430143Y-93914225D01*
X140427352Y-93923241D01*
X140427347Y-93923254D01*
X140427345Y-93923267D01*
X140370939Y-94110091D01*
X140359023Y-94170269D01*
X140346263Y-94230301D01*
X140345275Y-94239702D01*
X140326230Y-94433936D01*
X140326230Y-94433963D01*
X140323001Y-94466748D01*
X140323000Y-97533251D01*
X140325853Y-97562216D01*
X140325810Y-97568342D01*
X140326733Y-97577749D01*
X140347134Y-97771846D01*
X140359468Y-97831930D01*
X140370969Y-97892223D01*
X140373701Y-97901272D01*
X140431413Y-98087710D01*
X140455205Y-98144308D01*
X140478177Y-98201167D01*
X140482612Y-98209508D01*
X140482614Y-98209513D01*
X140482615Y-98209514D01*
X140521270Y-98281005D01*
X135900594Y-93660329D01*
X135873133Y-93626867D01*
X135739592Y-93517273D01*
X135587237Y-93435838D01*
X135421922Y-93385690D01*
X135403494Y-93383875D01*
X135250000Y-93368757D01*
X135206921Y-93373000D01*
X127767265Y-93373000D01*
X132240866Y-88899399D01*
X140774668Y-88899399D01*
X140774668Y-91693399D01*
X140786774Y-91816312D01*
X140822626Y-91934502D01*
X140880848Y-92043427D01*
X140959200Y-92138900D01*
X141054673Y-92217252D01*
X141163598Y-92275474D01*
X141281788Y-92311326D01*
X141404701Y-92323432D01*
X142395301Y-92323432D01*
X142518214Y-92311326D01*
X142636404Y-92275474D01*
X142745329Y-92217252D01*
X142840802Y-92138900D01*
X142919154Y-92043427D01*
X142977376Y-91934502D01*
X143013228Y-91816312D01*
X143025334Y-91693399D01*
X143025334Y-88899399D01*
X143013228Y-88776486D01*
X142977376Y-88658296D01*
X142919154Y-88549371D01*
X142840802Y-88453898D01*
X142745329Y-88375546D01*
X142636404Y-88317324D01*
X142518214Y-88281472D01*
X142395301Y-88269366D01*
X141404701Y-88269366D01*
X141281788Y-88281472D01*
X141163598Y-88317324D01*
X141054673Y-88375546D01*
X140959200Y-88453898D01*
X140880848Y-88549371D01*
X140822626Y-88658296D01*
X140786774Y-88776486D01*
X140774668Y-88899399D01*
X132240866Y-88899399D01*
X132263266Y-88877000D01*
X138556921Y-88877000D01*
X138600000Y-88881243D01*
X138643079Y-88877000D01*
X138763201Y-88865169D01*
X138771922Y-88864310D01*
X138796936Y-88856722D01*
X138937237Y-88814162D01*
X139089592Y-88732727D01*
X139223133Y-88623133D01*
X139250597Y-88589668D01*
X141816866Y-86023399D01*
X142067737Y-86023399D01*
X142077272Y-86120212D01*
X142113124Y-86238402D01*
X142171346Y-86347327D01*
X142249698Y-86442800D01*
X142345171Y-86521152D01*
X142454096Y-86579374D01*
X142572286Y-86615226D01*
X142695199Y-86627332D01*
X143304799Y-86627332D01*
X143427712Y-86615226D01*
X143486218Y-86597479D01*
X143570717Y-86623111D01*
X143695199Y-86635371D01*
X143818249Y-86632299D01*
X143976999Y-86473549D01*
X143976999Y-85169399D01*
X143956999Y-85169399D01*
X143956999Y-85123399D01*
X143976999Y-85123399D01*
X143976999Y-83819249D01*
X143818249Y-83660499D01*
X143695199Y-83657427D01*
X143570717Y-83669687D01*
X143486218Y-83695319D01*
X143427712Y-83677572D01*
X143304799Y-83665466D01*
X142695199Y-83665466D01*
X142572286Y-83677572D01*
X142454096Y-83713424D01*
X142345171Y-83771646D01*
X142249698Y-83849998D01*
X142171346Y-83945471D01*
X142113124Y-84054396D01*
X142077272Y-84172586D01*
X142067737Y-84269399D01*
X141496670Y-84269399D01*
X141453600Y-84265157D01*
X141410531Y-84269399D01*
X141410522Y-84269399D01*
X141281679Y-84282089D01*
X141116364Y-84332237D01*
X140964009Y-84413672D01*
X140830468Y-84523266D01*
X140803004Y-84556731D01*
X138236735Y-87123000D01*
X131943079Y-87123000D01*
X131900000Y-87118757D01*
X131728077Y-87135690D01*
X131612880Y-87170635D01*
X131562763Y-87185838D01*
X131410408Y-87267273D01*
X131410406Y-87267274D01*
X131410407Y-87267274D01*
X131323614Y-87338503D01*
X131276867Y-87376867D01*
X131249408Y-87410326D01*
X125450000Y-93209735D01*
X119877000Y-87636735D01*
X119877000Y-85663030D01*
X119889061Y-85669477D01*
X120150889Y-85748902D01*
X120423180Y-85775720D01*
X120695470Y-85748902D01*
X120957298Y-85669477D01*
X121198599Y-85540499D01*
X121410102Y-85366923D01*
X121583679Y-85155420D01*
X121693180Y-84950557D01*
X121802681Y-85155419D01*
X121976257Y-85366922D01*
X122187760Y-85540499D01*
X122429061Y-85669477D01*
X122690889Y-85748902D01*
X122963180Y-85775720D01*
X123235470Y-85748902D01*
X123497298Y-85669477D01*
X123738599Y-85540499D01*
X123950102Y-85366923D01*
X124123679Y-85155420D01*
X124233180Y-84950557D01*
X124342681Y-85155419D01*
X124516257Y-85366922D01*
X124727760Y-85540499D01*
X124969061Y-85669477D01*
X125230889Y-85748902D01*
X125503180Y-85775720D01*
X125775470Y-85748902D01*
X126037298Y-85669477D01*
X126278599Y-85540499D01*
X126490102Y-85366923D01*
X126663679Y-85155420D01*
X126751590Y-84990949D01*
X126839501Y-85155419D01*
X127013077Y-85366922D01*
X127224580Y-85540499D01*
X127465881Y-85669477D01*
X127727709Y-85748902D01*
X128000000Y-85775720D01*
X128272290Y-85748902D01*
X128534118Y-85669477D01*
X128775419Y-85540499D01*
X128986922Y-85366923D01*
X129160499Y-85155420D01*
X129270000Y-84950557D01*
X129379501Y-85155419D01*
X129553077Y-85366922D01*
X129764580Y-85540499D01*
X130005881Y-85669477D01*
X130267709Y-85748902D01*
X130540000Y-85775720D01*
X130812290Y-85748902D01*
X131074118Y-85669477D01*
X131315419Y-85540499D01*
X131526922Y-85366923D01*
X131700499Y-85155420D01*
X131829477Y-84914119D01*
X131831590Y-84907153D01*
X131833703Y-84914118D01*
X131962681Y-85155419D01*
X132136257Y-85366922D01*
X132347760Y-85540499D01*
X132589061Y-85669477D01*
X132850889Y-85748902D01*
X133123180Y-85775720D01*
X133395470Y-85748902D01*
X133657298Y-85669477D01*
X133898599Y-85540499D01*
X134110102Y-85366923D01*
X134283679Y-85155420D01*
X134393180Y-84950557D01*
X134502681Y-85155419D01*
X134676257Y-85366922D01*
X134887760Y-85540499D01*
X135129061Y-85669477D01*
X135390889Y-85748902D01*
X135663180Y-85775720D01*
X135935470Y-85748902D01*
X136197298Y-85669477D01*
X136438599Y-85540499D01*
X136650102Y-85366923D01*
X136823679Y-85155420D01*
X136952657Y-84914119D01*
X137032082Y-84652291D01*
X137052180Y-84448230D01*
X137052180Y-82787770D01*
X137032082Y-82583709D01*
X136952657Y-82321881D01*
X136823679Y-82080580D01*
X136650103Y-81869077D01*
X136438600Y-81695501D01*
X136197299Y-81566523D01*
X135935471Y-81487098D01*
X135663180Y-81460280D01*
X135390890Y-81487098D01*
X135129062Y-81566523D01*
X134887761Y-81695501D01*
X134676258Y-81869077D01*
X134502682Y-82080580D01*
X134393181Y-82285443D01*
X134283679Y-82080580D01*
X134110103Y-81869077D01*
X133898600Y-81695501D01*
X133880494Y-81685823D01*
X134112317Y-81454000D01*
X138462969Y-81454000D01*
X138500000Y-81457647D01*
X138537031Y-81454000D01*
X138537039Y-81454000D01*
X138647810Y-81443090D01*
X138789939Y-81399975D01*
X138920927Y-81329961D01*
X138999314Y-81265630D01*
X140040650Y-82306967D01*
X140064262Y-82335738D01*
X140093032Y-82359349D01*
X140179073Y-82429961D01*
X140310060Y-82499975D01*
X140452190Y-82543090D01*
X140600000Y-82557648D01*
X140637039Y-82554000D01*
X143337684Y-82554000D01*
X144246000Y-83462317D01*
X144246000Y-83658895D01*
X144181749Y-83660499D01*
X144022999Y-83819249D01*
X144022999Y-85123399D01*
X144042999Y-85123399D01*
X144042999Y-85169399D01*
X144022999Y-85169399D01*
X144022999Y-86473549D01*
X144181749Y-86632299D01*
X144304799Y-86635371D01*
X144348063Y-86631110D01*
X144370039Y-86672225D01*
X144464262Y-86787037D01*
X144493037Y-86810652D01*
X146039351Y-88356967D01*
X146062963Y-88385738D01*
X146091733Y-88409349D01*
X146177774Y-88479961D01*
X146308762Y-88549975D01*
X146450891Y-88593090D01*
X146598701Y-88607648D01*
X146635740Y-88604000D01*
X147051646Y-88604000D01*
X147022624Y-88658296D01*
X146986772Y-88776486D01*
X146974666Y-88899399D01*
X146974666Y-91693399D01*
X146986772Y-91816312D01*
X147022624Y-91934502D01*
X147080846Y-92043427D01*
X147159198Y-92138900D01*
X147254671Y-92217252D01*
X147363596Y-92275474D01*
X147481786Y-92311326D01*
X147604699Y-92323432D01*
X148595299Y-92323432D01*
X148718212Y-92311326D01*
X148836402Y-92275474D01*
X148945327Y-92217252D01*
X149040800Y-92138900D01*
X149119152Y-92043427D01*
X149177374Y-91934502D01*
X149213226Y-91816312D01*
X149225332Y-91693399D01*
X149225332Y-89391648D01*
X161440651Y-101606968D01*
X161464262Y-101635738D01*
X161493032Y-101659349D01*
X161579073Y-101729961D01*
X161710060Y-101799975D01*
X161852190Y-101843090D01*
X162000000Y-101857648D01*
X162037039Y-101854000D01*
X170762969Y-101854000D01*
X170800000Y-101857647D01*
X170837031Y-101854000D01*
X170837039Y-101854000D01*
X170947810Y-101843090D01*
X171089939Y-101799975D01*
X171220927Y-101729961D01*
X171335738Y-101635738D01*
X171359353Y-101606963D01*
X173006974Y-99959344D01*
X173035738Y-99935738D01*
X173059344Y-99906974D01*
X173059349Y-99906969D01*
X173129961Y-99820927D01*
X173157523Y-99769362D01*
X173199975Y-99689939D01*
X173243090Y-99547810D01*
X173254000Y-99437039D01*
X173254000Y-99437029D01*
X173257647Y-99400001D01*
X173254000Y-99362972D01*
X173254000Y-96237028D01*
X173257647Y-96199999D01*
X173254000Y-96162971D01*
X173254000Y-96162961D01*
X173243090Y-96052190D01*
X173199975Y-95910061D01*
X173129961Y-95779073D01*
X173035738Y-95664262D01*
X173006969Y-95640652D01*
X172627000Y-95260683D01*
X172627000Y-95198849D01*
X172587533Y-95000435D01*
X172510115Y-94813533D01*
X172397723Y-94645326D01*
X172254674Y-94502277D01*
X172086467Y-94389885D01*
X171899565Y-94312467D01*
X171701151Y-94273000D01*
X171498849Y-94273000D01*
X171300435Y-94312467D01*
X171113533Y-94389885D01*
X170945326Y-94502277D01*
X170802277Y-94645326D01*
X170689885Y-94813533D01*
X170612467Y-95000435D01*
X170573000Y-95198849D01*
X170573000Y-95401151D01*
X170612467Y-95599565D01*
X170689885Y-95786467D01*
X170798533Y-95949070D01*
X170702277Y-96045326D01*
X170589885Y-96213533D01*
X170512467Y-96400435D01*
X170473000Y-96598849D01*
X170473000Y-96801151D01*
X170512467Y-96999565D01*
X170589885Y-97186467D01*
X170702277Y-97354674D01*
X170746000Y-97398397D01*
X170746001Y-99187682D01*
X170187684Y-99746000D01*
X162562317Y-99746000D01*
X160847283Y-98030967D01*
X160977000Y-97901250D01*
X160977000Y-96960500D01*
X161023000Y-96960500D01*
X161023000Y-97901250D01*
X161181750Y-98060000D01*
X161700000Y-98063072D01*
X161824482Y-98050812D01*
X161944180Y-98014502D01*
X162054494Y-97955537D01*
X162151185Y-97876185D01*
X162230537Y-97779494D01*
X162289502Y-97669180D01*
X162325812Y-97549482D01*
X162338072Y-97425000D01*
X162335000Y-97119250D01*
X162176250Y-96960500D01*
X161023000Y-96960500D01*
X160977000Y-96960500D01*
X160957000Y-96960500D01*
X160957000Y-96914500D01*
X160977000Y-96914500D01*
X160977000Y-96894500D01*
X161023000Y-96894500D01*
X161023000Y-96914500D01*
X162176250Y-96914500D01*
X162335000Y-96755750D01*
X162338072Y-96450000D01*
X162325812Y-96325518D01*
X162289502Y-96205820D01*
X162230537Y-96095506D01*
X162151185Y-95998815D01*
X162067131Y-95929834D01*
X162074108Y-95924108D01*
X162182774Y-95791698D01*
X162230764Y-95701914D01*
X162250603Y-95685633D01*
X162278067Y-95652168D01*
X162836073Y-95094162D01*
X162894535Y-95082533D01*
X163081437Y-95005115D01*
X163249644Y-94892723D01*
X163392693Y-94749674D01*
X163505085Y-94581467D01*
X163582503Y-94394565D01*
X163621970Y-94196151D01*
X163621970Y-93993849D01*
X163582503Y-93795435D01*
X163505085Y-93608533D01*
X163392693Y-93440326D01*
X163249644Y-93297277D01*
X163081437Y-93184885D01*
X162894535Y-93107467D01*
X162836073Y-93095838D01*
X157877000Y-88136765D01*
X157877000Y-86418828D01*
X159725319Y-86418828D01*
X159725583Y-86428277D01*
X159733075Y-86642829D01*
X159741189Y-86703642D01*
X159748456Y-86764580D01*
X159750550Y-86773797D01*
X159799573Y-86982807D01*
X159819353Y-87040909D01*
X159838308Y-87099249D01*
X159842153Y-87107884D01*
X159930839Y-87303392D01*
X159930847Y-87303405D01*
X159944448Y-87333424D01*
X160477701Y-88257043D01*
X160497534Y-88284719D01*
X160504677Y-88297092D01*
X160510233Y-88304739D01*
X160637630Y-88477535D01*
X160678679Y-88523124D01*
X160719103Y-88569300D01*
X160726038Y-88575723D01*
X160884571Y-88720483D01*
X160933693Y-88757231D01*
X160982320Y-88794679D01*
X160990370Y-88799631D01*
X161174002Y-88910843D01*
X161229352Y-88937362D01*
X161284299Y-88964638D01*
X161293158Y-88967933D01*
X161494894Y-89041359D01*
X161554351Y-89056625D01*
X161613541Y-89072707D01*
X161622867Y-89074217D01*
X161622870Y-89074218D01*
X161622873Y-89074218D01*
X161835026Y-89107061D01*
X161896343Y-89110489D01*
X161957500Y-89114766D01*
X161966937Y-89114436D01*
X161966948Y-89114437D01*
X161966959Y-89114436D01*
X162181441Y-89105446D01*
X162242204Y-89096907D01*
X162303081Y-89089216D01*
X162312274Y-89087059D01*
X162312282Y-89087058D01*
X162312289Y-89087056D01*
X162520946Y-89036576D01*
X162578914Y-89016389D01*
X162637114Y-88997029D01*
X162645715Y-88993127D01*
X162645724Y-88993124D01*
X162645731Y-88993120D01*
X162840606Y-88903075D01*
X162893542Y-88872018D01*
X162946881Y-88841717D01*
X162954562Y-88836218D01*
X162954568Y-88836215D01*
X162954573Y-88836211D01*
X163128249Y-88710028D01*
X163174129Y-88669294D01*
X163220584Y-88629195D01*
X163227048Y-88622310D01*
X163227054Y-88622305D01*
X163227058Y-88622299D01*
X163372918Y-88464786D01*
X163410024Y-88415901D01*
X163447794Y-88367557D01*
X163452799Y-88359547D01*
X163452803Y-88359542D01*
X163452805Y-88359537D01*
X163565293Y-88176690D01*
X163592200Y-88121524D01*
X163619856Y-88066773D01*
X163623211Y-88057941D01*
X163623214Y-88057935D01*
X163623216Y-88057929D01*
X163698045Y-87856720D01*
X163713729Y-87797360D01*
X163730220Y-87738296D01*
X163731794Y-87728987D01*
X163731797Y-87728976D01*
X163731798Y-87728966D01*
X163766120Y-87517055D01*
X163769975Y-87455786D01*
X163774680Y-87394635D01*
X163774417Y-87385186D01*
X163766924Y-87170635D01*
X163758802Y-87109764D01*
X163751543Y-87048887D01*
X163749449Y-87039670D01*
X163700426Y-86830660D01*
X163680649Y-86772566D01*
X163661691Y-86714219D01*
X163657850Y-86705594D01*
X163657846Y-86705581D01*
X163657840Y-86705570D01*
X163569611Y-86511070D01*
X163555553Y-86480043D01*
X163022301Y-85556424D01*
X163002465Y-85528743D01*
X162995325Y-85516376D01*
X162989769Y-85508729D01*
X162862372Y-85335932D01*
X162821302Y-85290319D01*
X162780898Y-85244166D01*
X162773967Y-85237748D01*
X162773962Y-85237742D01*
X162773956Y-85237737D01*
X162615430Y-85092982D01*
X162566265Y-85056202D01*
X162517680Y-85018787D01*
X162509636Y-85013837D01*
X162509631Y-85013834D01*
X162509626Y-85013832D01*
X162325997Y-84902623D01*
X162270664Y-84876112D01*
X162215702Y-84848828D01*
X162206848Y-84845536D01*
X162206840Y-84845532D01*
X162206832Y-84845530D01*
X162005108Y-84772108D01*
X161945669Y-84756846D01*
X161886460Y-84740759D01*
X161877137Y-84739249D01*
X161877132Y-84739248D01*
X161877127Y-84739248D01*
X161664974Y-84706405D01*
X161603658Y-84702977D01*
X161542500Y-84698700D01*
X161533064Y-84699030D01*
X161533053Y-84699029D01*
X161533042Y-84699030D01*
X161318560Y-84708020D01*
X161257783Y-84716561D01*
X161196921Y-84724250D01*
X161187720Y-84726408D01*
X161187718Y-84726408D01*
X161187716Y-84726409D01*
X160979055Y-84776889D01*
X160921074Y-84797081D01*
X160862886Y-84816437D01*
X160854278Y-84820341D01*
X160659394Y-84910391D01*
X160606487Y-84941431D01*
X160553119Y-84971748D01*
X160545438Y-84977248D01*
X160545432Y-84977251D01*
X160545427Y-84977255D01*
X160371751Y-85103438D01*
X160325849Y-85144191D01*
X160279416Y-85184271D01*
X160272951Y-85191155D01*
X160272946Y-85191160D01*
X160272942Y-85191165D01*
X160127082Y-85348681D01*
X160089990Y-85397547D01*
X160052206Y-85445909D01*
X160047201Y-85453919D01*
X160047197Y-85453924D01*
X160047197Y-85453925D01*
X159934707Y-85636776D01*
X159907807Y-85691929D01*
X159880145Y-85746691D01*
X159876788Y-85755528D01*
X159876786Y-85755532D01*
X159876785Y-85755537D01*
X159801955Y-85956746D01*
X159786285Y-86016055D01*
X159769779Y-86075173D01*
X159768204Y-86084485D01*
X159768203Y-86084490D01*
X159768203Y-86084493D01*
X159733879Y-86296413D01*
X159730026Y-86357655D01*
X159725319Y-86418828D01*
X157877000Y-86418828D01*
X157877000Y-83543069D01*
X157881242Y-83499999D01*
X157877000Y-83456930D01*
X157877000Y-83456921D01*
X157864310Y-83328078D01*
X157814162Y-83162763D01*
X157732727Y-83010408D01*
X157623133Y-82876867D01*
X157589669Y-82849404D01*
X149650597Y-74910332D01*
X149623133Y-74876867D01*
X149489592Y-74767273D01*
X149337237Y-74685838D01*
X149171922Y-74635690D01*
X149097957Y-74628405D01*
X149000000Y-74618757D01*
X148956921Y-74623000D01*
X148043079Y-74623000D01*
X148000000Y-74618757D01*
X147956921Y-74623000D01*
X145043079Y-74623000D01*
X145000000Y-74618757D01*
X144956921Y-74623000D01*
X142043079Y-74623000D01*
X142000000Y-74618757D01*
X141956921Y-74623000D01*
X139043079Y-74623000D01*
X139000000Y-74618757D01*
X138956921Y-74623000D01*
X130543079Y-74623000D01*
X130500000Y-74618757D01*
X130328077Y-74635690D01*
X130190836Y-74677322D01*
X130162763Y-74685838D01*
X130010408Y-74767273D01*
X129876867Y-74876867D01*
X129849403Y-74910332D01*
X124936735Y-79823000D01*
X122397036Y-79823000D01*
X123116295Y-79679930D01*
X123812764Y-79391443D01*
X124439570Y-78972625D01*
X124972625Y-78439570D01*
X125391443Y-77812764D01*
X125679930Y-77116295D01*
X125827000Y-76376927D01*
X125827000Y-75623073D01*
X125679930Y-74883705D01*
X125391443Y-74187236D01*
X124972625Y-73560430D01*
X124439570Y-73027375D01*
X124221275Y-72881515D01*
X156797000Y-72881515D01*
X156797000Y-73118485D01*
X156843230Y-73350902D01*
X156933915Y-73569834D01*
X157065569Y-73766868D01*
X157233132Y-73934431D01*
X157430166Y-74066085D01*
X157649098Y-74156770D01*
X157881515Y-74203000D01*
X158118485Y-74203000D01*
X158350902Y-74156770D01*
X158569834Y-74066085D01*
X158766868Y-73934431D01*
X158798836Y-73902463D01*
X158608557Y-74187236D01*
X158320070Y-74883705D01*
X158173000Y-75623073D01*
X158173000Y-76376927D01*
X158320070Y-77116295D01*
X158608557Y-77812764D01*
X159027375Y-78439570D01*
X159560430Y-78972625D01*
X160187236Y-79391443D01*
X160883705Y-79679930D01*
X161623073Y-79827000D01*
X162376927Y-79827000D01*
X163116295Y-79679930D01*
X163812764Y-79391443D01*
X164439570Y-78972625D01*
X164972625Y-78439570D01*
X165391443Y-77812764D01*
X165679930Y-77116295D01*
X165827000Y-76376927D01*
X165827000Y-75623073D01*
X165679930Y-74883705D01*
X165391443Y-74187236D01*
X164972625Y-73560430D01*
X164439570Y-73027375D01*
X163812764Y-72608557D01*
X163116295Y-72320070D01*
X162376927Y-72173000D01*
X161623073Y-72173000D01*
X160883705Y-72320070D01*
X160187236Y-72608557D01*
X159560430Y-73027375D01*
X159100107Y-73487698D01*
X159156770Y-73350902D01*
X159203000Y-73118485D01*
X159203000Y-72881515D01*
X159156770Y-72649098D01*
X159066085Y-72430166D01*
X158934431Y-72233132D01*
X158766868Y-72065569D01*
X158569834Y-71933915D01*
X158350902Y-71843230D01*
X158118485Y-71797000D01*
X157881515Y-71797000D01*
X157649098Y-71843230D01*
X157430166Y-71933915D01*
X157233132Y-72065569D01*
X157065569Y-72233132D01*
X156933915Y-72430166D01*
X156843230Y-72649098D01*
X156797000Y-72881515D01*
X124221275Y-72881515D01*
X123812764Y-72608557D01*
X123116295Y-72320070D01*
X122376927Y-72173000D01*
X121623073Y-72173000D01*
X120883705Y-72320070D01*
X120187236Y-72608557D01*
X119560430Y-73027375D01*
X119027375Y-73560430D01*
X118608557Y-74187236D01*
X118320070Y-74883705D01*
X118173000Y-75623073D01*
X118173000Y-76376927D01*
X118320070Y-77116295D01*
X118608557Y-77812764D01*
X119027375Y-78439570D01*
X119560430Y-78972625D01*
X120187236Y-79391443D01*
X120883705Y-79679930D01*
X121602964Y-79823000D01*
X120243069Y-79823000D01*
X120199999Y-79818758D01*
X120156930Y-79823000D01*
X120156921Y-79823000D01*
X120028078Y-79835690D01*
X119862763Y-79885838D01*
X119710408Y-79967273D01*
X119576867Y-80076867D01*
X119549406Y-80110329D01*
X118410327Y-81249408D01*
X118376868Y-81276867D01*
X118349409Y-81310326D01*
X118349406Y-81310329D01*
X118267274Y-81410408D01*
X118185838Y-81562764D01*
X118135690Y-81728078D01*
X118118757Y-81900000D01*
X117677000Y-81900000D01*
X117677000Y-76030163D01*
X117747972Y-75234936D01*
X117950653Y-74494061D01*
X118281328Y-73800785D01*
X118729547Y-73177023D01*
X119281141Y-72642491D01*
X119918675Y-72214085D01*
X120622000Y-71905348D01*
X121374082Y-71724788D01*
X122024839Y-71677000D01*
X161969848Y-71677000D01*
X162765064Y-71747971D01*
G37*
X162765064Y-71747971D02*
X163505939Y-71950652D01*
X164199215Y-72281327D01*
X164822980Y-72729548D01*
X165357509Y-73281138D01*
X165785917Y-73918679D01*
X166094654Y-74622001D01*
X166275213Y-75374082D01*
X166323001Y-76024839D01*
X166323000Y-78741635D01*
X166323718Y-78748921D01*
X166327812Y-78938677D01*
X166328339Y-78943428D01*
X166333558Y-79013287D01*
X166450702Y-79894478D01*
X166455375Y-79915259D01*
X166457628Y-79936441D01*
X166477107Y-80011909D01*
X166748444Y-80858427D01*
X166756723Y-80878054D01*
X166762692Y-80898501D01*
X166795226Y-80969327D01*
X167212181Y-81754418D01*
X167223805Y-81772268D01*
X167233300Y-81791335D01*
X167277863Y-81855280D01*
X167827256Y-82554127D01*
X167841861Y-82569640D01*
X167854579Y-82586720D01*
X167909761Y-82641764D01*
X168574228Y-83232277D01*
X168591343Y-83244954D01*
X168606889Y-83259516D01*
X168670947Y-83303918D01*
X169429481Y-83767432D01*
X169448575Y-83776880D01*
X169466451Y-83788457D01*
X169537359Y-83820813D01*
X170365987Y-84142676D01*
X170369678Y-84143743D01*
X170387602Y-84150652D01*
X171701033Y-84610033D01*
X172922515Y-85194682D01*
X174072455Y-85909835D01*
X175136988Y-86746866D01*
X176103234Y-87695651D01*
X176959530Y-88744738D01*
X177695533Y-89881452D01*
X178302360Y-91092076D01*
X178772671Y-92361967D01*
X179100792Y-93675803D01*
X179244539Y-94735860D01*
X179210264Y-94700859D01*
X179202987Y-94694839D01*
X179202984Y-94694836D01*
X179202981Y-94694834D01*
X179036614Y-94559149D01*
X178985465Y-94525166D01*
X178934878Y-94490528D01*
X178926569Y-94486035D01*
X178926562Y-94486030D01*
X178926554Y-94486027D01*
X178737010Y-94385244D01*
X178680286Y-94361864D01*
X178623882Y-94337689D01*
X178614852Y-94334894D01*
X178409333Y-94272844D01*
X178349132Y-94260924D01*
X178289121Y-94248168D01*
X178279723Y-94247180D01*
X178279721Y-94247180D01*
X178066063Y-94226231D01*
X178066058Y-94226231D01*
X178033252Y-94223000D01*
X176966748Y-94223000D01*
X176932856Y-94226338D01*
X176918576Y-94226338D01*
X176909176Y-94227326D01*
X176695831Y-94251257D01*
X176635809Y-94264015D01*
X176575623Y-94275932D01*
X176566601Y-94278726D01*
X176566591Y-94278728D01*
X176566582Y-94278732D01*
X176361961Y-94343641D01*
X176305602Y-94367796D01*
X176248832Y-94391195D01*
X176240522Y-94395689D01*
X176240517Y-94395691D01*
X176240513Y-94395694D01*
X176052389Y-94499115D01*
X176001728Y-94533803D01*
X175950652Y-94567738D01*
X175943376Y-94573757D01*
X175943369Y-94573762D01*
X175943364Y-94573768D01*
X175778913Y-94711758D01*
X175735967Y-94755613D01*
X175692443Y-94798834D01*
X175686468Y-94806159D01*
X175551948Y-94973469D01*
X175518340Y-95024827D01*
X175484036Y-95075685D01*
X175479602Y-95084023D01*
X175479599Y-95084028D01*
X175479598Y-95084031D01*
X175380137Y-95274284D01*
X175357142Y-95331199D01*
X175333375Y-95387738D01*
X175330645Y-95396779D01*
X175330641Y-95396790D01*
X175330639Y-95396801D01*
X175270029Y-95602735D01*
X175258531Y-95663009D01*
X175246193Y-95723116D01*
X175245270Y-95732523D01*
X175225813Y-95946321D01*
X175226241Y-96007712D01*
X175225813Y-96069036D01*
X175226735Y-96078432D01*
X175226735Y-96078446D01*
X175226738Y-96078459D01*
X175249176Y-96291950D01*
X175261506Y-96352017D01*
X175273012Y-96412334D01*
X175275744Y-96421383D01*
X175339228Y-96626464D01*
X175363009Y-96683036D01*
X175385991Y-96739918D01*
X175390428Y-96748262D01*
X175390430Y-96748267D01*
X175390433Y-96748272D01*
X175492537Y-96937109D01*
X175526854Y-96987986D01*
X175560446Y-97039321D01*
X175566418Y-97046644D01*
X175566421Y-97046648D01*
X175566425Y-97046652D01*
X175703263Y-97212062D01*
X175746805Y-97255302D01*
X175789736Y-97299141D01*
X175797013Y-97305161D01*
X175797016Y-97305164D01*
X175797019Y-97305166D01*
X175963386Y-97440851D01*
X176014501Y-97474812D01*
X176065121Y-97509472D01*
X176073431Y-97513965D01*
X176073438Y-97513970D01*
X176073446Y-97513973D01*
X176262990Y-97614756D01*
X176319723Y-97638140D01*
X176376119Y-97662311D01*
X176385144Y-97665105D01*
X176385150Y-97665107D01*
X176590667Y-97727156D01*
X176650842Y-97739071D01*
X176710879Y-97751832D01*
X176720277Y-97752820D01*
X176720279Y-97752820D01*
X176933938Y-97773769D01*
X176933942Y-97773769D01*
X176966748Y-97777000D01*
X178033252Y-97777000D01*
X178067144Y-97773662D01*
X178081424Y-97773662D01*
X178090824Y-97772674D01*
X178304169Y-97748743D01*
X178364191Y-97735985D01*
X178424377Y-97724068D01*
X178433399Y-97721274D01*
X178433409Y-97721272D01*
X178433418Y-97721268D01*
X178638039Y-97656359D01*
X178694426Y-97632192D01*
X178751168Y-97608805D01*
X178759483Y-97604309D01*
X178947611Y-97500885D01*
X178998272Y-97466197D01*
X179049348Y-97432262D01*
X179056624Y-97426243D01*
X179056631Y-97426238D01*
X179056636Y-97426232D01*
X179221087Y-97288242D01*
X179239769Y-97269164D01*
X179201231Y-97720767D01*
X178938718Y-99049273D01*
X178532012Y-100340940D01*
X177986020Y-101580183D01*
X177307337Y-102752028D01*
X176504158Y-103842325D01*
X175586195Y-104837890D01*
X174564517Y-105726723D01*
X173451477Y-106498072D01*
X172260522Y-107142619D01*
X170996557Y-107656438D01*
X170407718Y-107842663D01*
X170203160Y-107906626D01*
X170198732Y-107908457D01*
X170133084Y-107932871D01*
X169319113Y-108290180D01*
X169300449Y-108300441D01*
X169280727Y-108308489D01*
X169213639Y-108348164D01*
X168475805Y-108843967D01*
X168459250Y-108857373D01*
X168441266Y-108868786D01*
X168382265Y-108919715D01*
X167743892Y-109538342D01*
X167729973Y-109554467D01*
X167714295Y-109568884D01*
X167665244Y-109629456D01*
X167146509Y-110351352D01*
X167135663Y-110369692D01*
X167122789Y-110386653D01*
X167085240Y-110454953D01*
X166702540Y-111257300D01*
X166695115Y-111277266D01*
X166685445Y-111296244D01*
X166660585Y-111370114D01*
X166426017Y-112227550D01*
X166422246Y-112248511D01*
X166416088Y-112268906D01*
X166404702Y-112346011D01*
X166325939Y-113228536D01*
X166323001Y-113258364D01*
X166323000Y-115969848D01*
X166252029Y-116765064D01*
X166049349Y-117505938D01*
X165718673Y-118199214D01*
X165270451Y-118822981D01*
X164718862Y-119357509D01*
X164081321Y-119785917D01*
X163378002Y-120094653D01*
X162625918Y-120275213D01*
X161975175Y-120323000D01*
X122030163Y-120323000D01*
X121234936Y-120252028D01*
X120494062Y-120049348D01*
X119800784Y-119718671D01*
X119177023Y-119270453D01*
X118642489Y-118718856D01*
X118214085Y-118081325D01*
X117905348Y-117378000D01*
X117724788Y-116625918D01*
X117677000Y-115975161D01*
X117677000Y-115623073D01*
X118173000Y-115623073D01*
X118173000Y-116376927D01*
X118320070Y-117116295D01*
X118608557Y-117812764D01*
X119027375Y-118439570D01*
X119560430Y-118972625D01*
X120187236Y-119391443D01*
X120883705Y-119679930D01*
X121623073Y-119827000D01*
X122376927Y-119827000D01*
X123116295Y-119679930D01*
X123812764Y-119391443D01*
X124439570Y-118972625D01*
X124899893Y-118512302D01*
X124843230Y-118649098D01*
X124797000Y-118881515D01*
X124797000Y-119118485D01*
X124843230Y-119350902D01*
X124933915Y-119569834D01*
X125065569Y-119766868D01*
X125233132Y-119934431D01*
X125430166Y-120066085D01*
X125649098Y-120156770D01*
X125881515Y-120203000D01*
X126118485Y-120203000D01*
X126350902Y-120156770D01*
X126569834Y-120066085D01*
X126766868Y-119934431D01*
X126934431Y-119766868D01*
X127066085Y-119569834D01*
X127156770Y-119350902D01*
X127203000Y-119118485D01*
X127203000Y-118881515D01*
X156797000Y-118881515D01*
X156797000Y-119118485D01*
X156843230Y-119350902D01*
X156933915Y-119569834D01*
X157065569Y-119766868D01*
X157233132Y-119934431D01*
X157430166Y-120066085D01*
X157649098Y-120156770D01*
X157881515Y-120203000D01*
X158118485Y-120203000D01*
X158350902Y-120156770D01*
X158569834Y-120066085D01*
X158766868Y-119934431D01*
X158934431Y-119766868D01*
X159066085Y-119569834D01*
X159156770Y-119350902D01*
X159203000Y-119118485D01*
X159203000Y-118881515D01*
X159156770Y-118649098D01*
X159100107Y-118512302D01*
X159560430Y-118972625D01*
X160187236Y-119391443D01*
X160883705Y-119679930D01*
X161623073Y-119827000D01*
X162376927Y-119827000D01*
X163116295Y-119679930D01*
X163812764Y-119391443D01*
X164439570Y-118972625D01*
X164972625Y-118439570D01*
X165391443Y-117812764D01*
X165679930Y-117116295D01*
X165827000Y-116376927D01*
X165827000Y-115623073D01*
X165679930Y-114883705D01*
X165391443Y-114187236D01*
X164972625Y-113560430D01*
X164439570Y-113027375D01*
X163812764Y-112608557D01*
X163116295Y-112320070D01*
X162376927Y-112173000D01*
X161623073Y-112173000D01*
X160883705Y-112320070D01*
X160187236Y-112608557D01*
X159560430Y-113027375D01*
X159027375Y-113560430D01*
X158608557Y-114187236D01*
X158320070Y-114883705D01*
X158173000Y-115623073D01*
X158173000Y-116376927D01*
X158320070Y-117116295D01*
X158608557Y-117812764D01*
X158798836Y-118097537D01*
X158766868Y-118065569D01*
X158569834Y-117933915D01*
X158350902Y-117843230D01*
X158118485Y-117797000D01*
X157881515Y-117797000D01*
X157649098Y-117843230D01*
X157430166Y-117933915D01*
X157233132Y-118065569D01*
X157065569Y-118233132D01*
X156933915Y-118430166D01*
X156843230Y-118649098D01*
X156797000Y-118881515D01*
X127203000Y-118881515D01*
X127156770Y-118649098D01*
X127066085Y-118430166D01*
X126934431Y-118233132D01*
X126766868Y-118065569D01*
X126569834Y-117933915D01*
X126350902Y-117843230D01*
X126118485Y-117797000D01*
X125881515Y-117797000D01*
X125649098Y-117843230D01*
X125430166Y-117933915D01*
X125233132Y-118065569D01*
X125201164Y-118097537D01*
X125391443Y-117812764D01*
X125679930Y-117116295D01*
X125827000Y-116376927D01*
X125827000Y-115623073D01*
X125679930Y-114883705D01*
X125391443Y-114187236D01*
X124972625Y-113560430D01*
X124439570Y-113027375D01*
X123812764Y-112608557D01*
X123116295Y-112320070D01*
X122376927Y-112173000D01*
X121623073Y-112173000D01*
X120883705Y-112320070D01*
X120187236Y-112608557D01*
X119560430Y-113027375D01*
X119027375Y-113560430D01*
X118608557Y-114187236D01*
X118320070Y-114883705D01*
X118173000Y-115623073D01*
X117677000Y-115623073D01*
X117677000Y-99551770D01*
X118991000Y-99551770D01*
X118991000Y-101212229D01*
X119011098Y-101416290D01*
X119090523Y-101678118D01*
X119219501Y-101919419D01*
X119393077Y-102130922D01*
X119604580Y-102304499D01*
X119845881Y-102433477D01*
X120107709Y-102512902D01*
X120380000Y-102539720D01*
X120652290Y-102512902D01*
X120914118Y-102433477D01*
X121155419Y-102304499D01*
X121366922Y-102130923D01*
X121540499Y-101919420D01*
X121648193Y-101717939D01*
X121771215Y-101939255D01*
X121948435Y-102148091D01*
X122162992Y-102318341D01*
X122406640Y-102443461D01*
X122670016Y-102518644D01*
X122678774Y-102520016D01*
X122897000Y-102382036D01*
X122897000Y-100405000D01*
X122877000Y-100405000D01*
X122877000Y-100359000D01*
X122897000Y-100359000D01*
X122897000Y-98381964D01*
X122678774Y-98243984D01*
X122670016Y-98245356D01*
X122406640Y-98320539D01*
X122162992Y-98445659D01*
X121948435Y-98615909D01*
X121771215Y-98824745D01*
X121648193Y-99046061D01*
X121540499Y-98844580D01*
X121366923Y-98633077D01*
X121155420Y-98459501D01*
X120914119Y-98330523D01*
X120652291Y-98251098D01*
X120380000Y-98224280D01*
X120107710Y-98251098D01*
X119845882Y-98330523D01*
X119604581Y-98459501D01*
X119393078Y-98633077D01*
X119219502Y-98844580D01*
X119090524Y-99085881D01*
X119011098Y-99347709D01*
X118991000Y-99551770D01*
X117677000Y-99551770D01*
X117677000Y-81900000D01*
X118118757Y-81900000D01*
X118123001Y-81943090D01*
X118123000Y-87956920D01*
X118118757Y-88000000D01*
X118135690Y-88171922D01*
X118179414Y-88316060D01*
X118185838Y-88337236D01*
X118267273Y-88489591D01*
X118376867Y-88623133D01*
X118410332Y-88650597D01*
X124583001Y-94823266D01*
X124583000Y-98542866D01*
X124473078Y-98633077D01*
X124299502Y-98844580D01*
X124191808Y-99046062D01*
X124068785Y-98824745D01*
X123891565Y-98615909D01*
X123677008Y-98445659D01*
X123433360Y-98320539D01*
X123169984Y-98245356D01*
X123161226Y-98243984D01*
X122943000Y-98381964D01*
X122943000Y-100359000D01*
X122963000Y-100359000D01*
X122963000Y-100405000D01*
X122943000Y-100405000D01*
X122943000Y-102382036D01*
X123161226Y-102520016D01*
X123169984Y-102518644D01*
X123433360Y-102443461D01*
X123677008Y-102318341D01*
X123891565Y-102148091D01*
X124068785Y-101939255D01*
X124191808Y-101717939D01*
X124299501Y-101919419D01*
X124473077Y-102130922D01*
X124684580Y-102304499D01*
X124925881Y-102433477D01*
X125187709Y-102512902D01*
X125460000Y-102539720D01*
X125732290Y-102512902D01*
X125994118Y-102433477D01*
X126235419Y-102304499D01*
X126446922Y-102130923D01*
X126620499Y-101919420D01*
X126730000Y-101714557D01*
X126839501Y-101919419D01*
X127013077Y-102130922D01*
X127224580Y-102304499D01*
X127465881Y-102433477D01*
X127513757Y-102448000D01*
X126436935Y-102448000D01*
X126400000Y-102444362D01*
X126363064Y-102448000D01*
X126363062Y-102448000D01*
X126252582Y-102458881D01*
X126110830Y-102501882D01*
X125980190Y-102571710D01*
X125865683Y-102665683D01*
X125842133Y-102694379D01*
X123969380Y-104567132D01*
X123940684Y-104590682D01*
X123897583Y-104643202D01*
X123846711Y-104705189D01*
X123796690Y-104798773D01*
X123776883Y-104835830D01*
X123733882Y-104977582D01*
X123726015Y-105057463D01*
X123719363Y-105124999D01*
X123723001Y-105161935D01*
X123723002Y-109863056D01*
X123719363Y-109900001D01*
X123729949Y-110007480D01*
X123733883Y-110047419D01*
X123741510Y-110072561D01*
X123776883Y-110189170D01*
X123846711Y-110319811D01*
X123917138Y-110405626D01*
X123940685Y-110434318D01*
X123969376Y-110457864D01*
X124365204Y-110853692D01*
X124401762Y-110898238D01*
X124516573Y-110992461D01*
X124647561Y-111062475D01*
X124789690Y-111105590D01*
X124900461Y-111116500D01*
X124920869Y-111116500D01*
X124937499Y-111118138D01*
X124938818Y-111118008D01*
X125025892Y-111224108D01*
X125118367Y-111300000D01*
X125025892Y-111375892D01*
X124917226Y-111508302D01*
X124836480Y-111659368D01*
X124786756Y-111823283D01*
X124769967Y-111993750D01*
X124769967Y-112481250D01*
X124786756Y-112651717D01*
X124836480Y-112815632D01*
X124917226Y-112966698D01*
X125025892Y-113099108D01*
X125158302Y-113207774D01*
X125309368Y-113288520D01*
X125473283Y-113338244D01*
X125643750Y-113355033D01*
X126556250Y-113355033D01*
X126726717Y-113338244D01*
X126890632Y-113288520D01*
X127041698Y-113207774D01*
X127174108Y-113099108D01*
X127262420Y-112991500D01*
X127621589Y-112991500D01*
X127626147Y-113000028D01*
X127704499Y-113095501D01*
X127799972Y-113173853D01*
X127908897Y-113232075D01*
X128027087Y-113267927D01*
X128150000Y-113280033D01*
X129050000Y-113280033D01*
X129172913Y-113267927D01*
X129291103Y-113232075D01*
X129400028Y-113173853D01*
X129495501Y-113095501D01*
X129573853Y-113000028D01*
X129632075Y-112891103D01*
X129667927Y-112772913D01*
X129680033Y-112650000D01*
X129680033Y-112115689D01*
X129704499Y-112145501D01*
X129799972Y-112223853D01*
X129908897Y-112282075D01*
X130027087Y-112317927D01*
X130150000Y-112330033D01*
X130563716Y-112330033D01*
X130978150Y-112744467D01*
X131001762Y-112773238D01*
X131116573Y-112867461D01*
X131247561Y-112937475D01*
X131389690Y-112980590D01*
X131500461Y-112991500D01*
X131500471Y-112991500D01*
X131537499Y-112995147D01*
X131574528Y-112991500D01*
X131937580Y-112991500D01*
X132025892Y-113099108D01*
X132158302Y-113207774D01*
X132309368Y-113288520D01*
X132473283Y-113338244D01*
X132643750Y-113355033D01*
X133556250Y-113355033D01*
X133726717Y-113338244D01*
X133890632Y-113288520D01*
X134041698Y-113207774D01*
X134174108Y-113099108D01*
X134282774Y-112966698D01*
X134363520Y-112815632D01*
X134413244Y-112651717D01*
X134430033Y-112481250D01*
X134430033Y-111993750D01*
X134413244Y-111823283D01*
X134363520Y-111659368D01*
X134282774Y-111508302D01*
X134174108Y-111375892D01*
X134081633Y-111300000D01*
X134174108Y-111224108D01*
X134282774Y-111091698D01*
X134363520Y-110940632D01*
X134389666Y-110854440D01*
X135442100Y-110854440D01*
X135442100Y-111145560D01*
X135498895Y-111431088D01*
X135610302Y-111700048D01*
X135772040Y-111942106D01*
X135977894Y-112147960D01*
X136219952Y-112309698D01*
X136488912Y-112421105D01*
X136774440Y-112477900D01*
X137065560Y-112477900D01*
X137351088Y-112421105D01*
X137620048Y-112309698D01*
X137862106Y-112147960D01*
X138067960Y-111942106D01*
X138229698Y-111700048D01*
X138341105Y-111431088D01*
X138397900Y-111145560D01*
X138397900Y-110854440D01*
X138341105Y-110568912D01*
X138229698Y-110299952D01*
X138067960Y-110057894D01*
X137862106Y-109852040D01*
X137620048Y-109690302D01*
X137351088Y-109578895D01*
X137065560Y-109522100D01*
X136774440Y-109522100D01*
X136488912Y-109578895D01*
X136219952Y-109690302D01*
X135977894Y-109852040D01*
X135772040Y-110057894D01*
X135610302Y-110299952D01*
X135498895Y-110568912D01*
X135442100Y-110854440D01*
X134389666Y-110854440D01*
X134413244Y-110776717D01*
X134430033Y-110606250D01*
X134430033Y-110118750D01*
X134427989Y-110097999D01*
X138023989Y-106502000D01*
X138265516Y-106502000D01*
X138226147Y-106549972D01*
X138167925Y-106658897D01*
X138132073Y-106777087D01*
X138119967Y-106900000D01*
X138119967Y-107600000D01*
X138132073Y-107722913D01*
X138167925Y-107841103D01*
X138226147Y-107950028D01*
X138304499Y-108045501D01*
X138399972Y-108123853D01*
X138448001Y-108149525D01*
X138448000Y-111963064D01*
X138444362Y-112000000D01*
X138448000Y-112036935D01*
X138448000Y-112036937D01*
X138458881Y-112147417D01*
X138482305Y-112224633D01*
X138501882Y-112289169D01*
X138571710Y-112419810D01*
X138609924Y-112466373D01*
X138665683Y-112534317D01*
X138694379Y-112557867D01*
X140235476Y-114098964D01*
X140080423Y-114034739D01*
X139669491Y-113953000D01*
X139250509Y-113953000D01*
X138839577Y-114034739D01*
X138452488Y-114195077D01*
X138104116Y-114427851D01*
X137807851Y-114724116D01*
X137615033Y-115012689D01*
X137615033Y-114830000D01*
X137602927Y-114707087D01*
X137567075Y-114588897D01*
X137508853Y-114479972D01*
X137430501Y-114384499D01*
X137335028Y-114306147D01*
X137226103Y-114247925D01*
X137107913Y-114212073D01*
X136985000Y-114199967D01*
X134435000Y-114199967D01*
X134312087Y-114212073D01*
X134193897Y-114247925D01*
X134084972Y-114306147D01*
X133989499Y-114384499D01*
X133911147Y-114479972D01*
X133852925Y-114588897D01*
X133817073Y-114707087D01*
X133804967Y-114830000D01*
X133804967Y-115068650D01*
X133701151Y-115048000D01*
X133498849Y-115048000D01*
X133300435Y-115087467D01*
X133113533Y-115164885D01*
X132945326Y-115277277D01*
X132802277Y-115420326D01*
X132689885Y-115588533D01*
X132612467Y-115775435D01*
X132573000Y-115973849D01*
X132573000Y-116176151D01*
X132612467Y-116374565D01*
X132689885Y-116561467D01*
X132802277Y-116729674D01*
X132945326Y-116872723D01*
X133113533Y-116985115D01*
X133300435Y-117062533D01*
X133498849Y-117102000D01*
X133701151Y-117102000D01*
X133804967Y-117081350D01*
X133804967Y-117330000D01*
X133817073Y-117452913D01*
X133852925Y-117571103D01*
X133911147Y-117680028D01*
X133989499Y-117775501D01*
X134084972Y-117853853D01*
X134193897Y-117912075D01*
X134312087Y-117947927D01*
X134435000Y-117960033D01*
X136985000Y-117960033D01*
X137107913Y-117947927D01*
X137226103Y-117912075D01*
X137335028Y-117853853D01*
X137430501Y-117775501D01*
X137508853Y-117680028D01*
X137567075Y-117571103D01*
X137602927Y-117452913D01*
X137615033Y-117330000D01*
X137615033Y-117147311D01*
X137807851Y-117435884D01*
X138104116Y-117732149D01*
X138452488Y-117964923D01*
X138839577Y-118125261D01*
X139250509Y-118207000D01*
X139669491Y-118207000D01*
X140080423Y-118125261D01*
X140467512Y-117964923D01*
X140815884Y-117732149D01*
X141112149Y-117435884D01*
X141344923Y-117087512D01*
X141505261Y-116700423D01*
X141587000Y-116289491D01*
X141587000Y-115870509D01*
X141505261Y-115459577D01*
X141441036Y-115304525D01*
X142217137Y-116080626D01*
X142240683Y-116109317D01*
X142269374Y-116132863D01*
X142355189Y-116203290D01*
X142420787Y-116238352D01*
X142485830Y-116273118D01*
X142627582Y-116316119D01*
X142738062Y-116327000D01*
X142738064Y-116327000D01*
X142774999Y-116330638D01*
X142811935Y-116327000D01*
X152163065Y-116327000D01*
X152200000Y-116330638D01*
X152236935Y-116327000D01*
X152236938Y-116327000D01*
X152347418Y-116316119D01*
X152489170Y-116273118D01*
X152619810Y-116203290D01*
X152734317Y-116109317D01*
X152757867Y-116080621D01*
X153980626Y-114857863D01*
X154009317Y-114834317D01*
X154046170Y-114789411D01*
X154103290Y-114719811D01*
X154140613Y-114649983D01*
X154173118Y-114589170D01*
X154216119Y-114447418D01*
X154227000Y-114336938D01*
X154227000Y-114336936D01*
X154230638Y-114300001D01*
X154227000Y-114263065D01*
X154227000Y-110261488D01*
X158891997Y-105596491D01*
X159726391Y-105596491D01*
X159731100Y-105657691D01*
X159734952Y-105718908D01*
X159736528Y-105728228D01*
X159773807Y-105939649D01*
X159790311Y-105998762D01*
X159805982Y-106058072D01*
X159809338Y-106066908D01*
X159886972Y-106267062D01*
X159914651Y-106321858D01*
X159941538Y-106376984D01*
X159946542Y-106384992D01*
X159946545Y-106384998D01*
X159946547Y-106385000D01*
X160061580Y-106566262D01*
X160099360Y-106614618D01*
X160136454Y-106663488D01*
X160142924Y-106670378D01*
X160290973Y-106825845D01*
X160337445Y-106865958D01*
X160383309Y-106906678D01*
X160390994Y-106912181D01*
X160566420Y-107035930D01*
X160619818Y-107066264D01*
X160672693Y-107097286D01*
X160681298Y-107101190D01*
X160681304Y-107101193D01*
X160681310Y-107101195D01*
X160877423Y-107188511D01*
X160935648Y-107207880D01*
X160993597Y-107228060D01*
X161002789Y-107230216D01*
X161002796Y-107230218D01*
X161002803Y-107230219D01*
X161212146Y-107277780D01*
X161273039Y-107285473D01*
X161333781Y-107294010D01*
X161343223Y-107294340D01*
X161343232Y-107294341D01*
X161343241Y-107294340D01*
X161557827Y-107300335D01*
X161619069Y-107296053D01*
X161680306Y-107292629D01*
X161689629Y-107291119D01*
X161689633Y-107291119D01*
X161689636Y-107291118D01*
X161901313Y-107255315D01*
X161960539Y-107239223D01*
X162019954Y-107223968D01*
X162028809Y-107220674D01*
X162028818Y-107220672D01*
X162028826Y-107220668D01*
X162229505Y-107144438D01*
X162284465Y-107117156D01*
X162339802Y-107090643D01*
X162347853Y-107085690D01*
X162529913Y-106971926D01*
X162578543Y-106934476D01*
X162627663Y-106897730D01*
X162634590Y-106891315D01*
X162634597Y-106891310D01*
X162634602Y-106891304D01*
X162791094Y-106744348D01*
X162831535Y-106698153D01*
X162872567Y-106652583D01*
X162878123Y-106644936D01*
X162878126Y-106644933D01*
X162878130Y-106644927D01*
X163003095Y-106470378D01*
X163022301Y-106443576D01*
X163555553Y-105519957D01*
X163569609Y-105488935D01*
X163576747Y-105476572D01*
X163580591Y-105467937D01*
X163666539Y-105271210D01*
X163685498Y-105212861D01*
X163705275Y-105154766D01*
X163707369Y-105145549D01*
X163753469Y-104935874D01*
X163760734Y-104874950D01*
X163768850Y-104814125D01*
X163769114Y-104804676D01*
X163773610Y-104590041D01*
X163768901Y-104528843D01*
X163765049Y-104467623D01*
X163763473Y-104458303D01*
X163726194Y-104246883D01*
X163709688Y-104187765D01*
X163694018Y-104128456D01*
X163690666Y-104119634D01*
X163690663Y-104119622D01*
X163690658Y-104119612D01*
X163613026Y-103919467D01*
X163585356Y-103864690D01*
X163558464Y-103809553D01*
X163553456Y-103801537D01*
X163438423Y-103620274D01*
X163400651Y-103571927D01*
X163363547Y-103523044D01*
X163357083Y-103516162D01*
X163357078Y-103516155D01*
X163357072Y-103516150D01*
X163209028Y-103360687D01*
X163162583Y-103320596D01*
X163116691Y-103279852D01*
X163109005Y-103274350D01*
X162933578Y-103150601D01*
X162880204Y-103120281D01*
X162827307Y-103089246D01*
X162818699Y-103085341D01*
X162818694Y-103085338D01*
X162818687Y-103085336D01*
X162622577Y-102998021D01*
X162564354Y-102978652D01*
X162506404Y-102958472D01*
X162497215Y-102956317D01*
X162497205Y-102956314D01*
X162497196Y-102956313D01*
X162287854Y-102908752D01*
X162226961Y-102901059D01*
X162166219Y-102892522D01*
X162156777Y-102892192D01*
X162156768Y-102892191D01*
X162156759Y-102892192D01*
X161942173Y-102886197D01*
X161880927Y-102890479D01*
X161819695Y-102893903D01*
X161810373Y-102895413D01*
X161810367Y-102895413D01*
X161810362Y-102895414D01*
X161598687Y-102931217D01*
X161539439Y-102947314D01*
X161480045Y-102962564D01*
X161471197Y-102965855D01*
X161471182Y-102965859D01*
X161471169Y-102965865D01*
X161270495Y-103042094D01*
X161215549Y-103069369D01*
X161160197Y-103095889D01*
X161152146Y-103100842D01*
X160970085Y-103214606D01*
X160921430Y-103252075D01*
X160872334Y-103288804D01*
X160865410Y-103295216D01*
X160865402Y-103295222D01*
X160865396Y-103295229D01*
X160708903Y-103442187D01*
X160668474Y-103488369D01*
X160627432Y-103533950D01*
X160621878Y-103541594D01*
X160621872Y-103541601D01*
X160621867Y-103541609D01*
X160496904Y-103716155D01*
X160496891Y-103716177D01*
X160477701Y-103742957D01*
X159944448Y-104666576D01*
X159930391Y-104697600D01*
X159923254Y-104709962D01*
X159919409Y-104718597D01*
X159833462Y-104915323D01*
X159814500Y-104973680D01*
X159794726Y-105031766D01*
X159792634Y-105040974D01*
X159792631Y-105040984D01*
X159792630Y-105040994D01*
X159746532Y-105250658D01*
X159739267Y-105311582D01*
X159731151Y-105372407D01*
X159730887Y-105381856D01*
X159726391Y-105596491D01*
X158891997Y-105596491D01*
X159980626Y-104507863D01*
X160009317Y-104484317D01*
X160047420Y-104437888D01*
X160103290Y-104369811D01*
X160158641Y-104266255D01*
X160173118Y-104239170D01*
X160216119Y-104097418D01*
X160227000Y-103986938D01*
X160227000Y-103986936D01*
X160230638Y-103950001D01*
X160227000Y-103913065D01*
X160227000Y-102274435D01*
X160230638Y-102237500D01*
X160226942Y-102199972D01*
X160216119Y-102090082D01*
X160173118Y-101948330D01*
X160103290Y-101817690D01*
X160009317Y-101703183D01*
X159980627Y-101679638D01*
X159627989Y-101327001D01*
X159630033Y-101306250D01*
X159630033Y-100818750D01*
X159613244Y-100648283D01*
X159563520Y-100484368D01*
X159482774Y-100333302D01*
X159374108Y-100200892D01*
X159241698Y-100092226D01*
X159090632Y-100011480D01*
X158926717Y-99961756D01*
X158756250Y-99944967D01*
X157843750Y-99944967D01*
X157673283Y-99961756D01*
X157509368Y-100011480D01*
X157358302Y-100092226D01*
X157225892Y-100200892D01*
X157117226Y-100333302D01*
X157036480Y-100484368D01*
X156986756Y-100648283D01*
X156969967Y-100818750D01*
X156969967Y-101306250D01*
X156986756Y-101476717D01*
X157036480Y-101640632D01*
X157117226Y-101791698D01*
X157225892Y-101924108D01*
X157318367Y-102000000D01*
X157225892Y-102075892D01*
X157137580Y-102183500D01*
X157049817Y-102183500D01*
X156880033Y-102013716D01*
X156880033Y-101600000D01*
X156867927Y-101477087D01*
X156832075Y-101358897D01*
X156773853Y-101249972D01*
X156695501Y-101154499D01*
X156600028Y-101076147D01*
X156491103Y-101017925D01*
X156372913Y-100982073D01*
X156250000Y-100969967D01*
X155350000Y-100969967D01*
X155227087Y-100982073D01*
X155108897Y-101017925D01*
X154999972Y-101076147D01*
X154904499Y-101154499D01*
X154860889Y-101207639D01*
X154726250Y-101073000D01*
X153823000Y-101073000D01*
X153823000Y-101093000D01*
X153777000Y-101093000D01*
X153777000Y-101073000D01*
X152873750Y-101073000D01*
X152715000Y-101231750D01*
X152711928Y-101450000D01*
X152724188Y-101574482D01*
X152760498Y-101694180D01*
X152819463Y-101804494D01*
X152898815Y-101901185D01*
X152995506Y-101980537D01*
X153040404Y-102004536D01*
X152999972Y-102026147D01*
X152904499Y-102104499D01*
X152829407Y-102196000D01*
X152472678Y-102196000D01*
X152374108Y-102075892D01*
X152281633Y-102000000D01*
X152374108Y-101924108D01*
X152482774Y-101791698D01*
X152563520Y-101640632D01*
X152613244Y-101476717D01*
X152630033Y-101306250D01*
X152630033Y-100818750D01*
X152613414Y-100650000D01*
X152711928Y-100650000D01*
X152715000Y-100868250D01*
X152873750Y-101027000D01*
X153777000Y-101027000D01*
X153777000Y-100173750D01*
X153823000Y-100173750D01*
X153823000Y-101027000D01*
X154726250Y-101027000D01*
X154885000Y-100868250D01*
X154888072Y-100650000D01*
X154875812Y-100525518D01*
X154839502Y-100405820D01*
X154780537Y-100295506D01*
X154701185Y-100198815D01*
X154604494Y-100119463D01*
X154494180Y-100060498D01*
X154374482Y-100024188D01*
X154250000Y-100011928D01*
X153981750Y-100015000D01*
X153823000Y-100173750D01*
X153777000Y-100173750D01*
X153618250Y-100015000D01*
X153350000Y-100011928D01*
X153225518Y-100024188D01*
X153105820Y-100060498D01*
X152995506Y-100119463D01*
X152898815Y-100198815D01*
X152819463Y-100295506D01*
X152760498Y-100405820D01*
X152724188Y-100525518D01*
X152711928Y-100650000D01*
X152613414Y-100650000D01*
X152613244Y-100648283D01*
X152563520Y-100484368D01*
X152482774Y-100333302D01*
X152374108Y-100200892D01*
X152241698Y-100092226D01*
X152090632Y-100011480D01*
X151926717Y-99961756D01*
X151756250Y-99944967D01*
X150843750Y-99944967D01*
X150673283Y-99961756D01*
X150509368Y-100011480D01*
X150358302Y-100092226D01*
X150225892Y-100200892D01*
X150135939Y-100310500D01*
X145029453Y-100310500D01*
X145012533Y-100225435D01*
X144935115Y-100038533D01*
X144822723Y-99870326D01*
X144679674Y-99727277D01*
X144511467Y-99614885D01*
X144324565Y-99537467D01*
X144126151Y-99498000D01*
X143923849Y-99498000D01*
X143725435Y-99537467D01*
X143538533Y-99614885D01*
X143370326Y-99727277D01*
X143227277Y-99870326D01*
X143114885Y-100038533D01*
X143037467Y-100225435D01*
X142998000Y-100423849D01*
X142998000Y-100626151D01*
X143030673Y-100790408D01*
X141218818Y-98978553D01*
X141301099Y-99022302D01*
X141357829Y-99045685D01*
X141414226Y-99069856D01*
X141423250Y-99072649D01*
X141423257Y-99072652D01*
X141423264Y-99072653D01*
X141610092Y-99129060D01*
X141670287Y-99140980D01*
X141730301Y-99153736D01*
X141739693Y-99154723D01*
X141739703Y-99154725D01*
X141739712Y-99154725D01*
X141933935Y-99173769D01*
X141933942Y-99173769D01*
X141966748Y-99177000D01*
X148033252Y-99177000D01*
X148062217Y-99174147D01*
X148068342Y-99174190D01*
X148077749Y-99173267D01*
X148271846Y-99152866D01*
X148331930Y-99140532D01*
X148392223Y-99129031D01*
X148401272Y-99126299D01*
X148587710Y-99068587D01*
X148644308Y-99044795D01*
X148701167Y-99021823D01*
X148709508Y-99017388D01*
X148709513Y-99017386D01*
X148709517Y-99017383D01*
X148881189Y-98924561D01*
X148932070Y-98890242D01*
X148983405Y-98856649D01*
X148990730Y-98850675D01*
X149141108Y-98726271D01*
X149184347Y-98682728D01*
X149228183Y-98639801D01*
X149234208Y-98632518D01*
X149357558Y-98481276D01*
X149391510Y-98430174D01*
X149426181Y-98379538D01*
X149430677Y-98371224D01*
X149522302Y-98198901D01*
X149545685Y-98142171D01*
X149569856Y-98085774D01*
X149572651Y-98076745D01*
X149572652Y-98076743D01*
X149572653Y-98076736D01*
X149629060Y-97889908D01*
X149640980Y-97829713D01*
X149653736Y-97769699D01*
X149654723Y-97760307D01*
X149654725Y-97760297D01*
X149654725Y-97760288D01*
X149673769Y-97566065D01*
X149673769Y-97566058D01*
X149677000Y-97533252D01*
X149677000Y-94466748D01*
X149674146Y-94437774D01*
X149674189Y-94431658D01*
X149673267Y-94422251D01*
X149652866Y-94228154D01*
X149640531Y-94168064D01*
X149629031Y-94107777D01*
X149626299Y-94098728D01*
X149568587Y-93912290D01*
X149544795Y-93855692D01*
X149521823Y-93798833D01*
X149517386Y-93790487D01*
X149424561Y-93618811D01*
X149390228Y-93567911D01*
X149356648Y-93516595D01*
X149350682Y-93509279D01*
X149350676Y-93509271D01*
X149350669Y-93509264D01*
X149226271Y-93358892D01*
X149182712Y-93315636D01*
X149139801Y-93271817D01*
X149132524Y-93265797D01*
X149132517Y-93265790D01*
X149132509Y-93265785D01*
X148981276Y-93142442D01*
X148930192Y-93108502D01*
X148879539Y-93073819D01*
X148871224Y-93069323D01*
X148698902Y-92977698D01*
X148642146Y-92954305D01*
X148585774Y-92930144D01*
X148576754Y-92927352D01*
X148576744Y-92927348D01*
X148576734Y-92927346D01*
X148389908Y-92870940D01*
X148329730Y-92859024D01*
X148269698Y-92846264D01*
X148260298Y-92845276D01*
X148066064Y-92826231D01*
X148066058Y-92826231D01*
X148033252Y-92823000D01*
X141966748Y-92823000D01*
X141937783Y-92825853D01*
X141931658Y-92825810D01*
X141922251Y-92826732D01*
X141728154Y-92847133D01*
X141668064Y-92859468D01*
X141607777Y-92870968D01*
X141598728Y-92873700D01*
X141412290Y-92931412D01*
X141355691Y-92955204D01*
X141298831Y-92978177D01*
X141290495Y-92982609D01*
X141290487Y-92982613D01*
X141290480Y-92982618D01*
X141118808Y-93075441D01*
X141067971Y-93109731D01*
X141016597Y-93143349D01*
X141009272Y-93149323D01*
X140858894Y-93273727D01*
X140815655Y-93317268D01*
X140771817Y-93360198D01*
X140765797Y-93367475D01*
X140765792Y-93367480D01*
X140765791Y-93367482D01*
X140642441Y-93518724D01*
X140608480Y-93569839D01*
X140573819Y-93620460D01*
X140569327Y-93628767D01*
X140569322Y-93628775D01*
X140569319Y-93628783D01*
X140477698Y-93801096D01*
X140454307Y-93857846D01*
X140430143Y-93914225D01*
X140427352Y-93923241D01*
X140427347Y-93923254D01*
X140427345Y-93923267D01*
X140370939Y-94110091D01*
X140359023Y-94170269D01*
X140346263Y-94230301D01*
X140345275Y-94239702D01*
X140326230Y-94433936D01*
X140326230Y-94433963D01*
X140323001Y-94466748D01*
X140323000Y-97533251D01*
X140325853Y-97562216D01*
X140325810Y-97568342D01*
X140326733Y-97577749D01*
X140347134Y-97771846D01*
X140359468Y-97831930D01*
X140370969Y-97892223D01*
X140373701Y-97901272D01*
X140431413Y-98087710D01*
X140455205Y-98144308D01*
X140478177Y-98201167D01*
X140482612Y-98209508D01*
X140482614Y-98209513D01*
X140482615Y-98209514D01*
X140521270Y-98281005D01*
X135900594Y-93660329D01*
X135873133Y-93626867D01*
X135739592Y-93517273D01*
X135587237Y-93435838D01*
X135421922Y-93385690D01*
X135403494Y-93383875D01*
X135250000Y-93368757D01*
X135206921Y-93373000D01*
X127767265Y-93373000D01*
X132240866Y-88899399D01*
X140774668Y-88899399D01*
X140774668Y-91693399D01*
X140786774Y-91816312D01*
X140822626Y-91934502D01*
X140880848Y-92043427D01*
X140959200Y-92138900D01*
X141054673Y-92217252D01*
X141163598Y-92275474D01*
X141281788Y-92311326D01*
X141404701Y-92323432D01*
X142395301Y-92323432D01*
X142518214Y-92311326D01*
X142636404Y-92275474D01*
X142745329Y-92217252D01*
X142840802Y-92138900D01*
X142919154Y-92043427D01*
X142977376Y-91934502D01*
X143013228Y-91816312D01*
X143025334Y-91693399D01*
X143025334Y-88899399D01*
X143013228Y-88776486D01*
X142977376Y-88658296D01*
X142919154Y-88549371D01*
X142840802Y-88453898D01*
X142745329Y-88375546D01*
X142636404Y-88317324D01*
X142518214Y-88281472D01*
X142395301Y-88269366D01*
X141404701Y-88269366D01*
X141281788Y-88281472D01*
X141163598Y-88317324D01*
X141054673Y-88375546D01*
X140959200Y-88453898D01*
X140880848Y-88549371D01*
X140822626Y-88658296D01*
X140786774Y-88776486D01*
X140774668Y-88899399D01*
X132240866Y-88899399D01*
X132263266Y-88877000D01*
X138556921Y-88877000D01*
X138600000Y-88881243D01*
X138643079Y-88877000D01*
X138763201Y-88865169D01*
X138771922Y-88864310D01*
X138796936Y-88856722D01*
X138937237Y-88814162D01*
X139089592Y-88732727D01*
X139223133Y-88623133D01*
X139250597Y-88589668D01*
X141816866Y-86023399D01*
X142067737Y-86023399D01*
X142077272Y-86120212D01*
X142113124Y-86238402D01*
X142171346Y-86347327D01*
X142249698Y-86442800D01*
X142345171Y-86521152D01*
X142454096Y-86579374D01*
X142572286Y-86615226D01*
X142695199Y-86627332D01*
X143304799Y-86627332D01*
X143427712Y-86615226D01*
X143486218Y-86597479D01*
X143570717Y-86623111D01*
X143695199Y-86635371D01*
X143818249Y-86632299D01*
X143976999Y-86473549D01*
X143976999Y-85169399D01*
X143956999Y-85169399D01*
X143956999Y-85123399D01*
X143976999Y-85123399D01*
X143976999Y-83819249D01*
X143818249Y-83660499D01*
X143695199Y-83657427D01*
X143570717Y-83669687D01*
X143486218Y-83695319D01*
X143427712Y-83677572D01*
X143304799Y-83665466D01*
X142695199Y-83665466D01*
X142572286Y-83677572D01*
X142454096Y-83713424D01*
X142345171Y-83771646D01*
X142249698Y-83849998D01*
X142171346Y-83945471D01*
X142113124Y-84054396D01*
X142077272Y-84172586D01*
X142067737Y-84269399D01*
X141496670Y-84269399D01*
X141453600Y-84265157D01*
X141410531Y-84269399D01*
X141410522Y-84269399D01*
X141281679Y-84282089D01*
X141116364Y-84332237D01*
X140964009Y-84413672D01*
X140830468Y-84523266D01*
X140803004Y-84556731D01*
X138236735Y-87123000D01*
X131943079Y-87123000D01*
X131900000Y-87118757D01*
X131728077Y-87135690D01*
X131612880Y-87170635D01*
X131562763Y-87185838D01*
X131410408Y-87267273D01*
X131410406Y-87267274D01*
X131410407Y-87267274D01*
X131323614Y-87338503D01*
X131276867Y-87376867D01*
X131249408Y-87410326D01*
X125450000Y-93209735D01*
X119877000Y-87636735D01*
X119877000Y-85663030D01*
X119889061Y-85669477D01*
X120150889Y-85748902D01*
X120423180Y-85775720D01*
X120695470Y-85748902D01*
X120957298Y-85669477D01*
X121198599Y-85540499D01*
X121410102Y-85366923D01*
X121583679Y-85155420D01*
X121693180Y-84950557D01*
X121802681Y-85155419D01*
X121976257Y-85366922D01*
X122187760Y-85540499D01*
X122429061Y-85669477D01*
X122690889Y-85748902D01*
X122963180Y-85775720D01*
X123235470Y-85748902D01*
X123497298Y-85669477D01*
X123738599Y-85540499D01*
X123950102Y-85366923D01*
X124123679Y-85155420D01*
X124233180Y-84950557D01*
X124342681Y-85155419D01*
X124516257Y-85366922D01*
X124727760Y-85540499D01*
X124969061Y-85669477D01*
X125230889Y-85748902D01*
X125503180Y-85775720D01*
X125775470Y-85748902D01*
X126037298Y-85669477D01*
X126278599Y-85540499D01*
X126490102Y-85366923D01*
X126663679Y-85155420D01*
X126751590Y-84990949D01*
X126839501Y-85155419D01*
X127013077Y-85366922D01*
X127224580Y-85540499D01*
X127465881Y-85669477D01*
X127727709Y-85748902D01*
X128000000Y-85775720D01*
X128272290Y-85748902D01*
X128534118Y-85669477D01*
X128775419Y-85540499D01*
X128986922Y-85366923D01*
X129160499Y-85155420D01*
X129270000Y-84950557D01*
X129379501Y-85155419D01*
X129553077Y-85366922D01*
X129764580Y-85540499D01*
X130005881Y-85669477D01*
X130267709Y-85748902D01*
X130540000Y-85775720D01*
X130812290Y-85748902D01*
X131074118Y-85669477D01*
X131315419Y-85540499D01*
X131526922Y-85366923D01*
X131700499Y-85155420D01*
X131829477Y-84914119D01*
X131831590Y-84907153D01*
X131833703Y-84914118D01*
X131962681Y-85155419D01*
X132136257Y-85366922D01*
X132347760Y-85540499D01*
X132589061Y-85669477D01*
X132850889Y-85748902D01*
X133123180Y-85775720D01*
X133395470Y-85748902D01*
X133657298Y-85669477D01*
X133898599Y-85540499D01*
X134110102Y-85366923D01*
X134283679Y-85155420D01*
X134393180Y-84950557D01*
X134502681Y-85155419D01*
X134676257Y-85366922D01*
X134887760Y-85540499D01*
X135129061Y-85669477D01*
X135390889Y-85748902D01*
X135663180Y-85775720D01*
X135935470Y-85748902D01*
X136197298Y-85669477D01*
X136438599Y-85540499D01*
X136650102Y-85366923D01*
X136823679Y-85155420D01*
X136952657Y-84914119D01*
X137032082Y-84652291D01*
X137052180Y-84448230D01*
X137052180Y-82787770D01*
X137032082Y-82583709D01*
X136952657Y-82321881D01*
X136823679Y-82080580D01*
X136650103Y-81869077D01*
X136438600Y-81695501D01*
X136197299Y-81566523D01*
X135935471Y-81487098D01*
X135663180Y-81460280D01*
X135390890Y-81487098D01*
X135129062Y-81566523D01*
X134887761Y-81695501D01*
X134676258Y-81869077D01*
X134502682Y-82080580D01*
X134393181Y-82285443D01*
X134283679Y-82080580D01*
X134110103Y-81869077D01*
X133898600Y-81695501D01*
X133880494Y-81685823D01*
X134112317Y-81454000D01*
X138462969Y-81454000D01*
X138500000Y-81457647D01*
X138537031Y-81454000D01*
X138537039Y-81454000D01*
X138647810Y-81443090D01*
X138789939Y-81399975D01*
X138920927Y-81329961D01*
X138999314Y-81265630D01*
X140040650Y-82306967D01*
X140064262Y-82335738D01*
X140093032Y-82359349D01*
X140179073Y-82429961D01*
X140310060Y-82499975D01*
X140452190Y-82543090D01*
X140600000Y-82557648D01*
X140637039Y-82554000D01*
X143337684Y-82554000D01*
X144246000Y-83462317D01*
X144246000Y-83658895D01*
X144181749Y-83660499D01*
X144022999Y-83819249D01*
X144022999Y-85123399D01*
X144042999Y-85123399D01*
X144042999Y-85169399D01*
X144022999Y-85169399D01*
X144022999Y-86473549D01*
X144181749Y-86632299D01*
X144304799Y-86635371D01*
X144348063Y-86631110D01*
X144370039Y-86672225D01*
X144464262Y-86787037D01*
X144493037Y-86810652D01*
X146039351Y-88356967D01*
X146062963Y-88385738D01*
X146091733Y-88409349D01*
X146177774Y-88479961D01*
X146308762Y-88549975D01*
X146450891Y-88593090D01*
X146598701Y-88607648D01*
X146635740Y-88604000D01*
X147051646Y-88604000D01*
X147022624Y-88658296D01*
X146986772Y-88776486D01*
X146974666Y-88899399D01*
X146974666Y-91693399D01*
X146986772Y-91816312D01*
X147022624Y-91934502D01*
X147080846Y-92043427D01*
X147159198Y-92138900D01*
X147254671Y-92217252D01*
X147363596Y-92275474D01*
X147481786Y-92311326D01*
X147604699Y-92323432D01*
X148595299Y-92323432D01*
X148718212Y-92311326D01*
X148836402Y-92275474D01*
X148945327Y-92217252D01*
X149040800Y-92138900D01*
X149119152Y-92043427D01*
X149177374Y-91934502D01*
X149213226Y-91816312D01*
X149225332Y-91693399D01*
X149225332Y-89391648D01*
X161440651Y-101606968D01*
X161464262Y-101635738D01*
X161493032Y-101659349D01*
X161579073Y-101729961D01*
X161710060Y-101799975D01*
X161852190Y-101843090D01*
X162000000Y-101857648D01*
X162037039Y-101854000D01*
X170762969Y-101854000D01*
X170800000Y-101857647D01*
X170837031Y-101854000D01*
X170837039Y-101854000D01*
X170947810Y-101843090D01*
X171089939Y-101799975D01*
X171220927Y-101729961D01*
X171335738Y-101635738D01*
X171359353Y-101606963D01*
X173006974Y-99959344D01*
X173035738Y-99935738D01*
X173059344Y-99906974D01*
X173059349Y-99906969D01*
X173129961Y-99820927D01*
X173157523Y-99769362D01*
X173199975Y-99689939D01*
X173243090Y-99547810D01*
X173254000Y-99437039D01*
X173254000Y-99437029D01*
X173257647Y-99400001D01*
X173254000Y-99362972D01*
X173254000Y-96237028D01*
X173257647Y-96199999D01*
X173254000Y-96162971D01*
X173254000Y-96162961D01*
X173243090Y-96052190D01*
X173199975Y-95910061D01*
X173129961Y-95779073D01*
X173035738Y-95664262D01*
X173006969Y-95640652D01*
X172627000Y-95260683D01*
X172627000Y-95198849D01*
X172587533Y-95000435D01*
X172510115Y-94813533D01*
X172397723Y-94645326D01*
X172254674Y-94502277D01*
X172086467Y-94389885D01*
X171899565Y-94312467D01*
X171701151Y-94273000D01*
X171498849Y-94273000D01*
X171300435Y-94312467D01*
X171113533Y-94389885D01*
X170945326Y-94502277D01*
X170802277Y-94645326D01*
X170689885Y-94813533D01*
X170612467Y-95000435D01*
X170573000Y-95198849D01*
X170573000Y-95401151D01*
X170612467Y-95599565D01*
X170689885Y-95786467D01*
X170798533Y-95949070D01*
X170702277Y-96045326D01*
X170589885Y-96213533D01*
X170512467Y-96400435D01*
X170473000Y-96598849D01*
X170473000Y-96801151D01*
X170512467Y-96999565D01*
X170589885Y-97186467D01*
X170702277Y-97354674D01*
X170746000Y-97398397D01*
X170746001Y-99187682D01*
X170187684Y-99746000D01*
X162562317Y-99746000D01*
X160847283Y-98030967D01*
X160977000Y-97901250D01*
X160977000Y-96960500D01*
X161023000Y-96960500D01*
X161023000Y-97901250D01*
X161181750Y-98060000D01*
X161700000Y-98063072D01*
X161824482Y-98050812D01*
X161944180Y-98014502D01*
X162054494Y-97955537D01*
X162151185Y-97876185D01*
X162230537Y-97779494D01*
X162289502Y-97669180D01*
X162325812Y-97549482D01*
X162338072Y-97425000D01*
X162335000Y-97119250D01*
X162176250Y-96960500D01*
X161023000Y-96960500D01*
X160977000Y-96960500D01*
X160957000Y-96960500D01*
X160957000Y-96914500D01*
X160977000Y-96914500D01*
X160977000Y-96894500D01*
X161023000Y-96894500D01*
X161023000Y-96914500D01*
X162176250Y-96914500D01*
X162335000Y-96755750D01*
X162338072Y-96450000D01*
X162325812Y-96325518D01*
X162289502Y-96205820D01*
X162230537Y-96095506D01*
X162151185Y-95998815D01*
X162067131Y-95929834D01*
X162074108Y-95924108D01*
X162182774Y-95791698D01*
X162230764Y-95701914D01*
X162250603Y-95685633D01*
X162278067Y-95652168D01*
X162836073Y-95094162D01*
X162894535Y-95082533D01*
X163081437Y-95005115D01*
X163249644Y-94892723D01*
X163392693Y-94749674D01*
X163505085Y-94581467D01*
X163582503Y-94394565D01*
X163621970Y-94196151D01*
X163621970Y-93993849D01*
X163582503Y-93795435D01*
X163505085Y-93608533D01*
X163392693Y-93440326D01*
X163249644Y-93297277D01*
X163081437Y-93184885D01*
X162894535Y-93107467D01*
X162836073Y-93095838D01*
X157877000Y-88136765D01*
X157877000Y-86418828D01*
X159725319Y-86418828D01*
X159725583Y-86428277D01*
X159733075Y-86642829D01*
X159741189Y-86703642D01*
X159748456Y-86764580D01*
X159750550Y-86773797D01*
X159799573Y-86982807D01*
X159819353Y-87040909D01*
X159838308Y-87099249D01*
X159842153Y-87107884D01*
X159930839Y-87303392D01*
X159930847Y-87303405D01*
X159944448Y-87333424D01*
X160477701Y-88257043D01*
X160497534Y-88284719D01*
X160504677Y-88297092D01*
X160510233Y-88304739D01*
X160637630Y-88477535D01*
X160678679Y-88523124D01*
X160719103Y-88569300D01*
X160726038Y-88575723D01*
X160884571Y-88720483D01*
X160933693Y-88757231D01*
X160982320Y-88794679D01*
X160990370Y-88799631D01*
X161174002Y-88910843D01*
X161229352Y-88937362D01*
X161284299Y-88964638D01*
X161293158Y-88967933D01*
X161494894Y-89041359D01*
X161554351Y-89056625D01*
X161613541Y-89072707D01*
X161622867Y-89074217D01*
X161622870Y-89074218D01*
X161622873Y-89074218D01*
X161835026Y-89107061D01*
X161896343Y-89110489D01*
X161957500Y-89114766D01*
X161966937Y-89114436D01*
X161966948Y-89114437D01*
X161966959Y-89114436D01*
X162181441Y-89105446D01*
X162242204Y-89096907D01*
X162303081Y-89089216D01*
X162312274Y-89087059D01*
X162312282Y-89087058D01*
X162312289Y-89087056D01*
X162520946Y-89036576D01*
X162578914Y-89016389D01*
X162637114Y-88997029D01*
X162645715Y-88993127D01*
X162645724Y-88993124D01*
X162645731Y-88993120D01*
X162840606Y-88903075D01*
X162893542Y-88872018D01*
X162946881Y-88841717D01*
X162954562Y-88836218D01*
X162954568Y-88836215D01*
X162954573Y-88836211D01*
X163128249Y-88710028D01*
X163174129Y-88669294D01*
X163220584Y-88629195D01*
X163227048Y-88622310D01*
X163227054Y-88622305D01*
X163227058Y-88622299D01*
X163372918Y-88464786D01*
X163410024Y-88415901D01*
X163447794Y-88367557D01*
X163452799Y-88359547D01*
X163452803Y-88359542D01*
X163452805Y-88359537D01*
X163565293Y-88176690D01*
X163592200Y-88121524D01*
X163619856Y-88066773D01*
X163623211Y-88057941D01*
X163623214Y-88057935D01*
X163623216Y-88057929D01*
X163698045Y-87856720D01*
X163713729Y-87797360D01*
X163730220Y-87738296D01*
X163731794Y-87728987D01*
X163731797Y-87728976D01*
X163731798Y-87728966D01*
X163766120Y-87517055D01*
X163769975Y-87455786D01*
X163774680Y-87394635D01*
X163774417Y-87385186D01*
X163766924Y-87170635D01*
X163758802Y-87109764D01*
X163751543Y-87048887D01*
X163749449Y-87039670D01*
X163700426Y-86830660D01*
X163680649Y-86772566D01*
X163661691Y-86714219D01*
X163657850Y-86705594D01*
X163657846Y-86705581D01*
X163657840Y-86705570D01*
X163569611Y-86511070D01*
X163555553Y-86480043D01*
X163022301Y-85556424D01*
X163002465Y-85528743D01*
X162995325Y-85516376D01*
X162989769Y-85508729D01*
X162862372Y-85335932D01*
X162821302Y-85290319D01*
X162780898Y-85244166D01*
X162773967Y-85237748D01*
X162773962Y-85237742D01*
X162773956Y-85237737D01*
X162615430Y-85092982D01*
X162566265Y-85056202D01*
X162517680Y-85018787D01*
X162509636Y-85013837D01*
X162509631Y-85013834D01*
X162509626Y-85013832D01*
X162325997Y-84902623D01*
X162270664Y-84876112D01*
X162215702Y-84848828D01*
X162206848Y-84845536D01*
X162206840Y-84845532D01*
X162206832Y-84845530D01*
X162005108Y-84772108D01*
X161945669Y-84756846D01*
X161886460Y-84740759D01*
X161877137Y-84739249D01*
X161877132Y-84739248D01*
X161877127Y-84739248D01*
X161664974Y-84706405D01*
X161603658Y-84702977D01*
X161542500Y-84698700D01*
X161533064Y-84699030D01*
X161533053Y-84699029D01*
X161533042Y-84699030D01*
X161318560Y-84708020D01*
X161257783Y-84716561D01*
X161196921Y-84724250D01*
X161187720Y-84726408D01*
X161187718Y-84726408D01*
X161187716Y-84726409D01*
X160979055Y-84776889D01*
X160921074Y-84797081D01*
X160862886Y-84816437D01*
X160854278Y-84820341D01*
X160659394Y-84910391D01*
X160606487Y-84941431D01*
X160553119Y-84971748D01*
X160545438Y-84977248D01*
X160545432Y-84977251D01*
X160545427Y-84977255D01*
X160371751Y-85103438D01*
X160325849Y-85144191D01*
X160279416Y-85184271D01*
X160272951Y-85191155D01*
X160272946Y-85191160D01*
X160272942Y-85191165D01*
X160127082Y-85348681D01*
X160089990Y-85397547D01*
X160052206Y-85445909D01*
X160047201Y-85453919D01*
X160047197Y-85453924D01*
X160047197Y-85453925D01*
X159934707Y-85636776D01*
X159907807Y-85691929D01*
X159880145Y-85746691D01*
X159876788Y-85755528D01*
X159876786Y-85755532D01*
X159876785Y-85755537D01*
X159801955Y-85956746D01*
X159786285Y-86016055D01*
X159769779Y-86075173D01*
X159768204Y-86084485D01*
X159768203Y-86084490D01*
X159768203Y-86084493D01*
X159733879Y-86296413D01*
X159730026Y-86357655D01*
X159725319Y-86418828D01*
X157877000Y-86418828D01*
X157877000Y-83543069D01*
X157881242Y-83499999D01*
X157877000Y-83456930D01*
X157877000Y-83456921D01*
X157864310Y-83328078D01*
X157814162Y-83162763D01*
X157732727Y-83010408D01*
X157623133Y-82876867D01*
X157589669Y-82849404D01*
X149650597Y-74910332D01*
X149623133Y-74876867D01*
X149489592Y-74767273D01*
X149337237Y-74685838D01*
X149171922Y-74635690D01*
X149097957Y-74628405D01*
X149000000Y-74618757D01*
X148956921Y-74623000D01*
X148043079Y-74623000D01*
X148000000Y-74618757D01*
X147956921Y-74623000D01*
X145043079Y-74623000D01*
X145000000Y-74618757D01*
X144956921Y-74623000D01*
X142043079Y-74623000D01*
X142000000Y-74618757D01*
X141956921Y-74623000D01*
X139043079Y-74623000D01*
X139000000Y-74618757D01*
X138956921Y-74623000D01*
X130543079Y-74623000D01*
X130500000Y-74618757D01*
X130328077Y-74635690D01*
X130190836Y-74677322D01*
X130162763Y-74685838D01*
X130010408Y-74767273D01*
X129876867Y-74876867D01*
X129849403Y-74910332D01*
X124936735Y-79823000D01*
X122397036Y-79823000D01*
X123116295Y-79679930D01*
X123812764Y-79391443D01*
X124439570Y-78972625D01*
X124972625Y-78439570D01*
X125391443Y-77812764D01*
X125679930Y-77116295D01*
X125827000Y-76376927D01*
X125827000Y-75623073D01*
X125679930Y-74883705D01*
X125391443Y-74187236D01*
X124972625Y-73560430D01*
X124439570Y-73027375D01*
X124221275Y-72881515D01*
X156797000Y-72881515D01*
X156797000Y-73118485D01*
X156843230Y-73350902D01*
X156933915Y-73569834D01*
X157065569Y-73766868D01*
X157233132Y-73934431D01*
X157430166Y-74066085D01*
X157649098Y-74156770D01*
X157881515Y-74203000D01*
X158118485Y-74203000D01*
X158350902Y-74156770D01*
X158569834Y-74066085D01*
X158766868Y-73934431D01*
X158798836Y-73902463D01*
X158608557Y-74187236D01*
X158320070Y-74883705D01*
X158173000Y-75623073D01*
X158173000Y-76376927D01*
X158320070Y-77116295D01*
X158608557Y-77812764D01*
X159027375Y-78439570D01*
X159560430Y-78972625D01*
X160187236Y-79391443D01*
X160883705Y-79679930D01*
X161623073Y-79827000D01*
X162376927Y-79827000D01*
X163116295Y-79679930D01*
X163812764Y-79391443D01*
X164439570Y-78972625D01*
X164972625Y-78439570D01*
X165391443Y-77812764D01*
X165679930Y-77116295D01*
X165827000Y-76376927D01*
X165827000Y-75623073D01*
X165679930Y-74883705D01*
X165391443Y-74187236D01*
X164972625Y-73560430D01*
X164439570Y-73027375D01*
X163812764Y-72608557D01*
X163116295Y-72320070D01*
X162376927Y-72173000D01*
X161623073Y-72173000D01*
X160883705Y-72320070D01*
X160187236Y-72608557D01*
X159560430Y-73027375D01*
X159100107Y-73487698D01*
X159156770Y-73350902D01*
X159203000Y-73118485D01*
X159203000Y-72881515D01*
X159156770Y-72649098D01*
X159066085Y-72430166D01*
X158934431Y-72233132D01*
X158766868Y-72065569D01*
X158569834Y-71933915D01*
X158350902Y-71843230D01*
X158118485Y-71797000D01*
X157881515Y-71797000D01*
X157649098Y-71843230D01*
X157430166Y-71933915D01*
X157233132Y-72065569D01*
X157065569Y-72233132D01*
X156933915Y-72430166D01*
X156843230Y-72649098D01*
X156797000Y-72881515D01*
X124221275Y-72881515D01*
X123812764Y-72608557D01*
X123116295Y-72320070D01*
X122376927Y-72173000D01*
X121623073Y-72173000D01*
X120883705Y-72320070D01*
X120187236Y-72608557D01*
X119560430Y-73027375D01*
X119027375Y-73560430D01*
X118608557Y-74187236D01*
X118320070Y-74883705D01*
X118173000Y-75623073D01*
X118173000Y-76376927D01*
X118320070Y-77116295D01*
X118608557Y-77812764D01*
X119027375Y-78439570D01*
X119560430Y-78972625D01*
X120187236Y-79391443D01*
X120883705Y-79679930D01*
X121602964Y-79823000D01*
X120243069Y-79823000D01*
X120199999Y-79818758D01*
X120156930Y-79823000D01*
X120156921Y-79823000D01*
X120028078Y-79835690D01*
X119862763Y-79885838D01*
X119710408Y-79967273D01*
X119576867Y-80076867D01*
X119549406Y-80110329D01*
X118410327Y-81249408D01*
X118376868Y-81276867D01*
X118349409Y-81310326D01*
X118349406Y-81310329D01*
X118267274Y-81410408D01*
X118185838Y-81562764D01*
X118135690Y-81728078D01*
X118118757Y-81900000D01*
X117677000Y-81900000D01*
X117677000Y-76030163D01*
X117747972Y-75234936D01*
X117950653Y-74494061D01*
X118281328Y-73800785D01*
X118729547Y-73177023D01*
X119281141Y-72642491D01*
X119918675Y-72214085D01*
X120622000Y-71905348D01*
X121374082Y-71724788D01*
X122024839Y-71677000D01*
X161969848Y-71677000D01*
X162765064Y-71747971D01*
G36*
X143923849Y-101552000D02*
G01*
X143988511Y-101552000D01*
X144004636Y-101568125D01*
X144028183Y-101596817D01*
X144142690Y-101690790D01*
X144273330Y-101760618D01*
X144415082Y-101803619D01*
X144525562Y-101814500D01*
X144525564Y-101814500D01*
X144562500Y-101818138D01*
X144599435Y-101814500D01*
X150135939Y-101814500D01*
X150225892Y-101924108D01*
X150318367Y-102000000D01*
X150225892Y-102075892D01*
X150117226Y-102208302D01*
X150036480Y-102359368D01*
X149986756Y-102523283D01*
X149969967Y-102693750D01*
X149969967Y-103181250D01*
X149986756Y-103351717D01*
X150036480Y-103515632D01*
X150117226Y-103666698D01*
X150225892Y-103799108D01*
X150358302Y-103907774D01*
X150509368Y-103988520D01*
X150673283Y-104038244D01*
X150843750Y-104055033D01*
X151756250Y-104055033D01*
X151926717Y-104038244D01*
X152090632Y-103988520D01*
X152241698Y-103907774D01*
X152374108Y-103799108D01*
X152452161Y-103704000D01*
X152829407Y-103704000D01*
X152904499Y-103795501D01*
X152999972Y-103873853D01*
X153108897Y-103932075D01*
X153227087Y-103967927D01*
X153350000Y-103980033D01*
X154250000Y-103980033D01*
X154372913Y-103967927D01*
X154491103Y-103932075D01*
X154600028Y-103873853D01*
X154695501Y-103795501D01*
X154773853Y-103700028D01*
X154832075Y-103591103D01*
X154867927Y-103472913D01*
X154880033Y-103350000D01*
X154880033Y-102815689D01*
X154904499Y-102845501D01*
X154999972Y-102923853D01*
X155108897Y-102982075D01*
X155227087Y-103017927D01*
X155350000Y-103030033D01*
X155763716Y-103030033D01*
X156178150Y-103444467D01*
X156201762Y-103473238D01*
X156316573Y-103567461D01*
X156447561Y-103637475D01*
X156589690Y-103680590D01*
X156700461Y-103691500D01*
X156700471Y-103691500D01*
X156737499Y-103695147D01*
X156774528Y-103691500D01*
X157137580Y-103691500D01*
X157225892Y-103799108D01*
X157358302Y-103907774D01*
X157509368Y-103988520D01*
X157673283Y-104038244D01*
X157843750Y-104055033D01*
X158306478Y-104055033D01*
X152969379Y-109392133D01*
X152940683Y-109415683D01*
X152894464Y-109472002D01*
X152846710Y-109530190D01*
X152804853Y-109608500D01*
X152776882Y-109660831D01*
X152733881Y-109802583D01*
X152723000Y-109913062D01*
X152719362Y-109950000D01*
X152723000Y-109986936D01*
X152723001Y-113988510D01*
X151888512Y-114823000D01*
X151469822Y-114823000D01*
X151473072Y-114790000D01*
X151470000Y-113721750D01*
X151311250Y-113563000D01*
X149583000Y-113563000D01*
X149583000Y-113583000D01*
X149537000Y-113583000D01*
X149537000Y-113563000D01*
X149517000Y-113563000D01*
X149517000Y-113517000D01*
X149537000Y-113517000D01*
X149537000Y-111813750D01*
X149583000Y-111813750D01*
X149583000Y-113517000D01*
X151311250Y-113517000D01*
X151470000Y-113358250D01*
X151473072Y-112290000D01*
X151460812Y-112165518D01*
X151424502Y-112045820D01*
X151365537Y-111935506D01*
X151286185Y-111838815D01*
X151189494Y-111759463D01*
X151079180Y-111700498D01*
X150959482Y-111664188D01*
X150835000Y-111651928D01*
X149741750Y-111655000D01*
X149583000Y-111813750D01*
X149537000Y-111813750D01*
X149378250Y-111655000D01*
X148409485Y-111652278D01*
X148501105Y-111431088D01*
X148557900Y-111145560D01*
X148557900Y-110854440D01*
X148501105Y-110568912D01*
X148389698Y-110299952D01*
X148227960Y-110057894D01*
X148022106Y-109852040D01*
X147780048Y-109690302D01*
X147511088Y-109578895D01*
X147225560Y-109522100D01*
X146934440Y-109522100D01*
X146648912Y-109578895D01*
X146379952Y-109690302D01*
X146137894Y-109852040D01*
X145932040Y-110057894D01*
X145770302Y-110299952D01*
X145658895Y-110568912D01*
X145602100Y-110854440D01*
X145602100Y-111145560D01*
X145655297Y-111413000D01*
X145600509Y-111413000D01*
X145189577Y-111494739D01*
X144802488Y-111655077D01*
X144474808Y-111874025D01*
X144520180Y-111764488D01*
X144620900Y-111258136D01*
X144620900Y-110741864D01*
X144520180Y-110235512D01*
X144322611Y-109758539D01*
X144035786Y-109329274D01*
X143670726Y-108964214D01*
X143580617Y-108904005D01*
X143833981Y-108734712D01*
X144234712Y-108333981D01*
X144304168Y-108230033D01*
X145250000Y-108230033D01*
X145372913Y-108217927D01*
X145491103Y-108182075D01*
X145600028Y-108123853D01*
X145695501Y-108045501D01*
X145735093Y-107997257D01*
X145797418Y-107991119D01*
X145939170Y-107948118D01*
X146069810Y-107878290D01*
X146184317Y-107784317D01*
X146207867Y-107755621D01*
X147205626Y-106757863D01*
X147234317Y-106734317D01*
X147283654Y-106674200D01*
X147328290Y-106619811D01*
X147372272Y-106537525D01*
X147398118Y-106489170D01*
X147441119Y-106347418D01*
X147452000Y-106236938D01*
X147452000Y-106236936D01*
X147455638Y-106200001D01*
X147452000Y-106163065D01*
X147452000Y-103700397D01*
X147497723Y-103654674D01*
X147610115Y-103486467D01*
X147687533Y-103299565D01*
X147727000Y-103101151D01*
X147727000Y-102898849D01*
X147687533Y-102700435D01*
X147610115Y-102513533D01*
X147497723Y-102345326D01*
X147354674Y-102202277D01*
X147186467Y-102089885D01*
X146999565Y-102012467D01*
X146801151Y-101973000D01*
X146598849Y-101973000D01*
X146400435Y-102012467D01*
X146213533Y-102089885D01*
X146045326Y-102202277D01*
X145902277Y-102345326D01*
X145789885Y-102513533D01*
X145712467Y-102700435D01*
X145673000Y-102898849D01*
X145673000Y-103101151D01*
X145712467Y-103299565D01*
X145789885Y-103486467D01*
X145902277Y-103654674D01*
X145948000Y-103700397D01*
X145948001Y-105888510D01*
X145880033Y-105956478D01*
X145880033Y-105400000D01*
X145867927Y-105277087D01*
X145832075Y-105158897D01*
X145773853Y-105049972D01*
X145695501Y-104954499D01*
X145600028Y-104876147D01*
X145577001Y-104863839D01*
X145577001Y-103743080D01*
X145581244Y-103700001D01*
X145564311Y-103528078D01*
X145514163Y-103362764D01*
X145507420Y-103350148D01*
X145432728Y-103210409D01*
X145323134Y-103076868D01*
X145289670Y-103049405D01*
X143759592Y-101519327D01*
X143923849Y-101552000D01*
G37*
X143923849Y-101552000D02*
X143988511Y-101552000D01*
X144004636Y-101568125D01*
X144028183Y-101596817D01*
X144142690Y-101690790D01*
X144273330Y-101760618D01*
X144415082Y-101803619D01*
X144525562Y-101814500D01*
X144525564Y-101814500D01*
X144562500Y-101818138D01*
X144599435Y-101814500D01*
X150135939Y-101814500D01*
X150225892Y-101924108D01*
X150318367Y-102000000D01*
X150225892Y-102075892D01*
X150117226Y-102208302D01*
X150036480Y-102359368D01*
X149986756Y-102523283D01*
X149969967Y-102693750D01*
X149969967Y-103181250D01*
X149986756Y-103351717D01*
X150036480Y-103515632D01*
X150117226Y-103666698D01*
X150225892Y-103799108D01*
X150358302Y-103907774D01*
X150509368Y-103988520D01*
X150673283Y-104038244D01*
X150843750Y-104055033D01*
X151756250Y-104055033D01*
X151926717Y-104038244D01*
X152090632Y-103988520D01*
X152241698Y-103907774D01*
X152374108Y-103799108D01*
X152452161Y-103704000D01*
X152829407Y-103704000D01*
X152904499Y-103795501D01*
X152999972Y-103873853D01*
X153108897Y-103932075D01*
X153227087Y-103967927D01*
X153350000Y-103980033D01*
X154250000Y-103980033D01*
X154372913Y-103967927D01*
X154491103Y-103932075D01*
X154600028Y-103873853D01*
X154695501Y-103795501D01*
X154773853Y-103700028D01*
X154832075Y-103591103D01*
X154867927Y-103472913D01*
X154880033Y-103350000D01*
X154880033Y-102815689D01*
X154904499Y-102845501D01*
X154999972Y-102923853D01*
X155108897Y-102982075D01*
X155227087Y-103017927D01*
X155350000Y-103030033D01*
X155763716Y-103030033D01*
X156178150Y-103444467D01*
X156201762Y-103473238D01*
X156316573Y-103567461D01*
X156447561Y-103637475D01*
X156589690Y-103680590D01*
X156700461Y-103691500D01*
X156700471Y-103691500D01*
X156737499Y-103695147D01*
X156774528Y-103691500D01*
X157137580Y-103691500D01*
X157225892Y-103799108D01*
X157358302Y-103907774D01*
X157509368Y-103988520D01*
X157673283Y-104038244D01*
X157843750Y-104055033D01*
X158306478Y-104055033D01*
X152969379Y-109392133D01*
X152940683Y-109415683D01*
X152894464Y-109472002D01*
X152846710Y-109530190D01*
X152804853Y-109608500D01*
X152776882Y-109660831D01*
X152733881Y-109802583D01*
X152723000Y-109913062D01*
X152719362Y-109950000D01*
X152723000Y-109986936D01*
X152723001Y-113988510D01*
X151888512Y-114823000D01*
X151469822Y-114823000D01*
X151473072Y-114790000D01*
X151470000Y-113721750D01*
X151311250Y-113563000D01*
X149583000Y-113563000D01*
X149583000Y-113583000D01*
X149537000Y-113583000D01*
X149537000Y-113563000D01*
X149517000Y-113563000D01*
X149517000Y-113517000D01*
X149537000Y-113517000D01*
X149537000Y-111813750D01*
X149583000Y-111813750D01*
X149583000Y-113517000D01*
X151311250Y-113517000D01*
X151470000Y-113358250D01*
X151473072Y-112290000D01*
X151460812Y-112165518D01*
X151424502Y-112045820D01*
X151365537Y-111935506D01*
X151286185Y-111838815D01*
X151189494Y-111759463D01*
X151079180Y-111700498D01*
X150959482Y-111664188D01*
X150835000Y-111651928D01*
X149741750Y-111655000D01*
X149583000Y-111813750D01*
X149537000Y-111813750D01*
X149378250Y-111655000D01*
X148409485Y-111652278D01*
X148501105Y-111431088D01*
X148557900Y-111145560D01*
X148557900Y-110854440D01*
X148501105Y-110568912D01*
X148389698Y-110299952D01*
X148227960Y-110057894D01*
X148022106Y-109852040D01*
X147780048Y-109690302D01*
X147511088Y-109578895D01*
X147225560Y-109522100D01*
X146934440Y-109522100D01*
X146648912Y-109578895D01*
X146379952Y-109690302D01*
X146137894Y-109852040D01*
X145932040Y-110057894D01*
X145770302Y-110299952D01*
X145658895Y-110568912D01*
X145602100Y-110854440D01*
X145602100Y-111145560D01*
X145655297Y-111413000D01*
X145600509Y-111413000D01*
X145189577Y-111494739D01*
X144802488Y-111655077D01*
X144474808Y-111874025D01*
X144520180Y-111764488D01*
X144620900Y-111258136D01*
X144620900Y-110741864D01*
X144520180Y-110235512D01*
X144322611Y-109758539D01*
X144035786Y-109329274D01*
X143670726Y-108964214D01*
X143580617Y-108904005D01*
X143833981Y-108734712D01*
X144234712Y-108333981D01*
X144304168Y-108230033D01*
X145250000Y-108230033D01*
X145372913Y-108217927D01*
X145491103Y-108182075D01*
X145600028Y-108123853D01*
X145695501Y-108045501D01*
X145735093Y-107997257D01*
X145797418Y-107991119D01*
X145939170Y-107948118D01*
X146069810Y-107878290D01*
X146184317Y-107784317D01*
X146207867Y-107755621D01*
X147205626Y-106757863D01*
X147234317Y-106734317D01*
X147283654Y-106674200D01*
X147328290Y-106619811D01*
X147372272Y-106537525D01*
X147398118Y-106489170D01*
X147441119Y-106347418D01*
X147452000Y-106236938D01*
X147452000Y-106236936D01*
X147455638Y-106200001D01*
X147452000Y-106163065D01*
X147452000Y-103700397D01*
X147497723Y-103654674D01*
X147610115Y-103486467D01*
X147687533Y-103299565D01*
X147727000Y-103101151D01*
X147727000Y-102898849D01*
X147687533Y-102700435D01*
X147610115Y-102513533D01*
X147497723Y-102345326D01*
X147354674Y-102202277D01*
X147186467Y-102089885D01*
X146999565Y-102012467D01*
X146801151Y-101973000D01*
X146598849Y-101973000D01*
X146400435Y-102012467D01*
X146213533Y-102089885D01*
X146045326Y-102202277D01*
X145902277Y-102345326D01*
X145789885Y-102513533D01*
X145712467Y-102700435D01*
X145673000Y-102898849D01*
X145673000Y-103101151D01*
X145712467Y-103299565D01*
X145789885Y-103486467D01*
X145902277Y-103654674D01*
X145948000Y-103700397D01*
X145948001Y-105888510D01*
X145880033Y-105956478D01*
X145880033Y-105400000D01*
X145867927Y-105277087D01*
X145832075Y-105158897D01*
X145773853Y-105049972D01*
X145695501Y-104954499D01*
X145600028Y-104876147D01*
X145577001Y-104863839D01*
X145577001Y-103743080D01*
X145581244Y-103700001D01*
X145564311Y-103528078D01*
X145514163Y-103362764D01*
X145507420Y-103350148D01*
X145432728Y-103210409D01*
X145323134Y-103076868D01*
X145289670Y-103049405D01*
X143759592Y-101519327D01*
X143923849Y-101552000D01*
G36*
X140745326Y-103897723D02*
G01*
X140752659Y-103902623D01*
X140637229Y-103950435D01*
X140166019Y-104265288D01*
X139765288Y-104666019D01*
X139695832Y-104769967D01*
X138750000Y-104769967D01*
X138627087Y-104782073D01*
X138508897Y-104817925D01*
X138399972Y-104876147D01*
X138304499Y-104954499D01*
X138268799Y-104998000D01*
X137749435Y-104998000D01*
X137712499Y-104994362D01*
X137675564Y-104998000D01*
X137675562Y-104998000D01*
X137565082Y-105008881D01*
X137423330Y-105051882D01*
X137353735Y-105089081D01*
X137292689Y-105121710D01*
X137231189Y-105172182D01*
X137178183Y-105215683D01*
X137154637Y-105244374D01*
X133154045Y-109244967D01*
X132643750Y-109244967D01*
X132473283Y-109261756D01*
X132309368Y-109311480D01*
X132158302Y-109392226D01*
X132025892Y-109500892D01*
X131917226Y-109633302D01*
X131836480Y-109784368D01*
X131786756Y-109948283D01*
X131769967Y-110118750D01*
X131769967Y-110606250D01*
X131786756Y-110776717D01*
X131836480Y-110940632D01*
X131917226Y-111091698D01*
X132025892Y-111224108D01*
X132118367Y-111300000D01*
X132025892Y-111375892D01*
X131937580Y-111483500D01*
X131849817Y-111483500D01*
X131680033Y-111313716D01*
X131680033Y-110900000D01*
X131667927Y-110777087D01*
X131632075Y-110658897D01*
X131573853Y-110549972D01*
X131495501Y-110454499D01*
X131400028Y-110376147D01*
X131291103Y-110317925D01*
X131172913Y-110282073D01*
X131050000Y-110269967D01*
X130150000Y-110269967D01*
X130027087Y-110282073D01*
X129908897Y-110317925D01*
X129799972Y-110376147D01*
X129704499Y-110454499D01*
X129660889Y-110507639D01*
X129526250Y-110373000D01*
X128623000Y-110373000D01*
X128623000Y-110393000D01*
X128577000Y-110393000D01*
X128577000Y-110373000D01*
X127673750Y-110373000D01*
X127515000Y-110531750D01*
X127511928Y-110750000D01*
X127524188Y-110874482D01*
X127560498Y-110994180D01*
X127619463Y-111104494D01*
X127698815Y-111201185D01*
X127795506Y-111280537D01*
X127840404Y-111304536D01*
X127799972Y-111326147D01*
X127704499Y-111404499D01*
X127639665Y-111483500D01*
X127262420Y-111483500D01*
X127174108Y-111375892D01*
X127081633Y-111300000D01*
X127174108Y-111224108D01*
X127282774Y-111091698D01*
X127363520Y-110940632D01*
X127413244Y-110776717D01*
X127430033Y-110606250D01*
X127430033Y-110118750D01*
X127413414Y-109950000D01*
X127511928Y-109950000D01*
X127515000Y-110168250D01*
X127673750Y-110327000D01*
X128577000Y-110327000D01*
X128577000Y-109473750D01*
X128623000Y-109473750D01*
X128623000Y-110327000D01*
X129526250Y-110327000D01*
X129685000Y-110168250D01*
X129688072Y-109950000D01*
X129675812Y-109825518D01*
X129639502Y-109705820D01*
X129580537Y-109595506D01*
X129501185Y-109498815D01*
X129404494Y-109419463D01*
X129294180Y-109360498D01*
X129174482Y-109324188D01*
X129050000Y-109311928D01*
X128781750Y-109315000D01*
X128623000Y-109473750D01*
X128577000Y-109473750D01*
X128418250Y-109315000D01*
X128150000Y-109311928D01*
X128025518Y-109324188D01*
X127905820Y-109360498D01*
X127795506Y-109419463D01*
X127698815Y-109498815D01*
X127619463Y-109595506D01*
X127560498Y-109705820D01*
X127524188Y-109825518D01*
X127511928Y-109950000D01*
X127413414Y-109950000D01*
X127413244Y-109948283D01*
X127363520Y-109784368D01*
X127282774Y-109633302D01*
X127174108Y-109500892D01*
X127041698Y-109392226D01*
X126890632Y-109311480D01*
X126726717Y-109261756D01*
X126556250Y-109244967D01*
X125643750Y-109244967D01*
X125473283Y-109261756D01*
X125309368Y-109311480D01*
X125227001Y-109355506D01*
X125227001Y-108244494D01*
X125309368Y-108288520D01*
X125473283Y-108338244D01*
X125643750Y-108355033D01*
X126556250Y-108355033D01*
X126726717Y-108338244D01*
X126890632Y-108288520D01*
X127041698Y-108207774D01*
X127174108Y-108099108D01*
X127262420Y-107991500D01*
X127621589Y-107991500D01*
X127626147Y-108000028D01*
X127704499Y-108095501D01*
X127799972Y-108173853D01*
X127908897Y-108232075D01*
X128027087Y-108267927D01*
X128150000Y-108280033D01*
X129050000Y-108280033D01*
X129172913Y-108267927D01*
X129291103Y-108232075D01*
X129400028Y-108173853D01*
X129495501Y-108095501D01*
X129573853Y-108000028D01*
X129632075Y-107891103D01*
X129667927Y-107772913D01*
X129680033Y-107650000D01*
X129680033Y-107115689D01*
X129704499Y-107145501D01*
X129799972Y-107223853D01*
X129908897Y-107282075D01*
X130027087Y-107317927D01*
X130150000Y-107330033D01*
X130563716Y-107330033D01*
X130978150Y-107744467D01*
X131001762Y-107773238D01*
X131116573Y-107867461D01*
X131247561Y-107937475D01*
X131389690Y-107980590D01*
X131500461Y-107991500D01*
X131500471Y-107991500D01*
X131537499Y-107995147D01*
X131574528Y-107991500D01*
X131937580Y-107991500D01*
X132025892Y-108099108D01*
X132158302Y-108207774D01*
X132309368Y-108288520D01*
X132473283Y-108338244D01*
X132643750Y-108355033D01*
X133556250Y-108355033D01*
X133726717Y-108338244D01*
X133890632Y-108288520D01*
X134041698Y-108207774D01*
X134174108Y-108099108D01*
X134282774Y-107966698D01*
X134363520Y-107815632D01*
X134413244Y-107651717D01*
X134430033Y-107481250D01*
X134430033Y-106993750D01*
X134413244Y-106823283D01*
X134363520Y-106659368D01*
X134282774Y-106508302D01*
X134174108Y-106375892D01*
X134081633Y-106300000D01*
X134174108Y-106224108D01*
X134282774Y-106091698D01*
X134363520Y-105940632D01*
X134413244Y-105776717D01*
X134430033Y-105606250D01*
X134430033Y-105118750D01*
X134427989Y-105097999D01*
X135673989Y-103852000D01*
X140699603Y-103852000D01*
X140745326Y-103897723D01*
G37*
X140745326Y-103897723D02*
X140752659Y-103902623D01*
X140637229Y-103950435D01*
X140166019Y-104265288D01*
X139765288Y-104666019D01*
X139695832Y-104769967D01*
X138750000Y-104769967D01*
X138627087Y-104782073D01*
X138508897Y-104817925D01*
X138399972Y-104876147D01*
X138304499Y-104954499D01*
X138268799Y-104998000D01*
X137749435Y-104998000D01*
X137712499Y-104994362D01*
X137675564Y-104998000D01*
X137675562Y-104998000D01*
X137565082Y-105008881D01*
X137423330Y-105051882D01*
X137353735Y-105089081D01*
X137292689Y-105121710D01*
X137231189Y-105172182D01*
X137178183Y-105215683D01*
X137154637Y-105244374D01*
X133154045Y-109244967D01*
X132643750Y-109244967D01*
X132473283Y-109261756D01*
X132309368Y-109311480D01*
X132158302Y-109392226D01*
X132025892Y-109500892D01*
X131917226Y-109633302D01*
X131836480Y-109784368D01*
X131786756Y-109948283D01*
X131769967Y-110118750D01*
X131769967Y-110606250D01*
X131786756Y-110776717D01*
X131836480Y-110940632D01*
X131917226Y-111091698D01*
X132025892Y-111224108D01*
X132118367Y-111300000D01*
X132025892Y-111375892D01*
X131937580Y-111483500D01*
X131849817Y-111483500D01*
X131680033Y-111313716D01*
X131680033Y-110900000D01*
X131667927Y-110777087D01*
X131632075Y-110658897D01*
X131573853Y-110549972D01*
X131495501Y-110454499D01*
X131400028Y-110376147D01*
X131291103Y-110317925D01*
X131172913Y-110282073D01*
X131050000Y-110269967D01*
X130150000Y-110269967D01*
X130027087Y-110282073D01*
X129908897Y-110317925D01*
X129799972Y-110376147D01*
X129704499Y-110454499D01*
X129660889Y-110507639D01*
X129526250Y-110373000D01*
X128623000Y-110373000D01*
X128623000Y-110393000D01*
X128577000Y-110393000D01*
X128577000Y-110373000D01*
X127673750Y-110373000D01*
X127515000Y-110531750D01*
X127511928Y-110750000D01*
X127524188Y-110874482D01*
X127560498Y-110994180D01*
X127619463Y-111104494D01*
X127698815Y-111201185D01*
X127795506Y-111280537D01*
X127840404Y-111304536D01*
X127799972Y-111326147D01*
X127704499Y-111404499D01*
X127639665Y-111483500D01*
X127262420Y-111483500D01*
X127174108Y-111375892D01*
X127081633Y-111300000D01*
X127174108Y-111224108D01*
X127282774Y-111091698D01*
X127363520Y-110940632D01*
X127413244Y-110776717D01*
X127430033Y-110606250D01*
X127430033Y-110118750D01*
X127413414Y-109950000D01*
X127511928Y-109950000D01*
X127515000Y-110168250D01*
X127673750Y-110327000D01*
X128577000Y-110327000D01*
X128577000Y-109473750D01*
X128623000Y-109473750D01*
X128623000Y-110327000D01*
X129526250Y-110327000D01*
X129685000Y-110168250D01*
X129688072Y-109950000D01*
X129675812Y-109825518D01*
X129639502Y-109705820D01*
X129580537Y-109595506D01*
X129501185Y-109498815D01*
X129404494Y-109419463D01*
X129294180Y-109360498D01*
X129174482Y-109324188D01*
X129050000Y-109311928D01*
X128781750Y-109315000D01*
X128623000Y-109473750D01*
X128577000Y-109473750D01*
X128418250Y-109315000D01*
X128150000Y-109311928D01*
X128025518Y-109324188D01*
X127905820Y-109360498D01*
X127795506Y-109419463D01*
X127698815Y-109498815D01*
X127619463Y-109595506D01*
X127560498Y-109705820D01*
X127524188Y-109825518D01*
X127511928Y-109950000D01*
X127413414Y-109950000D01*
X127413244Y-109948283D01*
X127363520Y-109784368D01*
X127282774Y-109633302D01*
X127174108Y-109500892D01*
X127041698Y-109392226D01*
X126890632Y-109311480D01*
X126726717Y-109261756D01*
X126556250Y-109244967D01*
X125643750Y-109244967D01*
X125473283Y-109261756D01*
X125309368Y-109311480D01*
X125227001Y-109355506D01*
X125227001Y-108244494D01*
X125309368Y-108288520D01*
X125473283Y-108338244D01*
X125643750Y-108355033D01*
X126556250Y-108355033D01*
X126726717Y-108338244D01*
X126890632Y-108288520D01*
X127041698Y-108207774D01*
X127174108Y-108099108D01*
X127262420Y-107991500D01*
X127621589Y-107991500D01*
X127626147Y-108000028D01*
X127704499Y-108095501D01*
X127799972Y-108173853D01*
X127908897Y-108232075D01*
X128027087Y-108267927D01*
X128150000Y-108280033D01*
X129050000Y-108280033D01*
X129172913Y-108267927D01*
X129291103Y-108232075D01*
X129400028Y-108173853D01*
X129495501Y-108095501D01*
X129573853Y-108000028D01*
X129632075Y-107891103D01*
X129667927Y-107772913D01*
X129680033Y-107650000D01*
X129680033Y-107115689D01*
X129704499Y-107145501D01*
X129799972Y-107223853D01*
X129908897Y-107282075D01*
X130027087Y-107317927D01*
X130150000Y-107330033D01*
X130563716Y-107330033D01*
X130978150Y-107744467D01*
X131001762Y-107773238D01*
X131116573Y-107867461D01*
X131247561Y-107937475D01*
X131389690Y-107980590D01*
X131500461Y-107991500D01*
X131500471Y-107991500D01*
X131537499Y-107995147D01*
X131574528Y-107991500D01*
X131937580Y-107991500D01*
X132025892Y-108099108D01*
X132158302Y-108207774D01*
X132309368Y-108288520D01*
X132473283Y-108338244D01*
X132643750Y-108355033D01*
X133556250Y-108355033D01*
X133726717Y-108338244D01*
X133890632Y-108288520D01*
X134041698Y-108207774D01*
X134174108Y-108099108D01*
X134282774Y-107966698D01*
X134363520Y-107815632D01*
X134413244Y-107651717D01*
X134430033Y-107481250D01*
X134430033Y-106993750D01*
X134413244Y-106823283D01*
X134363520Y-106659368D01*
X134282774Y-106508302D01*
X134174108Y-106375892D01*
X134081633Y-106300000D01*
X134174108Y-106224108D01*
X134282774Y-106091698D01*
X134363520Y-105940632D01*
X134413244Y-105776717D01*
X134430033Y-105606250D01*
X134430033Y-105118750D01*
X134427989Y-105097999D01*
X135673989Y-103852000D01*
X140699603Y-103852000D01*
X140745326Y-103897723D01*
G36*
X131917226Y-104633302D02*
G01*
X131836480Y-104784368D01*
X131786756Y-104948283D01*
X131769967Y-105118750D01*
X131769967Y-105606250D01*
X131786756Y-105776717D01*
X131836480Y-105940632D01*
X131917226Y-106091698D01*
X132025892Y-106224108D01*
X132118367Y-106300000D01*
X132025892Y-106375892D01*
X131937580Y-106483500D01*
X131849817Y-106483500D01*
X131680033Y-106313716D01*
X131680033Y-105900000D01*
X131667927Y-105777087D01*
X131632075Y-105658897D01*
X131573853Y-105549972D01*
X131495501Y-105454499D01*
X131400028Y-105376147D01*
X131291103Y-105317925D01*
X131172913Y-105282073D01*
X131050000Y-105269967D01*
X130150000Y-105269967D01*
X130027087Y-105282073D01*
X129908897Y-105317925D01*
X129799972Y-105376147D01*
X129704499Y-105454499D01*
X129660889Y-105507639D01*
X129526250Y-105373000D01*
X128623000Y-105373000D01*
X128623000Y-105393000D01*
X128577000Y-105393000D01*
X128577000Y-105373000D01*
X127673750Y-105373000D01*
X127515000Y-105531750D01*
X127511928Y-105750000D01*
X127524188Y-105874482D01*
X127560498Y-105994180D01*
X127619463Y-106104494D01*
X127698815Y-106201185D01*
X127795506Y-106280537D01*
X127840404Y-106304536D01*
X127799972Y-106326147D01*
X127704499Y-106404499D01*
X127639665Y-106483500D01*
X127262420Y-106483500D01*
X127174108Y-106375892D01*
X127081633Y-106300000D01*
X127174108Y-106224108D01*
X127282774Y-106091698D01*
X127363520Y-105940632D01*
X127413244Y-105776717D01*
X127430033Y-105606250D01*
X127430033Y-105118750D01*
X127427989Y-105097999D01*
X127512817Y-105013171D01*
X127515000Y-105168250D01*
X127673750Y-105327000D01*
X128577000Y-105327000D01*
X128577000Y-105307000D01*
X128623000Y-105307000D01*
X128623000Y-105327000D01*
X129526250Y-105327000D01*
X129685000Y-105168250D01*
X129688072Y-104950000D01*
X129675812Y-104825518D01*
X129639502Y-104705820D01*
X129580537Y-104595506D01*
X129544833Y-104552000D01*
X131983949Y-104552000D01*
X131917226Y-104633302D01*
G37*
X131917226Y-104633302D02*
X131836480Y-104784368D01*
X131786756Y-104948283D01*
X131769967Y-105118750D01*
X131769967Y-105606250D01*
X131786756Y-105776717D01*
X131836480Y-105940632D01*
X131917226Y-106091698D01*
X132025892Y-106224108D01*
X132118367Y-106300000D01*
X132025892Y-106375892D01*
X131937580Y-106483500D01*
X131849817Y-106483500D01*
X131680033Y-106313716D01*
X131680033Y-105900000D01*
X131667927Y-105777087D01*
X131632075Y-105658897D01*
X131573853Y-105549972D01*
X131495501Y-105454499D01*
X131400028Y-105376147D01*
X131291103Y-105317925D01*
X131172913Y-105282073D01*
X131050000Y-105269967D01*
X130150000Y-105269967D01*
X130027087Y-105282073D01*
X129908897Y-105317925D01*
X129799972Y-105376147D01*
X129704499Y-105454499D01*
X129660889Y-105507639D01*
X129526250Y-105373000D01*
X128623000Y-105373000D01*
X128623000Y-105393000D01*
X128577000Y-105393000D01*
X128577000Y-105373000D01*
X127673750Y-105373000D01*
X127515000Y-105531750D01*
X127511928Y-105750000D01*
X127524188Y-105874482D01*
X127560498Y-105994180D01*
X127619463Y-106104494D01*
X127698815Y-106201185D01*
X127795506Y-106280537D01*
X127840404Y-106304536D01*
X127799972Y-106326147D01*
X127704499Y-106404499D01*
X127639665Y-106483500D01*
X127262420Y-106483500D01*
X127174108Y-106375892D01*
X127081633Y-106300000D01*
X127174108Y-106224108D01*
X127282774Y-106091698D01*
X127363520Y-105940632D01*
X127413244Y-105776717D01*
X127430033Y-105606250D01*
X127430033Y-105118750D01*
X127427989Y-105097999D01*
X127512817Y-105013171D01*
X127515000Y-105168250D01*
X127673750Y-105327000D01*
X128577000Y-105327000D01*
X128577000Y-105307000D01*
X128623000Y-105307000D01*
X128623000Y-105327000D01*
X129526250Y-105327000D01*
X129685000Y-105168250D01*
X129688072Y-104950000D01*
X129675812Y-104825518D01*
X129639502Y-104705820D01*
X129580537Y-104595506D01*
X129544833Y-104552000D01*
X131983949Y-104552000D01*
X131917226Y-104633302D01*
G36*
X134459501Y-101919419D02*
G01*
X134633077Y-102130922D01*
X134844580Y-102304499D01*
X135050050Y-102414325D01*
X135023924Y-102428290D01*
X134942689Y-102471710D01*
X134872791Y-102529074D01*
X134828183Y-102565683D01*
X134804637Y-102594374D01*
X133154045Y-104244967D01*
X132768521Y-104244967D01*
X133585622Y-103427866D01*
X133614317Y-103404317D01*
X133708290Y-103289810D01*
X133778118Y-103159170D01*
X133821119Y-103017418D01*
X133832000Y-102906938D01*
X133832000Y-102906936D01*
X133835638Y-102870000D01*
X133832000Y-102833065D01*
X133832000Y-102317017D01*
X133855419Y-102304499D01*
X134066922Y-102130923D01*
X134240499Y-101919420D01*
X134350000Y-101714557D01*
X134459501Y-101919419D01*
G37*
X134459501Y-101919419D02*
X134633077Y-102130922D01*
X134844580Y-102304499D01*
X135050050Y-102414325D01*
X135023924Y-102428290D01*
X134942689Y-102471710D01*
X134872791Y-102529074D01*
X134828183Y-102565683D01*
X134804637Y-102594374D01*
X133154045Y-104244967D01*
X132768521Y-104244967D01*
X133585622Y-103427866D01*
X133614317Y-103404317D01*
X133708290Y-103289810D01*
X133778118Y-103159170D01*
X133821119Y-103017418D01*
X133832000Y-102906938D01*
X133832000Y-102906936D01*
X133835638Y-102870000D01*
X133832000Y-102833065D01*
X133832000Y-102317017D01*
X133855419Y-102304499D01*
X134066922Y-102130923D01*
X134240499Y-101919420D01*
X134350000Y-101714557D01*
X134459501Y-101919419D01*
G36*
X131919501Y-101919419D02*
G01*
X132093077Y-102130922D01*
X132304580Y-102304499D01*
X132328000Y-102317017D01*
X132328000Y-102558512D01*
X131838512Y-103048000D01*
X131212018Y-103048000D01*
X131238118Y-102999170D01*
X131281119Y-102857418D01*
X131292000Y-102746938D01*
X131292000Y-102746936D01*
X131295638Y-102710000D01*
X131292000Y-102673065D01*
X131292000Y-102317017D01*
X131315419Y-102304499D01*
X131526922Y-102130923D01*
X131700499Y-101919420D01*
X131810000Y-101714557D01*
X131919501Y-101919419D01*
G37*
X131919501Y-101919419D02*
X132093077Y-102130922D01*
X132304580Y-102304499D01*
X132328000Y-102317017D01*
X132328000Y-102558512D01*
X131838512Y-103048000D01*
X131212018Y-103048000D01*
X131238118Y-102999170D01*
X131281119Y-102857418D01*
X131292000Y-102746938D01*
X131292000Y-102746936D01*
X131295638Y-102710000D01*
X131292000Y-102673065D01*
X131292000Y-102317017D01*
X131315419Y-102304499D01*
X131526922Y-102130923D01*
X131700499Y-101919420D01*
X131810000Y-101714557D01*
X131919501Y-101919419D01*
G36*
X129379501Y-101919419D02*
G01*
X129553077Y-102130922D01*
X129764580Y-102304499D01*
X129788001Y-102317018D01*
X129788001Y-102398512D01*
X129738512Y-102448000D01*
X128486242Y-102448000D01*
X128534118Y-102433477D01*
X128775419Y-102304499D01*
X128986922Y-102130923D01*
X129160499Y-101919420D01*
X129270000Y-101714557D01*
X129379501Y-101919419D01*
G37*
X129379501Y-101919419D02*
X129553077Y-102130922D01*
X129764580Y-102304499D01*
X129788001Y-102317018D01*
X129788001Y-102398512D01*
X129738512Y-102448000D01*
X128486242Y-102448000D01*
X128534118Y-102433477D01*
X128775419Y-102304499D01*
X128986922Y-102130923D01*
X129160499Y-101919420D01*
X129270000Y-101714557D01*
X129379501Y-101919419D01*
G36*
X136607735Y-96848000D02*
G01*
X130818935Y-96848000D01*
X130781999Y-96844362D01*
X130745064Y-96848000D01*
X130745062Y-96848000D01*
X130634582Y-96858881D01*
X130492830Y-96901882D01*
X130415737Y-96943089D01*
X130362189Y-96971710D01*
X130286462Y-97033858D01*
X130247683Y-97065683D01*
X130224137Y-97094374D01*
X128821332Y-98497180D01*
X128775420Y-98459501D01*
X128534119Y-98330523D01*
X128272291Y-98251098D01*
X128000000Y-98224280D01*
X127727710Y-98251098D01*
X127465882Y-98330523D01*
X127224581Y-98459501D01*
X127013078Y-98633077D01*
X126839502Y-98844580D01*
X126730001Y-99049443D01*
X126620499Y-98844580D01*
X126446923Y-98633077D01*
X126337000Y-98542866D01*
X126337000Y-95127000D01*
X134886735Y-95127000D01*
X136607735Y-96848000D01*
G37*
X136607735Y-96848000D02*
X130818935Y-96848000D01*
X130781999Y-96844362D01*
X130745064Y-96848000D01*
X130745062Y-96848000D01*
X130634582Y-96858881D01*
X130492830Y-96901882D01*
X130415737Y-96943089D01*
X130362189Y-96971710D01*
X130286462Y-97033858D01*
X130247683Y-97065683D01*
X130224137Y-97094374D01*
X128821332Y-98497180D01*
X128775420Y-98459501D01*
X128534119Y-98330523D01*
X128272291Y-98251098D01*
X128000000Y-98224280D01*
X127727710Y-98251098D01*
X127465882Y-98330523D01*
X127224581Y-98459501D01*
X127013078Y-98633077D01*
X126839502Y-98844580D01*
X126730001Y-99049443D01*
X126620499Y-98844580D01*
X126446923Y-98633077D01*
X126337000Y-98542866D01*
X126337000Y-95127000D01*
X134886735Y-95127000D01*
X136607735Y-96848000D01*
G36*
X149023002Y-86140151D02*
G01*
X149019363Y-86177097D01*
X149030029Y-86285382D01*
X149033883Y-86324515D01*
X149046658Y-86366626D01*
X149076883Y-86466266D01*
X149146711Y-86596907D01*
X149217138Y-86682722D01*
X149240685Y-86711414D01*
X149269376Y-86734960D01*
X158746001Y-96211586D01*
X158746001Y-96779684D01*
X149309353Y-87343037D01*
X149285738Y-87314262D01*
X149170927Y-87220039D01*
X149039939Y-87150025D01*
X148897810Y-87106910D01*
X148787039Y-87096000D01*
X148787031Y-87096000D01*
X148750000Y-87092353D01*
X148712969Y-87096000D01*
X146911018Y-87096000D01*
X146429655Y-86614637D01*
X146486220Y-86597479D01*
X146570719Y-86623111D01*
X146695201Y-86635371D01*
X146818251Y-86632299D01*
X146977001Y-86473549D01*
X146977001Y-85169399D01*
X147023001Y-85169399D01*
X147023001Y-86473549D01*
X147181751Y-86632299D01*
X147304801Y-86635371D01*
X147429283Y-86623111D01*
X147548981Y-86586801D01*
X147659295Y-86527836D01*
X147755986Y-86448484D01*
X147835338Y-86351793D01*
X147894303Y-86241479D01*
X147930613Y-86121781D01*
X147942873Y-85997299D01*
X147939801Y-85328149D01*
X147781051Y-85169399D01*
X147023001Y-85169399D01*
X146977001Y-85169399D01*
X146957001Y-85169399D01*
X146957001Y-85123399D01*
X146977001Y-85123399D01*
X146977001Y-83819249D01*
X147023001Y-83819249D01*
X147023001Y-85123399D01*
X147781051Y-85123399D01*
X147939801Y-84964649D01*
X147942873Y-84295499D01*
X147930613Y-84171017D01*
X147894303Y-84051319D01*
X147835338Y-83941005D01*
X147755986Y-83844314D01*
X147659295Y-83764962D01*
X147548981Y-83705997D01*
X147429283Y-83669687D01*
X147304801Y-83657427D01*
X147181751Y-83660499D01*
X147023001Y-83819249D01*
X146977001Y-83819249D01*
X146818251Y-83660499D01*
X146752001Y-83658845D01*
X146752001Y-83086936D01*
X146755639Y-83050000D01*
X146752001Y-83013063D01*
X146741120Y-82902583D01*
X146698119Y-82760831D01*
X146650064Y-82670926D01*
X146628291Y-82630190D01*
X146557864Y-82544375D01*
X146534318Y-82515684D01*
X146505627Y-82492138D01*
X145301167Y-81287679D01*
X145498849Y-81327000D01*
X145701151Y-81327000D01*
X145899565Y-81287533D01*
X146086467Y-81210115D01*
X146254674Y-81097723D01*
X146298397Y-81054000D01*
X146600469Y-81054000D01*
X146637500Y-81057647D01*
X146674531Y-81054000D01*
X146674539Y-81054000D01*
X146785310Y-81043090D01*
X146927439Y-80999975D01*
X147058427Y-80929961D01*
X147173238Y-80835738D01*
X147196853Y-80806963D01*
X147948784Y-80055033D01*
X148456250Y-80055033D01*
X148626717Y-80038244D01*
X148790632Y-79988520D01*
X148941698Y-79907774D01*
X149023001Y-79841050D01*
X149023002Y-86140151D01*
G37*
X149023002Y-86140151D02*
X149019363Y-86177097D01*
X149030029Y-86285382D01*
X149033883Y-86324515D01*
X149046658Y-86366626D01*
X149076883Y-86466266D01*
X149146711Y-86596907D01*
X149217138Y-86682722D01*
X149240685Y-86711414D01*
X149269376Y-86734960D01*
X158746001Y-96211586D01*
X158746001Y-96779684D01*
X149309353Y-87343037D01*
X149285738Y-87314262D01*
X149170927Y-87220039D01*
X149039939Y-87150025D01*
X148897810Y-87106910D01*
X148787039Y-87096000D01*
X148787031Y-87096000D01*
X148750000Y-87092353D01*
X148712969Y-87096000D01*
X146911018Y-87096000D01*
X146429655Y-86614637D01*
X146486220Y-86597479D01*
X146570719Y-86623111D01*
X146695201Y-86635371D01*
X146818251Y-86632299D01*
X146977001Y-86473549D01*
X146977001Y-85169399D01*
X147023001Y-85169399D01*
X147023001Y-86473549D01*
X147181751Y-86632299D01*
X147304801Y-86635371D01*
X147429283Y-86623111D01*
X147548981Y-86586801D01*
X147659295Y-86527836D01*
X147755986Y-86448484D01*
X147835338Y-86351793D01*
X147894303Y-86241479D01*
X147930613Y-86121781D01*
X147942873Y-85997299D01*
X147939801Y-85328149D01*
X147781051Y-85169399D01*
X147023001Y-85169399D01*
X146977001Y-85169399D01*
X146957001Y-85169399D01*
X146957001Y-85123399D01*
X146977001Y-85123399D01*
X146977001Y-83819249D01*
X147023001Y-83819249D01*
X147023001Y-85123399D01*
X147781051Y-85123399D01*
X147939801Y-84964649D01*
X147942873Y-84295499D01*
X147930613Y-84171017D01*
X147894303Y-84051319D01*
X147835338Y-83941005D01*
X147755986Y-83844314D01*
X147659295Y-83764962D01*
X147548981Y-83705997D01*
X147429283Y-83669687D01*
X147304801Y-83657427D01*
X147181751Y-83660499D01*
X147023001Y-83819249D01*
X146977001Y-83819249D01*
X146818251Y-83660499D01*
X146752001Y-83658845D01*
X146752001Y-83086936D01*
X146755639Y-83050000D01*
X146752001Y-83013063D01*
X146741120Y-82902583D01*
X146698119Y-82760831D01*
X146650064Y-82670926D01*
X146628291Y-82630190D01*
X146557864Y-82544375D01*
X146534318Y-82515684D01*
X146505627Y-82492138D01*
X145301167Y-81287679D01*
X145498849Y-81327000D01*
X145701151Y-81327000D01*
X145899565Y-81287533D01*
X146086467Y-81210115D01*
X146254674Y-81097723D01*
X146298397Y-81054000D01*
X146600469Y-81054000D01*
X146637500Y-81057647D01*
X146674531Y-81054000D01*
X146674539Y-81054000D01*
X146785310Y-81043090D01*
X146927439Y-80999975D01*
X147058427Y-80929961D01*
X147173238Y-80835738D01*
X147196853Y-80806963D01*
X147948784Y-80055033D01*
X148456250Y-80055033D01*
X148626717Y-80038244D01*
X148790632Y-79988520D01*
X148941698Y-79907774D01*
X149023001Y-79841050D01*
X149023002Y-86140151D01*
G36*
X156123000Y-83863265D02*
G01*
X156123001Y-88456941D01*
X156118757Y-88500030D01*
X156135690Y-88671952D01*
X156185838Y-88837266D01*
X156267274Y-88989622D01*
X156349406Y-89089701D01*
X156349409Y-89089704D01*
X156376868Y-89123163D01*
X156410327Y-89150622D01*
X161204672Y-93944967D01*
X160543750Y-93944967D01*
X160373283Y-93961756D01*
X160209368Y-94011480D01*
X160058302Y-94092226D01*
X159925892Y-94200892D01*
X159817226Y-94333302D01*
X159736480Y-94484368D01*
X159686756Y-94648283D01*
X159669967Y-94818750D01*
X159669967Y-95008574D01*
X150527001Y-85865609D01*
X150527001Y-79011936D01*
X150530639Y-78975001D01*
X150527001Y-78938063D01*
X150516120Y-78827583D01*
X150473119Y-78685831D01*
X150403291Y-78555191D01*
X150309318Y-78440684D01*
X150280623Y-78417135D01*
X149357867Y-77494379D01*
X149334317Y-77465683D01*
X149315825Y-77450507D01*
X149330033Y-77306250D01*
X149330033Y-77070298D01*
X156123000Y-83863265D01*
G37*
X156123000Y-83863265D02*
X156123001Y-88456941D01*
X156118757Y-88500030D01*
X156135690Y-88671952D01*
X156185838Y-88837266D01*
X156267274Y-88989622D01*
X156349406Y-89089701D01*
X156349409Y-89089704D01*
X156376868Y-89123163D01*
X156410327Y-89150622D01*
X161204672Y-93944967D01*
X160543750Y-93944967D01*
X160373283Y-93961756D01*
X160209368Y-94011480D01*
X160058302Y-94092226D01*
X159925892Y-94200892D01*
X159817226Y-94333302D01*
X159736480Y-94484368D01*
X159686756Y-94648283D01*
X159669967Y-94818750D01*
X159669967Y-95008574D01*
X150527001Y-85865609D01*
X150527001Y-79011936D01*
X150530639Y-78975001D01*
X150527001Y-78938063D01*
X150516120Y-78827583D01*
X150473119Y-78685831D01*
X150403291Y-78555191D01*
X150309318Y-78440684D01*
X150280623Y-78417135D01*
X149357867Y-77494379D01*
X149334317Y-77465683D01*
X149315825Y-77450507D01*
X149330033Y-77306250D01*
X149330033Y-77070298D01*
X156123000Y-83863265D01*
G36*
X131327277Y-80654674D02*
G01*
X131470326Y-80797723D01*
X131638533Y-80910115D01*
X131825435Y-80987533D01*
X132023849Y-81027000D01*
X132226151Y-81027000D01*
X132424565Y-80987533D01*
X132491021Y-80960006D01*
X132423205Y-81086882D01*
X132380090Y-81229011D01*
X132369180Y-81339782D01*
X132369180Y-81339789D01*
X132365533Y-81376820D01*
X132369180Y-81413851D01*
X132369180Y-81684052D01*
X132347761Y-81695501D01*
X132136258Y-81869077D01*
X131962682Y-82080580D01*
X131833704Y-82321881D01*
X131831590Y-82328848D01*
X131829477Y-82321881D01*
X131700499Y-82080580D01*
X131526923Y-81869077D01*
X131315420Y-81695501D01*
X131294000Y-81684052D01*
X131294000Y-80604871D01*
X131327277Y-80654674D01*
G37*
X131327277Y-80654674D02*
X131470326Y-80797723D01*
X131638533Y-80910115D01*
X131825435Y-80987533D01*
X132023849Y-81027000D01*
X132226151Y-81027000D01*
X132424565Y-80987533D01*
X132491021Y-80960006D01*
X132423205Y-81086882D01*
X132380090Y-81229011D01*
X132369180Y-81339782D01*
X132369180Y-81339789D01*
X132365533Y-81376820D01*
X132369180Y-81413851D01*
X132369180Y-81684052D01*
X132347761Y-81695501D01*
X132136258Y-81869077D01*
X131962682Y-82080580D01*
X131833704Y-82321881D01*
X131831590Y-82328848D01*
X131829477Y-82321881D01*
X131700499Y-82080580D01*
X131526923Y-81869077D01*
X131315420Y-81695501D01*
X131294000Y-81684052D01*
X131294000Y-80604871D01*
X131327277Y-80654674D01*
G36*
X124727761Y-81695501D02*
G01*
X124516258Y-81869077D01*
X124342682Y-82080580D01*
X124233181Y-82285443D01*
X124123679Y-82080580D01*
X123950103Y-81869077D01*
X123738600Y-81695501D01*
X123516900Y-81577000D01*
X124949461Y-81577000D01*
X124727761Y-81695501D01*
G37*
X124727761Y-81695501D02*
X124516258Y-81869077D01*
X124342682Y-82080580D01*
X124233181Y-82285443D01*
X124123679Y-82080580D01*
X123950103Y-81869077D01*
X123738600Y-81695501D01*
X123516900Y-81577000D01*
X124949461Y-81577000D01*
X124727761Y-81695501D01*
G36*
X130814262Y-78114262D02*
G01*
X130790651Y-78143032D01*
X130033032Y-78900652D01*
X130004263Y-78924262D01*
X129980652Y-78953032D01*
X129980651Y-78953033D01*
X129910039Y-79039074D01*
X129840026Y-79170061D01*
X129796910Y-79312191D01*
X129782353Y-79460000D01*
X129786001Y-79497041D01*
X129786000Y-81684052D01*
X129764581Y-81695501D01*
X129553078Y-81869077D01*
X129379502Y-82080580D01*
X129270001Y-82285443D01*
X129160499Y-82080580D01*
X128986923Y-81869077D01*
X128775420Y-81695501D01*
X128754000Y-81684052D01*
X128754000Y-79812316D01*
X130462317Y-78104000D01*
X130826766Y-78104000D01*
X130814262Y-78114262D01*
G37*
X130814262Y-78114262D02*
X130790651Y-78143032D01*
X130033032Y-78900652D01*
X130004263Y-78924262D01*
X129980652Y-78953032D01*
X129980651Y-78953033D01*
X129910039Y-79039074D01*
X129840026Y-79170061D01*
X129796910Y-79312191D01*
X129782353Y-79460000D01*
X129786001Y-79497041D01*
X129786000Y-81684052D01*
X129764581Y-81695501D01*
X129553078Y-81869077D01*
X129379502Y-82080580D01*
X129270001Y-82285443D01*
X129160499Y-82080580D01*
X128986923Y-81869077D01*
X128775420Y-81695501D01*
X128754000Y-81684052D01*
X128754000Y-79812316D01*
X130462317Y-78104000D01*
X130826766Y-78104000D01*
X130814262Y-78114262D01*
G36*
X122187761Y-81695501D02*
G01*
X121976258Y-81869077D01*
X121802682Y-82080580D01*
X121693181Y-82285443D01*
X121583679Y-82080580D01*
X121410103Y-81869077D01*
X121198600Y-81695501D01*
X120976900Y-81577000D01*
X122409461Y-81577000D01*
X122187761Y-81695501D01*
G37*
X122187761Y-81695501D02*
X121976258Y-81869077D01*
X121802682Y-82080580D01*
X121693181Y-82285443D01*
X121583679Y-82080580D01*
X121410103Y-81869077D01*
X121198600Y-81695501D01*
X120976900Y-81577000D01*
X122409461Y-81577000D01*
X122187761Y-81695501D01*
G36*
X127246001Y-81684052D02*
G01*
X127224581Y-81695501D01*
X127013078Y-81869077D01*
X126839502Y-82080580D01*
X126751591Y-82245051D01*
X126663679Y-82080580D01*
X126490103Y-81869077D01*
X126278600Y-81695501D01*
X126037299Y-81566523D01*
X125775471Y-81487098D01*
X125701501Y-81479813D01*
X125789592Y-81432727D01*
X125923133Y-81323133D01*
X125950597Y-81289668D01*
X127246000Y-79994265D01*
X127246001Y-81684052D01*
G37*
X127246001Y-81684052D02*
X127224581Y-81695501D01*
X127013078Y-81869077D01*
X126839502Y-82080580D01*
X126751591Y-82245051D01*
X126663679Y-82080580D01*
X126490103Y-81869077D01*
X126278600Y-81695501D01*
X126037299Y-81566523D01*
X125775471Y-81487098D01*
X125701501Y-81479813D01*
X125789592Y-81432727D01*
X125923133Y-81323133D01*
X125950597Y-81289668D01*
X127246000Y-79994265D01*
X127246001Y-81684052D01*
G36*
X136655811Y-78506967D02*
G01*
X136679423Y-78535738D01*
X136708193Y-78559349D01*
X136794234Y-78629961D01*
X136925221Y-78699975D01*
X137067351Y-78743090D01*
X137215161Y-78757648D01*
X137252200Y-78754000D01*
X137669967Y-78754000D01*
X137669967Y-79181250D01*
X137686756Y-79351717D01*
X137736480Y-79515632D01*
X137817226Y-79666698D01*
X137925892Y-79799108D01*
X138058302Y-79907774D01*
X138129818Y-79946000D01*
X136368299Y-79946000D01*
X136387533Y-79899565D01*
X136427000Y-79701151D01*
X136427000Y-79498849D01*
X136387533Y-79300435D01*
X136310115Y-79113533D01*
X136197723Y-78945326D01*
X136054674Y-78802277D01*
X135886467Y-78689885D01*
X135699565Y-78612467D01*
X135501151Y-78573000D01*
X135439316Y-78573000D01*
X135009353Y-78143037D01*
X134985738Y-78114262D01*
X134973234Y-78104000D01*
X136252845Y-78104000D01*
X136655811Y-78506967D01*
G37*
X136655811Y-78506967D02*
X136679423Y-78535738D01*
X136708193Y-78559349D01*
X136794234Y-78629961D01*
X136925221Y-78699975D01*
X137067351Y-78743090D01*
X137215161Y-78757648D01*
X137252200Y-78754000D01*
X137669967Y-78754000D01*
X137669967Y-79181250D01*
X137686756Y-79351717D01*
X137736480Y-79515632D01*
X137817226Y-79666698D01*
X137925892Y-79799108D01*
X138058302Y-79907774D01*
X138129818Y-79946000D01*
X136368299Y-79946000D01*
X136387533Y-79899565D01*
X136427000Y-79701151D01*
X136427000Y-79498849D01*
X136387533Y-79300435D01*
X136310115Y-79113533D01*
X136197723Y-78945326D01*
X136054674Y-78802277D01*
X135886467Y-78689885D01*
X135699565Y-78612467D01*
X135501151Y-78573000D01*
X135439316Y-78573000D01*
X135009353Y-78143037D01*
X134985738Y-78114262D01*
X134973234Y-78104000D01*
X136252845Y-78104000D01*
X136655811Y-78506967D01*
G36*
X137736480Y-76484368D02*
G01*
X137686756Y-76648283D01*
X137669967Y-76818750D01*
X137669967Y-77246000D01*
X137527478Y-77246000D01*
X137124514Y-76843037D01*
X137100899Y-76814262D01*
X136986088Y-76720039D01*
X136855100Y-76650025D01*
X136712971Y-76606910D01*
X136602200Y-76596000D01*
X136602192Y-76596000D01*
X136565161Y-76592353D01*
X136528130Y-76596000D01*
X134568627Y-76596000D01*
X134516103Y-76567925D01*
X134397913Y-76532073D01*
X134275000Y-76519967D01*
X133754000Y-76519967D01*
X133754000Y-76377000D01*
X137793869Y-76377000D01*
X137736480Y-76484368D01*
G37*
X137736480Y-76484368D02*
X137686756Y-76648283D01*
X137669967Y-76818750D01*
X137669967Y-77246000D01*
X137527478Y-77246000D01*
X137124514Y-76843037D01*
X137100899Y-76814262D01*
X136986088Y-76720039D01*
X136855100Y-76650025D01*
X136712971Y-76606910D01*
X136602200Y-76596000D01*
X136602192Y-76596000D01*
X136565161Y-76592353D01*
X136528130Y-76596000D01*
X134568627Y-76596000D01*
X134516103Y-76567925D01*
X134397913Y-76532073D01*
X134275000Y-76519967D01*
X133754000Y-76519967D01*
X133754000Y-76377000D01*
X137793869Y-76377000D01*
X137736480Y-76484368D01*
%TD*%
M02*
