%TF.GenerationSoftware,KiCad,Pcbnew,(5.1.6)-1*%
%TF.CreationDate,2022-01-16T22:15:19-05:00*%
%TF.ProjectId,base,62617365-2e6b-4696-9361-645f70636258,rev?*%
%TF.SameCoordinates,Original*%
%TF.FileFunction,Profile,NP*%
%FSLAX46Y46*%
G04 Gerber Fmt 4.6, Leading zero omitted, Abs format (unit mm)*
G04 Created by KiCad (PCBNEW (5.1.6)-1) date 2022-01-16 22:15:19*
%MOMM*%
%LPD*%
G01*
G04 APERTURE LIST*
%TA.AperFunction,Profile*%
%ADD10C,0.100000*%
%TD*%
G04 APERTURE END LIST*
D10*
X162952628Y-86789746D02*
X162452628Y-85923721D01*
X160547372Y-87023721D02*
G75*
G02*
X162452628Y-85923721I952628J550000D01*
G01*
X160547373Y-87023721D02*
X161047373Y-87889746D01*
X167000000Y-78708384D02*
X167000000Y-76000000D01*
X162952627Y-86789746D02*
G75*
G02*
X161047373Y-87889746I-952627J-550000D01*
G01*
X148000000Y-98500000D02*
X142000000Y-98500000D01*
X141000000Y-97500000D02*
X141000000Y-94500000D01*
X142000000Y-98500000D02*
G75*
G02*
X141000000Y-97500000I0J1000000D01*
G01*
X140999999Y-94500000D02*
G75*
G02*
X142000000Y-93499999I1000001J0D01*
G01*
X142000000Y-93500000D02*
X148000000Y-93500000D01*
X148000000Y-93500000D02*
G75*
G02*
X149000000Y-94500000I0J-1000000D01*
G01*
X149000000Y-94500000D02*
X149000000Y-97500000D01*
X149000000Y-97500000D02*
G75*
G02*
X148000000Y-98500000I-1000000J0D01*
G01*
X163600001Y-116000000D02*
G75*
G03*
X163600001Y-116000000I-1600001J0D01*
G01*
X122000000Y-121000000D02*
X162000000Y-121000000D01*
X117000000Y-76000000D02*
X117000000Y-116000000D01*
X163600001Y-76000000D02*
G75*
G03*
X163600001Y-76000000I-1600001J0D01*
G01*
X123600000Y-76000000D02*
G75*
G03*
X123600000Y-76000000I-1600000J0D01*
G01*
X122000000Y-120999999D02*
G75*
G02*
X117000001Y-116000000I0J4999999D01*
G01*
X123600000Y-116000000D02*
G75*
G03*
X123600000Y-116000000I-1600000J0D01*
G01*
X162452628Y-106076279D02*
X162952628Y-105210254D01*
X161047372Y-104110254D02*
G75*
G02*
X162952628Y-105210254I952628J-550000D01*
G01*
X161047373Y-104110254D02*
X160547373Y-104976279D01*
X162000000Y-71000000D02*
X122000000Y-71000000D01*
X178000000Y-94900000D02*
G75*
G02*
X178000000Y-97100000I0J-1100000D01*
G01*
X170611111Y-83511611D02*
G75*
G02*
X167000000Y-78708384I1388889J4803227D01*
G01*
X178000000Y-94900000D02*
X177000000Y-94900000D01*
X167000000Y-116000000D02*
G75*
G02*
X162000000Y-121000000I-5000000J0D01*
G01*
X177000000Y-97100000D02*
G75*
G02*
X177000000Y-94900000I0J1100000D01*
G01*
X177000000Y-97100000D02*
X178000000Y-97100000D01*
X167000000Y-113291616D02*
G75*
G02*
X170611111Y-108488389I5000000J0D01*
G01*
X162000000Y-71000000D02*
G75*
G02*
X167000000Y-76000000I0J-5000000D01*
G01*
X167000000Y-116000000D02*
X167000000Y-113291616D01*
X162452627Y-106076279D02*
G75*
G02*
X160547373Y-104976279I-952627J550000D01*
G01*
X117000001Y-76000000D02*
G75*
G02*
X122000000Y-71000001I4999999J0D01*
G01*
X170611111Y-83511611D02*
G75*
G02*
X170611111Y-108488389I-3611111J-12488389D01*
G01*
M02*
