%TF.GenerationSoftware,KiCad,Pcbnew,(5.1.6)-1*%
%TF.CreationDate,2022-01-16T22:15:19-05:00*%
%TF.ProjectId,base,62617365-2e6b-4696-9361-645f70636258,rev?*%
%TF.SameCoordinates,Original*%
%TF.FileFunction,Soldermask,Top*%
%TF.FilePolarity,Negative*%
%FSLAX46Y46*%
G04 Gerber Fmt 4.6, Leading zero omitted, Abs format (unit mm)*
G04 Created by KiCad (PCBNEW (5.1.6)-1) date 2022-01-16 22:15:19*
%MOMM*%
%LPD*%
G01*
G04 APERTURE LIST*
%ADD10C,1.448000*%
%ADD11C,4.600000*%
%ADD12C,3.100000*%
%ADD13C,4.087800*%
%ADD14C,1.801800*%
%ADD15C,0.900000*%
%ADD16C,6.500000*%
G04 APERTURE END LIST*
D10*
%TO.C,REF\u002A\u002A*%
X158000000Y-73000000D03*
%TD*%
%TO.C,REF\u002A\u002A*%
X126000000Y-119000000D03*
%TD*%
%TO.C,REF\u002A\u002A*%
X158000000Y-119000000D03*
%TD*%
%TO.C,U3*%
G36*
G01*
X168450000Y-94270000D02*
X168450000Y-93920000D01*
G75*
G02*
X168625000Y-93745000I175000J0D01*
G01*
X170325000Y-93745000D01*
G75*
G02*
X170500000Y-93920000I0J-175000D01*
G01*
X170500000Y-94270000D01*
G75*
G02*
X170325000Y-94445000I-175000J0D01*
G01*
X168625000Y-94445000D01*
G75*
G02*
X168450000Y-94270000I0J175000D01*
G01*
G37*
G36*
G01*
X168450000Y-95540000D02*
X168450000Y-95190000D01*
G75*
G02*
X168625000Y-95015000I175000J0D01*
G01*
X170325000Y-95015000D01*
G75*
G02*
X170500000Y-95190000I0J-175000D01*
G01*
X170500000Y-95540000D01*
G75*
G02*
X170325000Y-95715000I-175000J0D01*
G01*
X168625000Y-95715000D01*
G75*
G02*
X168450000Y-95540000I0J175000D01*
G01*
G37*
G36*
G01*
X168450000Y-96810000D02*
X168450000Y-96460000D01*
G75*
G02*
X168625000Y-96285000I175000J0D01*
G01*
X170325000Y-96285000D01*
G75*
G02*
X170500000Y-96460000I0J-175000D01*
G01*
X170500000Y-96810000D01*
G75*
G02*
X170325000Y-96985000I-175000J0D01*
G01*
X168625000Y-96985000D01*
G75*
G02*
X168450000Y-96810000I0J175000D01*
G01*
G37*
G36*
G01*
X168450000Y-98080000D02*
X168450000Y-97730000D01*
G75*
G02*
X168625000Y-97555000I175000J0D01*
G01*
X170325000Y-97555000D01*
G75*
G02*
X170500000Y-97730000I0J-175000D01*
G01*
X170500000Y-98080000D01*
G75*
G02*
X170325000Y-98255000I-175000J0D01*
G01*
X168625000Y-98255000D01*
G75*
G02*
X168450000Y-98080000I0J175000D01*
G01*
G37*
G36*
G01*
X163500000Y-98080000D02*
X163500000Y-97730000D01*
G75*
G02*
X163675000Y-97555000I175000J0D01*
G01*
X165375000Y-97555000D01*
G75*
G02*
X165550000Y-97730000I0J-175000D01*
G01*
X165550000Y-98080000D01*
G75*
G02*
X165375000Y-98255000I-175000J0D01*
G01*
X163675000Y-98255000D01*
G75*
G02*
X163500000Y-98080000I0J175000D01*
G01*
G37*
G36*
G01*
X163500000Y-96810000D02*
X163500000Y-96460000D01*
G75*
G02*
X163675000Y-96285000I175000J0D01*
G01*
X165375000Y-96285000D01*
G75*
G02*
X165550000Y-96460000I0J-175000D01*
G01*
X165550000Y-96810000D01*
G75*
G02*
X165375000Y-96985000I-175000J0D01*
G01*
X163675000Y-96985000D01*
G75*
G02*
X163500000Y-96810000I0J175000D01*
G01*
G37*
G36*
G01*
X163500000Y-95540000D02*
X163500000Y-95190000D01*
G75*
G02*
X163675000Y-95015000I175000J0D01*
G01*
X165375000Y-95015000D01*
G75*
G02*
X165550000Y-95190000I0J-175000D01*
G01*
X165550000Y-95540000D01*
G75*
G02*
X165375000Y-95715000I-175000J0D01*
G01*
X163675000Y-95715000D01*
G75*
G02*
X163500000Y-95540000I0J175000D01*
G01*
G37*
G36*
G01*
X163500000Y-94270000D02*
X163500000Y-93920000D01*
G75*
G02*
X163675000Y-93745000I175000J0D01*
G01*
X165375000Y-93745000D01*
G75*
G02*
X165550000Y-93920000I0J-175000D01*
G01*
X165550000Y-94270000D01*
G75*
G02*
X165375000Y-94445000I-175000J0D01*
G01*
X163675000Y-94445000D01*
G75*
G02*
X163500000Y-94270000I0J175000D01*
G01*
G37*
%TD*%
D11*
%TO.C,SW2*%
X142000000Y-106500000D03*
D12*
X139460000Y-116080000D03*
X145810000Y-113540000D03*
D13*
X142000000Y-111000000D03*
D14*
X136920000Y-111000000D03*
X147080000Y-111000000D03*
%TD*%
D15*
%TO.C,H4*%
X163697056Y-74302944D03*
X162000000Y-73600000D03*
X160302944Y-74302944D03*
X159600000Y-76000000D03*
X160302944Y-77697056D03*
X162000000Y-78400000D03*
X163697056Y-77697056D03*
X164400000Y-76000000D03*
D16*
X162000000Y-76000000D03*
%TD*%
D15*
%TO.C,H3*%
X163697056Y-114302944D03*
X162000000Y-113600000D03*
X160302944Y-114302944D03*
X159600000Y-116000000D03*
X160302944Y-117697056D03*
X162000000Y-118400000D03*
X163697056Y-117697056D03*
X164400000Y-116000000D03*
D16*
X162000000Y-116000000D03*
%TD*%
D15*
%TO.C,H2*%
X123697056Y-114302944D03*
X122000000Y-113600000D03*
X120302944Y-114302944D03*
X119600000Y-116000000D03*
X120302944Y-117697056D03*
X122000000Y-118400000D03*
X123697056Y-117697056D03*
X124400000Y-116000000D03*
D16*
X122000000Y-116000000D03*
%TD*%
D15*
%TO.C,H1*%
X123697056Y-74302944D03*
X122000000Y-73600000D03*
X120302944Y-74302944D03*
X119600000Y-76000000D03*
X120302944Y-77697056D03*
X122000000Y-78400000D03*
X123697056Y-77697056D03*
X124400000Y-76000000D03*
D16*
X122000000Y-76000000D03*
%TD*%
M02*
