G04 #@! TF.GenerationSoftware,KiCad,Pcbnew,(5.1.6)-1*
G04 #@! TF.CreationDate,2022-02-17T20:05:14-05:00*
G04 #@! TF.ProjectId,upperArm,75707065-7241-4726-9d2e-6b696361645f,rev?*
G04 #@! TF.SameCoordinates,Original*
G04 #@! TF.FileFunction,Copper,L2,Bot*
G04 #@! TF.FilePolarity,Positive*
%FSLAX46Y46*%
G04 Gerber Fmt 4.6, Leading zero omitted, Abs format (unit mm)*
G04 Created by KiCad (PCBNEW (5.1.6)-1) date 2022-02-17 20:05:14*
%MOMM*%
%LPD*%
G01*
G04 APERTURE LIST*
G04 #@! TA.AperFunction,SMDPad,CuDef*
%ADD10R,2.794000X0.990600*%
G04 #@! TD*
G04 #@! TA.AperFunction,SMDPad,CuDef*
%ADD11R,1.701800X0.609600*%
G04 #@! TD*
G04 #@! TA.AperFunction,Conductor*
%ADD12C,0.500000*%
G04 #@! TD*
G04 #@! TA.AperFunction,Conductor*
%ADD13C,0.250000*%
G04 #@! TD*
G04 APERTURE END LIST*
D10*
X138703601Y-91900001D03*
X138703601Y-98099999D03*
D11*
X143853601Y-92999999D03*
X143853601Y-93999999D03*
X143853601Y-95000000D03*
X143853601Y-96000001D03*
X143853601Y-97000001D03*
G04 #@! TA.AperFunction,SMDPad,CuDef*
G36*
G01*
X180500000Y-97055000D02*
X180500000Y-96755000D01*
G75*
G02*
X180650000Y-96605000I150000J0D01*
G01*
X182300000Y-96605000D01*
G75*
G02*
X182450000Y-96755000I0J-150000D01*
G01*
X182450000Y-97055000D01*
G75*
G02*
X182300000Y-97205000I-150000J0D01*
G01*
X180650000Y-97205000D01*
G75*
G02*
X180500000Y-97055000I0J150000D01*
G01*
G37*
G04 #@! TD.AperFunction*
G04 #@! TA.AperFunction,SMDPad,CuDef*
G36*
G01*
X180500000Y-95785000D02*
X180500000Y-95485000D01*
G75*
G02*
X180650000Y-95335000I150000J0D01*
G01*
X182300000Y-95335000D01*
G75*
G02*
X182450000Y-95485000I0J-150000D01*
G01*
X182450000Y-95785000D01*
G75*
G02*
X182300000Y-95935000I-150000J0D01*
G01*
X180650000Y-95935000D01*
G75*
G02*
X180500000Y-95785000I0J150000D01*
G01*
G37*
G04 #@! TD.AperFunction*
G04 #@! TA.AperFunction,SMDPad,CuDef*
G36*
G01*
X180500000Y-94515000D02*
X180500000Y-94215000D01*
G75*
G02*
X180650000Y-94065000I150000J0D01*
G01*
X182300000Y-94065000D01*
G75*
G02*
X182450000Y-94215000I0J-150000D01*
G01*
X182450000Y-94515000D01*
G75*
G02*
X182300000Y-94665000I-150000J0D01*
G01*
X180650000Y-94665000D01*
G75*
G02*
X180500000Y-94515000I0J150000D01*
G01*
G37*
G04 #@! TD.AperFunction*
G04 #@! TA.AperFunction,SMDPad,CuDef*
G36*
G01*
X180500000Y-93245000D02*
X180500000Y-92945000D01*
G75*
G02*
X180650000Y-92795000I150000J0D01*
G01*
X182300000Y-92795000D01*
G75*
G02*
X182450000Y-92945000I0J-150000D01*
G01*
X182450000Y-93245000D01*
G75*
G02*
X182300000Y-93395000I-150000J0D01*
G01*
X180650000Y-93395000D01*
G75*
G02*
X180500000Y-93245000I0J150000D01*
G01*
G37*
G04 #@! TD.AperFunction*
G04 #@! TA.AperFunction,SMDPad,CuDef*
G36*
G01*
X175550000Y-93245000D02*
X175550000Y-92945000D01*
G75*
G02*
X175700000Y-92795000I150000J0D01*
G01*
X177350000Y-92795000D01*
G75*
G02*
X177500000Y-92945000I0J-150000D01*
G01*
X177500000Y-93245000D01*
G75*
G02*
X177350000Y-93395000I-150000J0D01*
G01*
X175700000Y-93395000D01*
G75*
G02*
X175550000Y-93245000I0J150000D01*
G01*
G37*
G04 #@! TD.AperFunction*
G04 #@! TA.AperFunction,SMDPad,CuDef*
G36*
G01*
X175550000Y-94515000D02*
X175550000Y-94215000D01*
G75*
G02*
X175700000Y-94065000I150000J0D01*
G01*
X177350000Y-94065000D01*
G75*
G02*
X177500000Y-94215000I0J-150000D01*
G01*
X177500000Y-94515000D01*
G75*
G02*
X177350000Y-94665000I-150000J0D01*
G01*
X175700000Y-94665000D01*
G75*
G02*
X175550000Y-94515000I0J150000D01*
G01*
G37*
G04 #@! TD.AperFunction*
G04 #@! TA.AperFunction,SMDPad,CuDef*
G36*
G01*
X175550000Y-95785000D02*
X175550000Y-95485000D01*
G75*
G02*
X175700000Y-95335000I150000J0D01*
G01*
X177350000Y-95335000D01*
G75*
G02*
X177500000Y-95485000I0J-150000D01*
G01*
X177500000Y-95785000D01*
G75*
G02*
X177350000Y-95935000I-150000J0D01*
G01*
X175700000Y-95935000D01*
G75*
G02*
X175550000Y-95785000I0J150000D01*
G01*
G37*
G04 #@! TD.AperFunction*
G04 #@! TA.AperFunction,SMDPad,CuDef*
G36*
G01*
X175550000Y-97055000D02*
X175550000Y-96755000D01*
G75*
G02*
X175700000Y-96605000I150000J0D01*
G01*
X177350000Y-96605000D01*
G75*
G02*
X177500000Y-96755000I0J-150000D01*
G01*
X177500000Y-97055000D01*
G75*
G02*
X177350000Y-97205000I-150000J0D01*
G01*
X175700000Y-97205000D01*
G75*
G02*
X175550000Y-97055000I0J150000D01*
G01*
G37*
G04 #@! TD.AperFunction*
G04 #@! TA.AperFunction,SMDPad,CuDef*
G36*
G01*
X179350000Y-98956250D02*
X179350000Y-98443750D01*
G75*
G02*
X179568750Y-98225000I218750J0D01*
G01*
X180006250Y-98225000D01*
G75*
G02*
X180225000Y-98443750I0J-218750D01*
G01*
X180225000Y-98956250D01*
G75*
G02*
X180006250Y-99175000I-218750J0D01*
G01*
X179568750Y-99175000D01*
G75*
G02*
X179350000Y-98956250I0J218750D01*
G01*
G37*
G04 #@! TD.AperFunction*
G04 #@! TA.AperFunction,SMDPad,CuDef*
G36*
G01*
X177775000Y-98956250D02*
X177775000Y-98443750D01*
G75*
G02*
X177993750Y-98225000I218750J0D01*
G01*
X178431250Y-98225000D01*
G75*
G02*
X178650000Y-98443750I0J-218750D01*
G01*
X178650000Y-98956250D01*
G75*
G02*
X178431250Y-99175000I-218750J0D01*
G01*
X177993750Y-99175000D01*
G75*
G02*
X177775000Y-98956250I0J218750D01*
G01*
G37*
G04 #@! TD.AperFunction*
D12*
X179405000Y-96905000D02*
X178900000Y-96400000D01*
X181475000Y-96905000D02*
X179405000Y-96905000D01*
X178900000Y-96400000D02*
X178900000Y-93900000D01*
X176520000Y-93100000D02*
X176525000Y-93095000D01*
X178100000Y-93100000D02*
X176520000Y-93100000D01*
X178900000Y-93900000D02*
X178100000Y-93100000D01*
X179787500Y-97287500D02*
X179405000Y-96905000D01*
X179787500Y-98700000D02*
X179787500Y-97287500D01*
X142887899Y-97000001D02*
X143853601Y-97000001D01*
X142400000Y-94487899D02*
X142400000Y-96512102D01*
X142400000Y-96512102D02*
X142887899Y-97000001D01*
X143853601Y-93999999D02*
X142887900Y-93999999D01*
X142887900Y-93999999D02*
X142400000Y-94487899D01*
X145100001Y-97000001D02*
X143853601Y-97000001D01*
X146100000Y-98000000D02*
X145100001Y-97000001D01*
X174905000Y-93095000D02*
X174600000Y-93400000D01*
X176525000Y-93095000D02*
X174905000Y-93095000D01*
X174600000Y-93400000D02*
X174600000Y-97300000D01*
X173900000Y-98000000D02*
X146100000Y-98000000D01*
X174600000Y-97300000D02*
X173900000Y-98000000D01*
D13*
X182765000Y-95635000D02*
X181475000Y-95635000D01*
X183700000Y-94700000D02*
X182765000Y-95635000D01*
X182600000Y-91000000D02*
X183700000Y-92100000D01*
X144954501Y-95000000D02*
X145169347Y-94785154D01*
X143853601Y-95000000D02*
X144954501Y-95000000D01*
X145169347Y-94785154D02*
X145169347Y-92330653D01*
X146500000Y-91000000D02*
X182600000Y-91000000D01*
X183700000Y-92100000D02*
X183700000Y-94700000D01*
X145169347Y-92330653D02*
X146500000Y-91000000D01*
D12*
X178200000Y-98687500D02*
X178212500Y-98700000D01*
X176525000Y-96905000D02*
X176525000Y-95635000D01*
X176525000Y-96905000D02*
X176500000Y-96930000D01*
X177200000Y-98700000D02*
X178212500Y-98700000D01*
X176500000Y-96930000D02*
X176500000Y-98000000D01*
X176500000Y-98000000D02*
X177200000Y-98700000D01*
X142700001Y-92999999D02*
X143853601Y-92999999D01*
X175600000Y-98900000D02*
X143000000Y-98900000D01*
X176500000Y-98000000D02*
X175600000Y-98900000D01*
X141600000Y-97500000D02*
X141600000Y-94100000D01*
X143000000Y-98900000D02*
X141600000Y-97500000D01*
X141600000Y-94100000D02*
X142700001Y-92999999D01*
D13*
X183100000Y-94050000D02*
X182785000Y-94365000D01*
X182785000Y-94365000D02*
X181475000Y-94365000D01*
X183100000Y-92400000D02*
X183100000Y-94050000D01*
X182400000Y-91700000D02*
X183100000Y-92400000D01*
X144954501Y-96000001D02*
X145619357Y-95335145D01*
X145619357Y-92580643D02*
X146500000Y-91700000D01*
X143853601Y-96000001D02*
X144954501Y-96000001D01*
X145619357Y-95335145D02*
X145619357Y-92580643D01*
X146500000Y-91700000D02*
X182400000Y-91700000D01*
M02*
