G04 #@! TF.GenerationSoftware,KiCad,Pcbnew,(5.1.6)-1*
G04 #@! TF.CreationDate,2022-02-17T20:05:14-05:00*
G04 #@! TF.ProjectId,upperArm,75707065-7241-4726-9d2e-6b696361645f,rev?*
G04 #@! TF.SameCoordinates,Original*
G04 #@! TF.FileFunction,Profile,NP*
%FSLAX46Y46*%
G04 Gerber Fmt 4.6, Leading zero omitted, Abs format (unit mm)*
G04 Created by KiCad (PCBNEW (5.1.6)-1) date 2022-02-17 20:05:14*
%MOMM*%
%LPD*%
G01*
G04 APERTURE LIST*
G04 #@! TA.AperFunction,Profile*
%ADD10C,0.100000*%
G04 #@! TD*
G04 APERTURE END LIST*
D10*
X129999999Y-97500000D02*
G75*
G02*
X129000000Y-96499999I1J1000000D01*
G01*
X130000000Y-97500000D02*
X136000000Y-97500000D01*
X137000000Y-96500000D02*
G75*
G02*
X136000000Y-97500000I-1000000J0D01*
G01*
X137000000Y-96500000D02*
X137000000Y-93500000D01*
X136000000Y-92499999D02*
G75*
G02*
X137000001Y-93500000I0J-1000001D01*
G01*
X136000000Y-92500000D02*
X130000000Y-92500000D01*
X129000000Y-93500000D02*
G75*
G02*
X130000000Y-92500000I1000000J0D01*
G01*
X129000000Y-93500000D02*
X129000000Y-96499999D01*
X111000000Y-93900000D02*
X110000000Y-93900000D01*
X110000000Y-96100000D02*
G75*
G02*
X110000000Y-93900000I0J1100000D01*
G01*
X110000000Y-96100000D02*
X111000000Y-96100000D01*
X111000000Y-93900000D02*
G75*
G02*
X111000000Y-96100000I0J-1100000D01*
G01*
X189000000Y-96100000D02*
X190000000Y-96100000D01*
X190000000Y-93900000D02*
G75*
G02*
X190000000Y-96100000I0J-1100000D01*
G01*
X190000000Y-93900000D02*
X189000000Y-93900000D01*
X189000000Y-96100000D02*
G75*
G02*
X189000000Y-93900000I0J1100000D01*
G01*
X174952627Y-85789746D02*
X174452627Y-84923721D01*
X172547373Y-86023721D02*
G75*
G02*
X174452627Y-84923721I952627J550000D01*
G01*
X172547372Y-86023721D02*
X173047372Y-86889746D01*
X174952628Y-85789746D02*
G75*
G02*
X173047372Y-86889746I-952628J-550000D01*
G01*
X186543263Y-99909091D02*
G75*
G02*
X188219544Y-99000000I1676281J-1090909D01*
G01*
X186543263Y-99909091D02*
G75*
G02*
X179479765Y-103987203I-7543263J4909091D01*
G01*
X177854329Y-104984359D02*
G75*
G02*
X179479765Y-103987203I1732051J-1000000D01*
G01*
X177854329Y-104984359D02*
X177055774Y-106367496D01*
X177055774Y-106367495D02*
G75*
G02*
X174655310Y-107252496I-1732051J999999D01*
G01*
X174655310Y-107252496D02*
G75*
G02*
X168190767Y-102222222I4344690J12252496D01*
G01*
X164033370Y-100000000D02*
G75*
G02*
X168190767Y-102222222I0J-5000000D01*
G01*
X140414214Y-100000000D02*
X164033370Y-100000000D01*
X139707107Y-100292893D02*
G75*
G02*
X140414214Y-99999999I707107J-707107D01*
G01*
X139292894Y-100707106D02*
X139707107Y-100292893D01*
X139292894Y-100707107D02*
G75*
G02*
X138585787Y-101000000I-707107J707107D01*
G01*
X131298374Y-101000000D02*
X138585787Y-101000000D01*
X127571594Y-102666667D02*
G75*
G02*
X131298374Y-101000000I3726780J-3333333D01*
G01*
X127571594Y-102666667D02*
G75*
G02*
X127571594Y-87333334I-8571594J7666667D01*
G01*
X131298374Y-89000000D02*
G75*
G02*
X127571594Y-87333334I0J5000000D01*
G01*
X138585787Y-89000000D02*
X131298374Y-89000000D01*
X138585788Y-89000000D02*
G75*
G02*
X139292894Y-89292894I-1J-1000000D01*
G01*
X139707107Y-89707107D02*
X139292894Y-89292894D01*
X140414214Y-90000000D02*
G75*
G02*
X139707107Y-89707107I0J1000000D01*
G01*
X164033370Y-90000000D02*
X140414214Y-90000000D01*
X168190768Y-87777778D02*
G75*
G02*
X164033370Y-90000001I-4157398J2777778D01*
G01*
X168190767Y-87777778D02*
G75*
G02*
X174655310Y-82747504I10809233J-7222222D01*
G01*
X174655309Y-82747505D02*
G75*
G02*
X177055774Y-83632504I668414J-1884999D01*
G01*
X177055774Y-83632504D02*
X177854329Y-85015641D01*
X179479765Y-86012797D02*
G75*
G02*
X177854329Y-85015641I106615J1997156D01*
G01*
X179479766Y-86012798D02*
G75*
G02*
X186543263Y-90090910I-479766J-8987202D01*
G01*
X188219545Y-91000001D02*
G75*
G02*
X186543263Y-90090910I-1J2000001D01*
G01*
X188219544Y-91000000D02*
X189816653Y-91000000D01*
X189816653Y-90999999D02*
G75*
G02*
X191783318Y-92636364I0J-2000001D01*
G01*
X191783318Y-92636363D02*
G75*
G02*
X191783318Y-97363636I-12783318J-2363637D01*
G01*
X191783317Y-97363636D02*
G75*
G02*
X189816653Y-99000000I-1966664J363636D01*
G01*
X189816653Y-99000000D02*
X188219544Y-99000000D01*
X173047372Y-103110254D02*
X172547372Y-103976279D01*
X174452628Y-105076279D02*
G75*
G02*
X172547372Y-103976279I-952628J550000D01*
G01*
X174452627Y-105076279D02*
X174952627Y-104210254D01*
X173047373Y-103110254D02*
G75*
G02*
X174952627Y-104210254I952627J-550000D01*
G01*
X123952628Y-88621797D02*
X124452628Y-87755772D01*
X122547372Y-86655772D02*
G75*
G02*
X124452628Y-87755772I952628J-550000D01*
G01*
X122547373Y-86655772D02*
X122047373Y-87521797D01*
X123952627Y-88621797D02*
G75*
G02*
X122047373Y-87521797I-952627J550000D01*
G01*
X122047373Y-102478203D02*
X122547373Y-103344228D01*
X124452627Y-102244228D02*
G75*
G02*
X122547373Y-103344228I-952627J-550000D01*
G01*
X124452628Y-102244228D02*
X123952628Y-101378203D01*
X122047372Y-102478203D02*
G75*
G02*
X123952628Y-101378203I952628J550000D01*
G01*
X170000000Y-96000000D02*
G75*
G02*
X169000000Y-97000000I-1000000J0D01*
G01*
X170000000Y-96000000D02*
X170000000Y-94000000D01*
X169000000Y-93000000D02*
G75*
G02*
X170000000Y-94000000I0J-1000000D01*
G01*
X169000000Y-93000000D02*
X147000000Y-93000000D01*
X146000000Y-94000000D02*
G75*
G02*
X147000000Y-93000000I1000000J0D01*
G01*
X146000000Y-94000000D02*
X146000000Y-96000000D01*
X146999999Y-97000000D02*
G75*
G02*
X146000000Y-95999999I1J1000000D01*
G01*
X147000000Y-97000000D02*
X169000000Y-97000000D01*
X124000000Y-95000000D02*
G75*
G03*
X124000000Y-95000000I-5000000J0D01*
G01*
M02*
