%TF.GenerationSoftware,KiCad,Pcbnew,(5.1.6)-1*%
%TF.CreationDate,2021-12-23T20:52:21-05:00*%
%TF.ProjectId,upperArm,75707065-7241-4726-9d2e-6b696361645f,rev?*%
%TF.SameCoordinates,Original*%
%TF.FileFunction,Legend,Bot*%
%TF.FilePolarity,Positive*%
%FSLAX46Y46*%
G04 Gerber Fmt 4.6, Leading zero omitted, Abs format (unit mm)*
G04 Created by KiCad (PCBNEW (5.1.6)-1) date 2021-12-23 20:52:21*
%MOMM*%
%LPD*%
G01*
G04 APERTURE LIST*
%ADD10C,0.120000*%
%ADD11C,0.150000*%
G04 APERTURE END LIST*
D10*
%TO.C,J1*%
X137469400Y-97271959D02*
X137469400Y-92728041D01*
X140431289Y-91367800D02*
X144530601Y-91367800D01*
X144530601Y-91367800D02*
X144530601Y-92362459D01*
X144530601Y-98632200D02*
X140431289Y-98632200D01*
X144530601Y-97637541D02*
X144530601Y-98632200D01*
%TO.C,U1*%
X179000000Y-92440000D02*
X180950000Y-92440000D01*
X179000000Y-92440000D02*
X177050000Y-92440000D01*
X179000000Y-97560000D02*
X180950000Y-97560000D01*
X179000000Y-97560000D02*
X175550000Y-97560000D01*
%TO.C,C1*%
X178837221Y-98190000D02*
X179162779Y-98190000D01*
X178837221Y-99210000D02*
X179162779Y-99210000D01*
%TO.C,J1*%
D11*
X143305981Y-94666666D02*
X144020267Y-94666666D01*
X144163124Y-94619047D01*
X144258362Y-94523809D01*
X144305981Y-94380952D01*
X144305981Y-94285714D01*
X144305981Y-95666666D02*
X144305981Y-95095238D01*
X144305981Y-95380952D02*
X143305981Y-95380952D01*
X143448839Y-95285714D01*
X143544077Y-95190476D01*
X143591696Y-95095238D01*
X146452380Y-94952380D02*
X146452380Y-95047619D01*
X146500000Y-95142857D01*
X146547619Y-95190476D01*
X146642857Y-95238095D01*
X146833333Y-95285714D01*
X147071428Y-95285714D01*
X147261904Y-95238095D01*
X147357142Y-95190476D01*
X147404761Y-95142857D01*
X147452380Y-95047619D01*
X147452380Y-94952380D01*
X147404761Y-94857142D01*
X147357142Y-94809523D01*
X147261904Y-94761904D01*
X147071428Y-94714285D01*
X146833333Y-94714285D01*
X146642857Y-94761904D01*
X146547619Y-94809523D01*
X146500000Y-94857142D01*
X146452380Y-94952380D01*
%TO.C,U1*%
X179861904Y-90952380D02*
X179861904Y-91761904D01*
X179814285Y-91857142D01*
X179766666Y-91904761D01*
X179671428Y-91952380D01*
X179480952Y-91952380D01*
X179385714Y-91904761D01*
X179338095Y-91857142D01*
X179290476Y-91761904D01*
X179290476Y-90952380D01*
X178290476Y-91952380D02*
X178861904Y-91952380D01*
X178576190Y-91952380D02*
X178576190Y-90952380D01*
X178671428Y-91095238D01*
X178766666Y-91190476D01*
X178861904Y-91238095D01*
%TO.C,C1*%
X179166666Y-100557142D02*
X179214285Y-100604761D01*
X179357142Y-100652380D01*
X179452380Y-100652380D01*
X179595238Y-100604761D01*
X179690476Y-100509523D01*
X179738095Y-100414285D01*
X179785714Y-100223809D01*
X179785714Y-100080952D01*
X179738095Y-99890476D01*
X179690476Y-99795238D01*
X179595238Y-99700000D01*
X179452380Y-99652380D01*
X179357142Y-99652380D01*
X179214285Y-99700000D01*
X179166666Y-99747619D01*
X178214285Y-100652380D02*
X178785714Y-100652380D01*
X178500000Y-100652380D02*
X178500000Y-99652380D01*
X178595238Y-99795238D01*
X178690476Y-99890476D01*
X178785714Y-99938095D01*
%TD*%
M02*
