G04 #@! TF.GenerationSoftware,KiCad,Pcbnew,(5.1.6)-1*
G04 #@! TF.CreationDate,2022-02-17T20:05:14-05:00*
G04 #@! TF.ProjectId,upperArm,75707065-7241-4726-9d2e-6b696361645f,rev?*
G04 #@! TF.SameCoordinates,Original*
G04 #@! TF.FileFunction,Legend,Bot*
G04 #@! TF.FilePolarity,Positive*
%FSLAX46Y46*%
G04 Gerber Fmt 4.6, Leading zero omitted, Abs format (unit mm)*
G04 Created by KiCad (PCBNEW (5.1.6)-1) date 2022-02-17 20:05:14*
%MOMM*%
%LPD*%
G01*
G04 APERTURE LIST*
%ADD10C,0.120000*%
%ADD11C,0.150000*%
%ADD12R,2.894000X1.090600*%
%ADD13R,1.801800X0.709600*%
G04 APERTURE END LIST*
D10*
X144530601Y-97637541D02*
X144530601Y-98632200D01*
X144530601Y-98632200D02*
X140431289Y-98632200D01*
X144530601Y-91367800D02*
X144530601Y-92362459D01*
X140431289Y-91367800D02*
X144530601Y-91367800D01*
X137469400Y-97271959D02*
X137469400Y-92728041D01*
X179000000Y-97560000D02*
X175550000Y-97560000D01*
X179000000Y-97560000D02*
X180950000Y-97560000D01*
X179000000Y-92440000D02*
X177050000Y-92440000D01*
X179000000Y-92440000D02*
X180950000Y-92440000D01*
X178837221Y-99210000D02*
X179162779Y-99210000D01*
X178837221Y-98190000D02*
X179162779Y-98190000D01*
D11*
X143305981Y-94666666D02*
X144020267Y-94666666D01*
X144163124Y-94619047D01*
X144258362Y-94523809D01*
X144305981Y-94380952D01*
X144305981Y-94285714D01*
X144305981Y-95666666D02*
X144305981Y-95095238D01*
X144305981Y-95380952D02*
X143305981Y-95380952D01*
X143448839Y-95285714D01*
X143544077Y-95190476D01*
X143591696Y-95095238D01*
X179861904Y-90952380D02*
X179861904Y-91761904D01*
X179814285Y-91857142D01*
X179766666Y-91904761D01*
X179671428Y-91952380D01*
X179480952Y-91952380D01*
X179385714Y-91904761D01*
X179338095Y-91857142D01*
X179290476Y-91761904D01*
X179290476Y-90952380D01*
X178290476Y-91952380D02*
X178861904Y-91952380D01*
X178576190Y-91952380D02*
X178576190Y-90952380D01*
X178671428Y-91095238D01*
X178766666Y-91190476D01*
X178861904Y-91238095D01*
X179166666Y-100557142D02*
X179214285Y-100604761D01*
X179357142Y-100652380D01*
X179452380Y-100652380D01*
X179595238Y-100604761D01*
X179690476Y-100509523D01*
X179738095Y-100414285D01*
X179785714Y-100223809D01*
X179785714Y-100080952D01*
X179738095Y-99890476D01*
X179690476Y-99795238D01*
X179595238Y-99700000D01*
X179452380Y-99652380D01*
X179357142Y-99652380D01*
X179214285Y-99700000D01*
X179166666Y-99747619D01*
X178214285Y-100652380D02*
X178785714Y-100652380D01*
X178500000Y-100652380D02*
X178500000Y-99652380D01*
X178595238Y-99795238D01*
X178690476Y-99890476D01*
X178785714Y-99938095D01*
%LPC*%
D12*
X138703601Y-91900001D03*
X138703601Y-98099999D03*
D13*
X143853601Y-92999999D03*
X143853601Y-93999999D03*
X143853601Y-95000000D03*
X143853601Y-96000001D03*
X143853601Y-97000001D03*
G36*
G01*
X180450000Y-97080000D02*
X180450000Y-96730000D01*
G75*
G02*
X180625000Y-96555000I175000J0D01*
G01*
X182325000Y-96555000D01*
G75*
G02*
X182500000Y-96730000I0J-175000D01*
G01*
X182500000Y-97080000D01*
G75*
G02*
X182325000Y-97255000I-175000J0D01*
G01*
X180625000Y-97255000D01*
G75*
G02*
X180450000Y-97080000I0J175000D01*
G01*
G37*
G36*
G01*
X180450000Y-95810000D02*
X180450000Y-95460000D01*
G75*
G02*
X180625000Y-95285000I175000J0D01*
G01*
X182325000Y-95285000D01*
G75*
G02*
X182500000Y-95460000I0J-175000D01*
G01*
X182500000Y-95810000D01*
G75*
G02*
X182325000Y-95985000I-175000J0D01*
G01*
X180625000Y-95985000D01*
G75*
G02*
X180450000Y-95810000I0J175000D01*
G01*
G37*
G36*
G01*
X180450000Y-94540000D02*
X180450000Y-94190000D01*
G75*
G02*
X180625000Y-94015000I175000J0D01*
G01*
X182325000Y-94015000D01*
G75*
G02*
X182500000Y-94190000I0J-175000D01*
G01*
X182500000Y-94540000D01*
G75*
G02*
X182325000Y-94715000I-175000J0D01*
G01*
X180625000Y-94715000D01*
G75*
G02*
X180450000Y-94540000I0J175000D01*
G01*
G37*
G36*
G01*
X180450000Y-93270000D02*
X180450000Y-92920000D01*
G75*
G02*
X180625000Y-92745000I175000J0D01*
G01*
X182325000Y-92745000D01*
G75*
G02*
X182500000Y-92920000I0J-175000D01*
G01*
X182500000Y-93270000D01*
G75*
G02*
X182325000Y-93445000I-175000J0D01*
G01*
X180625000Y-93445000D01*
G75*
G02*
X180450000Y-93270000I0J175000D01*
G01*
G37*
G36*
G01*
X175500000Y-93270000D02*
X175500000Y-92920000D01*
G75*
G02*
X175675000Y-92745000I175000J0D01*
G01*
X177375000Y-92745000D01*
G75*
G02*
X177550000Y-92920000I0J-175000D01*
G01*
X177550000Y-93270000D01*
G75*
G02*
X177375000Y-93445000I-175000J0D01*
G01*
X175675000Y-93445000D01*
G75*
G02*
X175500000Y-93270000I0J175000D01*
G01*
G37*
G36*
G01*
X175500000Y-94540000D02*
X175500000Y-94190000D01*
G75*
G02*
X175675000Y-94015000I175000J0D01*
G01*
X177375000Y-94015000D01*
G75*
G02*
X177550000Y-94190000I0J-175000D01*
G01*
X177550000Y-94540000D01*
G75*
G02*
X177375000Y-94715000I-175000J0D01*
G01*
X175675000Y-94715000D01*
G75*
G02*
X175500000Y-94540000I0J175000D01*
G01*
G37*
G36*
G01*
X175500000Y-95810000D02*
X175500000Y-95460000D01*
G75*
G02*
X175675000Y-95285000I175000J0D01*
G01*
X177375000Y-95285000D01*
G75*
G02*
X177550000Y-95460000I0J-175000D01*
G01*
X177550000Y-95810000D01*
G75*
G02*
X177375000Y-95985000I-175000J0D01*
G01*
X175675000Y-95985000D01*
G75*
G02*
X175500000Y-95810000I0J175000D01*
G01*
G37*
G36*
G01*
X175500000Y-97080000D02*
X175500000Y-96730000D01*
G75*
G02*
X175675000Y-96555000I175000J0D01*
G01*
X177375000Y-96555000D01*
G75*
G02*
X177550000Y-96730000I0J-175000D01*
G01*
X177550000Y-97080000D01*
G75*
G02*
X177375000Y-97255000I-175000J0D01*
G01*
X175675000Y-97255000D01*
G75*
G02*
X175500000Y-97080000I0J175000D01*
G01*
G37*
G36*
G01*
X179300000Y-98981250D02*
X179300000Y-98418750D01*
G75*
G02*
X179543750Y-98175000I243750J0D01*
G01*
X180031250Y-98175000D01*
G75*
G02*
X180275000Y-98418750I0J-243750D01*
G01*
X180275000Y-98981250D01*
G75*
G02*
X180031250Y-99225000I-243750J0D01*
G01*
X179543750Y-99225000D01*
G75*
G02*
X179300000Y-98981250I0J243750D01*
G01*
G37*
G36*
G01*
X177725000Y-98981250D02*
X177725000Y-98418750D01*
G75*
G02*
X177968750Y-98175000I243750J0D01*
G01*
X178456250Y-98175000D01*
G75*
G02*
X178700000Y-98418750I0J-243750D01*
G01*
X178700000Y-98981250D01*
G75*
G02*
X178456250Y-99225000I-243750J0D01*
G01*
X177968750Y-99225000D01*
G75*
G02*
X177725000Y-98981250I0J243750D01*
G01*
G37*
M02*
