%TF.GenerationSoftware,KiCad,Pcbnew,(5.1.6)-1*%
%TF.CreationDate,2022-01-16T22:49:08-05:00*%
%TF.ProjectId,upperArm,75707065-7241-4726-9d2e-6b696361645f,rev?*%
%TF.SameCoordinates,Original*%
%TF.FileFunction,Legend,Top*%
%TF.FilePolarity,Positive*%
%FSLAX46Y46*%
G04 Gerber Fmt 4.6, Leading zero omitted, Abs format (unit mm)*
G04 Created by KiCad (PCBNEW (5.1.6)-1) date 2022-01-16 22:49:08*
%MOMM*%
%LPD*%
G01*
G04 APERTURE LIST*
%ADD10C,0.010000*%
G04 APERTURE END LIST*
D10*
%TO.C,G\u002A\u002A\u002A*%
G36*
X175524915Y-106008783D02*
G01*
X175779061Y-106267356D01*
X175990045Y-106488426D01*
X176138170Y-106650876D01*
X176203743Y-106733590D01*
X176205263Y-106738214D01*
X176142143Y-106793877D01*
X175986340Y-106869916D01*
X175788191Y-106946596D01*
X175598033Y-107004182D01*
X175477895Y-107023392D01*
X175374853Y-106972948D01*
X175197172Y-106836441D01*
X174971873Y-106636106D01*
X174778455Y-106447807D01*
X174209224Y-105872222D01*
X174526895Y-105598908D01*
X174844566Y-105325593D01*
X175524915Y-106008783D01*
G37*
X175524915Y-106008783D02*
X175779061Y-106267356D01*
X175990045Y-106488426D01*
X176138170Y-106650876D01*
X176203743Y-106733590D01*
X176205263Y-106738214D01*
X176142143Y-106793877D01*
X175986340Y-106869916D01*
X175788191Y-106946596D01*
X175598033Y-107004182D01*
X175477895Y-107023392D01*
X175374853Y-106972948D01*
X175197172Y-106836441D01*
X174971873Y-106636106D01*
X174778455Y-106447807D01*
X174209224Y-105872222D01*
X174526895Y-105598908D01*
X174844566Y-105325593D01*
X175524915Y-106008783D01*
G36*
X168389390Y-101250599D02*
G01*
X169024380Y-101887499D01*
X169627823Y-102495667D01*
X170191581Y-103066724D01*
X170707513Y-103592287D01*
X171167483Y-104063975D01*
X171563352Y-104473408D01*
X171886980Y-104812202D01*
X172130230Y-105071978D01*
X172284962Y-105244353D01*
X172343039Y-105320947D01*
X172343275Y-105322448D01*
X172403094Y-105465316D01*
X172550888Y-105623685D01*
X172739164Y-105752129D01*
X172832844Y-105790694D01*
X172941156Y-105848825D01*
X173079094Y-105952259D01*
X173209831Y-106068187D01*
X173296540Y-106163800D01*
X173302394Y-106206289D01*
X173299507Y-106206433D01*
X173222761Y-106168578D01*
X173066258Y-106072089D01*
X172959951Y-106002193D01*
X172461406Y-105664525D01*
X172029216Y-105365463D01*
X171676744Y-105114580D01*
X171417349Y-104921449D01*
X171264393Y-104795645D01*
X171237125Y-104767688D01*
X171115777Y-104668478D01*
X171046099Y-104646784D01*
X170954950Y-104593614D01*
X170805028Y-104454575D01*
X170637925Y-104270259D01*
X170446472Y-104063967D01*
X170264489Y-103902217D01*
X170146304Y-103827530D01*
X169999724Y-103724870D01*
X169840794Y-103546782D01*
X169791001Y-103474332D01*
X169616852Y-103231173D01*
X169417748Y-102996543D01*
X169379769Y-102957277D01*
X169238770Y-102799936D01*
X169157526Y-102677632D01*
X169149708Y-102649847D01*
X169091596Y-102557473D01*
X169001170Y-102492983D01*
X168883128Y-102391739D01*
X168852632Y-102317055D01*
X168805291Y-102213710D01*
X168682815Y-102046031D01*
X168555556Y-101898830D01*
X168396235Y-101717619D01*
X168288413Y-101578454D01*
X168258480Y-101522044D01*
X168205572Y-101450197D01*
X168066857Y-101314667D01*
X167872345Y-101144771D01*
X167872007Y-101144489D01*
X167641435Y-100949684D01*
X167430447Y-100767438D01*
X167304145Y-100654825D01*
X167152704Y-100539183D01*
X167034244Y-100487870D01*
X167030142Y-100487719D01*
X166923912Y-100428319D01*
X166897349Y-100383010D01*
X166808968Y-100307910D01*
X166620720Y-100219928D01*
X166425222Y-100153952D01*
X166288358Y-100110768D01*
X166162487Y-100057494D01*
X166031757Y-99981037D01*
X165880312Y-99868303D01*
X165692302Y-99706199D01*
X165451871Y-99481633D01*
X165143168Y-99181510D01*
X164750339Y-98792737D01*
X164619298Y-98662417D01*
X163245322Y-97295230D01*
X163840414Y-97294691D01*
X164435505Y-97294152D01*
X168389390Y-101250599D01*
G37*
X168389390Y-101250599D02*
X169024380Y-101887499D01*
X169627823Y-102495667D01*
X170191581Y-103066724D01*
X170707513Y-103592287D01*
X171167483Y-104063975D01*
X171563352Y-104473408D01*
X171886980Y-104812202D01*
X172130230Y-105071978D01*
X172284962Y-105244353D01*
X172343039Y-105320947D01*
X172343275Y-105322448D01*
X172403094Y-105465316D01*
X172550888Y-105623685D01*
X172739164Y-105752129D01*
X172832844Y-105790694D01*
X172941156Y-105848825D01*
X173079094Y-105952259D01*
X173209831Y-106068187D01*
X173296540Y-106163800D01*
X173302394Y-106206289D01*
X173299507Y-106206433D01*
X173222761Y-106168578D01*
X173066258Y-106072089D01*
X172959951Y-106002193D01*
X172461406Y-105664525D01*
X172029216Y-105365463D01*
X171676744Y-105114580D01*
X171417349Y-104921449D01*
X171264393Y-104795645D01*
X171237125Y-104767688D01*
X171115777Y-104668478D01*
X171046099Y-104646784D01*
X170954950Y-104593614D01*
X170805028Y-104454575D01*
X170637925Y-104270259D01*
X170446472Y-104063967D01*
X170264489Y-103902217D01*
X170146304Y-103827530D01*
X169999724Y-103724870D01*
X169840794Y-103546782D01*
X169791001Y-103474332D01*
X169616852Y-103231173D01*
X169417748Y-102996543D01*
X169379769Y-102957277D01*
X169238770Y-102799936D01*
X169157526Y-102677632D01*
X169149708Y-102649847D01*
X169091596Y-102557473D01*
X169001170Y-102492983D01*
X168883128Y-102391739D01*
X168852632Y-102317055D01*
X168805291Y-102213710D01*
X168682815Y-102046031D01*
X168555556Y-101898830D01*
X168396235Y-101717619D01*
X168288413Y-101578454D01*
X168258480Y-101522044D01*
X168205572Y-101450197D01*
X168066857Y-101314667D01*
X167872345Y-101144771D01*
X167872007Y-101144489D01*
X167641435Y-100949684D01*
X167430447Y-100767438D01*
X167304145Y-100654825D01*
X167152704Y-100539183D01*
X167034244Y-100487870D01*
X167030142Y-100487719D01*
X166923912Y-100428319D01*
X166897349Y-100383010D01*
X166808968Y-100307910D01*
X166620720Y-100219928D01*
X166425222Y-100153952D01*
X166288358Y-100110768D01*
X166162487Y-100057494D01*
X166031757Y-99981037D01*
X165880312Y-99868303D01*
X165692302Y-99706199D01*
X165451871Y-99481633D01*
X165143168Y-99181510D01*
X164750339Y-98792737D01*
X164619298Y-98662417D01*
X163245322Y-97295230D01*
X163840414Y-97294691D01*
X164435505Y-97294152D01*
X168389390Y-101250599D01*
G36*
X107998919Y-95695829D02*
G01*
X108108959Y-95759751D01*
X108260994Y-95874368D01*
X108460864Y-96044629D01*
X108714411Y-96275483D01*
X109027474Y-96571879D01*
X109405895Y-96938764D01*
X109855513Y-97381089D01*
X110382170Y-97903800D01*
X110991706Y-98511846D01*
X111689962Y-99210177D01*
X112482777Y-100003741D01*
X113262088Y-100783557D01*
X114158722Y-101681758D01*
X114979678Y-102506859D01*
X115721856Y-103255676D01*
X116382154Y-103925025D01*
X116957470Y-104511721D01*
X117444705Y-105012581D01*
X117840756Y-105424420D01*
X118142522Y-105744054D01*
X118346902Y-105968299D01*
X118450796Y-106093970D01*
X118460918Y-106121619D01*
X118312976Y-106108902D01*
X118071148Y-106085957D01*
X117804247Y-106059408D01*
X117295920Y-106007741D01*
X112629480Y-101335303D01*
X107963040Y-96662866D01*
X107913897Y-96252186D01*
X107893506Y-96099796D01*
X107874227Y-95963462D01*
X107861900Y-95848132D01*
X107862365Y-95758755D01*
X107881463Y-95700280D01*
X107925034Y-95677656D01*
X107998919Y-95695829D01*
G37*
X107998919Y-95695829D02*
X108108959Y-95759751D01*
X108260994Y-95874368D01*
X108460864Y-96044629D01*
X108714411Y-96275483D01*
X109027474Y-96571879D01*
X109405895Y-96938764D01*
X109855513Y-97381089D01*
X110382170Y-97903800D01*
X110991706Y-98511846D01*
X111689962Y-99210177D01*
X112482777Y-100003741D01*
X113262088Y-100783557D01*
X114158722Y-101681758D01*
X114979678Y-102506859D01*
X115721856Y-103255676D01*
X116382154Y-103925025D01*
X116957470Y-104511721D01*
X117444705Y-105012581D01*
X117840756Y-105424420D01*
X118142522Y-105744054D01*
X118346902Y-105968299D01*
X118450796Y-106093970D01*
X118460918Y-106121619D01*
X118312976Y-106108902D01*
X118071148Y-106085957D01*
X117804247Y-106059408D01*
X117295920Y-106007741D01*
X112629480Y-101335303D01*
X107963040Y-96662866D01*
X107913897Y-96252186D01*
X107893506Y-96099796D01*
X107874227Y-95963462D01*
X107861900Y-95848132D01*
X107862365Y-95758755D01*
X107881463Y-95700280D01*
X107925034Y-95677656D01*
X107998919Y-95695829D01*
G36*
X116036279Y-101182185D02*
G01*
X120815109Y-105961445D01*
X120473688Y-106008242D01*
X120226476Y-106045994D01*
X120016215Y-106084510D01*
X119965110Y-106095890D01*
X119924145Y-106090777D01*
X119858333Y-106056555D01*
X119761522Y-105987322D01*
X119627561Y-105877179D01*
X119450297Y-105720224D01*
X119223580Y-105510558D01*
X118941257Y-105242280D01*
X118597177Y-104909490D01*
X118185189Y-104506288D01*
X117699141Y-104026773D01*
X117132882Y-103465046D01*
X116480259Y-102815204D01*
X115735121Y-102071349D01*
X114933546Y-101269832D01*
X110069139Y-96402924D01*
X111257450Y-96402924D01*
X116036279Y-101182185D01*
G37*
X116036279Y-101182185D02*
X120815109Y-105961445D01*
X120473688Y-106008242D01*
X120226476Y-106045994D01*
X120016215Y-106084510D01*
X119965110Y-106095890D01*
X119924145Y-106090777D01*
X119858333Y-106056555D01*
X119761522Y-105987322D01*
X119627561Y-105877179D01*
X119450297Y-105720224D01*
X119223580Y-105510558D01*
X118941257Y-105242280D01*
X118597177Y-104909490D01*
X118185189Y-104506288D01*
X117699141Y-104026773D01*
X117132882Y-103465046D01*
X116480259Y-102815204D01*
X115735121Y-102071349D01*
X114933546Y-101269832D01*
X110069139Y-96402924D01*
X111257450Y-96402924D01*
X116036279Y-101182185D01*
G36*
X175575143Y-103765983D02*
G01*
X175731055Y-103879567D01*
X175976138Y-104096791D01*
X176305815Y-104413805D01*
X176394067Y-104501368D01*
X176680997Y-104791228D01*
X176926636Y-105046517D01*
X177113261Y-105248237D01*
X177223148Y-105377392D01*
X177245029Y-105413530D01*
X177205935Y-105505697D01*
X177110081Y-105662133D01*
X176989616Y-105836614D01*
X176876686Y-105982913D01*
X176803438Y-106054805D01*
X176798022Y-106056309D01*
X176734526Y-106007153D01*
X176586871Y-105871166D01*
X176375079Y-105667395D01*
X176119174Y-105414883D01*
X176033355Y-105329020D01*
X175307215Y-104600146D01*
X175395030Y-104233553D01*
X175451981Y-103999346D01*
X175498121Y-103815733D01*
X175512975Y-103759889D01*
X175575143Y-103765983D01*
G37*
X175575143Y-103765983D02*
X175731055Y-103879567D01*
X175976138Y-104096791D01*
X176305815Y-104413805D01*
X176394067Y-104501368D01*
X176680997Y-104791228D01*
X176926636Y-105046517D01*
X177113261Y-105248237D01*
X177223148Y-105377392D01*
X177245029Y-105413530D01*
X177205935Y-105505697D01*
X177110081Y-105662133D01*
X176989616Y-105836614D01*
X176876686Y-105982913D01*
X176803438Y-106054805D01*
X176798022Y-106056309D01*
X176734526Y-106007153D01*
X176586871Y-105871166D01*
X176375079Y-105667395D01*
X176119174Y-105414883D01*
X176033355Y-105329020D01*
X175307215Y-104600146D01*
X175395030Y-104233553D01*
X175451981Y-103999346D01*
X175498121Y-103815733D01*
X175512975Y-103759889D01*
X175575143Y-103765983D01*
G36*
X112481043Y-95296346D02*
G01*
X112583560Y-95371604D01*
X112746871Y-95521701D01*
X112987751Y-95757977D01*
X113192935Y-95962216D01*
X113511759Y-96285287D01*
X113742817Y-96536081D01*
X113907667Y-96742875D01*
X114027870Y-96933946D01*
X114124985Y-97137572D01*
X114165947Y-97238407D01*
X114276719Y-97498248D01*
X114381740Y-97706757D01*
X114459297Y-97821081D01*
X114462693Y-97824084D01*
X114550136Y-97951867D01*
X114561989Y-98011132D01*
X114621917Y-98126853D01*
X114673392Y-98158523D01*
X114771773Y-98235769D01*
X114784796Y-98275475D01*
X114832227Y-98391526D01*
X114949538Y-98558227D01*
X115099251Y-98732155D01*
X115243888Y-98869890D01*
X115345973Y-98928011D01*
X115348054Y-98928070D01*
X115442800Y-98971250D01*
X115453217Y-99004177D01*
X115514695Y-99084005D01*
X115638889Y-99150877D01*
X115776691Y-99230102D01*
X115824562Y-99302395D01*
X115886534Y-99360574D01*
X116048803Y-99461005D01*
X116275899Y-99585684D01*
X116532351Y-99716607D01*
X116782689Y-99835771D01*
X116991443Y-99925171D01*
X117123142Y-99966804D01*
X117135589Y-99967836D01*
X117198838Y-100018866D01*
X117356833Y-100165440D01*
X117599573Y-100397781D01*
X117917058Y-100706115D01*
X118299290Y-101080667D01*
X118736268Y-101511661D01*
X119217992Y-101989323D01*
X119734462Y-102503877D01*
X119937657Y-102706953D01*
X122676023Y-105446069D01*
X122255401Y-105603444D01*
X122031122Y-105686451D01*
X121872413Y-105743477D01*
X121818787Y-105760819D01*
X121765158Y-105709495D01*
X121613845Y-105560378D01*
X121372153Y-105320751D01*
X121047386Y-104997894D01*
X120646849Y-104599090D01*
X120177849Y-104131621D01*
X119647689Y-103602768D01*
X119063674Y-103019815D01*
X118433111Y-102390041D01*
X117763303Y-101720730D01*
X117061556Y-101019164D01*
X116901462Y-100859064D01*
X116195607Y-100152164D01*
X115522171Y-99475811D01*
X114888268Y-98837258D01*
X114301014Y-98243761D01*
X113767522Y-97702575D01*
X113294908Y-97220953D01*
X112890285Y-96806152D01*
X112560770Y-96465425D01*
X112313475Y-96206027D01*
X112155517Y-96035213D01*
X112094009Y-95960238D01*
X112094347Y-95957310D01*
X112199475Y-95884990D01*
X112297938Y-95675825D01*
X112370506Y-95406197D01*
X112391290Y-95324984D01*
X112422544Y-95284587D01*
X112481043Y-95296346D01*
G37*
X112481043Y-95296346D02*
X112583560Y-95371604D01*
X112746871Y-95521701D01*
X112987751Y-95757977D01*
X113192935Y-95962216D01*
X113511759Y-96285287D01*
X113742817Y-96536081D01*
X113907667Y-96742875D01*
X114027870Y-96933946D01*
X114124985Y-97137572D01*
X114165947Y-97238407D01*
X114276719Y-97498248D01*
X114381740Y-97706757D01*
X114459297Y-97821081D01*
X114462693Y-97824084D01*
X114550136Y-97951867D01*
X114561989Y-98011132D01*
X114621917Y-98126853D01*
X114673392Y-98158523D01*
X114771773Y-98235769D01*
X114784796Y-98275475D01*
X114832227Y-98391526D01*
X114949538Y-98558227D01*
X115099251Y-98732155D01*
X115243888Y-98869890D01*
X115345973Y-98928011D01*
X115348054Y-98928070D01*
X115442800Y-98971250D01*
X115453217Y-99004177D01*
X115514695Y-99084005D01*
X115638889Y-99150877D01*
X115776691Y-99230102D01*
X115824562Y-99302395D01*
X115886534Y-99360574D01*
X116048803Y-99461005D01*
X116275899Y-99585684D01*
X116532351Y-99716607D01*
X116782689Y-99835771D01*
X116991443Y-99925171D01*
X117123142Y-99966804D01*
X117135589Y-99967836D01*
X117198838Y-100018866D01*
X117356833Y-100165440D01*
X117599573Y-100397781D01*
X117917058Y-100706115D01*
X118299290Y-101080667D01*
X118736268Y-101511661D01*
X119217992Y-101989323D01*
X119734462Y-102503877D01*
X119937657Y-102706953D01*
X122676023Y-105446069D01*
X122255401Y-105603444D01*
X122031122Y-105686451D01*
X121872413Y-105743477D01*
X121818787Y-105760819D01*
X121765158Y-105709495D01*
X121613845Y-105560378D01*
X121372153Y-105320751D01*
X121047386Y-104997894D01*
X120646849Y-104599090D01*
X120177849Y-104131621D01*
X119647689Y-103602768D01*
X119063674Y-103019815D01*
X118433111Y-102390041D01*
X117763303Y-101720730D01*
X117061556Y-101019164D01*
X116901462Y-100859064D01*
X116195607Y-100152164D01*
X115522171Y-99475811D01*
X114888268Y-98837258D01*
X114301014Y-98243761D01*
X113767522Y-97702575D01*
X113294908Y-97220953D01*
X112890285Y-96806152D01*
X112560770Y-96465425D01*
X112313475Y-96206027D01*
X112155517Y-96035213D01*
X112094009Y-95960238D01*
X112094347Y-95957310D01*
X112199475Y-95884990D01*
X112297938Y-95675825D01*
X112370506Y-95406197D01*
X112391290Y-95324984D01*
X112422544Y-95284587D01*
X112481043Y-95296346D01*
G36*
X108472867Y-98410440D02*
G01*
X108624253Y-98554434D01*
X108863506Y-98786826D01*
X109182121Y-99099221D01*
X109571596Y-99483223D01*
X110023426Y-99930434D01*
X110529108Y-100432460D01*
X111080139Y-100980904D01*
X111668014Y-101567370D01*
X112076929Y-101976052D01*
X112682580Y-102582743D01*
X113254570Y-103157555D01*
X113784654Y-103692085D01*
X114264585Y-104177928D01*
X114686115Y-104606680D01*
X115040998Y-104969937D01*
X115320987Y-105259295D01*
X115517835Y-105466349D01*
X115623296Y-105582696D01*
X115638605Y-105605711D01*
X115547089Y-105574478D01*
X115346998Y-105493300D01*
X115065105Y-105373422D01*
X114728184Y-105226088D01*
X114615610Y-105176088D01*
X113666601Y-104753035D01*
X111583635Y-102676079D01*
X111115033Y-102206407D01*
X110671828Y-101757576D01*
X110266966Y-101343039D01*
X109913396Y-100976247D01*
X109624064Y-100670653D01*
X109411919Y-100439710D01*
X109289906Y-100296870D01*
X109277178Y-100279657D01*
X109181997Y-100120686D01*
X109056724Y-99879937D01*
X108914609Y-99586960D01*
X108768902Y-99271307D01*
X108632853Y-98962525D01*
X108519712Y-98690166D01*
X108442730Y-98483779D01*
X108415157Y-98372913D01*
X108417851Y-98363241D01*
X108472867Y-98410440D01*
G37*
X108472867Y-98410440D02*
X108624253Y-98554434D01*
X108863506Y-98786826D01*
X109182121Y-99099221D01*
X109571596Y-99483223D01*
X110023426Y-99930434D01*
X110529108Y-100432460D01*
X111080139Y-100980904D01*
X111668014Y-101567370D01*
X112076929Y-101976052D01*
X112682580Y-102582743D01*
X113254570Y-103157555D01*
X113784654Y-103692085D01*
X114264585Y-104177928D01*
X114686115Y-104606680D01*
X115040998Y-104969937D01*
X115320987Y-105259295D01*
X115517835Y-105466349D01*
X115623296Y-105582696D01*
X115638605Y-105605711D01*
X115547089Y-105574478D01*
X115346998Y-105493300D01*
X115065105Y-105373422D01*
X114728184Y-105226088D01*
X114615610Y-105176088D01*
X113666601Y-104753035D01*
X111583635Y-102676079D01*
X111115033Y-102206407D01*
X110671828Y-101757576D01*
X110266966Y-101343039D01*
X109913396Y-100976247D01*
X109624064Y-100670653D01*
X109411919Y-100439710D01*
X109289906Y-100296870D01*
X109277178Y-100279657D01*
X109181997Y-100120686D01*
X109056724Y-99879937D01*
X108914609Y-99586960D01*
X108768902Y-99271307D01*
X108632853Y-98962525D01*
X108519712Y-98690166D01*
X108442730Y-98483779D01*
X108415157Y-98372913D01*
X108417851Y-98363241D01*
X108472867Y-98410440D01*
G36*
X119776667Y-100252763D02*
G01*
X119936059Y-100378079D01*
X120162512Y-100577775D01*
X120437748Y-100835823D01*
X120697271Y-101089941D01*
X121042374Y-101438345D01*
X121292459Y-101702346D01*
X121461203Y-101898781D01*
X121562284Y-102044486D01*
X121609377Y-102156295D01*
X121617544Y-102222783D01*
X121653128Y-102385479D01*
X121747827Y-102630312D01*
X121883563Y-102912513D01*
X121932894Y-103003722D01*
X122086118Y-103280049D01*
X122218682Y-103521345D01*
X122308346Y-103687056D01*
X122324824Y-103718421D01*
X122476737Y-103878832D01*
X122737485Y-104021725D01*
X123067366Y-104129901D01*
X123400000Y-104184161D01*
X123683475Y-104226377D01*
X123887251Y-104314331D01*
X124044456Y-104441552D01*
X124280432Y-104665458D01*
X124076601Y-104836971D01*
X123974131Y-104924233D01*
X123884086Y-104992409D01*
X123796198Y-105034076D01*
X123700196Y-105041808D01*
X123585813Y-105008182D01*
X123442777Y-104925775D01*
X123260820Y-104787162D01*
X123029673Y-104584919D01*
X122739066Y-104311623D01*
X122378730Y-103959851D01*
X121938396Y-103522177D01*
X121407793Y-102991178D01*
X121107980Y-102690913D01*
X118704557Y-100284701D01*
X119166394Y-100274261D01*
X119421375Y-100261784D01*
X119618038Y-100239890D01*
X119702614Y-100217850D01*
X119776667Y-100252763D01*
G37*
X119776667Y-100252763D02*
X119936059Y-100378079D01*
X120162512Y-100577775D01*
X120437748Y-100835823D01*
X120697271Y-101089941D01*
X121042374Y-101438345D01*
X121292459Y-101702346D01*
X121461203Y-101898781D01*
X121562284Y-102044486D01*
X121609377Y-102156295D01*
X121617544Y-102222783D01*
X121653128Y-102385479D01*
X121747827Y-102630312D01*
X121883563Y-102912513D01*
X121932894Y-103003722D01*
X122086118Y-103280049D01*
X122218682Y-103521345D01*
X122308346Y-103687056D01*
X122324824Y-103718421D01*
X122476737Y-103878832D01*
X122737485Y-104021725D01*
X123067366Y-104129901D01*
X123400000Y-104184161D01*
X123683475Y-104226377D01*
X123887251Y-104314331D01*
X124044456Y-104441552D01*
X124280432Y-104665458D01*
X124076601Y-104836971D01*
X123974131Y-104924233D01*
X123884086Y-104992409D01*
X123796198Y-105034076D01*
X123700196Y-105041808D01*
X123585813Y-105008182D01*
X123442777Y-104925775D01*
X123260820Y-104787162D01*
X123029673Y-104584919D01*
X122739066Y-104311623D01*
X122378730Y-103959851D01*
X121938396Y-103522177D01*
X121407793Y-102991178D01*
X121107980Y-102690913D01*
X118704557Y-100284701D01*
X119166394Y-100274261D01*
X119421375Y-100261784D01*
X119618038Y-100239890D01*
X119702614Y-100217850D01*
X119776667Y-100252763D01*
G36*
X170466204Y-96266753D02*
G01*
X170622263Y-96410010D01*
X170866613Y-96642415D01*
X171191011Y-96955899D01*
X171587215Y-97342391D01*
X172046982Y-97793822D01*
X172562071Y-98302122D01*
X173124238Y-98859222D01*
X173725241Y-99457050D01*
X174356837Y-100087537D01*
X174386992Y-100117694D01*
X175018421Y-100749929D01*
X175617559Y-101351235D01*
X176176351Y-101913444D01*
X176686746Y-102428385D01*
X177140687Y-102887890D01*
X177530122Y-103283787D01*
X177846996Y-103607908D01*
X178083256Y-103852083D01*
X178230848Y-104008142D01*
X178281717Y-104067916D01*
X178281570Y-104068236D01*
X178196175Y-104116957D01*
X178099123Y-104170110D01*
X177947410Y-104303220D01*
X177877272Y-104411484D01*
X177792360Y-104536450D01*
X177728461Y-104572515D01*
X177664831Y-104521264D01*
X177504888Y-104373052D01*
X177257109Y-104136194D01*
X176929972Y-103819001D01*
X176531954Y-103429786D01*
X176071533Y-102976862D01*
X175557186Y-102468543D01*
X174997391Y-101913140D01*
X174400625Y-101318966D01*
X173870817Y-100789823D01*
X173117202Y-100035063D01*
X172463955Y-99378431D01*
X171905435Y-98814013D01*
X171435998Y-98335891D01*
X171050002Y-97938150D01*
X170741806Y-97614875D01*
X170505765Y-97360149D01*
X170336239Y-97168058D01*
X170227584Y-97032685D01*
X170174159Y-96948114D01*
X170169561Y-96909268D01*
X170236218Y-96774207D01*
X170295211Y-96569067D01*
X170302651Y-96532074D01*
X170348759Y-96343863D01*
X170397055Y-96230295D01*
X170406678Y-96220714D01*
X170466204Y-96266753D01*
G37*
X170466204Y-96266753D02*
X170622263Y-96410010D01*
X170866613Y-96642415D01*
X171191011Y-96955899D01*
X171587215Y-97342391D01*
X172046982Y-97793822D01*
X172562071Y-98302122D01*
X173124238Y-98859222D01*
X173725241Y-99457050D01*
X174356837Y-100087537D01*
X174386992Y-100117694D01*
X175018421Y-100749929D01*
X175617559Y-101351235D01*
X176176351Y-101913444D01*
X176686746Y-102428385D01*
X177140687Y-102887890D01*
X177530122Y-103283787D01*
X177846996Y-103607908D01*
X178083256Y-103852083D01*
X178230848Y-104008142D01*
X178281717Y-104067916D01*
X178281570Y-104068236D01*
X178196175Y-104116957D01*
X178099123Y-104170110D01*
X177947410Y-104303220D01*
X177877272Y-104411484D01*
X177792360Y-104536450D01*
X177728461Y-104572515D01*
X177664831Y-104521264D01*
X177504888Y-104373052D01*
X177257109Y-104136194D01*
X176929972Y-103819001D01*
X176531954Y-103429786D01*
X176071533Y-102976862D01*
X175557186Y-102468543D01*
X174997391Y-101913140D01*
X174400625Y-101318966D01*
X173870817Y-100789823D01*
X173117202Y-100035063D01*
X172463955Y-99378431D01*
X171905435Y-98814013D01*
X171435998Y-98335891D01*
X171050002Y-97938150D01*
X170741806Y-97614875D01*
X170505765Y-97360149D01*
X170336239Y-97168058D01*
X170227584Y-97032685D01*
X170174159Y-96948114D01*
X170169561Y-96909268D01*
X170236218Y-96774207D01*
X170295211Y-96569067D01*
X170302651Y-96532074D01*
X170348759Y-96343863D01*
X170397055Y-96230295D01*
X170406678Y-96220714D01*
X170466204Y-96266753D01*
G36*
X125002540Y-103033007D02*
G01*
X125151122Y-103169904D01*
X125293860Y-103309942D01*
X125487556Y-103506560D01*
X125631572Y-103662901D01*
X125699998Y-103750568D01*
X125702339Y-103757619D01*
X125644842Y-103834316D01*
X125504539Y-103946869D01*
X125329716Y-104061283D01*
X125168658Y-104143565D01*
X125138913Y-104154283D01*
X124978879Y-104146319D01*
X124811223Y-104015616D01*
X124701504Y-103886380D01*
X124676300Y-103782433D01*
X124727942Y-103635936D01*
X124760494Y-103566792D01*
X124844280Y-103339291D01*
X124884712Y-103127735D01*
X124885380Y-103105719D01*
X124891216Y-103011687D01*
X124923087Y-102983859D01*
X125002540Y-103033007D01*
G37*
X125002540Y-103033007D02*
X125151122Y-103169904D01*
X125293860Y-103309942D01*
X125487556Y-103506560D01*
X125631572Y-103662901D01*
X125699998Y-103750568D01*
X125702339Y-103757619D01*
X125644842Y-103834316D01*
X125504539Y-103946869D01*
X125329716Y-104061283D01*
X125168658Y-104143565D01*
X125138913Y-104154283D01*
X124978879Y-104146319D01*
X124811223Y-104015616D01*
X124701504Y-103886380D01*
X124676300Y-103782433D01*
X124727942Y-103635936D01*
X124760494Y-103566792D01*
X124844280Y-103339291D01*
X124884712Y-103127735D01*
X124885380Y-103105719D01*
X124891216Y-103011687D01*
X124923087Y-102983859D01*
X125002540Y-103033007D01*
G36*
X169732602Y-100216518D02*
G01*
X172654265Y-103138883D01*
X172460385Y-103521488D01*
X172353428Y-103727071D01*
X172275852Y-103865954D01*
X172248875Y-103904094D01*
X172194724Y-103853020D01*
X172044531Y-103705714D01*
X171807214Y-103471048D01*
X171491689Y-103157893D01*
X171106875Y-102775121D01*
X170661689Y-102331605D01*
X170165049Y-101836217D01*
X169625873Y-101297828D01*
X169053078Y-100725311D01*
X168926901Y-100599123D01*
X165622556Y-97294152D01*
X166810939Y-97294152D01*
X169732602Y-100216518D01*
G37*
X169732602Y-100216518D02*
X172654265Y-103138883D01*
X172460385Y-103521488D01*
X172353428Y-103727071D01*
X172275852Y-103865954D01*
X172248875Y-103904094D01*
X172194724Y-103853020D01*
X172044531Y-103705714D01*
X171807214Y-103471048D01*
X171491689Y-103157893D01*
X171106875Y-102775121D01*
X170661689Y-102331605D01*
X170165049Y-101836217D01*
X169625873Y-101297828D01*
X169053078Y-100725311D01*
X168926901Y-100599123D01*
X165622556Y-97294152D01*
X166810939Y-97294152D01*
X169732602Y-100216518D01*
G36*
X175275144Y-98629238D02*
G01*
X176156927Y-99512455D01*
X176955604Y-100315543D01*
X177668630Y-101035884D01*
X178293460Y-101670858D01*
X178827549Y-102217843D01*
X179268354Y-102674221D01*
X179613329Y-103037371D01*
X179859929Y-103304674D01*
X180005611Y-103473510D01*
X180047828Y-103541259D01*
X180046928Y-103542103D01*
X179925822Y-103578635D01*
X179712436Y-103618391D01*
X179547369Y-103641125D01*
X179138889Y-103689720D01*
X170412281Y-94954210D01*
X170412281Y-93766800D01*
X175275144Y-98629238D01*
G37*
X175275144Y-98629238D02*
X176156927Y-99512455D01*
X176955604Y-100315543D01*
X177668630Y-101035884D01*
X178293460Y-101670858D01*
X178827549Y-102217843D01*
X179268354Y-102674221D01*
X179613329Y-103037371D01*
X179859929Y-103304674D01*
X180005611Y-103473510D01*
X180047828Y-103541259D01*
X180046928Y-103542103D01*
X179925822Y-103578635D01*
X179712436Y-103618391D01*
X179547369Y-103641125D01*
X179138889Y-103689720D01*
X170412281Y-94954210D01*
X170412281Y-93766800D01*
X175275144Y-98629238D01*
G36*
X182072196Y-103050000D02*
G01*
X181200900Y-103366984D01*
X174200062Y-96365851D01*
X173246473Y-95411228D01*
X172346622Y-94508416D01*
X171504919Y-93661908D01*
X170725773Y-92876200D01*
X170013592Y-92155785D01*
X169372785Y-91505157D01*
X168807762Y-90928811D01*
X168322931Y-90431241D01*
X167922700Y-90016940D01*
X167611479Y-89690404D01*
X167393677Y-89456126D01*
X167273701Y-89318601D01*
X167250486Y-89281775D01*
X167349478Y-89203800D01*
X167378737Y-89198830D01*
X167485709Y-89158881D01*
X167649129Y-89060637D01*
X167679293Y-89039636D01*
X167902860Y-88880442D01*
X182072196Y-103050000D01*
G37*
X182072196Y-103050000D02*
X181200900Y-103366984D01*
X174200062Y-96365851D01*
X173246473Y-95411228D01*
X172346622Y-94508416D01*
X171504919Y-93661908D01*
X170725773Y-92876200D01*
X170013592Y-92155785D01*
X169372785Y-91505157D01*
X168807762Y-90928811D01*
X168322931Y-90431241D01*
X167922700Y-90016940D01*
X167611479Y-89690404D01*
X167393677Y-89456126D01*
X167273701Y-89318601D01*
X167250486Y-89281775D01*
X167349478Y-89203800D01*
X167378737Y-89198830D01*
X167485709Y-89158881D01*
X167649129Y-89060637D01*
X167679293Y-89039636D01*
X167902860Y-88880442D01*
X182072196Y-103050000D01*
G36*
X124958695Y-100601176D02*
G01*
X126959239Y-102604386D01*
X126387115Y-103212388D01*
X122378919Y-99188012D01*
X122668535Y-98892989D01*
X122958152Y-98597966D01*
X124958695Y-100601176D01*
G37*
X124958695Y-100601176D02*
X126959239Y-102604386D01*
X126387115Y-103212388D01*
X122378919Y-99188012D01*
X122668535Y-98892989D01*
X122958152Y-98597966D01*
X124958695Y-100601176D01*
G36*
X168869815Y-87648043D02*
G01*
X168925609Y-87677312D01*
X169011241Y-87739119D01*
X169131643Y-87838260D01*
X169291747Y-87979531D01*
X169496484Y-88167728D01*
X169750788Y-88407645D01*
X170059588Y-88704080D01*
X170427818Y-89061827D01*
X170860409Y-89485683D01*
X171362293Y-89980443D01*
X171938403Y-90550904D01*
X172593669Y-91201860D01*
X173333023Y-91938108D01*
X174161398Y-92764443D01*
X175083726Y-93685662D01*
X176104938Y-94706559D01*
X176302059Y-94903698D01*
X183630359Y-102233041D01*
X183389887Y-102392567D01*
X183191614Y-102510050D01*
X183019329Y-102589876D01*
X183000095Y-102596167D01*
X182962683Y-102586647D01*
X182892526Y-102541668D01*
X182784895Y-102456622D01*
X182635064Y-102326901D01*
X182438306Y-102147899D01*
X182189893Y-101915009D01*
X181885099Y-101623623D01*
X181519195Y-101269134D01*
X181087456Y-100846936D01*
X180585153Y-100352421D01*
X180007560Y-99780982D01*
X179349950Y-99128013D01*
X178607594Y-98388905D01*
X177775768Y-97559052D01*
X176849742Y-96633846D01*
X175824790Y-95608681D01*
X175610329Y-95394066D01*
X174594049Y-94376914D01*
X173677756Y-93459556D01*
X172856410Y-92636748D01*
X172124970Y-91903245D01*
X171478397Y-91253802D01*
X170911652Y-90683174D01*
X170419695Y-90186118D01*
X169997486Y-89757388D01*
X169639986Y-89391741D01*
X169342154Y-89083930D01*
X169098953Y-88828712D01*
X168905341Y-88620842D01*
X168756279Y-88455076D01*
X168646728Y-88326168D01*
X168571648Y-88228875D01*
X168525999Y-88157951D01*
X168504742Y-88108152D01*
X168502837Y-88074233D01*
X168515245Y-88050951D01*
X168536925Y-88033059D01*
X168536989Y-88033015D01*
X168661461Y-87914080D01*
X168704094Y-87818408D01*
X168762563Y-87705041D01*
X168838927Y-87646516D01*
X168869815Y-87648043D01*
G37*
X168869815Y-87648043D02*
X168925609Y-87677312D01*
X169011241Y-87739119D01*
X169131643Y-87838260D01*
X169291747Y-87979531D01*
X169496484Y-88167728D01*
X169750788Y-88407645D01*
X170059588Y-88704080D01*
X170427818Y-89061827D01*
X170860409Y-89485683D01*
X171362293Y-89980443D01*
X171938403Y-90550904D01*
X172593669Y-91201860D01*
X173333023Y-91938108D01*
X174161398Y-92764443D01*
X175083726Y-93685662D01*
X176104938Y-94706559D01*
X176302059Y-94903698D01*
X183630359Y-102233041D01*
X183389887Y-102392567D01*
X183191614Y-102510050D01*
X183019329Y-102589876D01*
X183000095Y-102596167D01*
X182962683Y-102586647D01*
X182892526Y-102541668D01*
X182784895Y-102456622D01*
X182635064Y-102326901D01*
X182438306Y-102147899D01*
X182189893Y-101915009D01*
X181885099Y-101623623D01*
X181519195Y-101269134D01*
X181087456Y-100846936D01*
X180585153Y-100352421D01*
X180007560Y-99780982D01*
X179349950Y-99128013D01*
X178607594Y-98388905D01*
X177775768Y-97559052D01*
X176849742Y-96633846D01*
X175824790Y-95608681D01*
X175610329Y-95394066D01*
X174594049Y-94376914D01*
X173677756Y-93459556D01*
X172856410Y-92636748D01*
X172124970Y-91903245D01*
X171478397Y-91253802D01*
X170911652Y-90683174D01*
X170419695Y-90186118D01*
X169997486Y-89757388D01*
X169639986Y-89391741D01*
X169342154Y-89083930D01*
X169098953Y-88828712D01*
X168905341Y-88620842D01*
X168756279Y-88455076D01*
X168646728Y-88326168D01*
X168571648Y-88228875D01*
X168525999Y-88157951D01*
X168504742Y-88108152D01*
X168502837Y-88074233D01*
X168515245Y-88050951D01*
X168536925Y-88033059D01*
X168536989Y-88033015D01*
X168661461Y-87914080D01*
X168704094Y-87818408D01*
X168762563Y-87705041D01*
X168838927Y-87646516D01*
X168869815Y-87648043D01*
G36*
X171622460Y-99729765D02*
G01*
X172115732Y-100225393D01*
X172573307Y-100689388D01*
X172985084Y-101111202D01*
X173340962Y-101480284D01*
X173630840Y-101786087D01*
X173844617Y-102018062D01*
X173972193Y-102165660D01*
X174004836Y-102217777D01*
X173897364Y-102257787D01*
X173760575Y-102270633D01*
X173547646Y-102306372D01*
X173373539Y-102372929D01*
X173327485Y-102394278D01*
X173279418Y-102402554D01*
X173220052Y-102389460D01*
X173140100Y-102346697D01*
X173030278Y-102265968D01*
X172881301Y-102138975D01*
X172683882Y-101957420D01*
X172428736Y-101713006D01*
X172106578Y-101397435D01*
X171708122Y-101002409D01*
X171224082Y-100519631D01*
X170645174Y-99940802D01*
X170588849Y-99884460D01*
X167999334Y-97294152D01*
X169187686Y-97294152D01*
X171622460Y-99729765D01*
G37*
X171622460Y-99729765D02*
X172115732Y-100225393D01*
X172573307Y-100689388D01*
X172985084Y-101111202D01*
X173340962Y-101480284D01*
X173630840Y-101786087D01*
X173844617Y-102018062D01*
X173972193Y-102165660D01*
X174004836Y-102217777D01*
X173897364Y-102257787D01*
X173760575Y-102270633D01*
X173547646Y-102306372D01*
X173373539Y-102372929D01*
X173327485Y-102394278D01*
X173279418Y-102402554D01*
X173220052Y-102389460D01*
X173140100Y-102346697D01*
X173030278Y-102265968D01*
X172881301Y-102138975D01*
X172683882Y-101957420D01*
X172428736Y-101713006D01*
X172106578Y-101397435D01*
X171708122Y-101002409D01*
X171224082Y-100519631D01*
X170645174Y-99940802D01*
X170588849Y-99884460D01*
X167999334Y-97294152D01*
X169187686Y-97294152D01*
X171622460Y-99729765D01*
G36*
X126094299Y-99357797D02*
G01*
X128299564Y-101564620D01*
X128022150Y-101746586D01*
X127834826Y-101870530D01*
X127695360Y-101964699D01*
X127666741Y-101984738D01*
X127596321Y-101947339D01*
X127431278Y-101811578D01*
X127180418Y-101585704D01*
X126852549Y-101277964D01*
X126456478Y-100896606D01*
X126001012Y-100449879D01*
X125568641Y-100019818D01*
X125118859Y-99567940D01*
X124703937Y-99147474D01*
X124335273Y-98770244D01*
X124024264Y-98448072D01*
X123782306Y-98192780D01*
X123620796Y-98016191D01*
X123551130Y-97930129D01*
X123549217Y-97924941D01*
X123579909Y-97820410D01*
X123657693Y-97633600D01*
X123719465Y-97501071D01*
X123889034Y-97150973D01*
X126094299Y-99357797D01*
G37*
X126094299Y-99357797D02*
X128299564Y-101564620D01*
X128022150Y-101746586D01*
X127834826Y-101870530D01*
X127695360Y-101964699D01*
X127666741Y-101984738D01*
X127596321Y-101947339D01*
X127431278Y-101811578D01*
X127180418Y-101585704D01*
X126852549Y-101277964D01*
X126456478Y-100896606D01*
X126001012Y-100449879D01*
X125568641Y-100019818D01*
X125118859Y-99567940D01*
X124703937Y-99147474D01*
X124335273Y-98770244D01*
X124024264Y-98448072D01*
X123782306Y-98192780D01*
X123620796Y-98016191D01*
X123551130Y-97930129D01*
X123549217Y-97924941D01*
X123579909Y-97820410D01*
X123657693Y-97633600D01*
X123719465Y-97501071D01*
X123889034Y-97150973D01*
X126094299Y-99357797D01*
G36*
X177526413Y-93756911D02*
G01*
X178566794Y-94798375D01*
X179506848Y-95739988D01*
X180351441Y-96586770D01*
X181105438Y-97343741D01*
X181773705Y-98015922D01*
X182361109Y-98608331D01*
X182872515Y-99125991D01*
X183312788Y-99573920D01*
X183686796Y-99957139D01*
X183999402Y-100280667D01*
X184255475Y-100549526D01*
X184459878Y-100768735D01*
X184617479Y-100943314D01*
X184733142Y-101078283D01*
X184811735Y-101178663D01*
X184858122Y-101249474D01*
X184877169Y-101295735D01*
X184873743Y-101322467D01*
X184866220Y-101329429D01*
X184709161Y-101438079D01*
X184527559Y-101577925D01*
X184527035Y-101578352D01*
X184327770Y-101740622D01*
X176916285Y-94328858D01*
X175878955Y-93291790D01*
X174941503Y-92354841D01*
X174099166Y-91512703D01*
X173347185Y-90760071D01*
X172680799Y-90091637D01*
X172095247Y-89502095D01*
X171585769Y-88986139D01*
X171147603Y-88538461D01*
X170775989Y-88153755D01*
X170466165Y-87826715D01*
X170213373Y-87552034D01*
X170012850Y-87324404D01*
X169859835Y-87138521D01*
X169749569Y-86989076D01*
X169677290Y-86870763D01*
X169638238Y-86778276D01*
X169627651Y-86706309D01*
X169640770Y-86649553D01*
X169672833Y-86602703D01*
X169719080Y-86560452D01*
X169774749Y-86517494D01*
X169835080Y-86468522D01*
X169851318Y-86453798D01*
X170046685Y-86271046D01*
X177526413Y-93756911D01*
G37*
X177526413Y-93756911D02*
X178566794Y-94798375D01*
X179506848Y-95739988D01*
X180351441Y-96586770D01*
X181105438Y-97343741D01*
X181773705Y-98015922D01*
X182361109Y-98608331D01*
X182872515Y-99125991D01*
X183312788Y-99573920D01*
X183686796Y-99957139D01*
X183999402Y-100280667D01*
X184255475Y-100549526D01*
X184459878Y-100768735D01*
X184617479Y-100943314D01*
X184733142Y-101078283D01*
X184811735Y-101178663D01*
X184858122Y-101249474D01*
X184877169Y-101295735D01*
X184873743Y-101322467D01*
X184866220Y-101329429D01*
X184709161Y-101438079D01*
X184527559Y-101577925D01*
X184527035Y-101578352D01*
X184327770Y-101740622D01*
X176916285Y-94328858D01*
X175878955Y-93291790D01*
X174941503Y-92354841D01*
X174099166Y-91512703D01*
X173347185Y-90760071D01*
X172680799Y-90091637D01*
X172095247Y-89502095D01*
X171585769Y-88986139D01*
X171147603Y-88538461D01*
X170775989Y-88153755D01*
X170466165Y-87826715D01*
X170213373Y-87552034D01*
X170012850Y-87324404D01*
X169859835Y-87138521D01*
X169749569Y-86989076D01*
X169677290Y-86870763D01*
X169638238Y-86778276D01*
X169627651Y-86706309D01*
X169640770Y-86649553D01*
X169672833Y-86602703D01*
X169719080Y-86560452D01*
X169774749Y-86517494D01*
X169835080Y-86468522D01*
X169851318Y-86453798D01*
X170046685Y-86271046D01*
X177526413Y-93756911D01*
G36*
X129935923Y-100821447D02*
G01*
X129583020Y-100945903D01*
X129355339Y-101019793D01*
X129174208Y-101067389D01*
X129118292Y-101076115D01*
X129044555Y-101026164D01*
X128877419Y-100880839D01*
X128627760Y-100650549D01*
X128306456Y-100345704D01*
X127924384Y-99976713D01*
X127492420Y-99553985D01*
X127021441Y-99087930D01*
X126582683Y-98649561D01*
X126089778Y-98152874D01*
X125631498Y-97687115D01*
X125218101Y-97262995D01*
X124859845Y-96891228D01*
X124566989Y-96582524D01*
X124349791Y-96347596D01*
X124218510Y-96197156D01*
X124182247Y-96142983D01*
X124202698Y-96033374D01*
X124231542Y-95826315D01*
X124255183Y-95630236D01*
X124304773Y-95191759D01*
X129935923Y-100821447D01*
G37*
X129935923Y-100821447D02*
X129583020Y-100945903D01*
X129355339Y-101019793D01*
X129174208Y-101067389D01*
X129118292Y-101076115D01*
X129044555Y-101026164D01*
X128877419Y-100880839D01*
X128627760Y-100650549D01*
X128306456Y-100345704D01*
X127924384Y-99976713D01*
X127492420Y-99553985D01*
X127021441Y-99087930D01*
X126582683Y-98649561D01*
X126089778Y-98152874D01*
X125631498Y-97687115D01*
X125218101Y-97262995D01*
X124859845Y-96891228D01*
X124566989Y-96582524D01*
X124349791Y-96347596D01*
X124218510Y-96197156D01*
X124182247Y-96142983D01*
X124202698Y-96033374D01*
X124231542Y-95826315D01*
X124255183Y-95630236D01*
X124304773Y-95191759D01*
X129935923Y-100821447D01*
G36*
X122070143Y-100086152D02*
G01*
X122509720Y-100521142D01*
X122230737Y-100660399D01*
X122034882Y-100772083D01*
X121893267Y-100877395D01*
X121871927Y-100900034D01*
X121812865Y-100927278D01*
X121715343Y-100884074D01*
X121560333Y-100757202D01*
X121328806Y-100533443D01*
X121294206Y-100498676D01*
X120796314Y-99996939D01*
X121630566Y-99651161D01*
X122070143Y-100086152D01*
G37*
X122070143Y-100086152D02*
X122509720Y-100521142D01*
X122230737Y-100660399D01*
X122034882Y-100772083D01*
X121893267Y-100877395D01*
X121871927Y-100900034D01*
X121812865Y-100927278D01*
X121715343Y-100884074D01*
X121560333Y-100757202D01*
X121328806Y-100533443D01*
X121294206Y-100498676D01*
X120796314Y-99996939D01*
X121630566Y-99651161D01*
X122070143Y-100086152D01*
G36*
X127818635Y-96328655D02*
G01*
X128609972Y-97120206D01*
X129301113Y-97813314D01*
X129897644Y-98413811D01*
X130405150Y-98927531D01*
X130829219Y-99360307D01*
X131175435Y-99717971D01*
X131449386Y-100006357D01*
X131656657Y-100231297D01*
X131802834Y-100398625D01*
X131893505Y-100514173D01*
X131934255Y-100583775D01*
X131930669Y-100613263D01*
X131923655Y-100615037D01*
X131751857Y-100628317D01*
X131503792Y-100644240D01*
X131364962Y-100652172D01*
X130974662Y-100673392D01*
X127597134Y-97294152D01*
X126901827Y-96597642D01*
X126305069Y-95997737D01*
X125799629Y-95486757D01*
X125378277Y-95057029D01*
X125033784Y-94700873D01*
X124758919Y-94410614D01*
X124546453Y-94178575D01*
X124389155Y-93997079D01*
X124279795Y-93858449D01*
X124211143Y-93755009D01*
X124175970Y-93679082D01*
X124169707Y-93654971D01*
X124118287Y-93472061D01*
X124022304Y-93199662D01*
X123898413Y-92883622D01*
X123832515Y-92726608D01*
X123545223Y-92058187D01*
X127818635Y-96328655D01*
G37*
X127818635Y-96328655D02*
X128609972Y-97120206D01*
X129301113Y-97813314D01*
X129897644Y-98413811D01*
X130405150Y-98927531D01*
X130829219Y-99360307D01*
X131175435Y-99717971D01*
X131449386Y-100006357D01*
X131656657Y-100231297D01*
X131802834Y-100398625D01*
X131893505Y-100514173D01*
X131934255Y-100583775D01*
X131930669Y-100613263D01*
X131923655Y-100615037D01*
X131751857Y-100628317D01*
X131503792Y-100644240D01*
X131364962Y-100652172D01*
X130974662Y-100673392D01*
X127597134Y-97294152D01*
X126901827Y-96597642D01*
X126305069Y-95997737D01*
X125799629Y-95486757D01*
X125378277Y-95057029D01*
X125033784Y-94700873D01*
X124758919Y-94410614D01*
X124546453Y-94178575D01*
X124389155Y-93997079D01*
X124279795Y-93858449D01*
X124211143Y-93755009D01*
X124175970Y-93679082D01*
X124169707Y-93654971D01*
X124118287Y-93472061D01*
X124022304Y-93199662D01*
X123898413Y-92883622D01*
X123832515Y-92726608D01*
X123545223Y-92058187D01*
X127818635Y-96328655D01*
G36*
X133092106Y-99225146D02*
G01*
X134501751Y-100636257D01*
X133313446Y-100636257D01*
X130494156Y-97814035D01*
X131682460Y-97814035D01*
X133092106Y-99225146D01*
G37*
X133092106Y-99225146D02*
X134501751Y-100636257D01*
X133313446Y-100636257D01*
X130494156Y-97814035D01*
X131682460Y-97814035D01*
X133092106Y-99225146D01*
G36*
X136878359Y-100636257D02*
G01*
X135690055Y-100636257D01*
X132870765Y-97814035D01*
X134059069Y-97814035D01*
X136878359Y-100636257D01*
G37*
X136878359Y-100636257D02*
X135690055Y-100636257D01*
X132870765Y-97814035D01*
X134059069Y-97814035D01*
X136878359Y-100636257D01*
G36*
X137675805Y-99069843D02*
G01*
X138082111Y-99472348D01*
X138393120Y-99784376D01*
X138619868Y-100019160D01*
X138773392Y-100189935D01*
X138864732Y-100309936D01*
X138904924Y-100392396D01*
X138905005Y-100450551D01*
X138876015Y-100497634D01*
X138871165Y-100503104D01*
X138696234Y-100604102D01*
X138408663Y-100636257D01*
X138066663Y-100636257D01*
X136663549Y-99231684D01*
X135260434Y-97827110D01*
X136359942Y-97769736D01*
X137675805Y-99069843D01*
G37*
X137675805Y-99069843D02*
X138082111Y-99472348D01*
X138393120Y-99784376D01*
X138619868Y-100019160D01*
X138773392Y-100189935D01*
X138864732Y-100309936D01*
X138904924Y-100392396D01*
X138905005Y-100450551D01*
X138876015Y-100497634D01*
X138871165Y-100503104D01*
X138696234Y-100604102D01*
X138408663Y-100636257D01*
X138066663Y-100636257D01*
X136663549Y-99231684D01*
X135260434Y-97827110D01*
X136359942Y-97769736D01*
X137675805Y-99069843D01*
G36*
X171806989Y-85657503D02*
G01*
X172181115Y-86078608D01*
X172489846Y-86509596D01*
X172606172Y-86710819D01*
X172778250Y-87030543D01*
X172914313Y-87246496D01*
X173043488Y-87388397D01*
X173194904Y-87485965D01*
X173397689Y-87568922D01*
X173473258Y-87595528D01*
X173538576Y-87621595D01*
X173611695Y-87659641D01*
X173698585Y-87715392D01*
X173805217Y-87794574D01*
X173937563Y-87902914D01*
X174101593Y-88046138D01*
X174303278Y-88229973D01*
X174548589Y-88460145D01*
X174843497Y-88742380D01*
X175193972Y-89082406D01*
X175605985Y-89485948D01*
X176085507Y-89958734D01*
X176638509Y-90506488D01*
X177270962Y-91134939D01*
X177988837Y-91849812D01*
X178798104Y-92656833D01*
X179704735Y-93561730D01*
X179964494Y-93821081D01*
X186063198Y-99910522D01*
X185956277Y-100124852D01*
X185862553Y-100272932D01*
X185781509Y-100338957D01*
X185778132Y-100339181D01*
X185698216Y-100399827D01*
X185652367Y-100486623D01*
X185632248Y-100494894D01*
X185584797Y-100473115D01*
X185505243Y-100416637D01*
X185388811Y-100320815D01*
X185230731Y-100181000D01*
X185026229Y-99992547D01*
X184770532Y-99750806D01*
X184458867Y-99451132D01*
X184086463Y-99088877D01*
X183648545Y-98659393D01*
X183140343Y-98158035D01*
X182557082Y-97580153D01*
X181893991Y-96921102D01*
X181146296Y-96176233D01*
X180309224Y-95340901D01*
X179378004Y-94410457D01*
X178347862Y-93380254D01*
X178120274Y-93152559D01*
X170642723Y-85671053D01*
X170961392Y-85397561D01*
X171280060Y-85124070D01*
X171806989Y-85657503D01*
G37*
X171806989Y-85657503D02*
X172181115Y-86078608D01*
X172489846Y-86509596D01*
X172606172Y-86710819D01*
X172778250Y-87030543D01*
X172914313Y-87246496D01*
X173043488Y-87388397D01*
X173194904Y-87485965D01*
X173397689Y-87568922D01*
X173473258Y-87595528D01*
X173538576Y-87621595D01*
X173611695Y-87659641D01*
X173698585Y-87715392D01*
X173805217Y-87794574D01*
X173937563Y-87902914D01*
X174101593Y-88046138D01*
X174303278Y-88229973D01*
X174548589Y-88460145D01*
X174843497Y-88742380D01*
X175193972Y-89082406D01*
X175605985Y-89485948D01*
X176085507Y-89958734D01*
X176638509Y-90506488D01*
X177270962Y-91134939D01*
X177988837Y-91849812D01*
X178798104Y-92656833D01*
X179704735Y-93561730D01*
X179964494Y-93821081D01*
X186063198Y-99910522D01*
X185956277Y-100124852D01*
X185862553Y-100272932D01*
X185781509Y-100338957D01*
X185778132Y-100339181D01*
X185698216Y-100399827D01*
X185652367Y-100486623D01*
X185632248Y-100494894D01*
X185584797Y-100473115D01*
X185505243Y-100416637D01*
X185388811Y-100320815D01*
X185230731Y-100181000D01*
X185026229Y-99992547D01*
X184770532Y-99750806D01*
X184458867Y-99451132D01*
X184086463Y-99088877D01*
X183648545Y-98659393D01*
X183140343Y-98158035D01*
X182557082Y-97580153D01*
X181893991Y-96921102D01*
X181146296Y-96176233D01*
X180309224Y-95340901D01*
X179378004Y-94410457D01*
X178347862Y-93380254D01*
X178120274Y-93152559D01*
X170642723Y-85671053D01*
X170961392Y-85397561D01*
X171280060Y-85124070D01*
X171806989Y-85657503D01*
G36*
X137424263Y-96520922D02*
G01*
X137518708Y-96582305D01*
X137667618Y-96706625D01*
X137880857Y-96902599D01*
X138168288Y-97178946D01*
X138539776Y-97544384D01*
X138997884Y-98000341D01*
X140633195Y-99633626D01*
X140279024Y-99680957D01*
X140034248Y-99719501D01*
X139831506Y-99761297D01*
X139776316Y-99776561D01*
X139709687Y-99774215D01*
X139610846Y-99724451D01*
X139467295Y-99616503D01*
X139266539Y-99439600D01*
X138996082Y-99182975D01*
X138643429Y-98835860D01*
X138385576Y-98578060D01*
X137143374Y-97331287D01*
X137249714Y-97034211D01*
X137319063Y-96798738D01*
X137357100Y-96589080D01*
X137359313Y-96552095D01*
X137374419Y-96513758D01*
X137424263Y-96520922D01*
G37*
X137424263Y-96520922D02*
X137518708Y-96582305D01*
X137667618Y-96706625D01*
X137880857Y-96902599D01*
X138168288Y-97178946D01*
X138539776Y-97544384D01*
X138997884Y-98000341D01*
X140633195Y-99633626D01*
X140279024Y-99680957D01*
X140034248Y-99719501D01*
X139831506Y-99761297D01*
X139776316Y-99776561D01*
X139709687Y-99774215D01*
X139610846Y-99724451D01*
X139467295Y-99616503D01*
X139266539Y-99439600D01*
X138996082Y-99182975D01*
X138643429Y-98835860D01*
X138385576Y-98578060D01*
X137143374Y-97331287D01*
X137249714Y-97034211D01*
X137319063Y-96798738D01*
X137357100Y-96589080D01*
X137359313Y-96552095D01*
X137374419Y-96513758D01*
X137424263Y-96520922D01*
G36*
X140221564Y-96847752D02*
G01*
X143043419Y-99670760D01*
X141854935Y-99670760D01*
X137355795Y-95169806D01*
X137377751Y-94597275D01*
X137399708Y-94024744D01*
X140221564Y-96847752D01*
G37*
X140221564Y-96847752D02*
X143043419Y-99670760D01*
X141854935Y-99670760D01*
X137355795Y-95169806D01*
X137377751Y-94597275D01*
X137399708Y-94024744D01*
X140221564Y-96847752D01*
G36*
X140221930Y-94471930D02*
G01*
X145420363Y-99670760D01*
X144232059Y-99670760D01*
X139033626Y-94471930D01*
X133835193Y-89273099D01*
X135023498Y-89273099D01*
X140221930Y-94471930D01*
G37*
X140221930Y-94471930D02*
X145420363Y-99670760D01*
X144232059Y-99670760D01*
X139033626Y-94471930D01*
X133835193Y-89273099D01*
X135023498Y-89273099D01*
X140221930Y-94471930D01*
G36*
X142598538Y-94471930D02*
G01*
X147796971Y-99670760D01*
X146608667Y-99670760D01*
X141410234Y-94471930D01*
X136211802Y-89273099D01*
X137400106Y-89273099D01*
X142598538Y-94471930D01*
G37*
X142598538Y-94471930D02*
X147796971Y-99670760D01*
X146608667Y-99670760D01*
X141410234Y-94471930D01*
X136211802Y-89273099D01*
X137400106Y-89273099D01*
X142598538Y-94471930D01*
G36*
X147191083Y-97280684D02*
G01*
X147809294Y-97304351D01*
X148990765Y-98487556D01*
X150172236Y-99670760D01*
X148983984Y-99670760D01*
X147778429Y-98463889D01*
X146572873Y-97257018D01*
X147191083Y-97280684D01*
G37*
X147191083Y-97280684D02*
X147809294Y-97304351D01*
X148990765Y-98487556D01*
X150172236Y-99670760D01*
X148983984Y-99670760D01*
X147778429Y-98463889D01*
X146572873Y-97257018D01*
X147191083Y-97280684D01*
G36*
X152548844Y-99670760D02*
G01*
X151360540Y-99670760D01*
X148987414Y-97294152D01*
X150175718Y-97294152D01*
X152548844Y-99670760D01*
G37*
X152548844Y-99670760D02*
X151360540Y-99670760D01*
X148987414Y-97294152D01*
X150175718Y-97294152D01*
X152548844Y-99670760D01*
G36*
X154925452Y-99670760D02*
G01*
X153737148Y-99670760D01*
X151364022Y-97294152D01*
X152552326Y-97294152D01*
X154925452Y-99670760D01*
G37*
X154925452Y-99670760D02*
X153737148Y-99670760D01*
X151364022Y-97294152D01*
X152552326Y-97294152D01*
X154925452Y-99670760D01*
G36*
X157302060Y-99670760D02*
G01*
X156113756Y-99670760D01*
X153740630Y-97294152D01*
X154928934Y-97294152D01*
X157302060Y-99670760D01*
G37*
X157302060Y-99670760D02*
X156113756Y-99670760D01*
X153740630Y-97294152D01*
X154928934Y-97294152D01*
X157302060Y-99670760D01*
G36*
X158492106Y-98482456D02*
G01*
X159678668Y-99670760D01*
X158490364Y-99670760D01*
X156117238Y-97294152D01*
X157305543Y-97294152D01*
X158492106Y-98482456D01*
G37*
X158492106Y-98482456D02*
X159678668Y-99670760D01*
X158490364Y-99670760D01*
X156117238Y-97294152D01*
X157305543Y-97294152D01*
X158492106Y-98482456D01*
G36*
X162055277Y-99670760D02*
G01*
X160866973Y-99670760D01*
X158493847Y-97294152D01*
X159682151Y-97294152D01*
X162055277Y-99670760D01*
G37*
X162055277Y-99670760D02*
X160866973Y-99670760D01*
X158493847Y-97294152D01*
X159682151Y-97294152D01*
X162055277Y-99670760D01*
G36*
X164431885Y-99670760D02*
G01*
X163243581Y-99670760D01*
X160870455Y-97294152D01*
X162058759Y-97294152D01*
X164431885Y-99670760D01*
G37*
X164431885Y-99670760D02*
X163243581Y-99670760D01*
X160870455Y-97294152D01*
X162058759Y-97294152D01*
X164431885Y-99670760D01*
G36*
X181410127Y-92881180D02*
G01*
X182190880Y-93662945D01*
X182939918Y-94414845D01*
X183650793Y-95130308D01*
X184317057Y-95802761D01*
X184932262Y-96425631D01*
X185489960Y-96992347D01*
X185983701Y-97496336D01*
X186407039Y-97931024D01*
X186753524Y-98289841D01*
X187016709Y-98566213D01*
X187190145Y-98753567D01*
X187267384Y-98845332D01*
X187269845Y-98853801D01*
X187142229Y-98893427D01*
X186956241Y-98992872D01*
X186884046Y-99039474D01*
X186714729Y-99151392D01*
X186605774Y-99217516D01*
X186588121Y-99225146D01*
X186533691Y-99173717D01*
X186380970Y-99023874D01*
X186136649Y-98782283D01*
X185807420Y-98455611D01*
X185399976Y-98050525D01*
X184921007Y-97573691D01*
X184377207Y-97031775D01*
X183775268Y-96431445D01*
X183121881Y-95779367D01*
X182423738Y-95082207D01*
X181687531Y-94346632D01*
X180919953Y-93579309D01*
X180716383Y-93375741D01*
X179805399Y-92464475D01*
X178994115Y-91652306D01*
X178277017Y-90933485D01*
X177648588Y-90302261D01*
X177103314Y-89752884D01*
X176635679Y-89279603D01*
X176240166Y-88876670D01*
X175911261Y-88538334D01*
X175643447Y-88258844D01*
X175431210Y-88032451D01*
X175269033Y-87853404D01*
X175151401Y-87715953D01*
X175072799Y-87614349D01*
X175027710Y-87542841D01*
X175010619Y-87495679D01*
X175016011Y-87467113D01*
X175034981Y-87452788D01*
X175183466Y-87336513D01*
X175314509Y-87155081D01*
X175320242Y-87143899D01*
X175437852Y-86908559D01*
X181410127Y-92881180D01*
G37*
X181410127Y-92881180D02*
X182190880Y-93662945D01*
X182939918Y-94414845D01*
X183650793Y-95130308D01*
X184317057Y-95802761D01*
X184932262Y-96425631D01*
X185489960Y-96992347D01*
X185983701Y-97496336D01*
X186407039Y-97931024D01*
X186753524Y-98289841D01*
X187016709Y-98566213D01*
X187190145Y-98753567D01*
X187267384Y-98845332D01*
X187269845Y-98853801D01*
X187142229Y-98893427D01*
X186956241Y-98992872D01*
X186884046Y-99039474D01*
X186714729Y-99151392D01*
X186605774Y-99217516D01*
X186588121Y-99225146D01*
X186533691Y-99173717D01*
X186380970Y-99023874D01*
X186136649Y-98782283D01*
X185807420Y-98455611D01*
X185399976Y-98050525D01*
X184921007Y-97573691D01*
X184377207Y-97031775D01*
X183775268Y-96431445D01*
X183121881Y-95779367D01*
X182423738Y-95082207D01*
X181687531Y-94346632D01*
X180919953Y-93579309D01*
X180716383Y-93375741D01*
X179805399Y-92464475D01*
X178994115Y-91652306D01*
X178277017Y-90933485D01*
X177648588Y-90302261D01*
X177103314Y-89752884D01*
X176635679Y-89279603D01*
X176240166Y-88876670D01*
X175911261Y-88538334D01*
X175643447Y-88258844D01*
X175431210Y-88032451D01*
X175269033Y-87853404D01*
X175151401Y-87715953D01*
X175072799Y-87614349D01*
X175027710Y-87542841D01*
X175010619Y-87495679D01*
X175016011Y-87467113D01*
X175034981Y-87452788D01*
X175183466Y-87336513D01*
X175314509Y-87155081D01*
X175320242Y-87143899D01*
X175437852Y-86908559D01*
X181410127Y-92881180D01*
G36*
X189536460Y-98630994D02*
G01*
X188347928Y-98630994D01*
X181870702Y-92151023D01*
X180877070Y-91156450D01*
X179983938Y-90261278D01*
X179186301Y-89460353D01*
X178479153Y-88748519D01*
X177857489Y-88120619D01*
X177316305Y-87571499D01*
X176850594Y-87096004D01*
X176455352Y-86688977D01*
X176125573Y-86345263D01*
X175856253Y-86059706D01*
X175642386Y-85827151D01*
X175478967Y-85642443D01*
X175360990Y-85500425D01*
X175283452Y-85395943D01*
X175241345Y-85323840D01*
X175240237Y-85321351D01*
X175139136Y-85112521D01*
X175050124Y-84965281D01*
X175014845Y-84927056D01*
X174952215Y-84822574D01*
X174942690Y-84752202D01*
X174875414Y-84580162D01*
X174693860Y-84398533D01*
X174428440Y-84231316D01*
X174125731Y-84107488D01*
X173889143Y-84017023D01*
X173676152Y-83907948D01*
X173518863Y-83800687D01*
X173449384Y-83715663D01*
X173461436Y-83684938D01*
X173541894Y-83643616D01*
X173713614Y-83560922D01*
X173860338Y-83491796D01*
X174226231Y-83320765D01*
X189536460Y-98630994D01*
G37*
X189536460Y-98630994D02*
X188347928Y-98630994D01*
X181870702Y-92151023D01*
X180877070Y-91156450D01*
X179983938Y-90261278D01*
X179186301Y-89460353D01*
X178479153Y-88748519D01*
X177857489Y-88120619D01*
X177316305Y-87571499D01*
X176850594Y-87096004D01*
X176455352Y-86688977D01*
X176125573Y-86345263D01*
X175856253Y-86059706D01*
X175642386Y-85827151D01*
X175478967Y-85642443D01*
X175360990Y-85500425D01*
X175283452Y-85395943D01*
X175241345Y-85323840D01*
X175240237Y-85321351D01*
X175139136Y-85112521D01*
X175050124Y-84965281D01*
X175014845Y-84927056D01*
X174952215Y-84822574D01*
X174942690Y-84752202D01*
X174875414Y-84580162D01*
X174693860Y-84398533D01*
X174428440Y-84231316D01*
X174125731Y-84107488D01*
X173889143Y-84017023D01*
X173676152Y-83907948D01*
X173518863Y-83800687D01*
X173449384Y-83715663D01*
X173461436Y-83684938D01*
X173541894Y-83643616D01*
X173713614Y-83560922D01*
X173860338Y-83491796D01*
X174226231Y-83320765D01*
X189536460Y-98630994D01*
G36*
X188608802Y-96328831D02*
G01*
X188836825Y-96372020D01*
X189126935Y-96398724D01*
X189277445Y-96402924D01*
X189687742Y-96402924D01*
X190447672Y-97165449D01*
X190717401Y-97439662D01*
X190944987Y-97677822D01*
X191111771Y-97859870D01*
X191199098Y-97965751D01*
X191207603Y-97982409D01*
X191147549Y-98031427D01*
X191101590Y-98036842D01*
X190981870Y-98090596D01*
X190860215Y-98207441D01*
X190735230Y-98348276D01*
X190645632Y-98426217D01*
X190572060Y-98390353D01*
X190411354Y-98262749D01*
X190179968Y-98058121D01*
X189894360Y-97791183D01*
X189570983Y-97476652D01*
X189458433Y-97364566D01*
X189093314Y-96997107D01*
X188825123Y-96721913D01*
X188644462Y-96527528D01*
X188541931Y-96402494D01*
X188508133Y-96335354D01*
X188533668Y-96314651D01*
X188608802Y-96328831D01*
G37*
X188608802Y-96328831D02*
X188836825Y-96372020D01*
X189126935Y-96398724D01*
X189277445Y-96402924D01*
X189687742Y-96402924D01*
X190447672Y-97165449D01*
X190717401Y-97439662D01*
X190944987Y-97677822D01*
X191111771Y-97859870D01*
X191199098Y-97965751D01*
X191207603Y-97982409D01*
X191147549Y-98031427D01*
X191101590Y-98036842D01*
X190981870Y-98090596D01*
X190860215Y-98207441D01*
X190735230Y-98348276D01*
X190645632Y-98426217D01*
X190572060Y-98390353D01*
X190411354Y-98262749D01*
X190179968Y-98058121D01*
X189894360Y-97791183D01*
X189570983Y-97476652D01*
X189458433Y-97364566D01*
X189093314Y-96997107D01*
X188825123Y-96721913D01*
X188644462Y-96527528D01*
X188541931Y-96402494D01*
X188508133Y-96335354D01*
X188533668Y-96314651D01*
X188608802Y-96328831D01*
G36*
X191457250Y-95812176D02*
G01*
X191523246Y-95862728D01*
X191600836Y-96012272D01*
X191642930Y-96257264D01*
X191646349Y-96548175D01*
X191607919Y-96835475D01*
X191590112Y-96905458D01*
X191558561Y-96985440D01*
X191509317Y-97000944D01*
X191417431Y-96939638D01*
X191257956Y-96789191D01*
X191162438Y-96694072D01*
X190783062Y-96314363D01*
X191088169Y-96029744D01*
X191266021Y-95871064D01*
X191376569Y-95803332D01*
X191457250Y-95812176D01*
G37*
X191457250Y-95812176D02*
X191523246Y-95862728D01*
X191600836Y-96012272D01*
X191642930Y-96257264D01*
X191646349Y-96548175D01*
X191607919Y-96835475D01*
X191590112Y-96905458D01*
X191558561Y-96985440D01*
X191509317Y-97000944D01*
X191417431Y-96939638D01*
X191257956Y-96789191D01*
X191162438Y-96694072D01*
X190783062Y-96314363D01*
X191088169Y-96029744D01*
X191266021Y-95871064D01*
X191376569Y-95803332D01*
X191457250Y-95812176D01*
G36*
X138883114Y-89434549D02*
G01*
X139073544Y-89603598D01*
X139282709Y-89811717D01*
X139291914Y-89821424D01*
X139668626Y-90219740D01*
X140246632Y-90270161D01*
X140824639Y-90320581D01*
X145664161Y-95177485D01*
X145711304Y-95790205D01*
X145730569Y-96070419D01*
X145740836Y-96283308D01*
X145740614Y-96394438D01*
X145737851Y-96402924D01*
X145683309Y-96351740D01*
X145532497Y-96203884D01*
X145293992Y-95967905D01*
X144976373Y-95652349D01*
X144588215Y-95265762D01*
X144138096Y-94816693D01*
X143634593Y-94313687D01*
X143086282Y-93765293D01*
X142501741Y-93180056D01*
X142152634Y-92830260D01*
X141556192Y-92231319D01*
X140995701Y-91666229D01*
X140479197Y-91143238D01*
X140014716Y-90670590D01*
X139610293Y-90256532D01*
X139273965Y-89909309D01*
X139013767Y-89637168D01*
X138837735Y-89448354D01*
X138753906Y-89351114D01*
X138751607Y-89340352D01*
X138883114Y-89434549D01*
G37*
X138883114Y-89434549D02*
X139073544Y-89603598D01*
X139282709Y-89811717D01*
X139291914Y-89821424D01*
X139668626Y-90219740D01*
X140246632Y-90270161D01*
X140824639Y-90320581D01*
X145664161Y-95177485D01*
X145711304Y-95790205D01*
X145730569Y-96070419D01*
X145740836Y-96283308D01*
X145740614Y-96394438D01*
X145737851Y-96402924D01*
X145683309Y-96351740D01*
X145532497Y-96203884D01*
X145293992Y-95967905D01*
X144976373Y-95652349D01*
X144588215Y-95265762D01*
X144138096Y-94816693D01*
X143634593Y-94313687D01*
X143086282Y-93765293D01*
X142501741Y-93180056D01*
X142152634Y-92830260D01*
X141556192Y-92231319D01*
X140995701Y-91666229D01*
X140479197Y-91143238D01*
X140014716Y-90670590D01*
X139610293Y-90256532D01*
X139273965Y-89909309D01*
X139013767Y-89637168D01*
X138837735Y-89448354D01*
X138753906Y-89351114D01*
X138751607Y-89340352D01*
X138883114Y-89434549D01*
G36*
X119660939Y-85794197D02*
G01*
X121603456Y-87735454D01*
X121606338Y-88107502D01*
X121664556Y-88580530D01*
X121829485Y-88950880D01*
X122098708Y-89216099D01*
X122469804Y-89373735D01*
X122902561Y-89421637D01*
X123289360Y-89421637D01*
X125984620Y-92117657D01*
X128679881Y-94813676D01*
X128657923Y-95386087D01*
X128635965Y-95958497D01*
X122699440Y-90021204D01*
X121783706Y-89105228D01*
X120967598Y-88288472D01*
X120245638Y-87565200D01*
X119612344Y-86929676D01*
X119062236Y-86376163D01*
X118589836Y-85898924D01*
X118189661Y-85492222D01*
X117856234Y-85150322D01*
X117584072Y-84867486D01*
X117367697Y-84637978D01*
X117201628Y-84456060D01*
X117080385Y-84315998D01*
X116998489Y-84212053D01*
X116950458Y-84138489D01*
X116930813Y-84089569D01*
X116934074Y-84059558D01*
X116954761Y-84042717D01*
X116980726Y-84034748D01*
X117211735Y-83980346D01*
X117458480Y-83919263D01*
X117718421Y-83852941D01*
X119660939Y-85794197D01*
G37*
X119660939Y-85794197D02*
X121603456Y-87735454D01*
X121606338Y-88107502D01*
X121664556Y-88580530D01*
X121829485Y-88950880D01*
X122098708Y-89216099D01*
X122469804Y-89373735D01*
X122902561Y-89421637D01*
X123289360Y-89421637D01*
X125984620Y-92117657D01*
X128679881Y-94813676D01*
X128657923Y-95386087D01*
X128635965Y-95958497D01*
X122699440Y-90021204D01*
X121783706Y-89105228D01*
X120967598Y-88288472D01*
X120245638Y-87565200D01*
X119612344Y-86929676D01*
X119062236Y-86376163D01*
X118589836Y-85898924D01*
X118189661Y-85492222D01*
X117856234Y-85150322D01*
X117584072Y-84867486D01*
X117367697Y-84637978D01*
X117201628Y-84456060D01*
X117080385Y-84315998D01*
X116998489Y-84212053D01*
X116950458Y-84138489D01*
X116930813Y-84089569D01*
X116934074Y-84059558D01*
X116954761Y-84042717D01*
X116980726Y-84034748D01*
X117211735Y-83980346D01*
X117458480Y-83919263D01*
X117718421Y-83852941D01*
X119660939Y-85794197D01*
G36*
X175738770Y-82988311D02*
G01*
X175979458Y-83087174D01*
X176064309Y-83144011D01*
X176268315Y-83281173D01*
X176452951Y-83387436D01*
X176483772Y-83402114D01*
X176612450Y-83499204D01*
X176650877Y-83585992D01*
X176707932Y-83718435D01*
X176751367Y-83754935D01*
X176828277Y-83841393D01*
X176952735Y-84022370D01*
X177103417Y-84261880D01*
X177259000Y-84523935D01*
X177398159Y-84772551D01*
X177499568Y-84971740D01*
X177541905Y-85085517D01*
X177542106Y-85089360D01*
X177589962Y-85174252D01*
X177716672Y-85333701D01*
X177896944Y-85536352D01*
X177937768Y-85579908D01*
X178239359Y-85860813D01*
X178547149Y-86053764D01*
X178911276Y-86184102D01*
X179287427Y-86262093D01*
X179348987Y-86277720D01*
X179420827Y-86309617D01*
X179510291Y-86364703D01*
X179624720Y-86449895D01*
X179771457Y-86572111D01*
X179957845Y-86738269D01*
X180191228Y-86955286D01*
X180478947Y-87230081D01*
X180828345Y-87569572D01*
X181246765Y-87980675D01*
X181741549Y-88470310D01*
X182320041Y-89045393D01*
X182989583Y-89712843D01*
X183650731Y-90372912D01*
X187716959Y-94434289D01*
X187716959Y-94940741D01*
X187727923Y-95221071D01*
X187756570Y-95457294D01*
X187793841Y-95590848D01*
X187846033Y-95703612D01*
X187849381Y-95734503D01*
X187795204Y-95683029D01*
X187642436Y-95532861D01*
X187397478Y-95290377D01*
X187066730Y-94961956D01*
X186656592Y-94553978D01*
X186173464Y-94072822D01*
X185623746Y-93524867D01*
X185013839Y-92916492D01*
X184350142Y-92254077D01*
X183639057Y-91544000D01*
X182886982Y-90792640D01*
X182100318Y-90006378D01*
X181441228Y-89347368D01*
X175054418Y-82960234D01*
X175433185Y-82960234D01*
X175738770Y-82988311D01*
G37*
X175738770Y-82988311D02*
X175979458Y-83087174D01*
X176064309Y-83144011D01*
X176268315Y-83281173D01*
X176452951Y-83387436D01*
X176483772Y-83402114D01*
X176612450Y-83499204D01*
X176650877Y-83585992D01*
X176707932Y-83718435D01*
X176751367Y-83754935D01*
X176828277Y-83841393D01*
X176952735Y-84022370D01*
X177103417Y-84261880D01*
X177259000Y-84523935D01*
X177398159Y-84772551D01*
X177499568Y-84971740D01*
X177541905Y-85085517D01*
X177542106Y-85089360D01*
X177589962Y-85174252D01*
X177716672Y-85333701D01*
X177896944Y-85536352D01*
X177937768Y-85579908D01*
X178239359Y-85860813D01*
X178547149Y-86053764D01*
X178911276Y-86184102D01*
X179287427Y-86262093D01*
X179348987Y-86277720D01*
X179420827Y-86309617D01*
X179510291Y-86364703D01*
X179624720Y-86449895D01*
X179771457Y-86572111D01*
X179957845Y-86738269D01*
X180191228Y-86955286D01*
X180478947Y-87230081D01*
X180828345Y-87569572D01*
X181246765Y-87980675D01*
X181741549Y-88470310D01*
X182320041Y-89045393D01*
X182989583Y-89712843D01*
X183650731Y-90372912D01*
X187716959Y-94434289D01*
X187716959Y-94940741D01*
X187727923Y-95221071D01*
X187756570Y-95457294D01*
X187793841Y-95590848D01*
X187846033Y-95703612D01*
X187849381Y-95734503D01*
X187795204Y-95683029D01*
X187642436Y-95532861D01*
X187397478Y-95290377D01*
X187066730Y-94961956D01*
X186656592Y-94553978D01*
X186173464Y-94072822D01*
X185623746Y-93524867D01*
X185013839Y-92916492D01*
X184350142Y-92254077D01*
X183639057Y-91544000D01*
X182886982Y-90792640D01*
X182100318Y-90006378D01*
X181441228Y-89347368D01*
X175054418Y-82960234D01*
X175433185Y-82960234D01*
X175738770Y-82988311D01*
G36*
X109318819Y-89787034D02*
G01*
X109478796Y-89927902D01*
X109720799Y-90152810D01*
X110033593Y-90450995D01*
X110405942Y-90811696D01*
X110826611Y-91224149D01*
X111284367Y-91677592D01*
X111540268Y-91932952D01*
X113753816Y-94147422D01*
X113633626Y-95216584D01*
X111242831Y-92820427D01*
X108852035Y-90424269D01*
X109014760Y-90093863D01*
X109123178Y-89897854D01*
X109217421Y-89767938D01*
X109252103Y-89740970D01*
X109318819Y-89787034D01*
G37*
X109318819Y-89787034D02*
X109478796Y-89927902D01*
X109720799Y-90152810D01*
X110033593Y-90450995D01*
X110405942Y-90811696D01*
X110826611Y-91224149D01*
X111284367Y-91677592D01*
X111540268Y-91932952D01*
X113753816Y-94147422D01*
X113633626Y-95216584D01*
X111242831Y-92820427D01*
X108852035Y-90424269D01*
X109014760Y-90093863D01*
X109123178Y-89897854D01*
X109217421Y-89767938D01*
X109252103Y-89740970D01*
X109318819Y-89787034D01*
G36*
X190480884Y-92448099D02*
G01*
X191646284Y-93617836D01*
X191713645Y-94249123D01*
X191742481Y-94536547D01*
X191761462Y-94760273D01*
X191767748Y-94885146D01*
X191766169Y-94899432D01*
X191714561Y-94865763D01*
X191643374Y-94788028D01*
X191550630Y-94633938D01*
X191456218Y-94415659D01*
X191436894Y-94360526D01*
X191274268Y-94016778D01*
X191039153Y-93786329D01*
X190719694Y-93645431D01*
X190590126Y-93594819D01*
X190445155Y-93508969D01*
X190268443Y-93374085D01*
X190043648Y-93176372D01*
X189754431Y-92902035D01*
X189384452Y-92537278D01*
X189261038Y-92413938D01*
X188127236Y-91278363D01*
X189315484Y-91278363D01*
X190480884Y-92448099D01*
G37*
X190480884Y-92448099D02*
X191646284Y-93617836D01*
X191713645Y-94249123D01*
X191742481Y-94536547D01*
X191761462Y-94760273D01*
X191767748Y-94885146D01*
X191766169Y-94899432D01*
X191714561Y-94865763D01*
X191643374Y-94788028D01*
X191550630Y-94633938D01*
X191456218Y-94415659D01*
X191436894Y-94360526D01*
X191274268Y-94016778D01*
X191039153Y-93786329D01*
X190719694Y-93645431D01*
X190590126Y-93594819D01*
X190445155Y-93508969D01*
X190268443Y-93374085D01*
X190043648Y-93176372D01*
X189754431Y-92902035D01*
X189384452Y-92537278D01*
X189261038Y-92413938D01*
X188127236Y-91278363D01*
X189315484Y-91278363D01*
X190480884Y-92448099D01*
G36*
X108069187Y-93279596D02*
G01*
X108212102Y-93379999D01*
X108400042Y-93546841D01*
X108435258Y-93581159D01*
X108634176Y-93782083D01*
X108742426Y-93913854D01*
X108776632Y-94010039D01*
X108753419Y-94104205D01*
X108723918Y-94164010D01*
X108647264Y-94359201D01*
X108619788Y-94509064D01*
X108595725Y-94698297D01*
X108521989Y-94762834D01*
X108388163Y-94702769D01*
X108183825Y-94518196D01*
X108178747Y-94513031D01*
X107856207Y-94184386D01*
X107905957Y-93761087D01*
X107940440Y-93517673D01*
X107977223Y-93333643D01*
X107999886Y-93266306D01*
X108069187Y-93279596D01*
G37*
X108069187Y-93279596D02*
X108212102Y-93379999D01*
X108400042Y-93546841D01*
X108435258Y-93581159D01*
X108634176Y-93782083D01*
X108742426Y-93913854D01*
X108776632Y-94010039D01*
X108753419Y-94104205D01*
X108723918Y-94164010D01*
X108647264Y-94359201D01*
X108619788Y-94509064D01*
X108595725Y-94698297D01*
X108521989Y-94762834D01*
X108388163Y-94702769D01*
X108183825Y-94518196D01*
X108178747Y-94513031D01*
X107856207Y-94184386D01*
X107905957Y-93761087D01*
X107940440Y-93517673D01*
X107977223Y-93333643D01*
X107999886Y-93266306D01*
X108069187Y-93279596D01*
G36*
X144564542Y-91684715D02*
G01*
X145934887Y-93056564D01*
X145844929Y-93305338D01*
X145781772Y-93537617D01*
X145754978Y-93750549D01*
X145754971Y-93753080D01*
X145736863Y-93898971D01*
X145698701Y-93952047D01*
X145634844Y-93901335D01*
X145478727Y-93757209D01*
X145242726Y-93531680D01*
X144939216Y-93236761D01*
X144580573Y-92884462D01*
X144179174Y-92486796D01*
X143823977Y-92132456D01*
X142005523Y-90312866D01*
X143194196Y-90312866D01*
X144564542Y-91684715D01*
G37*
X144564542Y-91684715D02*
X145934887Y-93056564D01*
X145844929Y-93305338D01*
X145781772Y-93537617D01*
X145754978Y-93750549D01*
X145754971Y-93753080D01*
X145736863Y-93898971D01*
X145698701Y-93952047D01*
X145634844Y-93901335D01*
X145478727Y-93757209D01*
X145242726Y-93531680D01*
X144939216Y-93236761D01*
X144580573Y-92884462D01*
X144179174Y-92486796D01*
X143823977Y-92132456D01*
X142005523Y-90312866D01*
X143194196Y-90312866D01*
X144564542Y-91684715D01*
G36*
X181740198Y-86773596D02*
G01*
X182075940Y-86890534D01*
X182381072Y-87004024D01*
X182613717Y-87098128D01*
X182705695Y-87141066D01*
X182797091Y-87213829D01*
X182983153Y-87382501D01*
X183253993Y-87637485D01*
X183599724Y-87969182D01*
X184010457Y-88367994D01*
X184476304Y-88824323D01*
X184987378Y-89328571D01*
X185533789Y-89871139D01*
X186071591Y-90408307D01*
X189216573Y-93558452D01*
X188819544Y-93600594D01*
X188573632Y-93632433D01*
X188378821Y-93667787D01*
X188311111Y-93686615D01*
X188242923Y-93652638D01*
X188089219Y-93528641D01*
X187847743Y-93312459D01*
X187516238Y-93001929D01*
X187092448Y-92594888D01*
X186574115Y-92089172D01*
X185958982Y-91482618D01*
X185244793Y-90773062D01*
X184597661Y-90126857D01*
X180995614Y-86523221D01*
X181740198Y-86773596D01*
G37*
X181740198Y-86773596D02*
X182075940Y-86890534D01*
X182381072Y-87004024D01*
X182613717Y-87098128D01*
X182705695Y-87141066D01*
X182797091Y-87213829D01*
X182983153Y-87382501D01*
X183253993Y-87637485D01*
X183599724Y-87969182D01*
X184010457Y-88367994D01*
X184476304Y-88824323D01*
X184987378Y-89328571D01*
X185533789Y-89871139D01*
X186071591Y-90408307D01*
X189216573Y-93558452D01*
X188819544Y-93600594D01*
X188573632Y-93632433D01*
X188378821Y-93667787D01*
X188311111Y-93686615D01*
X188242923Y-93652638D01*
X188089219Y-93528641D01*
X187847743Y-93312459D01*
X187516238Y-93001929D01*
X187092448Y-92594888D01*
X186574115Y-92089172D01*
X185958982Y-91482618D01*
X185244793Y-90773062D01*
X184597661Y-90126857D01*
X180995614Y-86523221D01*
X181740198Y-86773596D01*
G36*
X109661294Y-92430594D02*
G01*
X110809606Y-93580702D01*
X109620166Y-93580702D01*
X108934645Y-92892318D01*
X108638782Y-92583436D01*
X108418496Y-92328771D01*
X108286578Y-92144010D01*
X108253273Y-92056792D01*
X108283174Y-91898775D01*
X108353232Y-91678106D01*
X108385202Y-91595068D01*
X108512983Y-91280487D01*
X109661294Y-92430594D01*
G37*
X109661294Y-92430594D02*
X110809606Y-93580702D01*
X109620166Y-93580702D01*
X108934645Y-92892318D01*
X108638782Y-92583436D01*
X108418496Y-92328771D01*
X108286578Y-92144010D01*
X108253273Y-92056792D01*
X108283174Y-91898775D01*
X108353232Y-91678106D01*
X108385202Y-91595068D01*
X108512983Y-91280487D01*
X109661294Y-92430594D01*
G36*
X126691109Y-90447536D02*
G01*
X128822239Y-92579616D01*
X128635965Y-93583144D01*
X126362593Y-91298151D01*
X124089220Y-89013158D01*
X124324600Y-88664306D01*
X124559979Y-88315455D01*
X126691109Y-90447536D01*
G37*
X126691109Y-90447536D02*
X128822239Y-92579616D01*
X128635965Y-93583144D01*
X126362593Y-91298151D01*
X124089220Y-89013158D01*
X124324600Y-88664306D01*
X124559979Y-88315455D01*
X126691109Y-90447536D01*
G36*
X110216440Y-88333826D02*
G01*
X110340163Y-88425876D01*
X110519976Y-88581072D01*
X110764523Y-88807302D01*
X111082449Y-89112456D01*
X111482397Y-89504423D01*
X111973010Y-89991093D01*
X112250574Y-90267967D01*
X114324641Y-92339735D01*
X114178651Y-92681710D01*
X114083910Y-92890480D01*
X114005938Y-93039632D01*
X113979581Y-93077773D01*
X113917371Y-93038878D01*
X113762124Y-92905150D01*
X113525215Y-92687407D01*
X113218020Y-92396464D01*
X112851915Y-92043138D01*
X112438275Y-91638244D01*
X111988475Y-91192600D01*
X111819852Y-91024240D01*
X109713202Y-88916618D01*
X109871036Y-88667812D01*
X109992894Y-88476944D01*
X110090445Y-88326189D01*
X110102688Y-88307602D01*
X110140163Y-88297031D01*
X110216440Y-88333826D01*
G37*
X110216440Y-88333826D02*
X110340163Y-88425876D01*
X110519976Y-88581072D01*
X110764523Y-88807302D01*
X111082449Y-89112456D01*
X111482397Y-89504423D01*
X111973010Y-89991093D01*
X112250574Y-90267967D01*
X114324641Y-92339735D01*
X114178651Y-92681710D01*
X114083910Y-92890480D01*
X114005938Y-93039632D01*
X113979581Y-93077773D01*
X113917371Y-93038878D01*
X113762124Y-92905150D01*
X113525215Y-92687407D01*
X113218020Y-92396464D01*
X112851915Y-92043138D01*
X112438275Y-91638244D01*
X111988475Y-91192600D01*
X111819852Y-91024240D01*
X109713202Y-88916618D01*
X109871036Y-88667812D01*
X109992894Y-88476944D01*
X110090445Y-88326189D01*
X110102688Y-88307602D01*
X110140163Y-88297031D01*
X110216440Y-88333826D01*
G36*
X146720468Y-91464035D02*
G01*
X147869840Y-92615205D01*
X147462259Y-92616219D01*
X147204017Y-92623742D01*
X146988507Y-92641883D01*
X146906141Y-92656139D01*
X146833242Y-92646724D01*
X146720195Y-92581831D01*
X146555027Y-92451135D01*
X146325764Y-92244311D01*
X146020435Y-91951032D01*
X145627065Y-91560973D01*
X145570169Y-91503955D01*
X144382735Y-90312866D01*
X145571096Y-90312866D01*
X146720468Y-91464035D01*
G37*
X146720468Y-91464035D02*
X147869840Y-92615205D01*
X147462259Y-92616219D01*
X147204017Y-92623742D01*
X146988507Y-92641883D01*
X146906141Y-92656139D01*
X146833242Y-92646724D01*
X146720195Y-92581831D01*
X146555027Y-92451135D01*
X146325764Y-92244311D01*
X146020435Y-91951032D01*
X145627065Y-91560973D01*
X145570169Y-91503955D01*
X144382735Y-90312866D01*
X145571096Y-90312866D01*
X146720468Y-91464035D01*
G36*
X167882432Y-91236995D02*
G01*
X168256968Y-91613564D01*
X168590446Y-91952779D01*
X168870306Y-92241544D01*
X169083989Y-92466760D01*
X169218936Y-92615331D01*
X169262587Y-92674160D01*
X169260876Y-92674528D01*
X169154975Y-92664177D01*
X168943441Y-92650598D01*
X168669061Y-92636487D01*
X168626153Y-92634537D01*
X168065464Y-92609493D01*
X166816089Y-91358494D01*
X165566714Y-90107496D01*
X165998334Y-89946006D01*
X166429953Y-89784517D01*
X167882432Y-91236995D01*
G37*
X167882432Y-91236995D02*
X168256968Y-91613564D01*
X168590446Y-91952779D01*
X168870306Y-92241544D01*
X169083989Y-92466760D01*
X169218936Y-92615331D01*
X169262587Y-92674160D01*
X169260876Y-92674528D01*
X169154975Y-92664177D01*
X168943441Y-92650598D01*
X168669061Y-92636487D01*
X168626153Y-92634537D01*
X168065464Y-92609493D01*
X166816089Y-91358494D01*
X165566714Y-90107496D01*
X165998334Y-89946006D01*
X166429953Y-89784517D01*
X167882432Y-91236995D01*
G36*
X149097076Y-91464035D02*
G01*
X150246449Y-92615205D01*
X149058144Y-92615205D01*
X147908772Y-91464035D01*
X146759400Y-90312866D01*
X147947704Y-90312866D01*
X149097076Y-91464035D01*
G37*
X149097076Y-91464035D02*
X150246449Y-92615205D01*
X149058144Y-92615205D01*
X147908772Y-91464035D01*
X146759400Y-90312866D01*
X147947704Y-90312866D01*
X149097076Y-91464035D01*
G36*
X151473684Y-91464035D02*
G01*
X152623057Y-92615205D01*
X151434753Y-92615205D01*
X150285380Y-91464035D01*
X149136008Y-90312866D01*
X150324312Y-90312866D01*
X151473684Y-91464035D01*
G37*
X151473684Y-91464035D02*
X152623057Y-92615205D01*
X151434753Y-92615205D01*
X150285380Y-91464035D01*
X149136008Y-90312866D01*
X150324312Y-90312866D01*
X151473684Y-91464035D01*
G36*
X153850293Y-91464035D02*
G01*
X154999665Y-92615205D01*
X153811361Y-92615205D01*
X152661989Y-91464035D01*
X151512616Y-90312866D01*
X152700920Y-90312866D01*
X153850293Y-91464035D01*
G37*
X153850293Y-91464035D02*
X154999665Y-92615205D01*
X153811361Y-92615205D01*
X152661989Y-91464035D01*
X151512616Y-90312866D01*
X152700920Y-90312866D01*
X153850293Y-91464035D01*
G36*
X156226901Y-91464035D02*
G01*
X157376273Y-92615205D01*
X156187969Y-92615205D01*
X155038597Y-91464035D01*
X153889224Y-90312866D01*
X155077529Y-90312866D01*
X156226901Y-91464035D01*
G37*
X156226901Y-91464035D02*
X157376273Y-92615205D01*
X156187969Y-92615205D01*
X155038597Y-91464035D01*
X153889224Y-90312866D01*
X155077529Y-90312866D01*
X156226901Y-91464035D01*
G36*
X158603509Y-91464035D02*
G01*
X159752881Y-92615205D01*
X158564577Y-92615205D01*
X157415205Y-91464035D01*
X156265833Y-90312866D01*
X157454137Y-90312866D01*
X158603509Y-91464035D01*
G37*
X158603509Y-91464035D02*
X159752881Y-92615205D01*
X158564577Y-92615205D01*
X157415205Y-91464035D01*
X156265833Y-90312866D01*
X157454137Y-90312866D01*
X158603509Y-91464035D01*
G36*
X160980117Y-91464035D02*
G01*
X162129489Y-92615205D01*
X160941185Y-92615205D01*
X159791813Y-91464035D01*
X158642441Y-90312866D01*
X159830745Y-90312866D01*
X160980117Y-91464035D01*
G37*
X160980117Y-91464035D02*
X162129489Y-92615205D01*
X160941185Y-92615205D01*
X159791813Y-91464035D01*
X158642441Y-90312866D01*
X159830745Y-90312866D01*
X160980117Y-91464035D01*
G36*
X163356725Y-91464035D02*
G01*
X164506098Y-92615205D01*
X163317794Y-92615205D01*
X162168421Y-91464035D01*
X161019049Y-90312866D01*
X162207353Y-90312866D01*
X163356725Y-91464035D01*
G37*
X163356725Y-91464035D02*
X164506098Y-92615205D01*
X163317794Y-92615205D01*
X162168421Y-91464035D01*
X161019049Y-90312866D01*
X162207353Y-90312866D01*
X163356725Y-91464035D01*
G36*
X165695913Y-91432712D02*
G01*
X166883932Y-92615205D01*
X165694402Y-92615205D01*
X163416612Y-90333853D01*
X163962254Y-90292036D01*
X164507895Y-90250219D01*
X165695913Y-91432712D01*
G37*
X165695913Y-91432712D02*
X166883932Y-92615205D01*
X165694402Y-92615205D01*
X163416612Y-90333853D01*
X163962254Y-90292036D01*
X164507895Y-90250219D01*
X165695913Y-91432712D01*
G36*
X121750781Y-84172223D02*
G01*
X121954301Y-84238663D01*
X122236215Y-84337006D01*
X122553379Y-84452226D01*
X123377810Y-84757079D01*
X127083510Y-88463335D01*
X130789209Y-92169591D01*
X129600592Y-92169591D01*
X127254427Y-89811550D01*
X124908261Y-87453509D01*
X124896639Y-87059556D01*
X124822320Y-86600367D01*
X124634651Y-86233887D01*
X124342063Y-85968458D01*
X123952986Y-85812419D01*
X123595071Y-85772085D01*
X123196712Y-85767327D01*
X122389828Y-84957933D01*
X122118083Y-84680862D01*
X121894841Y-84444560D01*
X121736137Y-84266724D01*
X121658007Y-84165053D01*
X121655945Y-84147956D01*
X121750781Y-84172223D01*
G37*
X121750781Y-84172223D02*
X121954301Y-84238663D01*
X122236215Y-84337006D01*
X122553379Y-84452226D01*
X123377810Y-84757079D01*
X127083510Y-88463335D01*
X130789209Y-92169591D01*
X129600592Y-92169591D01*
X127254427Y-89811550D01*
X124908261Y-87453509D01*
X124896639Y-87059556D01*
X124822320Y-86600367D01*
X124634651Y-86233887D01*
X124342063Y-85968458D01*
X123952986Y-85812419D01*
X123595071Y-85772085D01*
X123196712Y-85767327D01*
X122389828Y-84957933D01*
X122118083Y-84680862D01*
X121894841Y-84444560D01*
X121736137Y-84266724D01*
X121658007Y-84165053D01*
X121655945Y-84147956D01*
X121750781Y-84172223D01*
G36*
X128460533Y-88498650D02*
G01*
X128611262Y-88598516D01*
X128759828Y-88683081D01*
X129009052Y-88792433D01*
X129317205Y-88909056D01*
X129493939Y-88969057D01*
X130195614Y-89197223D01*
X133164982Y-92169591D01*
X131976956Y-92169591D01*
X130121345Y-90312866D01*
X129694987Y-89884021D01*
X129307695Y-89490151D01*
X128970685Y-89143000D01*
X128695173Y-88854311D01*
X128492373Y-88635825D01*
X128373502Y-88499287D01*
X128347998Y-88456140D01*
X128460533Y-88498650D01*
G37*
X128460533Y-88498650D02*
X128611262Y-88598516D01*
X128759828Y-88683081D01*
X129009052Y-88792433D01*
X129317205Y-88909056D01*
X129493939Y-88969057D01*
X130195614Y-89197223D01*
X133164982Y-92169591D01*
X131976956Y-92169591D01*
X130121345Y-90312866D01*
X129694987Y-89884021D01*
X129307695Y-89490151D01*
X128970685Y-89143000D01*
X128695173Y-88854311D01*
X128492373Y-88635825D01*
X128373502Y-88499287D01*
X128347998Y-88456140D01*
X128460533Y-88498650D01*
G36*
X135541554Y-92169591D02*
G01*
X134353250Y-92169591D01*
X131459616Y-89273099D01*
X132647920Y-89273099D01*
X135541554Y-92169591D01*
G37*
X135541554Y-92169591D02*
X134353250Y-92169591D01*
X131459616Y-89273099D01*
X132647920Y-89273099D01*
X135541554Y-92169591D01*
G36*
X113338053Y-88977525D02*
G01*
X113782010Y-89423616D01*
X114190915Y-89839056D01*
X114553186Y-90211727D01*
X114857237Y-90529513D01*
X115091487Y-90780295D01*
X115244350Y-90951958D01*
X115304244Y-91032383D01*
X115304679Y-91034751D01*
X115248101Y-91137539D01*
X115119006Y-91248058D01*
X114985696Y-91365509D01*
X114933334Y-91468194D01*
X114894045Y-91584713D01*
X114872937Y-91604000D01*
X114808832Y-91561597D01*
X114651978Y-91424720D01*
X114414067Y-91204517D01*
X114106790Y-90912136D01*
X113741839Y-90558724D01*
X113330903Y-90155430D01*
X112885675Y-89713400D01*
X112791889Y-89619673D01*
X110771237Y-87598018D01*
X111071332Y-87304984D01*
X111371426Y-87011949D01*
X113338053Y-88977525D01*
G37*
X113338053Y-88977525D02*
X113782010Y-89423616D01*
X114190915Y-89839056D01*
X114553186Y-90211727D01*
X114857237Y-90529513D01*
X115091487Y-90780295D01*
X115244350Y-90951958D01*
X115304244Y-91032383D01*
X115304679Y-91034751D01*
X115248101Y-91137539D01*
X115119006Y-91248058D01*
X114985696Y-91365509D01*
X114933334Y-91468194D01*
X114894045Y-91584713D01*
X114872937Y-91604000D01*
X114808832Y-91561597D01*
X114651978Y-91424720D01*
X114414067Y-91204517D01*
X114106790Y-90912136D01*
X113741839Y-90558724D01*
X113330903Y-90155430D01*
X112885675Y-89713400D01*
X112791889Y-89619673D01*
X110771237Y-87598018D01*
X111071332Y-87304984D01*
X111371426Y-87011949D01*
X113338053Y-88977525D01*
G36*
X121988889Y-90498538D02*
G01*
X121951755Y-90535673D01*
X121914620Y-90498538D01*
X121951755Y-90461404D01*
X121988889Y-90498538D01*
G37*
X121988889Y-90498538D02*
X121951755Y-90535673D01*
X121914620Y-90498538D01*
X121951755Y-90461404D01*
X121988889Y-90498538D01*
G36*
X114734532Y-87997391D02*
G01*
X115188066Y-88452292D01*
X115606930Y-88874634D01*
X115979846Y-89252880D01*
X116295539Y-89575494D01*
X116542732Y-89830937D01*
X116710148Y-90007672D01*
X116786510Y-90094162D01*
X116790059Y-90100452D01*
X116729510Y-90157331D01*
X116660088Y-90184726D01*
X116507088Y-90238706D01*
X116299852Y-90322378D01*
X116265051Y-90337306D01*
X115999986Y-90452163D01*
X113966059Y-88417228D01*
X113516407Y-87965711D01*
X113102936Y-87547355D01*
X112736750Y-87173635D01*
X112428954Y-86856027D01*
X112190652Y-86606007D01*
X112032948Y-86435051D01*
X111966946Y-86354636D01*
X111965920Y-86350139D01*
X112045113Y-86298593D01*
X112211202Y-86201534D01*
X112339357Y-86129433D01*
X112679006Y-85940881D01*
X114734532Y-87997391D01*
G37*
X114734532Y-87997391D02*
X115188066Y-88452292D01*
X115606930Y-88874634D01*
X115979846Y-89252880D01*
X116295539Y-89575494D01*
X116542732Y-89830937D01*
X116710148Y-90007672D01*
X116786510Y-90094162D01*
X116790059Y-90100452D01*
X116729510Y-90157331D01*
X116660088Y-90184726D01*
X116507088Y-90238706D01*
X116299852Y-90322378D01*
X116265051Y-90337306D01*
X115999986Y-90452163D01*
X113966059Y-88417228D01*
X113516407Y-87965711D01*
X113102936Y-87547355D01*
X112736750Y-87173635D01*
X112428954Y-86856027D01*
X112190652Y-86606007D01*
X112032948Y-86435051D01*
X111966946Y-86354636D01*
X111965920Y-86350139D01*
X112045113Y-86298593D01*
X112211202Y-86201534D01*
X112339357Y-86129433D01*
X112679006Y-85940881D01*
X114734532Y-87997391D01*
G36*
X118783076Y-87292953D02*
G01*
X119333391Y-87844472D01*
X119848853Y-88363400D01*
X120320456Y-88840515D01*
X120739196Y-89266590D01*
X121096066Y-89632403D01*
X121382060Y-89928727D01*
X121588173Y-90146338D01*
X121705399Y-90276013D01*
X121728834Y-90310256D01*
X121630696Y-90281492D01*
X121432662Y-90206985D01*
X121170888Y-90100600D01*
X121060527Y-90053976D01*
X120766438Y-89936952D01*
X120503753Y-89847520D01*
X120317080Y-89800394D01*
X120280304Y-89796643D01*
X120211816Y-89772024D01*
X120098473Y-89695437D01*
X119932836Y-89559926D01*
X119707465Y-89358536D01*
X119414919Y-89084309D01*
X119047761Y-88730290D01*
X118598551Y-88289522D01*
X118059848Y-87755048D01*
X117516302Y-87212135D01*
X114938371Y-84631287D01*
X115350768Y-84452164D01*
X115763164Y-84273041D01*
X118783076Y-87292953D01*
G37*
X118783076Y-87292953D02*
X119333391Y-87844472D01*
X119848853Y-88363400D01*
X120320456Y-88840515D01*
X120739196Y-89266590D01*
X121096066Y-89632403D01*
X121382060Y-89928727D01*
X121588173Y-90146338D01*
X121705399Y-90276013D01*
X121728834Y-90310256D01*
X121630696Y-90281492D01*
X121432662Y-90206985D01*
X121170888Y-90100600D01*
X121060527Y-90053976D01*
X120766438Y-89936952D01*
X120503753Y-89847520D01*
X120317080Y-89800394D01*
X120280304Y-89796643D01*
X120211816Y-89772024D01*
X120098473Y-89695437D01*
X119932836Y-89559926D01*
X119707465Y-89358536D01*
X119414919Y-89084309D01*
X119047761Y-88730290D01*
X118598551Y-88289522D01*
X118059848Y-87755048D01*
X117516302Y-87212135D01*
X114938371Y-84631287D01*
X115350768Y-84452164D01*
X115763164Y-84273041D01*
X118783076Y-87292953D01*
G36*
X114100166Y-85133655D02*
G01*
X114246175Y-85221039D01*
X114431564Y-85365285D01*
X114667023Y-85574051D01*
X114963241Y-85854997D01*
X115330908Y-86215782D01*
X115780715Y-86664066D01*
X116323351Y-87207507D01*
X116445772Y-87330104D01*
X116923175Y-87810331D01*
X117364033Y-88258132D01*
X117758032Y-88662711D01*
X118094858Y-89013272D01*
X118364197Y-89299019D01*
X118555736Y-89509158D01*
X118659159Y-89632893D01*
X118673842Y-89662201D01*
X118570218Y-89689454D01*
X118367139Y-89722290D01*
X118164035Y-89747313D01*
X117718421Y-89795408D01*
X115543676Y-87618984D01*
X113368930Y-85442560D01*
X113586664Y-85281583D01*
X113696125Y-85199548D01*
X113791516Y-85136079D01*
X113883526Y-85098834D01*
X113982846Y-85095473D01*
X114100166Y-85133655D01*
G37*
X114100166Y-85133655D02*
X114246175Y-85221039D01*
X114431564Y-85365285D01*
X114667023Y-85574051D01*
X114963241Y-85854997D01*
X115330908Y-86215782D01*
X115780715Y-86664066D01*
X116323351Y-87207507D01*
X116445772Y-87330104D01*
X116923175Y-87810331D01*
X117364033Y-88258132D01*
X117758032Y-88662711D01*
X118094858Y-89013272D01*
X118364197Y-89299019D01*
X118555736Y-89509158D01*
X118659159Y-89632893D01*
X118673842Y-89662201D01*
X118570218Y-89689454D01*
X118367139Y-89722290D01*
X118164035Y-89747313D01*
X117718421Y-89795408D01*
X115543676Y-87618984D01*
X113368930Y-85442560D01*
X113586664Y-85281583D01*
X113696125Y-85199548D01*
X113791516Y-85136079D01*
X113883526Y-85098834D01*
X113982846Y-85095473D01*
X114100166Y-85133655D01*
G36*
X119881753Y-83846380D02*
G01*
X120048651Y-83918316D01*
X120234403Y-84044236D01*
X120458485Y-84235968D01*
X120740372Y-84505340D01*
X121099540Y-84864179D01*
X121261898Y-85028033D01*
X122413378Y-86190936D01*
X122178084Y-86539907D01*
X121942789Y-86888878D01*
X118928445Y-83871842D01*
X119299424Y-83836195D01*
X119526615Y-83817147D01*
X119714233Y-83816600D01*
X119881753Y-83846380D01*
G37*
X119881753Y-83846380D02*
X120048651Y-83918316D01*
X120234403Y-84044236D01*
X120458485Y-84235968D01*
X120740372Y-84505340D01*
X121099540Y-84864179D01*
X121261898Y-85028033D01*
X122413378Y-86190936D01*
X122178084Y-86539907D01*
X121942789Y-86888878D01*
X118928445Y-83871842D01*
X119299424Y-83836195D01*
X119526615Y-83817147D01*
X119714233Y-83816600D01*
X119881753Y-83846380D01*
G36*
X172707947Y-84220784D02*
G01*
X172619415Y-84351940D01*
X172552041Y-84427822D01*
X172405610Y-84600732D01*
X172299818Y-84751727D01*
X172292993Y-84764060D01*
X172234132Y-84849294D01*
X172167983Y-84829776D01*
X172081766Y-84740958D01*
X171995777Y-84604323D01*
X172016918Y-84533916D01*
X172333159Y-84332605D01*
X172558174Y-84212434D01*
X172685318Y-84174722D01*
X172707947Y-84220784D01*
G37*
X172707947Y-84220784D02*
X172619415Y-84351940D01*
X172552041Y-84427822D01*
X172405610Y-84600732D01*
X172299818Y-84751727D01*
X172292993Y-84764060D01*
X172234132Y-84849294D01*
X172167983Y-84829776D01*
X172081766Y-84740958D01*
X171995777Y-84604323D01*
X172016918Y-84533916D01*
X172333159Y-84332605D01*
X172558174Y-84212434D01*
X172685318Y-84174722D01*
X172707947Y-84220784D01*
%TD*%
M02*
