G04 #@! TF.GenerationSoftware,KiCad,Pcbnew,(5.1.6)-1*
G04 #@! TF.CreationDate,2022-02-17T20:05:14-05:00*
G04 #@! TF.ProjectId,upperArm,75707065-7241-4726-9d2e-6b696361645f,rev?*
G04 #@! TF.SameCoordinates,Original*
G04 #@! TF.FileFunction,Soldermask,Bot*
G04 #@! TF.FilePolarity,Negative*
%FSLAX46Y46*%
G04 Gerber Fmt 4.6, Leading zero omitted, Abs format (unit mm)*
G04 Created by KiCad (PCBNEW (5.1.6)-1) date 2022-02-17 20:05:14*
%MOMM*%
%LPD*%
G01*
G04 APERTURE LIST*
%ADD10R,2.894000X1.090600*%
%ADD11R,1.801800X0.709600*%
G04 APERTURE END LIST*
D10*
X138703601Y-91900001D03*
X138703601Y-98099999D03*
D11*
X143853601Y-92999999D03*
X143853601Y-93999999D03*
X143853601Y-95000000D03*
X143853601Y-96000001D03*
X143853601Y-97000001D03*
G36*
G01*
X180450000Y-97080000D02*
X180450000Y-96730000D01*
G75*
G02*
X180625000Y-96555000I175000J0D01*
G01*
X182325000Y-96555000D01*
G75*
G02*
X182500000Y-96730000I0J-175000D01*
G01*
X182500000Y-97080000D01*
G75*
G02*
X182325000Y-97255000I-175000J0D01*
G01*
X180625000Y-97255000D01*
G75*
G02*
X180450000Y-97080000I0J175000D01*
G01*
G37*
G36*
G01*
X180450000Y-95810000D02*
X180450000Y-95460000D01*
G75*
G02*
X180625000Y-95285000I175000J0D01*
G01*
X182325000Y-95285000D01*
G75*
G02*
X182500000Y-95460000I0J-175000D01*
G01*
X182500000Y-95810000D01*
G75*
G02*
X182325000Y-95985000I-175000J0D01*
G01*
X180625000Y-95985000D01*
G75*
G02*
X180450000Y-95810000I0J175000D01*
G01*
G37*
G36*
G01*
X180450000Y-94540000D02*
X180450000Y-94190000D01*
G75*
G02*
X180625000Y-94015000I175000J0D01*
G01*
X182325000Y-94015000D01*
G75*
G02*
X182500000Y-94190000I0J-175000D01*
G01*
X182500000Y-94540000D01*
G75*
G02*
X182325000Y-94715000I-175000J0D01*
G01*
X180625000Y-94715000D01*
G75*
G02*
X180450000Y-94540000I0J175000D01*
G01*
G37*
G36*
G01*
X180450000Y-93270000D02*
X180450000Y-92920000D01*
G75*
G02*
X180625000Y-92745000I175000J0D01*
G01*
X182325000Y-92745000D01*
G75*
G02*
X182500000Y-92920000I0J-175000D01*
G01*
X182500000Y-93270000D01*
G75*
G02*
X182325000Y-93445000I-175000J0D01*
G01*
X180625000Y-93445000D01*
G75*
G02*
X180450000Y-93270000I0J175000D01*
G01*
G37*
G36*
G01*
X175500000Y-93270000D02*
X175500000Y-92920000D01*
G75*
G02*
X175675000Y-92745000I175000J0D01*
G01*
X177375000Y-92745000D01*
G75*
G02*
X177550000Y-92920000I0J-175000D01*
G01*
X177550000Y-93270000D01*
G75*
G02*
X177375000Y-93445000I-175000J0D01*
G01*
X175675000Y-93445000D01*
G75*
G02*
X175500000Y-93270000I0J175000D01*
G01*
G37*
G36*
G01*
X175500000Y-94540000D02*
X175500000Y-94190000D01*
G75*
G02*
X175675000Y-94015000I175000J0D01*
G01*
X177375000Y-94015000D01*
G75*
G02*
X177550000Y-94190000I0J-175000D01*
G01*
X177550000Y-94540000D01*
G75*
G02*
X177375000Y-94715000I-175000J0D01*
G01*
X175675000Y-94715000D01*
G75*
G02*
X175500000Y-94540000I0J175000D01*
G01*
G37*
G36*
G01*
X175500000Y-95810000D02*
X175500000Y-95460000D01*
G75*
G02*
X175675000Y-95285000I175000J0D01*
G01*
X177375000Y-95285000D01*
G75*
G02*
X177550000Y-95460000I0J-175000D01*
G01*
X177550000Y-95810000D01*
G75*
G02*
X177375000Y-95985000I-175000J0D01*
G01*
X175675000Y-95985000D01*
G75*
G02*
X175500000Y-95810000I0J175000D01*
G01*
G37*
G36*
G01*
X175500000Y-97080000D02*
X175500000Y-96730000D01*
G75*
G02*
X175675000Y-96555000I175000J0D01*
G01*
X177375000Y-96555000D01*
G75*
G02*
X177550000Y-96730000I0J-175000D01*
G01*
X177550000Y-97080000D01*
G75*
G02*
X177375000Y-97255000I-175000J0D01*
G01*
X175675000Y-97255000D01*
G75*
G02*
X175500000Y-97080000I0J175000D01*
G01*
G37*
G36*
G01*
X179300000Y-98981250D02*
X179300000Y-98418750D01*
G75*
G02*
X179543750Y-98175000I243750J0D01*
G01*
X180031250Y-98175000D01*
G75*
G02*
X180275000Y-98418750I0J-243750D01*
G01*
X180275000Y-98981250D01*
G75*
G02*
X180031250Y-99225000I-243750J0D01*
G01*
X179543750Y-99225000D01*
G75*
G02*
X179300000Y-98981250I0J243750D01*
G01*
G37*
G36*
G01*
X177725000Y-98981250D02*
X177725000Y-98418750D01*
G75*
G02*
X177968750Y-98175000I243750J0D01*
G01*
X178456250Y-98175000D01*
G75*
G02*
X178700000Y-98418750I0J-243750D01*
G01*
X178700000Y-98981250D01*
G75*
G02*
X178456250Y-99225000I-243750J0D01*
G01*
X177968750Y-99225000D01*
G75*
G02*
X177725000Y-98981250I0J243750D01*
G01*
G37*
M02*
