%TF.GenerationSoftware,KiCad,Pcbnew,(5.1.6)-1*%
%TF.CreationDate,2021-12-25T16:32:49-05:00*%
%TF.ProjectId,area,61726561-2e6b-4696-9361-645f70636258,rev?*%
%TF.SameCoordinates,Original*%
%TF.FileFunction,Copper,L2,Bot*%
%TF.FilePolarity,Positive*%
%FSLAX46Y46*%
G04 Gerber Fmt 4.6, Leading zero omitted, Abs format (unit mm)*
G04 Created by KiCad (PCBNEW (5.1.6)-1) date 2021-12-25 16:32:49*
%MOMM*%
%LPD*%
G01*
G04 APERTURE LIST*
%TA.AperFunction,ComponentPad*%
%ADD10C,6.200000*%
%TD*%
%TA.AperFunction,NonConductor*%
%ADD11C,0.254000*%
%TD*%
G04 APERTURE END LIST*
D10*
%TO.P,H4,1*%
%TO.N,Net-(H4-Pad1)*%
X109000000Y-115000000D03*
%TD*%
%TO.P,H3,1*%
%TO.N,Net-(H3-Pad1)*%
X109000000Y-75000000D03*
%TD*%
%TO.P,H2,1*%
%TO.N,Net-(H2-Pad1)*%
X69000000Y-115000000D03*
%TD*%
%TO.P,H1,1*%
%TO.N,Net-(H1-Pad1)*%
X69000000Y-75000000D03*
%TD*%
D11*
G36*
X229763637Y-50755875D02*
G01*
X230503140Y-50958180D01*
X231195128Y-51288242D01*
X231817733Y-51735629D01*
X232351268Y-52286195D01*
X232778876Y-52922544D01*
X233087041Y-53624561D01*
X233267283Y-54375320D01*
X233315001Y-55025125D01*
X233315000Y-134969495D01*
X233244125Y-135763637D01*
X233041820Y-136503140D01*
X232711758Y-137195128D01*
X232264371Y-137817733D01*
X231713808Y-138351266D01*
X231077456Y-138778876D01*
X230375437Y-139087042D01*
X229624681Y-139267282D01*
X228974888Y-139315000D01*
X119030493Y-139315000D01*
X118236363Y-139244126D01*
X117496859Y-139041821D01*
X116804871Y-138711759D01*
X116182266Y-138264372D01*
X115648733Y-137713809D01*
X115221123Y-137077457D01*
X114912958Y-136375439D01*
X114732717Y-135624681D01*
X114685000Y-134974902D01*
X114685000Y-124966353D01*
X114682536Y-124941340D01*
X114629522Y-124219417D01*
X114626909Y-124203460D01*
X114626401Y-124187292D01*
X114612435Y-124109675D01*
X114404915Y-123245293D01*
X114398042Y-123224869D01*
X114393560Y-123203785D01*
X114366071Y-123129868D01*
X114008762Y-122315897D01*
X113998378Y-122297008D01*
X113990236Y-122277058D01*
X113950092Y-122209177D01*
X113454289Y-121471343D01*
X113440723Y-121454590D01*
X113429177Y-121436397D01*
X113377662Y-121376717D01*
X113377647Y-121376698D01*
X113377641Y-121376693D01*
X112759019Y-120738325D01*
X112742704Y-120724242D01*
X112728116Y-120708378D01*
X112666829Y-120658748D01*
X111944933Y-120140013D01*
X111926380Y-120129041D01*
X111909215Y-120116012D01*
X111840107Y-120078019D01*
X111037760Y-119695319D01*
X111017559Y-119687806D01*
X110998356Y-119678022D01*
X110923613Y-119652868D01*
X110066177Y-119418300D01*
X110044960Y-119414483D01*
X110024333Y-119408255D01*
X109946322Y-119396735D01*
X109946317Y-119396734D01*
X109946316Y-119396734D01*
X109063969Y-119317987D01*
X109033647Y-119315000D01*
X69030505Y-119315000D01*
X68236363Y-119244125D01*
X67496860Y-119041820D01*
X66804872Y-118711758D01*
X66182267Y-118264371D01*
X65648734Y-117713808D01*
X65221124Y-117077456D01*
X64912958Y-116375437D01*
X64732718Y-115624681D01*
X64685000Y-114974888D01*
X64685000Y-114632135D01*
X65265000Y-114632135D01*
X65265000Y-115367865D01*
X65408534Y-116089459D01*
X65690086Y-116769186D01*
X66098836Y-117380924D01*
X66619076Y-117901164D01*
X67230814Y-118309914D01*
X67910541Y-118591466D01*
X68632135Y-118735000D01*
X69367865Y-118735000D01*
X70089459Y-118591466D01*
X70769186Y-118309914D01*
X71380924Y-117901164D01*
X71901164Y-117380924D01*
X72309914Y-116769186D01*
X72591466Y-116089459D01*
X72735000Y-115367865D01*
X72735000Y-114632135D01*
X105265000Y-114632135D01*
X105265000Y-115367865D01*
X105408534Y-116089459D01*
X105690086Y-116769186D01*
X106098836Y-117380924D01*
X106619076Y-117901164D01*
X107230814Y-118309914D01*
X107910541Y-118591466D01*
X108632135Y-118735000D01*
X109367865Y-118735000D01*
X110089459Y-118591466D01*
X110769186Y-118309914D01*
X111380924Y-117901164D01*
X111901164Y-117380924D01*
X112309914Y-116769186D01*
X112591466Y-116089459D01*
X112735000Y-115367865D01*
X112735000Y-114632135D01*
X112591466Y-113910541D01*
X112309914Y-113230814D01*
X111901164Y-112619076D01*
X111380924Y-112098836D01*
X110769186Y-111690086D01*
X110089459Y-111408534D01*
X109367865Y-111265000D01*
X108632135Y-111265000D01*
X107910541Y-111408534D01*
X107230814Y-111690086D01*
X106619076Y-112098836D01*
X106098836Y-112619076D01*
X105690086Y-113230814D01*
X105408534Y-113910541D01*
X105265000Y-114632135D01*
X72735000Y-114632135D01*
X72591466Y-113910541D01*
X72309914Y-113230814D01*
X71901164Y-112619076D01*
X71380924Y-112098836D01*
X70769186Y-111690086D01*
X70089459Y-111408534D01*
X69367865Y-111265000D01*
X68632135Y-111265000D01*
X67910541Y-111408534D01*
X67230814Y-111690086D01*
X66619076Y-112098836D01*
X66098836Y-112619076D01*
X65690086Y-113230814D01*
X65408534Y-113910541D01*
X65265000Y-114632135D01*
X64685000Y-114632135D01*
X64685000Y-75030506D01*
X64720553Y-74632135D01*
X65265000Y-74632135D01*
X65265000Y-75367865D01*
X65408534Y-76089459D01*
X65690086Y-76769186D01*
X66098836Y-77380924D01*
X66619076Y-77901164D01*
X67230814Y-78309914D01*
X67910541Y-78591466D01*
X68632135Y-78735000D01*
X69367865Y-78735000D01*
X70089459Y-78591466D01*
X70769186Y-78309914D01*
X71380924Y-77901164D01*
X71901164Y-77380924D01*
X72309914Y-76769186D01*
X72591466Y-76089459D01*
X72735000Y-75367865D01*
X72735000Y-74632135D01*
X105265000Y-74632135D01*
X105265000Y-75367865D01*
X105408534Y-76089459D01*
X105690086Y-76769186D01*
X106098836Y-77380924D01*
X106619076Y-77901164D01*
X107230814Y-78309914D01*
X107910541Y-78591466D01*
X108632135Y-78735000D01*
X109367865Y-78735000D01*
X110089459Y-78591466D01*
X110769186Y-78309914D01*
X111380924Y-77901164D01*
X111901164Y-77380924D01*
X112309914Y-76769186D01*
X112591466Y-76089459D01*
X112735000Y-75367865D01*
X112735000Y-74632135D01*
X112591466Y-73910541D01*
X112309914Y-73230814D01*
X111901164Y-72619076D01*
X111380924Y-72098836D01*
X110769186Y-71690086D01*
X110089459Y-71408534D01*
X109367865Y-71265000D01*
X108632135Y-71265000D01*
X107910541Y-71408534D01*
X107230814Y-71690086D01*
X106619076Y-72098836D01*
X106098836Y-72619076D01*
X105690086Y-73230814D01*
X105408534Y-73910541D01*
X105265000Y-74632135D01*
X72735000Y-74632135D01*
X72591466Y-73910541D01*
X72309914Y-73230814D01*
X71901164Y-72619076D01*
X71380924Y-72098836D01*
X70769186Y-71690086D01*
X70089459Y-71408534D01*
X69367865Y-71265000D01*
X68632135Y-71265000D01*
X67910541Y-71408534D01*
X67230814Y-71690086D01*
X66619076Y-72098836D01*
X66098836Y-72619076D01*
X65690086Y-73230814D01*
X65408534Y-73910541D01*
X65265000Y-74632135D01*
X64720553Y-74632135D01*
X64755875Y-74236363D01*
X64958180Y-73496860D01*
X65288242Y-72804872D01*
X65735629Y-72182267D01*
X66286195Y-71648732D01*
X66922544Y-71221124D01*
X67624561Y-70912959D01*
X68375320Y-70732717D01*
X69025112Y-70685000D01*
X109033647Y-70685000D01*
X109058620Y-70682540D01*
X109780583Y-70629523D01*
X109796546Y-70626909D01*
X109812709Y-70626401D01*
X109890325Y-70612436D01*
X110754708Y-70404916D01*
X110775134Y-70398042D01*
X110796215Y-70393561D01*
X110870121Y-70366076D01*
X110870132Y-70366072D01*
X110870136Y-70366070D01*
X111684103Y-70008763D01*
X111702989Y-69998380D01*
X111722943Y-69990237D01*
X111790824Y-69950093D01*
X112528658Y-69454290D01*
X112545408Y-69440726D01*
X112563605Y-69429178D01*
X112623284Y-69377663D01*
X112623303Y-69377648D01*
X112623308Y-69377642D01*
X113261677Y-68759020D01*
X113275762Y-68742702D01*
X113291623Y-68728117D01*
X113341253Y-68666830D01*
X113859988Y-67944934D01*
X113870960Y-67926381D01*
X113883989Y-67909216D01*
X113921982Y-67840108D01*
X114304682Y-67037761D01*
X114312195Y-67017560D01*
X114321979Y-66998357D01*
X114347133Y-66923614D01*
X114581701Y-66066177D01*
X114585518Y-66044960D01*
X114591746Y-66024333D01*
X114603267Y-65946317D01*
X114682024Y-65063861D01*
X114685000Y-65033647D01*
X114685000Y-55030506D01*
X114755875Y-54236363D01*
X114958180Y-53496860D01*
X115288242Y-52804872D01*
X115735629Y-52182267D01*
X116286195Y-51648732D01*
X116922544Y-51221124D01*
X117624561Y-50912959D01*
X118375320Y-50732717D01*
X119025112Y-50685000D01*
X228969494Y-50685000D01*
X229763637Y-50755875D01*
G37*
X229763637Y-50755875D02*
X230503140Y-50958180D01*
X231195128Y-51288242D01*
X231817733Y-51735629D01*
X232351268Y-52286195D01*
X232778876Y-52922544D01*
X233087041Y-53624561D01*
X233267283Y-54375320D01*
X233315001Y-55025125D01*
X233315000Y-134969495D01*
X233244125Y-135763637D01*
X233041820Y-136503140D01*
X232711758Y-137195128D01*
X232264371Y-137817733D01*
X231713808Y-138351266D01*
X231077456Y-138778876D01*
X230375437Y-139087042D01*
X229624681Y-139267282D01*
X228974888Y-139315000D01*
X119030493Y-139315000D01*
X118236363Y-139244126D01*
X117496859Y-139041821D01*
X116804871Y-138711759D01*
X116182266Y-138264372D01*
X115648733Y-137713809D01*
X115221123Y-137077457D01*
X114912958Y-136375439D01*
X114732717Y-135624681D01*
X114685000Y-134974902D01*
X114685000Y-124966353D01*
X114682536Y-124941340D01*
X114629522Y-124219417D01*
X114626909Y-124203460D01*
X114626401Y-124187292D01*
X114612435Y-124109675D01*
X114404915Y-123245293D01*
X114398042Y-123224869D01*
X114393560Y-123203785D01*
X114366071Y-123129868D01*
X114008762Y-122315897D01*
X113998378Y-122297008D01*
X113990236Y-122277058D01*
X113950092Y-122209177D01*
X113454289Y-121471343D01*
X113440723Y-121454590D01*
X113429177Y-121436397D01*
X113377662Y-121376717D01*
X113377647Y-121376698D01*
X113377641Y-121376693D01*
X112759019Y-120738325D01*
X112742704Y-120724242D01*
X112728116Y-120708378D01*
X112666829Y-120658748D01*
X111944933Y-120140013D01*
X111926380Y-120129041D01*
X111909215Y-120116012D01*
X111840107Y-120078019D01*
X111037760Y-119695319D01*
X111017559Y-119687806D01*
X110998356Y-119678022D01*
X110923613Y-119652868D01*
X110066177Y-119418300D01*
X110044960Y-119414483D01*
X110024333Y-119408255D01*
X109946322Y-119396735D01*
X109946317Y-119396734D01*
X109946316Y-119396734D01*
X109063969Y-119317987D01*
X109033647Y-119315000D01*
X69030505Y-119315000D01*
X68236363Y-119244125D01*
X67496860Y-119041820D01*
X66804872Y-118711758D01*
X66182267Y-118264371D01*
X65648734Y-117713808D01*
X65221124Y-117077456D01*
X64912958Y-116375437D01*
X64732718Y-115624681D01*
X64685000Y-114974888D01*
X64685000Y-114632135D01*
X65265000Y-114632135D01*
X65265000Y-115367865D01*
X65408534Y-116089459D01*
X65690086Y-116769186D01*
X66098836Y-117380924D01*
X66619076Y-117901164D01*
X67230814Y-118309914D01*
X67910541Y-118591466D01*
X68632135Y-118735000D01*
X69367865Y-118735000D01*
X70089459Y-118591466D01*
X70769186Y-118309914D01*
X71380924Y-117901164D01*
X71901164Y-117380924D01*
X72309914Y-116769186D01*
X72591466Y-116089459D01*
X72735000Y-115367865D01*
X72735000Y-114632135D01*
X105265000Y-114632135D01*
X105265000Y-115367865D01*
X105408534Y-116089459D01*
X105690086Y-116769186D01*
X106098836Y-117380924D01*
X106619076Y-117901164D01*
X107230814Y-118309914D01*
X107910541Y-118591466D01*
X108632135Y-118735000D01*
X109367865Y-118735000D01*
X110089459Y-118591466D01*
X110769186Y-118309914D01*
X111380924Y-117901164D01*
X111901164Y-117380924D01*
X112309914Y-116769186D01*
X112591466Y-116089459D01*
X112735000Y-115367865D01*
X112735000Y-114632135D01*
X112591466Y-113910541D01*
X112309914Y-113230814D01*
X111901164Y-112619076D01*
X111380924Y-112098836D01*
X110769186Y-111690086D01*
X110089459Y-111408534D01*
X109367865Y-111265000D01*
X108632135Y-111265000D01*
X107910541Y-111408534D01*
X107230814Y-111690086D01*
X106619076Y-112098836D01*
X106098836Y-112619076D01*
X105690086Y-113230814D01*
X105408534Y-113910541D01*
X105265000Y-114632135D01*
X72735000Y-114632135D01*
X72591466Y-113910541D01*
X72309914Y-113230814D01*
X71901164Y-112619076D01*
X71380924Y-112098836D01*
X70769186Y-111690086D01*
X70089459Y-111408534D01*
X69367865Y-111265000D01*
X68632135Y-111265000D01*
X67910541Y-111408534D01*
X67230814Y-111690086D01*
X66619076Y-112098836D01*
X66098836Y-112619076D01*
X65690086Y-113230814D01*
X65408534Y-113910541D01*
X65265000Y-114632135D01*
X64685000Y-114632135D01*
X64685000Y-75030506D01*
X64720553Y-74632135D01*
X65265000Y-74632135D01*
X65265000Y-75367865D01*
X65408534Y-76089459D01*
X65690086Y-76769186D01*
X66098836Y-77380924D01*
X66619076Y-77901164D01*
X67230814Y-78309914D01*
X67910541Y-78591466D01*
X68632135Y-78735000D01*
X69367865Y-78735000D01*
X70089459Y-78591466D01*
X70769186Y-78309914D01*
X71380924Y-77901164D01*
X71901164Y-77380924D01*
X72309914Y-76769186D01*
X72591466Y-76089459D01*
X72735000Y-75367865D01*
X72735000Y-74632135D01*
X105265000Y-74632135D01*
X105265000Y-75367865D01*
X105408534Y-76089459D01*
X105690086Y-76769186D01*
X106098836Y-77380924D01*
X106619076Y-77901164D01*
X107230814Y-78309914D01*
X107910541Y-78591466D01*
X108632135Y-78735000D01*
X109367865Y-78735000D01*
X110089459Y-78591466D01*
X110769186Y-78309914D01*
X111380924Y-77901164D01*
X111901164Y-77380924D01*
X112309914Y-76769186D01*
X112591466Y-76089459D01*
X112735000Y-75367865D01*
X112735000Y-74632135D01*
X112591466Y-73910541D01*
X112309914Y-73230814D01*
X111901164Y-72619076D01*
X111380924Y-72098836D01*
X110769186Y-71690086D01*
X110089459Y-71408534D01*
X109367865Y-71265000D01*
X108632135Y-71265000D01*
X107910541Y-71408534D01*
X107230814Y-71690086D01*
X106619076Y-72098836D01*
X106098836Y-72619076D01*
X105690086Y-73230814D01*
X105408534Y-73910541D01*
X105265000Y-74632135D01*
X72735000Y-74632135D01*
X72591466Y-73910541D01*
X72309914Y-73230814D01*
X71901164Y-72619076D01*
X71380924Y-72098836D01*
X70769186Y-71690086D01*
X70089459Y-71408534D01*
X69367865Y-71265000D01*
X68632135Y-71265000D01*
X67910541Y-71408534D01*
X67230814Y-71690086D01*
X66619076Y-72098836D01*
X66098836Y-72619076D01*
X65690086Y-73230814D01*
X65408534Y-73910541D01*
X65265000Y-74632135D01*
X64720553Y-74632135D01*
X64755875Y-74236363D01*
X64958180Y-73496860D01*
X65288242Y-72804872D01*
X65735629Y-72182267D01*
X66286195Y-71648732D01*
X66922544Y-71221124D01*
X67624561Y-70912959D01*
X68375320Y-70732717D01*
X69025112Y-70685000D01*
X109033647Y-70685000D01*
X109058620Y-70682540D01*
X109780583Y-70629523D01*
X109796546Y-70626909D01*
X109812709Y-70626401D01*
X109890325Y-70612436D01*
X110754708Y-70404916D01*
X110775134Y-70398042D01*
X110796215Y-70393561D01*
X110870121Y-70366076D01*
X110870132Y-70366072D01*
X110870136Y-70366070D01*
X111684103Y-70008763D01*
X111702989Y-69998380D01*
X111722943Y-69990237D01*
X111790824Y-69950093D01*
X112528658Y-69454290D01*
X112545408Y-69440726D01*
X112563605Y-69429178D01*
X112623284Y-69377663D01*
X112623303Y-69377648D01*
X112623308Y-69377642D01*
X113261677Y-68759020D01*
X113275762Y-68742702D01*
X113291623Y-68728117D01*
X113341253Y-68666830D01*
X113859988Y-67944934D01*
X113870960Y-67926381D01*
X113883989Y-67909216D01*
X113921982Y-67840108D01*
X114304682Y-67037761D01*
X114312195Y-67017560D01*
X114321979Y-66998357D01*
X114347133Y-66923614D01*
X114581701Y-66066177D01*
X114585518Y-66044960D01*
X114591746Y-66024333D01*
X114603267Y-65946317D01*
X114682024Y-65063861D01*
X114685000Y-65033647D01*
X114685000Y-55030506D01*
X114755875Y-54236363D01*
X114958180Y-53496860D01*
X115288242Y-52804872D01*
X115735629Y-52182267D01*
X116286195Y-51648732D01*
X116922544Y-51221124D01*
X117624561Y-50912959D01*
X118375320Y-50732717D01*
X119025112Y-50685000D01*
X228969494Y-50685000D01*
X229763637Y-50755875D01*
M02*
