%FSLAX45Y45*%
G04 Gerber Fmt 4.5, Leading zero omitted, Abs format (unit mm)*
G04 Created by KiCad (PCBNEW (5.1.6)-1) date 2021-12-25 16:32:58*
%MOMM*%
%LPD*%
G01*
G04 APERTURE LIST*
%TA.AperFunction,Profile*%
%ADD10C,0.100000*%
%TD*%
%ADD11C,0.200000*%
%ADD12C,0.300000*%
G04 APERTURE END LIST*
D10*
X6400000Y-7500000D02*
G75*
G02*
X6900000Y-7000000I500000J0D01*
G01*
X10900000Y-7000000D02*
X6900000Y-7000000D01*
X11400000Y-6500000D02*
G75*
G02*
X10900000Y-7000000I-500000J0D01*
G01*
X11400000Y-5500000D02*
X11400000Y-6500000D01*
X11400000Y-5500000D02*
G75*
G02*
X11900000Y-5000000I500000J0D01*
G01*
X22900000Y-5000000D02*
X11900000Y-5000000D01*
X22900000Y-5000000D02*
G75*
G02*
X23400000Y-5500000I0J-500000D01*
G01*
X23400000Y-13500000D02*
X23400000Y-5500000D01*
X23400000Y-13500000D02*
G75*
G02*
X22900000Y-14000000I-500000J0D01*
G01*
X11900000Y-14000000D02*
X22900000Y-14000000D01*
X11900000Y-14000000D02*
G75*
G02*
X11400000Y-13500000I0J500000D01*
G01*
X11400000Y-12500000D02*
X11400000Y-13500000D01*
X10900000Y-12000000D02*
G75*
G02*
X11400000Y-12500000I0J-500000D01*
G01*
X6900000Y-12000000D02*
X10900000Y-12000000D01*
X6900000Y-12000000D02*
G75*
G02*
X6400000Y-11500000I0J500000D01*
G01*
X6400000Y-7500000D02*
X6400000Y-11500000D01*
D11*
X10690000Y-11290000D02*
X11110000Y-11710000D01*
X11110000Y-11290000D02*
X10690000Y-11710000D01*
X10690000Y-7290000D02*
X11110000Y-7710000D01*
X11110000Y-7290000D02*
X10690000Y-7710000D01*
X6690000Y-7290000D02*
X7110000Y-7710000D01*
X7110000Y-7290000D02*
X6690000Y-7710000D01*
X6690000Y-11290000D02*
X7110000Y-11710000D01*
X7110000Y-11290000D02*
X6690000Y-11710000D01*
D12*
X6681428Y-14470714D02*
X6681428Y-14170714D01*
X6752857Y-14170714D01*
X6795714Y-14185000D01*
X6824286Y-14213572D01*
X6838571Y-14242143D01*
X6852857Y-14299286D01*
X6852857Y-14342143D01*
X6838571Y-14399286D01*
X6824286Y-14427857D01*
X6795714Y-14456429D01*
X6752857Y-14470714D01*
X6681428Y-14470714D01*
X6981428Y-14470714D02*
X6981428Y-14270714D01*
X6981428Y-14327857D02*
X6995714Y-14299286D01*
X7010000Y-14285000D01*
X7038571Y-14270714D01*
X7067143Y-14270714D01*
X7167143Y-14470714D02*
X7167143Y-14270714D01*
X7167143Y-14170714D02*
X7152857Y-14185000D01*
X7167143Y-14199286D01*
X7181428Y-14185000D01*
X7167143Y-14170714D01*
X7167143Y-14199286D01*
X7352857Y-14470714D02*
X7324286Y-14456429D01*
X7310000Y-14427857D01*
X7310000Y-14170714D01*
X7510000Y-14470714D02*
X7481428Y-14456429D01*
X7467143Y-14427857D01*
X7467143Y-14170714D01*
X7852857Y-14470714D02*
X7852857Y-14170714D01*
X7952857Y-14385000D01*
X8052857Y-14170714D01*
X8052857Y-14470714D01*
X8324286Y-14470714D02*
X8324286Y-14313572D01*
X8310000Y-14285000D01*
X8281428Y-14270714D01*
X8224286Y-14270714D01*
X8195714Y-14285000D01*
X8324286Y-14456429D02*
X8295714Y-14470714D01*
X8224286Y-14470714D01*
X8195714Y-14456429D01*
X8181428Y-14427857D01*
X8181428Y-14399286D01*
X8195714Y-14370714D01*
X8224286Y-14356429D01*
X8295714Y-14356429D01*
X8324286Y-14342143D01*
X8467143Y-14270714D02*
X8467143Y-14570714D01*
X8467143Y-14285000D02*
X8495714Y-14270714D01*
X8552857Y-14270714D01*
X8581428Y-14285000D01*
X8595714Y-14299286D01*
X8610000Y-14327857D01*
X8610000Y-14413572D01*
X8595714Y-14442143D01*
X8581428Y-14456429D01*
X8552857Y-14470714D01*
X8495714Y-14470714D01*
X8467143Y-14456429D01*
X8738571Y-14442143D02*
X8752857Y-14456429D01*
X8738571Y-14470714D01*
X8724286Y-14456429D01*
X8738571Y-14442143D01*
X8738571Y-14470714D01*
X8738571Y-14285000D02*
X8752857Y-14299286D01*
X8738571Y-14313572D01*
X8724286Y-14299286D01*
X8738571Y-14285000D01*
X8738571Y-14313572D01*
X5975000Y-14755000D02*
X6395000Y-15175000D01*
X6395000Y-14755000D02*
X5975000Y-15175000D01*
X6810000Y-14900714D02*
X6810000Y-15100714D01*
X6738571Y-14786429D02*
X6667143Y-15000714D01*
X6852857Y-15000714D01*
X6967143Y-15072143D02*
X6981428Y-15086429D01*
X6967143Y-15100714D01*
X6952857Y-15086429D01*
X6967143Y-15072143D01*
X6967143Y-15100714D01*
X7095714Y-14829286D02*
X7110000Y-14815000D01*
X7138571Y-14800714D01*
X7210000Y-14800714D01*
X7238571Y-14815000D01*
X7252857Y-14829286D01*
X7267143Y-14857857D01*
X7267143Y-14886429D01*
X7252857Y-14929286D01*
X7081428Y-15100714D01*
X7267143Y-15100714D01*
X7452857Y-14800714D02*
X7481428Y-14800714D01*
X7510000Y-14815000D01*
X7524286Y-14829286D01*
X7538571Y-14857857D01*
X7552857Y-14915000D01*
X7552857Y-14986429D01*
X7538571Y-15043572D01*
X7524286Y-15072143D01*
X7510000Y-15086429D01*
X7481428Y-15100714D01*
X7452857Y-15100714D01*
X7424286Y-15086429D01*
X7410000Y-15072143D01*
X7395714Y-15043572D01*
X7381428Y-14986429D01*
X7381428Y-14915000D01*
X7395714Y-14857857D01*
X7410000Y-14829286D01*
X7424286Y-14815000D01*
X7452857Y-14800714D01*
X7681428Y-15100714D02*
X7681428Y-14900714D01*
X7681428Y-14929286D02*
X7695714Y-14915000D01*
X7724286Y-14900714D01*
X7767143Y-14900714D01*
X7795714Y-14915000D01*
X7810000Y-14943572D01*
X7810000Y-15100714D01*
X7810000Y-14943572D02*
X7824286Y-14915000D01*
X7852857Y-14900714D01*
X7895714Y-14900714D01*
X7924286Y-14915000D01*
X7938571Y-14943572D01*
X7938571Y-15100714D01*
X8081428Y-15100714D02*
X8081428Y-14900714D01*
X8081428Y-14929286D02*
X8095714Y-14915000D01*
X8124286Y-14900714D01*
X8167143Y-14900714D01*
X8195714Y-14915000D01*
X8210000Y-14943572D01*
X8210000Y-15100714D01*
X8210000Y-14943572D02*
X8224286Y-14915000D01*
X8252857Y-14900714D01*
X8295714Y-14900714D01*
X8324286Y-14915000D01*
X8338571Y-14943572D01*
X8338571Y-15100714D01*
X8924286Y-14786429D02*
X8667143Y-15172143D01*
X9310000Y-14800714D02*
X9338571Y-14800714D01*
X9367143Y-14815000D01*
X9381428Y-14829286D01*
X9395714Y-14857857D01*
X9410000Y-14915000D01*
X9410000Y-14986429D01*
X9395714Y-15043572D01*
X9381428Y-15072143D01*
X9367143Y-15086429D01*
X9338571Y-15100714D01*
X9310000Y-15100714D01*
X9281428Y-15086429D01*
X9267143Y-15072143D01*
X9252857Y-15043572D01*
X9238571Y-14986429D01*
X9238571Y-14915000D01*
X9252857Y-14857857D01*
X9267143Y-14829286D01*
X9281428Y-14815000D01*
X9310000Y-14800714D01*
X9538571Y-15072143D02*
X9552857Y-15086429D01*
X9538571Y-15100714D01*
X9524286Y-15086429D01*
X9538571Y-15072143D01*
X9538571Y-15100714D01*
X9838571Y-15100714D02*
X9667143Y-15100714D01*
X9752857Y-15100714D02*
X9752857Y-14800714D01*
X9724286Y-14843572D01*
X9695714Y-14872143D01*
X9667143Y-14886429D01*
X10095714Y-14800714D02*
X10038571Y-14800714D01*
X10010000Y-14815000D01*
X9995714Y-14829286D01*
X9967143Y-14872143D01*
X9952857Y-14929286D01*
X9952857Y-15043572D01*
X9967143Y-15072143D01*
X9981428Y-15086429D01*
X10010000Y-15100714D01*
X10067143Y-15100714D01*
X10095714Y-15086429D01*
X10110000Y-15072143D01*
X10124286Y-15043572D01*
X10124286Y-14972143D01*
X10110000Y-14943572D01*
X10095714Y-14929286D01*
X10067143Y-14915000D01*
X10010000Y-14915000D01*
X9981428Y-14929286D01*
X9967143Y-14943572D01*
X9952857Y-14972143D01*
X10395714Y-14800714D02*
X10252857Y-14800714D01*
X10238571Y-14943572D01*
X10252857Y-14929286D01*
X10281428Y-14915000D01*
X10352857Y-14915000D01*
X10381428Y-14929286D01*
X10395714Y-14943572D01*
X10410000Y-14972143D01*
X10410000Y-15043572D01*
X10395714Y-15072143D01*
X10381428Y-15086429D01*
X10352857Y-15100714D01*
X10281428Y-15100714D01*
X10252857Y-15086429D01*
X10238571Y-15072143D01*
X10524286Y-14800714D02*
X10524286Y-14857857D01*
X10638571Y-14800714D02*
X10638571Y-14857857D01*
X11081428Y-15215000D02*
X11067143Y-15200714D01*
X11038571Y-15157857D01*
X11024286Y-15129286D01*
X11010000Y-15086429D01*
X10995714Y-15015000D01*
X10995714Y-14957857D01*
X11010000Y-14886429D01*
X11024286Y-14843572D01*
X11038571Y-14815000D01*
X11067143Y-14772143D01*
X11081428Y-14757857D01*
X11324286Y-14900714D02*
X11324286Y-15100714D01*
X11252857Y-14786429D02*
X11181428Y-15000714D01*
X11367143Y-15000714D01*
X11710000Y-15100714D02*
X11710000Y-14800714D01*
X11838571Y-15100714D02*
X11838571Y-14943572D01*
X11824286Y-14915000D01*
X11795714Y-14900714D01*
X11752857Y-14900714D01*
X11724286Y-14915000D01*
X11710000Y-14929286D01*
X12024286Y-15100714D02*
X11995714Y-15086429D01*
X11981428Y-15072143D01*
X11967143Y-15043572D01*
X11967143Y-14957857D01*
X11981428Y-14929286D01*
X11995714Y-14915000D01*
X12024286Y-14900714D01*
X12067143Y-14900714D01*
X12095714Y-14915000D01*
X12110000Y-14929286D01*
X12124286Y-14957857D01*
X12124286Y-15043572D01*
X12110000Y-15072143D01*
X12095714Y-15086429D01*
X12067143Y-15100714D01*
X12024286Y-15100714D01*
X12295714Y-15100714D02*
X12267143Y-15086429D01*
X12252857Y-15057857D01*
X12252857Y-14800714D01*
X12524286Y-15086429D02*
X12495714Y-15100714D01*
X12438571Y-15100714D01*
X12410000Y-15086429D01*
X12395714Y-15057857D01*
X12395714Y-14943572D01*
X12410000Y-14915000D01*
X12438571Y-14900714D01*
X12495714Y-14900714D01*
X12524286Y-14915000D01*
X12538571Y-14943572D01*
X12538571Y-14972143D01*
X12395714Y-15000714D01*
X12652857Y-15086429D02*
X12681428Y-15100714D01*
X12738571Y-15100714D01*
X12767143Y-15086429D01*
X12781428Y-15057857D01*
X12781428Y-15043572D01*
X12767143Y-15015000D01*
X12738571Y-15000714D01*
X12695714Y-15000714D01*
X12667143Y-14986429D01*
X12652857Y-14957857D01*
X12652857Y-14943572D01*
X12667143Y-14915000D01*
X12695714Y-14900714D01*
X12738571Y-14900714D01*
X12767143Y-14915000D01*
X12881428Y-15215000D02*
X12895714Y-15200714D01*
X12924286Y-15157857D01*
X12938571Y-15129286D01*
X12952857Y-15086429D01*
X12967143Y-15015000D01*
X12967143Y-14957857D01*
X12952857Y-14886429D01*
X12938571Y-14843572D01*
X12924286Y-14815000D01*
X12895714Y-14772143D01*
X12881428Y-14757857D01*
M02*
